<svg width="128" height="128" viewBox="0 0 128 128" fill="none" xmlns="http://www.w3.org/2000/svg">
<g clip-path="url(#clip0_7731_6099)">
<path d="M86.2308 17.5049C86.7463 15.9294 88.8445 15.6289 89.7815 16.9963L95.804 25.7858C96.1761 26.3288 96.7915 26.654 97.4498 26.6553L108.105 26.677C109.762 26.6804 110.696 28.5831 109.686 29.8968L103.187 38.3406C102.786 38.8623 102.667 39.5481 102.869 40.1745L106.141 50.3146C106.65 51.8921 105.129 53.3686 103.567 52.8131L93.5285 49.2422C92.9083 49.0216 92.2193 49.1203 91.686 49.5061L83.0533 55.7513C81.7102 56.7229 79.8361 55.7327 79.8818 54.0757L80.1758 43.4249C80.194 42.7669 79.8872 42.1421 79.3554 41.7541L70.7483 35.4738C69.4092 34.4967 69.7717 32.4083 71.3618 31.9397L81.5821 28.9281C82.2135 28.742 82.713 28.2572 82.9177 27.6315L86.2308 17.5049Z" fill="white"/>
<path d="M15.2317 38.4566C15.7472 36.8811 17.8454 36.5806 18.7824 37.948L23.6835 45.1008C24.0555 45.6438 24.671 45.969 25.3293 45.9704L34 45.988C35.6577 45.9914 36.5919 47.8941 35.581 49.2078L30.2928 56.0793C29.8913 56.6009 29.7722 57.2868 29.9744 57.9132L32.637 66.1651C33.1461 67.7427 31.6252 69.2191 30.0634 68.6636L21.894 65.7576C21.2738 65.537 20.5848 65.6357 20.0515 66.0215L13.0263 71.1038C11.6832 72.0754 9.80902 71.0852 9.85476 69.4282L10.094 60.7607C10.1122 60.1027 9.8054 59.4779 9.27364 59.0899L2.26921 53.979C0.930111 53.002 1.29268 50.9135 2.88275 50.445L11.2 47.9941C11.8314 47.808 12.3308 47.3232 12.5355 46.6976L15.2317 38.4566Z" fill="white"/>
<path fill-rule="evenodd" clip-rule="evenodd" d="M294.573 461.203C296.322 463.314 297.457 465.826 298.524 468.76L297.77 470.682C297.104 472.37 286.217 467.072 282.631 462.211C286.785 462.527 290.305 462.275 294.573 461.203ZM308.379 452.631C310.825 452.9 314 458.307 313.565 461.607C310.207 464.589 303.152 462.201 298.775 459.623L308.379 452.631ZM240.816 416.273C256.559 420.277 272.126 422.11 288.039 420.2L300.887 418.046C302.955 417.699 304.605 417.977 306.055 419.626C308.527 422.434 311.248 425.407 312.137 429.184C315.268 442.489 304.279 456.459 290.16 458.932V458.929C284.747 459.876 279.618 459.115 274.656 457.253C262.064 452.53 250.069 438.2 244.992 426.168L240.816 416.273ZM320.701 443.093L320.704 443.091C321.277 443.673 321.874 445.362 322.108 446.065C322.892 448.418 321.606 450.93 318.778 451.179C316.089 451.416 313.014 450.503 310.964 449.237L315.777 438.107L320.701 443.093ZM141.078 427.345C146.668 429.76 151.949 431.088 157.812 429.748C158.361 435.435 154.789 443.829 150.866 443.304C149.808 443.162 148.53 442.312 147.563 441.468C144.18 437.463 142.043 432.852 141.078 427.345ZM169.775 425.593C171.182 428.834 171.865 432.58 170.833 436.252C169.82 439.849 163.717 435.311 161.49 429.619L169.775 425.593ZM421.271 426.452C423.425 429.312 425.644 433.081 424.29 435.711C422.952 438.31 413.466 433.374 409.553 428.453H409.55C413.444 428.482 417.057 427.886 421.271 426.452ZM135.604 423.41C136.378 424.322 137.954 425.321 137.302 427.221C136.244 430.303 134.891 432.676 132.933 435.388C129.316 431.441 128.685 421.783 129.263 415.933V415.93L135.604 423.41ZM436.106 415.298C440.153 417.524 444.429 422.52 442.666 425.732C440.453 429.76 430.784 427.888 425.354 424.667C429.747 421.814 432.717 419.077 436.106 415.298ZM143.43 356.873C151.079 364.142 158.66 370.387 166.687 376.814L182.611 388.141L182.613 388.138C184.471 389.461 184.871 390.475 184.25 392.712L180.2 407.292C179.108 411.222 176.836 414.48 174.168 417.737C169.06 423.972 161.745 426.895 153.967 427.029C146.796 427.154 140.459 424.688 135.858 419.135C123.417 404.11 132.302 385.533 138.561 369.415L143.43 356.873ZM99.8428 4.20905C119.119 0.559145 138.114 5.53733 155.131 14.5059C165.379 19.9058 174.68 25.96 183.32 33.6719C191.407 40.891 198.933 52.1262 203.916 61.8272C206.627 67.1025 208.445 72.5129 209.998 78.2764C215.149 97.3772 223.64 114.863 235.688 130.495L246.776 144.883C259.29 161.121 275.175 174.375 293.608 183.564C304.631 189.057 316.007 192.784 327.98 195.496C337.534 197.66 346.517 199.824 355.392 204.108C362.592 207.581 369.143 211.95 375.168 217.277L386.869 228.961C393.121 236.139 398.389 243.797 402.725 252.274C409.203 264.939 415.458 284.208 415.501 298.157L415.527 306.346C415.544 311.406 414.412 316.258 412.886 321.081L409.639 331.333C409.018 333.291 408.526 336.195 409.147 338.279C413.831 354.039 418.848 366.017 429.825 378.36C432.147 380.972 434.216 383.598 435.948 386.582L435.953 386.585C443.275 399.201 437.477 411.686 426.151 420.1C414.45 428.788 398.018 425.77 386.04 418.362C366.69 406.394 351.252 385.057 344.579 363.297L342.656 357.028C340.255 349.199 339.039 341.381 338.444 333.116C338.191 327.377 338.399 321.847 335.948 316.119C333.853 341.47 338.433 363.733 350.803 385.66C345.136 393.978 332.665 402.502 323.649 406.892C293.116 421.758 258.671 419.855 227.275 407.969C217.292 404.187 208.18 399.524 198.896 394.251C187.141 387.571 176.397 379.87 165.767 371.567L148.227 356.581L140.176 348.812L123.856 332.168L113.386 320.53C95.7672 300.953 70.0594 264.947 56.1387 242.04C51.6524 234.656 48.6126 227.02 44.96 219.174C35.796 199.489 21.4938 183.044 14.6182 167.752C6.73228 150.209 1.98003 127.64 3.17678 108.381C3.45866 103.836 3.89151 99.4192 4.5508 95.0176C13.3111 96.0465 27.1241 92.6304 30.003 85.9503C32.2409 80.7494 24.5534 78.0567 17.8096 77.877L8.49221 79.2266L9.54689 76.0928C11.5729 76.8084 13.9365 76.6169 15.9571 75.1553L21.7031 70.9962L28.3877 73.3751C31.6017 74.5182 34.7648 73.2013 36.4649 70.8008C38.2824 79.0377 39.1975 87.3057 39.6084 95.8458C39.7494 98.7943 40.4857 102.069 41.8662 104.802C44.53 110.077 50.6561 111.907 55.9571 110.471C69.2152 106.875 75.4602 91.9031 76.8125 78.6309L76.8145 78.6329C77.7317 69.6237 75.1307 60.1328 71.9248 51.1739L65.083 54.5362C56.7983 58.6052 47.5975 60.4178 38.3692 61.5069C37.6818 61.5879 37.0524 61.6223 36.461 61.7344L35.2178 57.879L39.543 52.2579C43.0814 47.6601 39.8124 41.0004 34.0108 40.9883L30.1885 40.9796C31.4987 39.7423 32.7623 38.4329 33.75 36.7501C51.6888 18.7073 75.0095 8.91249 99.8428 4.20905ZM442.681 400.027C443.739 399.839 444.861 400.788 445.681 401.738H445.684C447.296 403.61 449.119 405.394 449.814 407.924C450.504 410.429 449.226 412.413 447.026 412.814C444.174 413.33 441.156 413.18 438.029 412.563C440.308 408.343 441.931 404.793 442.681 400.027ZM54.4512 362.315C57.7884 365.276 61.0268 367.053 65.0352 368.137C62.8444 374.635 55.8992 384.633 52.5498 379.105C51.162 373.511 51.8832 367.806 54.4512 362.315ZM81.832 366.911C81.5691 372.255 77.1234 380.171 74.4024 379.904C71.0222 379.571 68.3227 373.441 68.5567 368.716H68.5586C73.2359 369.439 77.2575 368.153 81.832 366.911ZM80.7402 286.46C81.5116 286.802 82.5293 287.424 82.9356 287.975C93.5759 302.403 104.556 315.997 116.546 329.478C116.581 330.712 115.254 331.814 114.279 332.618C110.913 335.39 108.259 338.665 105.562 342.052L99.6133 349.522C92.0212 359.057 80.9593 366.73 68.3506 365.624C62.4979 365.109 57.5238 361.796 54.2031 356.882C45.9234 344.629 49.0692 327.486 56.501 314.925C59.7977 309.353 63.3338 304.108 67.8584 299.522L80.7402 286.462V286.46ZM260.299 262.043C259.016 264.049 258.664 266.115 258.036 268.47C252.322 289.876 251.489 313.802 263.462 333.143C262.249 341.834 266.083 358.71 273.386 358.292C276.357 358.122 278.254 355.539 279.387 352.969L284.143 358.737C287.822 363.196 294.122 367.78 297.813 364.255C299.472 362.668 299.2 359.999 299.425 357.637C304.267 360.667 309.51 363.268 312.787 359.996C315.937 356.853 313.391 350.927 310.656 346.573C309.491 344.716 309.913 343.746 311.38 342.114C315.491 337.538 317.766 331.56 317.835 325.421L318.138 298.385C318.2 292.796 319.514 287.57 321 282.262H320.998C321.834 279.277 322.158 276.364 321.439 273.059C318.91 279.595 315.773 286.219 315.658 293.399L315.312 314.898L315.027 321.65C315.297 332.919 309.067 343.478 298.386 347.562C290.457 350.592 282.033 348.035 275.765 342.732C271.902 339.462 269.032 335.826 266.335 331.496C256.199 315.222 255.886 294.342 259.51 275.67C260.391 271.13 260.891 266.94 260.299 262.043ZM282.174 350.712C286.218 351.928 289.573 352.433 293.524 352.332C296.233 353.685 296.985 359.312 295.646 361.88C294.138 364.775 284.921 356.03 282.174 350.712ZM46.668 339.648C46.4363 346.31 47.9607 352.459 51.3672 358.359C49.2413 359.917 47.0406 360.581 44.5469 360.82C42.5189 360.653 40.3046 359.295 40.3115 356.885C40.3283 350.753 42.4637 344.598 46.668 339.648ZM310.594 353.404C311.16 354.549 311.045 356.72 310.524 358.173C306.368 358.996 300.658 354.96 297.923 351.506C301.673 349.883 304 348.722 307.163 346.478L310.594 353.404ZM266.185 337.57C269.71 341.648 272.796 345.26 277.15 348.086C277.423 350.707 276.598 353.046 274.276 355.018C273.006 355.207 271.32 354.637 270.71 353.546C267.985 348.659 266.173 343.551 266.185 337.57ZM266.185 337.57L266.183 337.568H266.185V337.57ZM200.39 219.638L199.828 229.268C198.416 241.168 196.123 252.591 193.88 264.336C192.494 271.588 192.126 278.442 193.667 285.723C193.961 287.106 193.954 289.029 193.477 290.369C190.342 299.151 193.283 309.256 199.098 308.445C200.304 308.275 201.786 307.27 203.438 306.083C204.556 309.932 205.565 313.989 208.259 316.842C210.383 319.089 213.436 319.479 215.71 317.352C217.599 315.58 218.752 312.945 219.657 310.506C221.547 312.906 223.406 315.21 225.673 316.675C228.563 318.541 231.579 317.869 233.413 314.913C237.873 307.725 233.848 299.287 236.279 297.202L236.284 297.205C250.123 285.335 254.78 264.927 256.104 247.375L256.933 236.384C257.308 231.439 255.248 226.558 253.905 222.087L253.473 242.341C252.675 252.853 251.129 263.024 247.835 273.051C245.434 280.358 241.647 286.726 236.542 292.301C228.823 300.728 216.938 303.636 206.757 298.373C200.9 295.345 197.468 289.799 196.314 283.433C194.47 273.258 196.615 264.752 198.799 254.536C200.624 245.989 201.826 237.719 202.49 229.047L202.514 221.239L201.014 211.878L200.39 219.638ZM217.323 304.422C217.414 308.398 215.581 314.498 212.638 315.224C209.458 316.008 206.278 307.734 206.522 301.954L217.323 304.422ZM232.127 300.28C232.457 304.388 232.886 308.891 230.992 312.998C230.225 314.656 227.586 314.077 226.425 313.13C223.764 310.689 221.881 307.5 220.849 304.072H220.852C224.862 303.323 228.09 302.147 232.127 300.28ZM195.717 291.729C198.28 295.091 200.254 297.638 203.409 300.094C202.85 302.21 201.424 303.915 199.668 305.276C195.056 306.393 194.057 297.447 195.717 291.729ZM-24.3847 285.328C-20.0611 287.36 -16.6341 288.921 -12.1719 290.056C-13.9993 293.933 -16.2701 297.84 -20.1972 300.08C-24.5183 302.544 -25.9779 292.836 -24.3847 285.328ZM-34.0674 273.102C-31.97 276.778 -30.0536 279.694 -27.1679 282.925C-28.2313 286.773 -33.1362 289.65 -36.9082 288.303H-36.9053C-38.0183 283.164 -36.2651 277.616 -34.0674 273.102ZM36.1162 210.166C38.9015 214.022 40.555 217.986 42.4541 222.213C46.3743 230.933 50.3447 239.359 55.4522 247.413V247.408L61.5615 257.04C45.6869 271.315 21.6983 286.541 0.591816 287.537C-17.005 288.368 -32.4378 280.454 -32.4931 262.249C-32.5122 255.784 -30.3787 249.522 -25.5771 245.137C-22.2876 242.133 -18.1159 240.45 -13.8183 239.253C-7.46635 237.484 -1.48872 235.806 4.57424 233.24C14.6651 228.97 23.5454 223.221 31.1231 215.351L36.1162 210.166ZM151.261 153.538C150.706 164.355 148.716 174.547 144.581 184.385L139.894 195.536L129.23 216.936C127.531 220.342 127.149 224.615 126.055 228.116C121.09 233.052 114.602 241.3 115.657 247.921C115.987 249.986 118.458 251.125 120.359 250.714L125.234 249.658C124.324 255.458 123.62 260.801 125.933 265.813C127.067 268.273 130.158 269.453 132.423 267.934C134.644 266.445 136.404 264.379 138.484 262.146C139.564 267.715 143.041 274.901 147.952 274.725C154.177 274.499 156.783 265.882 157.264 258.685H157.262C165.212 256.976 172.111 252.399 177.25 245.841C185.365 235.484 190.643 223.719 194.073 211.002C195.958 204.013 196.61 197.216 196.596 189.969C196.584 184.627 196.863 179.65 195.595 174.224C192.53 180.332 194.167 189.692 193.032 198.203C191.083 212.818 185.714 226.776 177.685 239.06C173.975 244.732 169.34 249.408 163.588 252.675C154.29 257.955 142.643 256.893 135.758 248.911C128.639 240.658 127.664 229.324 131.721 219.357C134.107 213.491 137.003 208.357 139.903 202.67C145.916 190.872 150.845 178.865 152.625 165.607C153.184 161.438 152.283 157.346 151.261 153.538ZM-35.164 256.066C-35.8591 260.547 -35.9882 263.985 -35.0781 268.453C-40.6658 272.68 -51.1309 273.575 -49.8994 268.149C-46.3399 262.625 -41.3942 257.965 -35.164 256.066ZM141.514 257.38C145.703 258.61 149.61 259.29 154.031 259.412C153.905 263.361 152.737 267.388 150.045 270.49C148.82 271.849 147.416 272.048 146.112 271.026V271.028C143.057 267.211 141.089 262.478 141.514 257.38ZM129.773 246.276C132.387 250.051 134.612 252.727 138.26 255.381C136.843 259.284 132.433 265.447 129.872 265.229C127.144 264.991 126.977 257.954 127.832 252.86L129.773 246.276ZM125.782 232.07C126.394 236.019 126.733 238.881 128.047 242.636C126.059 245.97 122.353 248.037 118.472 247.681C118.551 244.862 119.222 242.762 120.158 240.429L125.782 232.07ZM47.4278 92.3653C54.3365 85.5127 63.4414 80.4836 72.5479 84.2315C70.6534 94.7415 63.7947 106.98 52.4883 107.622C48.3869 107.854 45.5166 106.181 44.1787 102.644C41.9572 96.7606 43.5437 96.2161 47.4278 92.3653ZM93.9063 14.17C90.6267 9.38433 83.2826 10.4362 81.4785 15.9503L78.6553 24.5782L69.9492 27.1446C64.384 28.7845 63.1149 36.093 67.8018 39.5128L75.1328 44.8633L74.8838 53.9376C74.7237 59.7369 81.2827 63.2027 85.9834 59.8028L93.3389 54.4815L101.892 57.5235C102.06 57.5833 102.228 57.6361 102.396 57.6827C102.135 57.78 101.875 57.8805 101.615 57.9835C97.0812 59.7834 92.5159 62.5146 93.1367 66.6026C94.6449 76.5092 127.107 73.809 127.978 62.6505C128.213 59.6064 124.802 57.3516 122.215 56.588C117.885 55.3076 113.508 55.1452 109.217 55.8458C110.937 54.1054 111.773 51.4856 110.899 48.7794L108.112 40.1397L113.647 32.9464C117.186 28.3485 113.917 21.6898 108.115 21.6778L99.0371 21.6592L93.9063 14.17ZM49.9883 71.9063C46.2963 70.5016 44.9672 68.777 42.8574 65.2169C46.4294 64.4334 49.0031 64.1316 53.2598 63.96L49.9883 71.9063ZM34 45.9883C35.6574 45.9919 36.5916 47.8945 35.5811 49.2081L30.293 56.0792C29.8917 56.6008 29.7726 57.2868 29.9746 57.9132L32.6367 66.1651C33.1458 67.7426 31.6253 69.2195 30.0635 68.6641L21.8946 65.7579C21.2745 65.5373 20.5851 65.6359 20.0518 66.0216L13.0264 71.1036L12.8985 71.1895C12.333 71.5392 11.6911 71.5624 11.1426 71.3516L11.835 69.296L15.1387 60.8008C20.2116 53.0025 21.8077 50.4344 25.3682 45.9708L34 45.9883ZM86.2315 17.505C86.7471 15.9298 88.8453 15.6289 89.7822 16.9962L95.8037 25.7862C96.1756 26.329 96.7913 26.6537 97.4492 26.6553L108.105 26.6768L108.258 26.6827C109.819 26.7985 110.666 28.6249 109.687 29.8975L103.188 38.3409C102.786 38.8625 102.667 39.5486 102.869 40.1749L106.141 50.3155L106.183 50.462C106.555 51.9824 105.079 53.3508 103.566 52.8126L93.5283 49.2423C92.9083 49.0219 92.2188 49.1202 91.6856 49.5059L83.0537 55.751L82.9258 55.837C81.5951 56.6601 79.8379 55.681 79.8819 54.0762L80.1758 43.4249C80.1939 42.767 79.8872 42.1419 79.3555 41.754L70.749 35.4747C69.41 34.4976 69.7723 32.4081 71.3623 31.9395L81.582 28.9278C82.2134 28.7417 82.7133 28.2575 82.918 27.6319L86.2315 17.505Z" fill="white"/>
</g>
<defs>
<clipPath id="clip0_7731_6099">
<rect width="128" height="128" fill="white"/>
</clipPath>
</defs>
</svg>
