<svg width="64" height="64" viewBox="0 0 64 64" fill="none" xmlns="http://www.w3.org/2000/svg">
<g clip-path="url(#clip0_7731_6404)">
<path d="M87.436 5.74905C87.9911 4.05227 90.251 3.72859 91.2601 5.20133L99.1488 16.7144C99.5495 17.2992 100.212 17.6494 100.921 17.6508L114.878 17.6792C116.663 17.6829 117.669 19.7321 116.58 21.1469L108.068 32.2072C107.636 32.7691 107.508 33.5077 107.726 34.1824L112.011 47.4645C112.56 49.1635 110.922 50.7536 109.24 50.1553L96.0902 45.4779C95.4223 45.2403 94.6802 45.3466 94.1058 45.7622L82.7982 53.9425C81.3517 54.989 79.3332 53.9225 79.3825 52.1379L79.7676 38.1868C79.7871 37.4781 79.4567 36.8052 78.884 36.3873L67.6098 28.161C66.1676 27.1087 66.5581 24.8595 68.2706 24.3548L81.6579 20.41C82.3379 20.2096 82.8758 19.6874 83.0962 19.0136L87.436 5.74905Z" fill="white"/>
<path fill-rule="evenodd" clip-rule="evenodd" d="M154.007 242.806C154.934 243.925 155.535 245.256 156.101 246.811L155.702 247.83C155.35 248.725 149.578 245.916 147.678 243.34C149.88 243.508 151.745 243.374 154.007 242.806ZM161.324 238.264C162.62 238.407 164.302 241.272 164.072 243.021C162.292 244.601 158.554 243.335 156.235 241.969L161.324 238.264ZM125.521 218.998C133.863 221.12 142.113 222.091 150.545 221.079L157.353 219.938C158.449 219.754 159.323 219.901 160.091 220.774C161.402 222.262 162.844 223.838 163.315 225.839C164.974 232.89 159.151 240.293 151.669 241.603V241.602C148.801 242.104 146.082 241.701 143.453 240.714C136.78 238.212 130.424 230.617 127.734 224.241L125.521 218.998ZM167.853 233.21L167.854 233.209C168.158 233.517 168.475 234.413 168.599 234.786C169.014 236.032 168.333 237.362 166.835 237.495C165.409 237.62 163.779 237.136 162.693 236.465L165.244 230.568L167.853 233.21ZM72.6685 224.865C75.6306 226.144 78.4283 226.848 81.5347 226.138C81.8258 229.152 79.9336 233.6 77.855 233.322C77.2943 233.247 76.6167 232.796 76.1041 232.348C74.3117 230.226 73.1799 227.783 72.6685 224.865ZM87.8746 223.937C88.6201 225.654 88.9828 227.639 88.4361 229.585C87.8993 231.491 84.6648 229.086 83.4849 226.07L87.8746 223.937ZM221.146 224.392C222.288 225.908 223.464 227.904 222.747 229.298C222.037 230.675 217.01 228.06 214.936 225.453H214.935C216.998 225.468 218.913 225.152 221.146 224.392ZM69.7672 222.78C70.1774 223.263 71.0118 223.793 70.6666 224.799C70.1058 226.433 69.389 227.69 68.3511 229.126C66.4349 227.035 66.1005 221.917 66.4068 218.817V218.816L69.7672 222.78ZM229.007 218.481C231.152 219.661 233.418 222.308 232.484 224.01C231.311 226.145 226.187 225.153 223.309 223.446C225.637 221.934 227.211 220.484 229.007 218.481ZM73.9136 187.521C77.967 191.373 81.9845 194.682 86.2379 198.087L94.6773 204.089L94.6783 204.088C95.6628 204.79 95.8743 205.327 95.5455 206.512L93.4 214.239C92.8214 216.321 91.6166 218.048 90.2027 219.774C87.4962 223.078 83.6201 224.627 79.4986 224.698C75.6983 224.764 72.3401 223.457 69.9019 220.514C63.3095 212.553 68.0178 202.709 71.3345 194.168L73.9136 187.521ZM50.817 0.639186C61.0317 -1.29495 71.0976 1.34272 80.1148 6.09524C85.5456 8.95671 90.4744 12.1648 95.0533 16.2515C99.3385 20.077 103.327 26.0316 105.967 31.1724C107.404 33.9677 108.367 36.8342 109.19 39.8882C111.919 50.01 116.418 59.2762 122.802 67.5601L128.679 75.1841C135.31 83.7888 143.728 90.8128 153.496 95.6822C159.337 98.5931 165.366 100.567 171.711 102.004C176.773 103.151 181.533 104.299 186.236 106.569C190.051 108.409 193.524 110.724 196.716 113.547L202.917 119.738C206.23 123.542 209.021 127.601 211.319 132.093C214.752 138.804 218.067 149.015 218.089 156.407L218.103 160.746C218.112 163.427 217.512 165.999 216.703 168.554L214.983 173.987C214.654 175.024 214.392 176.563 214.721 177.668C217.204 186.018 219.863 192.366 225.679 198.907C226.91 200.291 228.007 201.683 228.924 203.264L228.927 203.265C232.807 209.951 229.735 216.567 223.733 221.026C217.532 225.63 208.825 224.031 202.477 220.105C192.223 213.763 184.042 202.456 180.506 190.925L179.488 187.603C178.216 183.454 177.571 179.311 177.255 174.931C177.121 171.89 177.231 168.959 175.932 165.924C174.822 179.358 177.249 191.156 183.804 202.776C180.801 207.183 174.193 211.701 169.416 214.027C153.236 221.905 134.982 220.896 118.345 214.597C113.055 212.593 108.226 210.123 103.307 207.329C97.0775 203.789 91.384 199.707 85.7505 195.307L76.4556 187.366L72.19 183.249L63.5425 174.429L57.9937 168.262C48.6573 157.888 35.0335 138.807 27.6568 126.668C25.2796 122.756 23.6694 118.71 21.7339 114.552C16.8777 104.121 9.29826 95.4061 5.65484 87.3023C1.47609 78.0063 -1.04181 66.0467 -0.407658 55.8413C-0.258276 53.4327 -0.0295067 51.0918 0.319881 48.7593C4.96211 49.3046 12.2816 47.4946 13.8072 43.9546C14.993 41.1986 10.9198 39.7715 7.34625 39.6763L2.40875 40.3921L2.69976 39.5269C3.24931 39.4226 3.7945 39.1962 4.30133 38.8296L8.50445 35.7876L13.3921 37.5269C14.897 38.0622 16.3829 37.6527 17.4039 36.732C18.2533 40.8309 18.6937 44.9514 18.898 49.1988C18.9727 50.7613 19.3627 52.4965 20.0943 53.9449C21.5058 56.7402 24.752 57.7096 27.5611 56.9488C34.587 55.0435 37.8963 47.1089 38.6129 40.0757L38.6138 40.0777C39.0999 35.3034 37.7219 30.2735 36.023 25.5259L32.397 27.3081C28.0068 29.4643 23.131 30.4244 18.2408 31.0015C18.1745 31.0093 18.1088 31.0154 18.0445 31.022L16.94 27.5991L20.1041 23.4878C22.1234 20.8638 20.2578 17.0632 16.9468 17.0562L16.6353 17.0552C23.4676 10.4804 31.6934 6.06134 40.5894 3.21048L39.5103 6.51028L33.2798 8.34622C30.1041 9.28235 29.3798 13.4541 32.0543 15.4058L37.3013 19.2349L37.1226 25.7271C37.0313 29.0369 40.7749 31.0152 43.4576 29.0747L48.7193 25.2671L54.8404 27.4439C57.9599 28.5534 60.9974 25.6046 59.981 22.4536L57.9869 16.272L61.9478 11.1245C63.9671 8.5006 62.1014 4.69909 58.7906 4.69192L52.2945 4.67923L49.6783 0.861843C50.0569 0.785326 50.4369 0.711162 50.817 0.639186ZM232.492 210.389C233.052 210.289 233.648 210.792 234.082 211.295H234.084C234.938 212.287 235.904 213.232 236.272 214.573C236.638 215.901 235.96 216.953 234.794 217.165C233.283 217.438 231.684 217.359 230.027 217.032C231.235 214.796 232.094 212.914 232.492 210.389ZM26.7632 190.405C28.5317 191.974 30.2475 192.915 32.3716 193.49C31.2108 196.933 27.5314 202.231 25.7564 199.302C25.0209 196.338 25.4024 193.314 26.7632 190.405ZM41.272 192.84C41.1327 195.673 38.7774 199.867 37.3355 199.725C35.5444 199.548 34.1139 196.3 34.2379 193.796H34.2388C36.7171 194.179 38.8482 193.499 41.272 192.84ZM40.6939 150.208C41.1027 150.389 41.6427 150.72 41.858 151.011C47.4963 158.657 53.3149 165.86 59.6685 173.003C59.6874 173.658 58.9828 174.241 58.4664 174.668C56.6829 176.136 55.2764 177.872 53.8472 179.667L50.6949 183.626C46.6718 188.678 40.8107 192.743 34.1295 192.158C31.0281 191.885 28.392 190.13 26.6324 187.526C22.2447 181.033 23.9118 171.948 27.8502 165.292C29.597 162.339 31.4702 159.56 33.8677 157.129L40.6939 150.21V150.208ZM135.844 137.269C135.165 138.332 134.979 139.427 134.646 140.674C131.618 152.018 131.176 164.697 137.521 174.946C136.878 179.551 138.91 188.494 142.78 188.273C144.354 188.183 145.36 186.814 145.96 185.452L148.48 188.508C150.43 190.871 153.768 193.3 155.724 191.432C156.604 190.591 156.46 189.177 156.579 187.925C159.145 189.531 161.922 190.91 163.659 189.176C165.328 187.511 163.979 184.37 162.53 182.063C161.912 181.079 162.137 180.565 162.914 179.7C165.092 177.275 166.297 174.107 166.334 170.854L166.495 156.527C166.528 153.565 167.224 150.796 168.011 147.983H168.01C168.453 146.401 168.626 144.857 168.245 143.106C166.904 146.57 165.242 150.08 165.181 153.885L164.998 165.278L164.846 168.856C164.989 174.828 161.688 180.422 156.028 182.586C151.826 184.192 147.362 182.838 144.041 180.027C141.994 178.294 140.473 176.367 139.044 174.073C133.672 165.449 133.507 154.384 135.427 144.49C135.894 142.084 136.158 139.864 135.844 137.269ZM147.437 184.255C149.58 184.9 151.358 185.167 153.452 185.114C154.887 185.831 155.286 188.813 154.576 190.174C153.777 191.709 148.893 187.074 147.437 184.255ZM22.6392 178.393C22.5164 181.923 23.3243 185.182 25.1295 188.308C24.0029 189.134 22.8366 189.486 21.5152 189.613C20.4405 189.524 19.2663 188.804 19.2701 187.527C19.279 184.277 20.4112 181.016 22.6392 178.393ZM162.497 185.682C162.797 186.288 162.735 187.44 162.46 188.21C160.257 188.645 157.231 186.507 155.782 184.677C157.769 183.817 159.003 183.202 160.679 182.012L162.497 185.682ZM138.964 177.293C140.832 179.453 142.468 181.366 144.775 182.864C144.919 184.252 144.483 185.493 143.253 186.538C142.579 186.638 141.685 186.336 141.362 185.757C139.918 183.168 138.958 180.461 138.964 177.293ZM138.964 177.293L138.962 177.291H138.964V177.293ZM104.098 114.798L103.801 119.901C103.053 126.207 101.838 132.26 100.649 138.484C99.9147 142.327 99.7192 145.959 100.536 149.818C100.691 150.551 100.687 151.569 100.434 152.279C98.7733 156.932 100.333 162.287 103.414 161.858C104.053 161.768 104.838 161.235 105.713 160.606C106.306 162.645 106.84 164.796 108.268 166.308C109.394 167.499 111.012 167.705 112.217 166.578C113.218 165.639 113.828 164.243 114.308 162.951C115.309 164.223 116.294 165.443 117.496 166.219C119.027 167.208 120.625 166.852 121.597 165.286C123.96 161.477 121.829 157.006 123.117 155.901L123.12 155.902C130.453 149.612 132.92 138.797 133.622 129.496L134.061 123.671C134.26 121.051 133.169 118.464 132.458 116.095L132.228 126.829C131.805 132.399 130.986 137.789 129.241 143.102C127.969 146.974 125.962 150.349 123.256 153.303C119.166 157.769 112.868 159.31 107.472 156.521C104.368 154.916 102.549 151.977 101.938 148.603C100.961 143.211 102.098 138.705 103.255 133.292C104.223 128.762 104.86 124.379 105.211 119.784L105.224 115.646L104.428 110.686L104.098 114.798ZM113.071 159.726C113.119 161.833 112.148 165.066 110.588 165.451C108.904 165.865 107.218 161.481 107.347 158.418L113.071 159.726ZM120.917 157.532C121.091 159.708 121.319 162.095 120.315 164.271C119.908 165.149 118.51 164.842 117.895 164.34C116.485 163.047 115.487 161.357 114.94 159.541H114.941C117.066 159.144 118.777 158.521 120.917 157.532ZM101.623 153C102.981 154.782 104.027 156.132 105.699 157.433C105.403 158.554 104.647 159.458 103.716 160.179C101.272 160.771 100.743 156.03 101.623 153ZM-15.0131 149.608C-12.722 150.685 -10.906 151.512 -8.54145 152.113C-9.50983 154.167 -10.7125 156.238 -12.7934 157.425C-15.0834 158.732 -15.8575 153.587 -15.0131 149.608ZM-20.144 143.128C-19.0325 145.077 -18.0169 146.622 -16.4877 148.335C-17.0511 150.374 -19.65 151.899 -21.6489 151.185H-21.6479C-22.2378 148.462 -21.3086 145.521 -20.144 143.128ZM17.0474 109.779C18.5233 111.822 19.3995 113.923 20.4058 116.163C22.4831 120.783 24.5871 125.248 27.2935 129.516V129.513L30.5308 134.618C22.1186 142.182 9.40683 150.251 -1.77777 150.779C-11.1024 151.219 -19.2806 147.025 -19.31 137.378C-19.3201 133.953 -18.1893 130.634 -15.645 128.31C-13.9018 126.718 -11.6908 125.827 -9.41352 125.193C-6.04764 124.256 -2.88014 123.366 0.332577 122.006C5.67983 119.744 10.3864 116.696 14.4019 112.526L17.0474 109.779ZM78.064 79.771C77.7703 85.5028 76.7153 90.9037 74.524 96.1167L72.0406 102.026L66.3892 113.366C65.4892 115.171 65.2864 117.435 64.7066 119.291C62.076 121.906 58.6384 126.277 59.1978 129.786C59.3728 130.88 60.6815 131.484 61.689 131.266L64.273 130.707C63.7907 133.78 63.4168 136.611 64.6422 139.267C65.2436 140.571 66.8816 141.195 68.0816 140.39C69.2588 139.601 70.191 138.507 71.2935 137.324C71.8657 140.275 73.7077 144.082 76.3101 143.989C79.6091 143.869 80.9912 139.303 81.2457 135.489H81.2437C85.4567 134.583 89.1135 132.158 91.8365 128.683C96.1368 123.195 98.9336 116.96 100.752 110.221C101.75 106.518 102.096 102.916 102.088 99.0757C102.082 96.245 102.229 93.6081 101.557 90.7329C99.9334 93.9698 100.8 98.9289 100.199 103.439C99.1658 111.184 96.3216 118.58 92.067 125.089C90.101 128.095 87.6445 130.573 84.5963 132.304C79.6692 135.102 73.4976 134.54 69.8492 130.31C66.077 125.937 65.5602 119.931 67.7095 114.65C68.9742 111.541 70.5087 108.82 72.0455 105.806C75.2318 99.5544 77.8435 93.192 78.7867 86.1665C79.0829 83.9571 78.6058 81.789 78.064 79.771ZM-20.725 134.102C-21.0934 136.476 -21.1614 138.298 -20.6791 140.666C-23.6402 142.906 -29.1868 143.38 -28.5336 140.504C-26.6474 137.577 -24.0264 135.108 -20.725 134.102ZM72.899 134.798C75.1192 135.45 77.1897 135.81 79.5328 135.875C79.4657 137.967 78.846 140.101 77.4195 141.745C76.7702 142.465 76.0276 142.57 75.3365 142.029V142.03C73.7175 140.007 72.6738 137.5 72.899 134.798ZM66.6783 128.914C68.0631 130.914 69.2415 132.332 71.1744 133.739C70.4237 135.807 68.0872 139.072 66.73 138.957C65.2847 138.83 65.1958 135.102 65.649 132.403L66.6783 128.914ZM64.5621 121.386C64.8861 123.479 65.0661 124.995 65.7623 126.985C64.709 128.751 62.7458 129.847 60.689 129.659C60.7308 128.165 61.0863 127.052 61.5826 125.815L64.5621 121.386ZM23.0416 47.354C26.7026 43.7228 31.5275 41.0575 36.3531 43.0435C35.3492 48.6129 31.7146 55.0987 25.7232 55.439C23.5497 55.5619 22.0288 54.6749 21.3199 52.8003C20.1428 49.6831 20.9833 49.3947 23.0416 47.354ZM62.6724 28.395C59.0013 27.3094 55.2645 27.7417 51.7554 29.1343C49.3529 30.0881 46.9342 31.5365 47.2632 33.7027C48.0627 38.9522 65.2652 37.521 65.7261 31.6079C65.851 29.9949 64.0433 28.7997 62.6724 28.395ZM4.60211 14.6402C4.89642 13.7412 6.09378 13.5698 6.62848 14.3501L10.0699 19.3726C10.2822 19.6822 10.633 19.8678 11.0084 19.8687L17.0972 19.8814C18.043 19.8836 18.5755 20.9687 17.9986 21.7183L14.2857 26.5435C14.0567 26.8412 13.9887 27.2329 14.1041 27.5904L15.9742 33.3843C16.2085 34.1114 15.6871 34.7994 15.0084 34.8706C14.8027 34.9227 14.5769 34.9194 14.3492 34.8384L8.61285 32.7984C8.44522 32.7388 8.2689 32.7206 8.09723 32.7407C7.96243 32.776 7.83341 32.8365 7.71734 32.9204L2.78473 36.4888C2.01833 37.0432 0.948372 36.4782 0.974178 35.5327L1.14312 29.4468C1.15349 29.0713 0.977854 28.7141 0.674374 28.4927L-4.2436 24.9048C-5.00774 24.3473 -4.80116 23.1548 -3.89399 22.8872L1.94683 21.1665C2.30698 21.0602 2.59178 20.7832 2.70855 20.4263L4.60211 14.6402ZM24.399 36.5132C22.4424 35.7688 21.7378 34.8541 20.6197 32.9673C22.5125 32.5522 23.8767 32.3932 26.1324 32.3023L24.399 36.5132ZM50.4488 7.03469L50.4908 7.09133C50.7056 7.36695 51.0362 7.52994 51.3882 7.53079L58.7847 7.54544L58.8716 7.54934C59.7625 7.61541 60.2449 8.65699 59.6861 9.38333L55.1763 15.2447C54.9472 15.5424 54.8794 15.934 54.9947 16.2915L57.2652 23.3296L57.2896 23.4136C57.502 24.2812 56.6599 25.0624 55.7964 24.7554L48.8287 22.2769C48.4749 22.1511 48.0812 22.2072 47.7769 22.4273L41.7847 26.7622C41.0183 27.3166 39.9492 26.7517 39.9752 25.8062L40.1793 18.4136C40.1896 18.0381 40.0139 17.6809 39.7105 17.4595L33.7369 13.1001C32.9728 12.5425 33.1792 11.351 34.0865 11.0835L41.1812 8.99368C41.5186 8.89414 41.7896 8.64434 41.9185 8.31985L41.9429 8.25344L43.9146 2.2261C44.8281 1.97652 45.7478 1.74174 46.6724 1.522L50.4488 7.03469Z" fill="white"/>
</g>
<defs>
<clipPath id="clip0_7731_6404">
<rect width="64" height="64" fill="white"/>
</clipPath>
</defs>
</svg>
