<svg width="32" height="32" viewBox="0 0 32 32" fill="none" xmlns="http://www.w3.org/2000/svg">
<g clip-path="url(#clip0_7732_6458)">
<path fill-rule="evenodd" clip-rule="evenodd" d="M77.4124 121.893C77.8773 122.455 78.1791 123.123 78.4631 123.903L78.2629 124.415C78.0852 124.863 75.1895 123.454 74.2356 122.161C75.3405 122.245 76.2769 122.178 77.4124 121.893ZM81.0852 119.612C81.7359 119.684 82.5807 121.123 82.4651 122.001C81.5716 122.794 79.6948 122.158 78.5305 121.472L81.0852 119.612ZM63.1116 109.94C67.2996 111.005 71.441 111.493 75.6741 110.985L79.092 110.412C79.6423 110.319 80.0814 110.394 80.467 110.833C81.1246 111.579 81.8478 112.37 82.0842 113.375C82.9173 116.914 79.9943 120.63 76.2385 121.288C74.7986 121.54 73.4334 121.338 72.1135 120.842C68.764 119.586 65.5735 115.774 64.2229 112.573L63.1116 109.94ZM84.3635 117.075C84.5159 117.23 84.6753 117.679 84.7375 117.866C84.9458 118.492 84.6039 119.16 83.8518 119.226C83.1363 119.289 82.318 119.046 81.7727 118.71L83.054 115.749L84.3635 117.075ZM36.5793 112.885C38.0663 113.528 39.4711 113.881 41.0305 113.525C41.1765 115.038 40.2261 117.271 39.1829 117.131C38.9014 117.094 38.5613 116.867 38.304 116.642C37.4042 115.577 36.8361 114.35 36.5793 112.885ZM44.2131 112.419C44.5874 113.282 44.7689 114.279 44.4944 115.255C44.2246 116.212 42.6014 115.005 42.009 113.491L44.2131 112.419ZM111.117 112.648C111.691 113.409 112.28 114.411 111.92 115.111C111.564 115.802 109.04 114.489 107.999 113.18C109.035 113.188 109.997 113.029 111.117 112.648ZM35.1223 111.838C35.3282 112.081 35.7474 112.347 35.5745 112.852C35.2929 113.672 34.9324 114.304 34.4114 115.025C33.4495 113.975 33.282 111.405 33.4358 109.849L35.1223 111.838ZM115.064 109.681C116.14 110.273 117.278 111.602 116.809 112.457C116.22 113.528 113.648 113.03 112.203 112.173C113.372 111.414 114.162 110.686 115.064 109.681ZM37.2043 94.1382C39.2391 96.0719 41.2557 97.7334 43.3909 99.4429L47.6282 102.456C48.1224 102.808 48.2289 103.077 48.0637 103.672L46.9866 107.551C46.6961 108.597 46.0918 109.463 45.3821 110.33C44.0235 111.988 42.0771 112.765 40.0081 112.801C38.1003 112.834 36.4137 112.179 35.1897 110.702C31.8803 106.705 34.2444 101.763 35.9094 97.4751L37.2043 94.1382ZM25.6086 0.320845C30.7366 -0.650112 35.7899 0.674281 40.3167 3.0601C43.043 4.49659 45.518 6.10717 47.8167 8.15874C49.9676 10.0791 51.9696 13.0675 53.2952 15.648C54.0164 17.0513 54.5003 18.4908 54.9133 20.024C56.2835 25.1052 58.5424 29.757 61.7473 33.9156L64.6975 37.7437C68.0264 42.0633 72.252 45.5893 77.1555 48.0337C80.0878 49.495 83.1149 50.4861 86.3 51.2076C88.8413 51.7832 91.2312 52.3589 93.592 53.4986C95.5074 54.4225 97.2501 55.5852 98.8528 57.0025L101.965 60.1099C103.628 62.0195 105.03 64.0568 106.184 66.3121C107.907 69.681 109.571 74.8072 109.582 78.5181L109.589 80.6968C109.594 82.0428 109.293 83.3338 108.887 84.6167L108.023 87.3443C107.858 87.8651 107.727 88.6375 107.892 89.1919C109.138 93.3841 110.473 96.5705 113.393 99.854C114.01 100.549 114.561 101.248 115.022 102.042L115.023 102.043C116.97 105.399 115.428 108.72 112.415 110.959C109.303 113.27 104.932 112.466 101.745 110.496C96.5977 107.312 92.4901 101.636 90.7151 95.8472L90.2034 94.1792C89.5648 92.0966 89.2415 90.0164 89.0833 87.8179C89.0159 86.2912 89.0711 84.82 88.4192 83.2964C87.8619 90.0403 89.0806 95.9631 92.3713 101.796C90.8639 104.009 87.5461 106.277 85.1477 107.445C77.0251 111.4 67.8611 110.893 59.509 107.731C56.8535 106.725 54.4296 105.484 51.9602 104.082C48.833 102.304 45.9747 100.256 43.1467 98.0474L38.4807 94.0601L36.3391 91.9937L31.9973 87.566L29.2122 84.4703C24.5252 79.2622 17.6859 69.6832 13.9827 63.5894C12.7892 61.6251 11.9807 59.5936 11.009 57.5064C8.57118 52.2698 4.76585 47.8949 2.93677 43.8267C0.839029 39.16 -0.424562 33.1559 -0.106199 28.0328C-0.0312138 26.8237 0.0836658 25.6489 0.259035 24.4781C2.58937 24.7517 6.26339 23.8428 7.02954 22.066C7.62486 20.6825 5.58033 19.9654 3.78638 19.9175L1.30786 20.2769L1.58814 19.4429C2.12712 19.6333 2.75571 19.5827 3.29321 19.1939L4.82154 18.0874L6.59986 18.7203C7.45489 19.0244 8.29703 18.6743 8.74927 18.0357C9.23274 20.2267 9.4759 22.4261 9.58521 24.6978C9.62272 25.4821 9.81862 26.3536 10.1858 27.0806C10.8944 28.4837 12.5238 28.9702 13.9338 28.5884C17.4608 27.6319 19.1229 23.6494 19.4827 20.1187H19.4836C19.7275 17.7222 19.0347 15.1972 18.1819 12.814L16.3616 13.7085C14.1577 14.7909 11.71 15.2733 9.25513 15.563C9.07258 15.5845 8.90537 15.5938 8.74829 15.6236L8.41724 14.5982L9.56763 13.1031C10.5089 11.8799 9.63932 10.1082 8.09595 10.105L7.07935 10.1021C7.42782 9.77295 7.7639 9.4247 8.02661 8.97709C12.7987 4.17741 19.0026 1.57211 25.6086 0.320845ZM116.813 105.619C117.094 105.569 117.394 105.821 117.612 106.074L117.939 106.446C118.265 106.821 118.572 107.215 118.71 107.719C118.894 108.386 118.554 108.914 117.969 109.02C117.21 109.158 116.407 109.117 115.575 108.953C116.182 107.83 116.613 106.886 116.813 105.619ZM13.5344 95.5865C14.4219 96.3737 15.2829 96.8469 16.3489 97.1353C15.7659 98.8641 13.9185 101.523 13.0276 100.052C12.6584 98.5643 12.8513 97.0471 13.5344 95.5865ZM20.8176 96.8082C20.7477 98.2299 19.5649 100.336 18.8411 100.265C17.9419 100.176 17.2242 98.5455 17.2864 97.2886L17.5178 97.3189C18.6651 97.4385 19.6767 97.118 20.8176 96.8082ZM20.5276 75.4068C20.7328 75.4979 21.0036 75.6638 21.1116 75.8101C23.942 79.6482 26.8635 83.2642 30.053 86.8501C30.0624 87.1786 29.7087 87.4722 29.4495 87.6861C28.5541 88.4234 27.8476 89.2949 27.1301 90.1958L25.5481 92.1832C23.5285 94.7197 20.5856 96.7602 17.2317 96.4664C15.6748 96.3294 14.3514 95.4473 13.468 94.1402C11.2655 90.8807 12.1023 86.3207 14.0793 82.979C14.9563 81.4968 15.8972 80.1014 17.1008 78.8814L20.5276 75.4078V75.4068ZM68.2942 68.9107C67.9529 69.4443 67.8598 69.9941 67.6926 70.6207C66.1725 76.3152 65.9508 82.6807 69.136 87.8257C68.8134 90.1378 69.8332 94.6269 71.7756 94.5162C72.5661 94.4708 73.0711 93.783 73.3723 93.0992L74.6379 94.6343C75.6166 95.8203 77.2918 97.0393 78.2737 96.1021C78.7153 95.68 78.6437 94.9698 78.7034 94.3414C79.9915 95.1474 81.3862 95.8396 82.2581 94.9693C83.096 94.1332 82.4183 92.5562 81.6907 91.398C81.3809 90.9042 81.4933 90.6463 81.8831 90.2124C82.9767 88.995 83.5824 87.4043 83.6008 85.771L83.6809 78.5787C83.6975 77.092 84.0464 75.7017 84.4417 74.2896C84.6641 73.4956 84.751 72.7206 84.5598 71.8414C83.8868 73.5803 83.0523 75.3423 83.0217 77.2525L82.9299 82.9722L82.8538 84.7681C82.9255 87.7657 81.2681 90.5742 78.427 91.6607C76.3178 92.4668 74.076 91.7875 72.4084 90.3765C71.381 89.5068 70.6181 88.539 69.9006 87.3873C67.2041 83.058 67.1211 77.503 68.0852 72.5357C68.3196 71.328 68.4518 70.2133 68.2942 68.9107ZM74.1145 92.4996C75.1899 92.8228 76.0823 92.9569 77.1331 92.9302C77.8535 93.2902 78.0539 94.787 77.6975 95.4703C77.2963 96.2401 74.8457 93.9144 74.1145 92.4996ZM11.4631 89.5562C11.4016 91.3281 11.807 92.9643 12.7131 94.5337C12.1477 94.948 11.5619 95.1244 10.8987 95.188C10.3593 95.1433 9.7699 94.7821 9.77173 94.1412C9.77624 92.51 10.3448 90.8729 11.4631 89.5562ZM81.6741 93.2154C81.8246 93.5198 81.794 94.0975 81.6555 94.4839C80.5498 94.7026 79.0307 93.6292 78.303 92.7105C79.3006 92.2788 79.9206 91.9698 80.762 91.3726L81.6741 93.2154ZM69.8606 89.0035C70.7982 90.088 71.6194 91.0486 72.7776 91.8003C72.85 92.4975 72.6306 93.1204 72.0129 93.6451C71.675 93.6953 71.2259 93.5436 71.0637 93.2535C70.3387 91.9535 69.8576 90.5943 69.8606 89.0035ZM52.3577 57.6304L52.2083 60.1919C51.8327 63.3578 51.222 66.3966 50.6252 69.521C50.2567 71.4503 50.1587 73.2736 50.5686 75.2105C50.6467 75.5785 50.6449 76.0903 50.5178 76.4468C49.6844 78.7827 50.4665 81.4705 52.0129 81.2554C52.3338 81.2101 52.7285 80.9423 53.1682 80.6265C53.4656 81.6502 53.7339 82.7299 54.4504 83.4888C55.0154 84.0865 55.8279 84.1905 56.4329 83.6246C56.9355 83.1534 57.2418 82.452 57.4827 81.8033C57.9853 82.4418 58.4802 83.0552 59.0833 83.4449C59.8519 83.941 60.6538 83.7619 61.1418 82.9761C62.3282 81.0641 61.2579 78.819 61.9045 78.2642L61.9055 78.2652C65.5869 75.1076 66.8258 69.6785 67.178 65.0093L67.3987 62.0845C67.4983 60.7693 66.9511 59.471 66.594 58.2818L66.4788 63.6695C66.2665 66.466 65.8551 69.1721 64.9788 71.8394C64.3401 73.7833 63.3329 75.4775 61.9749 76.9605C59.9215 79.2024 56.7595 79.9757 54.051 78.5757C52.4928 77.7702 51.5797 76.2948 51.2727 74.6011C50.7822 71.8945 51.353 69.632 51.9338 66.9146C52.4194 64.6408 52.7396 62.4402 52.9163 60.1333L52.9221 58.0562L52.5227 55.566L52.3577 57.6304ZM56.8616 80.1851C56.8856 81.2427 56.3982 82.8659 55.6155 83.0591C54.7697 83.2673 53.9238 81.0654 53.9885 79.5279L56.8616 80.1851ZM60.8 79.0835C60.8877 80.1761 61.0022 81.3738 60.4983 82.4664C60.2943 82.9072 59.5925 82.7534 59.2834 82.5015C58.5756 81.8521 58.0746 81.0031 57.8 80.0914L58.1917 80.0113C59.0854 79.8112 59.8605 79.518 60.8 79.0835ZM51.1145 76.8082C51.7963 77.7026 52.321 78.3805 53.1604 79.0337C53.0116 79.5963 52.6322 80.0495 52.1653 80.4117C50.9382 80.7089 50.6729 78.3293 51.1145 76.8082ZM-7.43823 75.105C-6.28831 75.6454 -5.37693 76.0611 -4.19018 76.3628C-4.67628 77.3942 -5.27951 78.4338 -6.32397 79.0298C-7.47358 79.6856 -7.86208 77.1025 -7.43823 75.105ZM-10.0144 71.8531C-9.45652 72.8309 -8.94701 73.6069 -8.17944 74.4664C-8.46243 75.4897 -9.76607 76.2546 -10.7693 75.897C-11.0654 74.53 -10.599 73.0539 -10.0144 71.8531ZM8.6565 55.1099C9.39738 56.1356 9.83689 57.1907 10.342 58.315C11.3849 60.6346 12.4413 62.8765 13.8001 65.0191V65.0181L15.4251 67.5796C11.202 71.3772 4.82018 75.4279 -0.794676 75.6929C-5.47569 75.9137 -9.58073 73.8082 -9.59546 68.9654C-9.60045 67.2457 -9.03287 65.5801 -7.75561 64.4136C-6.88053 63.6146 -5.77091 63.1666 -4.62768 62.8482C-2.938 62.3777 -1.3479 61.9311 0.264894 61.2486C2.94915 60.1127 5.31161 58.5832 7.32739 56.4898L8.6565 55.1099ZM39.2874 40.0464C39.1399 42.9235 38.6109 45.6348 37.511 48.2515L36.2639 51.2183L33.427 56.9117C32.9753 57.8176 32.8732 58.9539 32.5823 59.8853C31.2617 61.1982 29.5351 63.3926 29.8157 65.1539C29.9034 65.7031 30.5609 66.0063 31.0667 65.897L32.3645 65.6167C32.1224 67.1593 31.935 68.5804 32.55 69.9136C32.852 70.568 33.6742 70.8823 34.2766 70.4781C34.8675 70.082 35.3355 69.532 35.8889 68.938C36.1762 70.4197 37.1009 72.3317 38.4075 72.2847C40.0634 72.2245 40.7573 69.9317 40.885 68.0171H40.884C42.9988 67.5625 44.8345 66.3456 46.2014 64.6011C48.3603 61.8459 49.7644 58.7156 50.677 55.3326C51.1783 53.4735 51.3517 51.6657 51.3479 49.7378C51.3447 48.3169 51.4195 46.9926 51.0823 45.5494C50.2671 47.1744 50.7015 49.6641 50.3997 51.9283C49.881 55.8159 48.4534 59.5288 46.3176 62.7964C45.3307 64.3055 44.0969 65.5493 42.5667 66.4185C40.0933 67.8231 36.9949 67.5409 35.1633 65.4175C33.2699 63.2222 33.0104 60.2074 34.0891 57.5562C34.724 55.9956 35.4944 54.6286 36.2659 53.1158C37.8654 49.9773 39.1772 46.7833 39.6506 43.2564C39.7993 42.1474 39.5593 41.0593 39.2874 40.0464ZM-10.3064 67.3208C-10.4913 68.5126 -10.525 69.4272 -10.283 70.6158C-11.7693 71.7401 -14.5535 71.9787 -14.2263 70.5357C-13.2794 69.0661 -11.9637 67.8258 -10.3064 67.3208ZM36.6946 67.6705C37.8091 67.9977 38.8485 68.179 40.0247 68.2115C39.9909 69.2618 39.6801 70.3327 38.9641 71.1578C38.6383 71.5192 38.265 71.5726 37.9182 71.3013C37.1054 70.2857 36.5815 69.0267 36.6946 67.6705ZM33.5715 64.7164C34.2667 65.7204 34.859 66.4331 35.8293 67.1392C35.4525 68.1775 34.2792 69.8161 33.5979 69.7583C32.8723 69.6951 32.8275 67.8233 33.0549 66.4683L33.5715 64.7164ZM32.51 60.9371C32.6727 61.9876 32.7621 62.7496 33.1116 63.7486C32.5828 64.6351 31.5971 65.1851 30.5647 65.0904C30.5857 64.3404 30.7648 63.7814 31.0139 63.1607L32.51 60.9371ZM11.6653 23.772C13.5032 21.9491 15.9253 20.6119 18.3479 21.6089C17.8438 24.4046 16.0193 27.6595 13.012 27.8306C11.9209 27.8923 11.157 27.4473 10.801 26.5064C10.2101 24.9415 10.632 24.7965 11.6653 23.772ZM24.0295 2.97026C23.1571 1.69729 21.2038 1.97709 20.7239 3.44389L19.9729 5.73881L17.6565 6.42143C16.176 6.8577 15.8384 8.8027 17.0852 9.71245L19.0354 11.1353L18.969 13.5494C18.9264 15.0921 20.6716 16.0143 21.9221 15.1099L23.8792 13.6939L26.1545 14.5035C26.1991 14.5193 26.2439 14.5331 26.2883 14.5455C26.219 14.5714 26.1493 14.5981 26.0803 14.6255C24.8742 15.1043 23.6605 15.8311 23.8254 16.9185C24.2267 19.5538 32.8621 18.836 33.094 15.8677C33.1569 15.0579 32.249 14.4577 31.5608 14.2544C30.409 13.9138 29.2443 13.8708 28.1028 14.0572C28.5605 13.5942 28.7824 12.8972 28.55 12.1773L27.8088 9.87846L29.2815 7.96538C30.2228 6.74226 29.3532 4.9706 27.8098 4.96733L25.3948 4.96245L24.0295 2.97026ZM12.3469 18.3296C11.3648 17.956 11.0106 17.4973 10.4495 16.5503C11.3996 16.3419 12.0847 16.261 13.217 16.2154L12.3469 18.3296ZM3.10083 9.4312C3.23801 9.01227 3.79587 8.93194 4.04517 9.29545L5.34888 11.1988C5.44783 11.3431 5.61137 11.4298 5.78638 11.4302H5.79712L8.09302 11.4351L8.1731 11.441C8.45916 11.483 8.64439 11.7444 8.62329 12.0103C8.61949 12.0584 8.60904 12.1067 8.59107 12.1539C8.57298 12.2012 8.54761 12.2478 8.51392 12.2915L7.10669 14.1197C7.05339 14.1891 7.01864 14.2693 7.00415 14.3531C6.99694 14.3948 6.99538 14.4375 6.99829 14.48C7.00121 14.5227 7.00926 14.5653 7.02271 14.607L7.73071 16.8023C7.75606 16.8808 7.76219 16.9585 7.75318 17.0318C7.74713 17.081 7.734 17.1281 7.71509 17.1724C7.61161 17.4147 7.33159 17.5687 7.04614 17.4673L4.87232 16.6939C4.70755 16.6354 4.52479 16.6618 4.38306 16.7642L2.51392 18.1158L2.47974 18.1392C2.47352 18.1431 2.4665 18.1454 2.46021 18.149C2.4502 18.1546 2.44009 18.1597 2.42993 18.1646C2.41663 18.171 2.4034 18.177 2.38989 18.1822C2.38341 18.1847 2.37688 18.1868 2.37036 18.189C2.36358 18.1913 2.35667 18.1929 2.34986 18.1949C2.31801 18.2043 2.28626 18.2103 2.25415 18.2134C2.24891 18.2139 2.24377 18.215 2.23853 18.2154C2.20364 18.2177 2.16916 18.217 2.13501 18.2124C2.12778 18.2115 2.1207 18.2098 2.11353 18.2085C1.86949 18.166 1.66228 17.9565 1.67017 17.6705L1.73364 15.3648C1.73848 15.1897 1.65636 15.0237 1.51489 14.9205L-0.348387 13.5601C-0.704066 13.3 -0.607138 12.7452 -0.184324 12.6206L2.02759 11.9683C2.19554 11.9188 2.32859 11.79 2.38306 11.6236L3.10083 9.4312ZM21.9885 3.85698C22.126 3.43844 22.6837 3.35865 22.9329 3.72221L24.5344 6.0601C24.6333 6.2044 24.797 6.291 24.9719 6.29155L27.8069 6.29741L27.8479 6.29936C28.2629 6.33036 28.488 6.81538 28.2278 7.15385L26.4993 9.39995C26.3925 9.53871 26.3605 9.72161 26.4143 9.88823L27.2844 12.5855L27.2952 12.6246C27.3942 13.0289 27.0023 13.3934 26.5999 13.2505L23.929 12.3003C23.7641 12.2418 23.5805 12.2681 23.4387 12.3706L21.1428 14.0318L21.1086 14.0552C20.7547 14.2739 20.2875 14.0132 20.2991 13.5865L20.3772 10.7525C20.3819 10.5776 20.2998 10.4113 20.1584 10.3081L17.8694 8.63823C17.5132 8.37833 17.6096 7.82252 18.0325 7.6978L20.7512 6.89604C20.9192 6.84653 21.0522 6.71772 21.1067 6.55131L21.9885 3.85698Z" fill="white"/>
</g>
<defs>
<clipPath id="clip0_7732_6458">
<rect width="32" height="32" fill="white"/>
</clipPath>
</defs>
</svg>
