<svg width="128" height="128" viewBox="0 0 128 128" fill="none" xmlns="http://www.w3.org/2000/svg">
<g clip-path="url(#clip0_7731_6061)">
<path d="M294.572 461.203C296.32 463.314 297.456 465.825 298.524 468.76L297.769 470.681C297.105 472.371 286.215 467.071 282.629 462.21C286.784 462.526 290.303 462.275 294.572 461.203ZM308.378 452.631C310.825 452.899 313.999 458.306 313.565 461.607C310.206 464.589 303.151 462.201 298.775 459.623L308.378 452.631ZM240.815 416.272C256.558 420.277 272.126 422.11 288.039 420.2L300.886 418.046C302.955 417.699 304.603 417.977 306.053 419.626C308.526 422.433 311.247 425.406 312.136 429.183C315.268 442.489 304.278 456.458 290.16 458.93V458.928C284.746 459.876 279.617 459.115 274.655 457.253C262.063 452.53 250.068 438.199 244.992 426.167L240.815 416.272ZM320.701 443.093L320.703 443.09C321.276 443.671 321.874 445.361 322.108 446.065C322.891 448.418 321.606 450.929 318.778 451.178C316.088 451.415 313.013 450.503 310.963 449.237L315.777 438.106L320.701 443.093ZM141.078 427.344C146.668 429.76 151.948 431.088 157.81 429.748C158.36 435.435 154.788 443.829 150.866 443.303C149.807 443.162 148.528 442.312 147.561 441.468C144.178 437.463 142.043 432.852 141.078 427.344ZM169.774 425.593C171.181 428.833 171.864 432.58 170.833 436.252C169.819 439.849 163.715 435.311 161.489 429.619L169.774 425.593ZM421.27 426.452C423.425 429.312 425.644 433.08 424.29 435.711C422.952 438.31 413.464 433.374 409.551 428.453H409.549C413.443 428.482 417.056 427.886 421.27 426.452ZM135.602 423.41C136.376 424.322 137.952 425.32 137.3 427.22C136.242 430.303 134.89 432.676 132.931 435.387C129.315 431.44 128.684 421.782 129.262 415.932V415.929L135.602 423.41ZM436.105 415.298C440.152 417.524 444.428 422.519 442.666 425.731C440.453 429.76 430.782 427.889 425.352 424.667C429.745 421.814 432.715 419.077 436.105 415.298ZM143.428 356.873C151.077 364.142 158.658 370.387 166.685 376.813L182.61 388.14L182.613 388.137C184.471 389.461 184.87 390.474 184.249 392.712L180.2 407.292C179.108 411.222 176.836 414.48 174.167 417.737C169.06 423.972 161.745 426.895 153.966 427.029C146.795 427.153 140.459 424.688 135.858 419.135C123.417 404.11 132.301 385.533 138.56 369.415L143.428 356.873ZM99.8413 4.20776C119.118 0.557568 138.113 5.53702 155.129 14.5056C165.378 19.9055 174.679 25.9587 183.32 33.6707C191.406 40.8896 198.932 52.1257 203.916 61.8269C206.627 67.1023 208.445 72.5125 209.998 78.2761C215.148 97.3768 223.639 114.862 235.686 130.495L246.776 144.883C259.289 161.121 275.174 174.374 293.607 183.563C304.63 189.056 316.007 192.784 327.98 195.496C337.533 197.66 346.516 199.824 355.391 204.108C362.591 207.581 369.143 211.949 375.167 217.277L386.869 228.961C393.12 236.139 398.388 243.796 402.724 252.274C409.203 264.939 415.457 284.207 415.5 298.157L415.527 306.345C415.544 311.405 414.411 316.258 412.884 321.081L409.638 331.333C409.017 333.291 408.525 336.194 409.146 338.279C413.831 354.038 418.848 366.017 429.825 378.36C432.147 380.971 434.216 383.597 435.948 386.582L435.953 386.585C443.274 399.201 437.477 411.686 426.151 420.099C414.45 428.788 398.018 425.77 386.04 418.362C366.689 406.394 351.251 385.057 344.579 363.297L342.656 357.028C340.255 349.199 339.039 341.381 338.444 333.116C338.191 327.376 338.398 321.847 335.947 316.119C333.852 341.469 338.432 363.732 350.802 385.66C345.136 393.978 332.665 402.501 323.649 406.891C293.115 421.758 258.671 419.855 227.275 407.969C217.292 404.187 208.179 399.524 198.896 394.251C187.14 387.57 176.396 379.87 165.765 371.567L148.225 356.581L140.174 348.81L123.856 332.168L113.384 320.53C95.7655 300.953 70.0576 264.945 56.1372 242.039C51.6511 234.655 48.612 227.019 44.9595 219.174C35.7954 199.489 21.4922 183.044 14.6167 167.752C6.73083 150.209 1.97946 127.639 3.17627 108.381C3.45817 103.835 3.88998 99.4181 4.54932 95.0164C13.3096 96.0456 27.1225 92.6304 30.0015 85.95C32.2397 80.7488 24.5521 78.0562 17.8081 77.8767L8.4917 79.2263L9.0835 77.4666C10.953 78.4179 13.3111 78.4134 15.2856 76.9851L19.2437 74.1208L23.8481 75.7585C28.509 77.4162 33.0477 73.0094 31.5288 68.3015L30.0278 63.6511L33.0083 59.7791C36.0251 55.8585 33.2375 50.1799 28.2905 50.1697L23.4038 50.1599L22.8149 49.3005C23.782 47.9793 24.8048 46.6603 26.0854 45.0789C28.4748 42.1284 31.7019 40.2387 33.7495 36.7498C51.6883 18.7069 75.008 8.91122 99.8413 4.20776ZM442.679 400.027C443.737 399.838 444.861 400.788 445.68 401.738H445.683C447.296 403.61 449.118 405.394 449.813 407.924C450.503 410.43 449.225 412.414 447.025 412.813C444.173 413.33 441.155 413.18 438.028 412.562C440.307 408.343 441.929 404.793 442.679 400.027ZM54.4507 362.315C57.7879 365.276 61.0254 367.052 65.0337 368.136C62.843 374.635 55.8987 384.633 52.5493 379.104C51.1615 373.511 51.8826 367.806 54.4507 362.315ZM81.8306 366.911C81.5678 372.256 77.1219 380.171 74.4009 379.903C71.0208 379.57 68.3211 373.44 68.5552 368.716H68.5581C73.2354 369.438 77.256 368.153 81.8306 366.911ZM80.7388 286.46C81.5102 286.802 82.5287 287.424 82.9351 287.974C93.5755 302.403 104.555 315.997 116.545 329.477C116.581 330.712 115.253 331.814 114.278 332.618C110.912 335.39 108.258 338.665 105.561 342.052L99.6118 349.521C92.0197 359.057 80.959 366.729 68.3501 365.623C62.4973 365.108 57.5232 361.796 54.2026 356.882C45.9229 344.629 49.0685 327.486 56.5005 314.925C59.7972 309.352 63.3333 304.107 67.8579 299.521L80.7388 286.462V286.46ZM260.297 262.043C259.015 264.048 258.664 266.114 258.036 268.469C252.321 289.875 251.487 313.802 263.46 333.142C262.247 341.833 266.082 358.71 273.384 358.292C276.356 358.122 278.253 355.539 279.385 352.969L284.142 358.737C287.821 363.196 294.121 367.78 297.812 364.255C299.472 362.668 299.2 359.998 299.424 357.635C304.267 360.666 309.508 363.268 312.786 359.996C315.937 356.853 313.39 350.927 310.655 346.573C309.489 344.716 309.912 343.745 311.378 342.113C315.49 337.537 317.764 331.56 317.833 325.421L318.137 298.385C318.199 292.796 319.514 287.57 321 282.261H320.997C321.833 279.277 322.158 276.364 321.439 273.058C318.909 279.595 315.772 286.219 315.658 293.399L315.311 314.898L315.027 321.65C315.297 332.919 309.066 343.478 298.385 347.561C290.456 350.591 282.033 348.035 275.764 342.731C271.901 339.462 269.031 335.826 266.334 331.496C256.198 315.222 255.885 294.342 259.509 275.67C260.391 271.129 260.89 266.94 260.297 262.043ZM282.173 350.712C286.218 351.927 289.572 352.432 293.523 352.332C296.232 353.684 296.985 359.311 295.645 361.88C294.138 364.776 284.921 356.03 282.173 350.712ZM46.6675 339.648C46.4358 346.309 47.9602 352.459 51.3667 358.359C49.2407 359.917 47.0402 360.58 44.5464 360.819C42.5183 360.651 40.303 359.295 40.3101 356.885C40.3269 350.752 42.463 344.598 46.6675 339.648ZM310.592 353.404C311.158 354.548 311.044 356.719 310.523 358.172C306.366 358.994 300.657 354.959 297.921 351.506C301.672 349.883 304 348.722 307.163 346.477L310.592 353.404ZM266.184 337.571C269.709 341.648 272.795 345.26 277.149 348.086C277.421 350.706 276.598 353.045 274.276 355.017C273.005 355.206 271.318 354.637 270.708 353.546C267.983 348.659 266.173 343.551 266.184 337.571ZM266.184 337.571C266.183 337.57 266.182 337.569 266.181 337.568H266.184V337.571ZM200.389 219.637L199.828 229.267C198.416 241.168 196.123 252.591 193.879 264.336C192.494 271.588 192.126 278.441 193.667 285.722C193.96 287.106 193.953 289.028 193.475 290.369C190.341 299.151 193.282 309.256 199.096 308.445C200.303 308.275 201.784 307.27 203.437 306.083C204.555 309.931 205.564 313.988 208.258 316.842C210.382 319.089 213.435 319.479 215.709 317.351C217.599 315.58 218.75 312.945 219.656 310.506C221.545 312.906 223.404 315.21 225.671 316.675C228.562 318.541 231.577 317.869 233.412 314.913C237.872 307.725 233.847 299.287 236.279 297.202L236.284 297.205C250.123 285.335 254.779 264.927 256.102 247.375L256.931 236.384C257.306 231.438 255.247 226.557 253.905 222.086L253.472 242.341C252.674 252.853 251.129 263.024 247.834 273.051C245.434 280.358 241.647 286.726 236.542 292.301C228.823 300.728 216.937 303.636 206.755 298.373C200.898 295.345 197.467 289.798 196.313 283.431C194.469 273.257 196.615 264.751 198.798 254.536C200.623 245.989 201.825 237.718 202.489 229.047L202.513 221.239L201.012 211.878L200.389 219.637ZM217.322 304.422C217.412 308.397 215.58 314.498 212.637 315.223C209.458 316.008 206.277 307.734 206.52 301.954L217.322 304.422ZM232.126 300.28C232.456 304.387 232.886 308.89 230.992 312.998C230.225 314.656 227.586 314.077 226.424 313.13C223.763 310.688 221.88 307.499 220.848 304.072H220.85C224.861 303.323 228.089 302.147 232.126 300.28ZM195.716 291.728C198.279 295.091 200.253 297.638 203.409 300.094C202.85 302.209 201.423 303.914 199.667 305.276C195.055 306.393 194.056 297.446 195.716 291.728ZM-24.3853 285.328C-20.0617 287.36 -16.6354 288.92 -12.1733 290.054C-14.0009 293.932 -16.2704 297.838 -20.1978 300.079C-24.5192 302.544 -25.9786 292.836 -24.3853 285.328ZM-34.0679 273.101C-31.9706 276.777 -30.054 279.694 -27.1685 282.925C-28.2316 286.773 -33.1365 289.65 -36.9087 288.302H-36.9067C-38.0197 283.164 -36.2656 277.615 -34.0679 273.101ZM36.1157 210.166C38.9011 214.022 40.5545 217.986 42.4536 222.213C46.3739 230.932 50.3442 239.359 55.4517 247.413V247.408L61.5601 257.04C45.6853 271.315 21.6978 286.541 0.591309 287.537C-17.0058 288.367 -32.4387 280.453 -32.4937 262.248C-32.5126 255.783 -30.3792 249.521 -25.5776 245.136C-22.2881 242.133 -18.1165 240.449 -13.8188 239.253C-7.46679 237.484 -1.48929 235.806 4.57373 233.24C14.6647 228.97 23.5448 223.22 31.1226 215.35L36.1157 210.166ZM151.259 153.538C150.705 164.354 148.715 174.547 144.58 184.385L139.893 195.536L129.228 216.935C127.53 220.341 127.147 224.614 126.053 228.116C121.089 233.051 114.601 241.3 115.657 247.921C115.987 249.986 118.456 251.125 120.358 250.714L125.234 249.658C124.324 255.457 123.619 260.8 125.931 265.812C127.066 268.273 130.158 269.453 132.422 267.933C134.644 266.445 136.402 264.378 138.483 262.145C139.563 267.715 143.039 274.9 147.951 274.723C154.176 274.498 156.783 265.882 157.263 258.684H157.26C165.211 256.975 172.111 252.399 177.25 245.841C185.365 235.484 190.642 223.719 194.073 211.002C195.958 204.012 196.61 197.216 196.595 189.969C196.583 184.626 196.863 179.649 195.594 174.223C192.529 180.332 194.165 189.691 193.031 198.203C191.081 212.818 185.713 226.775 177.684 239.059C173.974 244.732 169.339 249.406 163.586 252.674C154.289 257.954 142.642 256.893 135.757 248.911C128.639 240.658 127.664 229.324 131.72 219.357C134.107 213.491 137.002 208.356 139.902 202.67C145.915 190.872 150.844 178.864 152.624 165.606C153.182 161.437 152.282 157.346 151.259 153.538ZM-35.1646 256.066C-35.8597 260.547 -35.9887 263.984 -35.0786 268.453C-40.6665 272.68 -51.1326 273.574 -49.8999 268.148C-46.3404 262.624 -41.3947 257.964 -35.1646 256.066ZM141.512 257.38C145.702 258.61 149.609 259.29 154.031 259.412C153.904 263.361 152.736 267.387 150.043 270.489C148.818 271.849 147.415 272.047 146.111 271.025V271.028C143.056 267.21 141.087 262.478 141.512 257.38ZM129.773 246.276C132.386 250.05 134.611 252.726 138.258 255.381C136.842 259.285 132.432 265.448 129.871 265.228C127.143 264.99 126.975 257.953 127.831 252.86L129.773 246.276ZM125.781 232.07C126.392 236.019 126.732 238.88 128.045 242.635C126.058 245.969 122.353 248.037 118.471 247.68C118.55 244.861 119.221 242.762 120.158 240.428L125.781 232.07ZM65.0815 54.5359C56.7966 58.6049 47.5962 60.4175 38.3677 61.5066C36.8248 61.6884 35.5753 61.6361 34.3882 62.7537C37.6347 73.6802 39.0632 84.524 39.6079 95.8455C39.7489 98.794 40.4852 102.068 41.8657 104.802C44.5294 110.077 50.6545 111.905 55.9556 110.469C69.2143 106.874 75.4598 91.9031 76.812 78.6306L76.814 78.6326C77.7312 69.6232 75.1293 60.1326 71.9233 51.1736L65.0815 54.5359ZM47.4272 92.365C54.336 85.5123 63.4408 80.4832 72.5474 84.2312C70.6529 94.7415 63.7939 106.98 52.4868 107.622C48.3853 107.854 45.516 106.18 44.1782 102.642C41.957 96.7597 43.5431 96.2159 47.4272 92.365ZM20.6479 53.6794L20.7095 53.7634C21.0306 54.1756 21.525 54.4196 22.0513 54.4207L28.2817 54.4333L28.4126 54.4382C29.7434 54.5372 30.4644 56.0943 29.6294 57.1794L25.8296 62.1169C25.4875 62.5616 25.386 63.1465 25.5581 63.6804L27.4712 69.6111C27.905 70.9562 26.6085 72.2146 25.2769 71.741L19.4067 69.6531C18.878 69.465 18.2902 69.5489 17.8354 69.8777L12.7866 73.53L12.6782 73.6033C11.9257 74.069 11.0159 73.8561 10.4976 73.2625L11.8335 69.2947L15.1372 60.8005C17.3316 57.4272 18.8766 55.0333 20.2104 53.0408L20.6479 53.6794ZM122.214 56.5876C115.286 54.5389 108.236 55.355 101.614 57.9832C97.0799 59.7831 92.5147 62.5145 93.1353 66.6023C94.6427 76.5094 127.106 73.8091 127.976 62.6501C128.212 59.6059 124.801 57.3512 122.214 56.5876ZM49.9878 71.906C46.2957 70.5013 44.9668 68.7768 42.8569 65.2166C46.429 64.4331 49.0024 64.1313 53.2593 63.9597L49.9878 71.906ZM95.0522 24.575C92.2638 20.5058 86.0747 21.3222 84.395 25.8914L84.3179 26.1121L82.7778 30.8171L78.0308 32.2166C73.2236 33.6331 72.1272 39.947 76.1753 42.9011L80.1743 45.8171L80.0376 50.7664C79.8994 55.776 85.566 58.7702 89.6265 55.8328L93.6362 52.9314L98.3003 54.5906C103.022 56.27 107.62 51.8053 106.082 47.0359L104.561 42.325L107.581 38.4021C110.636 34.4304 107.812 28.6789 102.8 28.6687L97.8501 28.658L95.0522 24.575ZM88.4224 27.4558C88.8677 26.095 90.6803 25.8353 91.4897 27.0164L95.0581 32.2234L95.1206 32.3083C95.4459 32.7259 95.9468 32.9733 96.48 32.9744L102.792 32.988L102.924 32.9929C104.272 33.0931 105.003 34.669 104.158 35.7683L100.307 40.7712C99.9606 41.2218 99.8582 41.8143 100.033 42.3552L101.97 48.363C102.41 49.7256 101.097 51.001 99.7476 50.5212L93.8013 48.405C93.2656 48.2145 92.6701 48.3004 92.2095 48.6335L87.0942 52.3328L86.9849 52.407C85.8352 53.1186 84.3167 52.2722 84.355 50.8855L84.5298 44.5759C84.5455 44.0076 84.2801 43.4677 83.8208 43.1326L78.7212 39.4119C77.5647 38.5679 77.8782 36.764 79.2515 36.3591L85.3062 34.575C85.8514 34.4142 86.2826 33.9951 86.4595 33.4548L88.4224 27.4558Z" fill="white"/>
<path d="M14.2663 48.9211C14.7116 47.5602 16.5242 47.3005 17.3335 48.4818L20.9016 53.6892C21.223 54.1582 21.7547 54.4391 22.3233 54.4403L28.6358 54.4531C30.0678 54.4561 30.8748 56.0997 30.0014 57.2345L26.1516 62.2371C25.8047 62.6877 25.7019 63.2802 25.8765 63.8213L27.815 69.8288C28.2547 71.1916 26.9409 72.467 25.5917 71.9871L19.6443 69.8715C19.1086 69.681 18.5133 69.7662 18.0526 70.0995L12.9382 73.7995C11.778 74.6388 10.159 73.7835 10.1985 72.352L10.3727 66.042C10.3884 65.4735 10.1233 64.9338 9.66399 64.5986L4.56464 60.8778C3.40787 60.0338 3.72108 58.2297 5.09464 57.825L11.1497 56.0407C11.6952 55.88 12.1266 55.4611 12.3034 54.9207L14.2663 48.9211Z" fill="white"/>
</g>
<defs>
<clipPath id="clip0_7731_6061">
<rect width="128" height="128" fill="white"/>
</clipPath>
</defs>
</svg>
