<svg width="32" height="32" viewBox="0 0 32 32" fill="none" xmlns="http://www.w3.org/2000/svg">
<g clip-path="url(#clip0_7732_6463)">
<path fill-rule="evenodd" clip-rule="evenodd" d="M77.5135 121.893C77.9787 122.455 78.2803 123.123 78.5643 123.904L78.3641 124.415C78.1874 124.864 75.2897 123.455 74.3358 122.162C75.4409 122.246 76.378 122.178 77.5135 121.893ZM81.1864 119.613C81.837 119.685 82.6815 121.123 82.5663 122.001C81.6728 122.794 79.796 122.159 78.6317 121.473L81.1864 119.613ZM63.2128 109.941C67.4008 111.006 71.5421 111.494 75.7753 110.986L79.1932 110.413C79.7433 110.32 80.1817 110.394 80.5673 110.833C81.225 111.579 81.949 112.371 82.1854 113.376C83.0186 116.915 80.0955 120.631 76.3397 121.289C74.8997 121.541 73.5346 121.339 72.2147 120.843C68.8649 119.587 65.6746 115.774 64.3241 112.573L63.2128 109.941ZM84.4647 117.076V117.075C84.6172 117.23 84.7764 117.68 84.8387 117.867C85.047 118.493 84.705 119.161 83.953 119.227C83.2375 119.29 82.4192 119.047 81.8739 118.711L83.1542 115.75L84.4647 117.076ZM36.6796 112.886C38.1665 113.529 39.5714 113.882 41.1307 113.526C41.2768 115.039 40.3274 117.271 39.2841 117.131C39.0025 117.094 38.6615 116.868 38.4042 116.643C37.5045 115.578 36.9363 114.351 36.6796 112.886ZM44.3134 112.42C44.6876 113.282 44.8699 114.279 44.5956 115.255C44.3261 116.212 42.7027 115.006 42.1102 113.492L44.3134 112.42ZM111.219 112.649C111.792 113.41 112.381 114.412 112.021 115.112C111.665 115.803 109.141 114.49 108.1 113.181L108.485 113.176C109.379 113.146 110.238 112.983 111.219 112.649ZM35.2235 111.839C35.4294 112.082 35.848 112.348 35.6747 112.853C35.3932 113.673 35.0336 114.305 34.5126 115.026C33.5505 113.976 33.3832 111.406 33.537 109.85L35.2235 111.839ZM115.165 109.682C116.241 110.274 117.379 111.603 116.91 112.458C116.321 113.529 113.749 113.03 112.305 112.173C113.473 111.415 114.263 110.687 115.165 109.682ZM37.3055 94.1392C39.3404 96.0729 41.3568 97.7343 43.4921 99.4439L47.7284 102.457H47.7294C48.2235 102.809 48.3291 103.078 48.1639 103.673L47.0878 107.551C46.7973 108.597 46.1921 109.464 45.4823 110.331C44.1236 111.989 42.1774 112.767 40.1083 112.802C38.2006 112.835 36.5148 112.18 35.2909 110.703C31.9813 106.706 34.3446 101.764 36.0096 97.4761L37.3055 94.1392ZM25.7098 0.320861C30.8378 -0.650137 35.8911 0.674303 40.4178 3.06012C43.1441 4.49656 45.6183 6.1073 47.9169 8.15875C50.0681 10.0792 52.0706 13.0683 53.3964 15.649C54.1176 17.0523 54.6014 18.4917 55.0145 20.025C56.3847 25.1062 58.6436 29.7579 61.8485 33.9166L64.7987 37.7447C68.1275 42.0642 72.3532 45.5903 77.2567 48.0347C80.1888 49.4959 83.2153 50.4871 86.4003 51.2086C88.9417 51.7842 91.3323 52.3598 93.6932 53.4996C95.6085 54.4235 97.3513 55.5862 98.954 57.0035L102.066 60.1109C103.729 62.0205 105.132 64.0577 106.285 66.313C108.009 69.6821 109.672 74.8081 109.683 78.5191L109.69 80.6978C109.695 82.0438 109.393 83.3348 108.987 84.6177L108.124 87.3443C107.959 87.8651 107.828 88.6383 107.993 89.1929C109.239 93.3851 110.574 96.5714 113.494 99.855C114.112 100.55 114.662 101.249 115.123 102.043L115.124 102.044C117.072 105.4 115.529 108.721 112.516 110.96C109.404 113.27 105.033 112.467 101.847 110.497C96.6988 107.313 92.5913 101.637 90.8163 95.8482L90.3046 94.1802C89.6659 92.0975 89.3427 90.0176 89.1844 87.8189C89.1171 86.2921 89.1723 84.821 88.5204 83.2974C87.963 90.0413 89.1818 95.9641 92.4725 101.797C90.9651 104.01 87.6474 106.278 85.2489 107.446C77.1262 111.401 67.9623 110.894 59.6102 107.732C56.9546 106.726 54.5308 105.485 52.0614 104.083C48.934 102.305 46.075 100.257 43.2469 98.0484L38.5809 94.0611L36.4393 91.9947L32.0985 87.567L29.3124 84.4713C24.6254 79.2632 17.7871 69.6842 14.0839 63.5904C12.8904 61.6261 12.0819 59.5946 11.1102 57.5074C8.67232 52.2707 4.86702 47.896 3.03796 43.8277C0.940137 39.161 -0.32432 33.157 -0.00598621 28.0338C0.069006 26.8246 0.183849 25.649 0.359248 24.4781C2.68974 24.7519 6.36491 23.8431 7.13073 22.066C7.72556 20.6826 5.68048 19.9663 3.88659 19.9185L1.40808 20.2779L1.55456 19.8433C1.83035 19.791 2.10391 19.6777 2.35827 19.4937L4.46862 17.9664L6.92273 18.8394C7.6781 19.108 8.42394 18.9022 8.9364 18.44C9.36285 20.4977 9.58381 22.5665 9.6864 24.6988C9.72389 25.4833 9.91967 26.3544 10.287 27.0816C10.9956 28.4849 12.6249 28.9714 14.035 28.5894C17.562 27.633 19.2241 23.6504 19.5839 20.1197L19.619 19.6695C19.741 17.4084 19.0827 15.0495 18.2831 12.815L16.4628 13.7095C14.2588 14.792 11.8113 15.2743 9.35632 15.564C9.32302 15.5679 9.28999 15.5705 9.25769 15.5738L8.703 13.855L10.2919 11.7916C11.3055 10.4743 10.3689 8.56677 8.70691 8.56305L8.55066 8.56207C11.9805 5.26151 16.1101 3.04304 20.576 1.61188L20.0341 3.2691L16.9061 4.19C15.3117 4.65991 14.9481 6.75515 16.2909 7.73492L18.9247 9.6568L18.8348 12.9156C18.789 14.5772 20.6687 15.5704 22.0155 14.5963L24.6571 12.6851L27.7294 13.7779C29.2955 14.335 30.8208 12.854 30.3104 11.272L29.3094 8.16949L31.2977 5.58453C32.3113 4.26723 31.3749 2.3595 29.7128 2.35602L26.452 2.34918L25.1385 0.433166C25.3286 0.394754 25.5191 0.356994 25.7098 0.320861ZM116.914 105.619C117.195 105.569 117.494 105.822 117.712 106.075H117.713C118.142 106.572 118.626 107.047 118.811 107.719C118.995 108.386 118.655 108.915 118.07 109.021C117.312 109.159 116.508 109.118 115.677 108.954C116.283 107.831 116.714 106.886 116.914 105.619ZM13.6346 95.5875C14.5223 96.375 15.3839 96.8469 16.4501 97.1353C15.8673 98.8641 14.0198 101.524 13.1288 100.053C12.7596 98.5654 12.9517 97.048 13.6346 95.5875ZM20.9188 96.8091C20.8489 98.2308 19.6661 100.337 18.9423 100.266C18.0431 100.177 17.3243 98.5465 17.3866 97.2896H17.3876C18.6318 97.4818 19.7019 97.1396 20.9188 96.8091ZM20.6278 75.4068C20.833 75.4978 21.1047 75.6637 21.2128 75.8101C24.0433 79.6484 26.9636 83.265 30.1532 86.8511C30.1626 87.1795 29.8099 87.4722 29.5507 87.6861C28.6553 88.4234 27.9488 89.2949 27.2313 90.1959L25.6493 92.1832C23.6296 94.7199 20.6861 96.7614 17.3319 96.4673C15.7751 96.3303 14.4525 95.4482 13.5692 94.1412C11.3666 90.8817 12.2035 86.3217 14.1805 82.98C15.0575 81.4979 15.9976 80.1023 17.201 78.8824L20.6278 75.4078V75.4068ZM68.3954 68.9117C68.0542 69.4452 67.9609 69.9952 67.7938 70.6216C66.2737 76.3161 66.0521 82.6808 69.2372 87.8257C68.9143 90.1378 69.9341 94.6274 71.8768 94.5162C72.6674 94.4709 73.1723 93.784 73.4735 93.1002L74.7391 94.6353C75.7178 95.8213 77.3931 97.0401 78.3749 96.1031C78.8164 95.681 78.7449 94.9707 78.8046 94.3423C80.0924 95.1482 81.4864 95.84 82.3583 94.9703C83.1964 94.1342 82.5195 92.5572 81.7919 91.399C81.4818 90.905 81.5941 90.6466 81.9842 90.2125C83.0778 88.9951 83.6826 87.4052 83.701 85.772L83.7821 78.5797C83.7986 77.093 84.1476 75.7027 84.5428 74.2906C84.7652 73.4967 84.8522 72.7215 84.661 71.8423C83.988 73.5813 83.1535 75.3433 83.1229 77.2535L83.0301 82.9722L82.9549 84.7691C83.0267 87.7667 81.3692 90.5752 78.5282 91.6617C76.4189 92.4678 74.1772 91.7875 72.5096 90.3765C71.4823 89.5069 70.7192 88.5398 70.0018 87.3882C67.3053 83.0589 67.2213 77.504 68.1854 72.5367C68.4199 71.3288 68.553 70.2144 68.3954 68.9117ZM74.2147 92.4996C75.2906 92.823 76.1832 92.9579 77.2342 92.9312C77.9548 93.2911 78.1551 94.788 77.7987 95.4713C77.3974 96.2412 74.9455 93.9143 74.2147 92.4996ZM11.5643 89.5572C11.5028 91.3291 11.9082 92.9653 12.8143 94.5347C12.2488 94.9491 11.6632 95.1253 10.9999 95.189C10.4604 95.1444 9.87109 94.7832 9.87292 94.1422C9.87741 92.5109 10.446 90.8739 11.5643 89.5572ZM81.7753 93.2164C81.9257 93.5208 81.8952 94.0985 81.7567 94.4849C80.6509 94.7038 79.1318 93.6303 78.4042 92.7115C79.4019 92.2798 80.0218 91.9708 80.8632 91.3736L81.7753 93.2164ZM69.9618 89.0045C70.8994 90.089 71.7207 91.0496 72.8788 91.8013C72.9512 92.4985 72.7318 93.1214 72.1141 93.6461C71.776 93.6963 71.327 93.5438 71.1649 93.2535C70.44 91.9536 69.9588 90.5951 69.9618 89.0045ZM52.4579 57.6314L52.3085 60.1929C51.9329 63.3587 51.3232 66.3977 50.7264 69.522C50.3579 71.4512 50.2599 73.2746 50.6698 75.2115C50.7479 75.5794 50.7459 76.0904 50.619 76.4468C49.7852 78.783 50.5674 81.471 52.1141 81.2554C52.435 81.2102 52.8297 80.9433 53.2694 80.6275C53.5668 81.6513 53.8348 82.7308 54.5516 83.4898C55.1166 84.0877 55.929 84.1915 56.534 83.6255C57.0367 83.1544 57.343 82.453 57.5839 81.8043C58.0865 82.4428 58.5814 83.0552 59.1844 83.4449C59.9533 83.9413 60.755 83.7624 61.243 82.9761C62.4292 81.0641 61.3591 78.82 62.0057 78.2652H62.0067C65.6882 75.1075 66.9271 69.6786 67.2792 65.0093L67.4999 62.0855C67.5996 60.77 67.0523 59.4712 66.6952 58.2818L66.5799 63.6705C66.3677 66.4671 65.9563 69.173 65.0799 71.8404C64.4412 73.7843 63.4341 75.4785 62.076 76.9615C60.0228 79.2033 56.8607 79.9766 54.1522 78.5767C52.5941 77.7712 51.6809 76.2957 51.3739 74.6021C50.8833 71.8953 51.4542 69.6323 52.035 66.9146C52.5205 64.641 52.8398 62.4411 53.0165 60.1343L53.0233 58.0572L52.6239 55.566L52.4579 57.6314ZM56.9628 80.1851C56.9869 81.2427 56.4995 82.8659 55.7167 83.0591C54.8708 83.2678 54.0239 81.0666 54.0887 79.5289L56.9628 80.1851ZM60.9012 79.0836C60.9889 80.1762 61.1034 81.3747 60.5995 82.4673C60.3955 82.9081 59.6937 82.7544 59.3846 82.5025C58.6767 81.853 58.1758 81.0042 57.9012 80.0923L58.2928 80.0123C59.1866 79.8121 59.9616 79.5181 60.9012 79.0836ZM51.2147 76.8091C51.8966 77.7037 52.4221 78.3814 53.2616 79.0347C53.1128 79.5973 52.7333 80.0505 52.2665 80.4127C51.0395 80.7098 50.7732 78.3303 51.2147 76.8091ZM-7.33802 75.106C-6.18781 75.6466 -5.27605 76.062 -4.08899 76.3638C-4.57515 77.3953 -5.17905 78.4348 -6.22376 79.0308C-7.37323 79.6861 -7.76188 77.1034 -7.33802 75.106ZM-9.91321 71.8531C-9.3553 72.831 -8.84578 73.6069 -8.07825 74.4664C-8.36103 75.4902 -9.66561 76.2562 -10.6691 75.898L-10.715 75.6402C-10.9056 74.3471 -10.4614 72.979 -9.91321 71.8531ZM8.75671 55.1109C9.49764 56.1366 9.93803 57.1916 10.4432 58.316C11.4861 60.6356 12.5425 62.8775 13.9012 65.0201V65.0181L15.5262 67.5806C11.3032 71.3782 4.92139 75.4289 -0.693486 75.6939C-5.37466 75.9147 -9.47964 73.8094 -9.49427 68.9664C-9.49932 67.2466 -8.93177 65.5811 -7.65442 64.4146C-6.77934 63.6156 -5.66972 63.1675 -4.52649 62.8492C-2.8368 62.3787 -1.24673 61.9321 0.366084 61.2496C3.05037 60.1137 5.41278 58.5842 7.42859 56.4908L8.75671 55.1109ZM39.3885 40.0464C39.2411 42.9239 38.7113 45.6355 37.6112 48.2525L36.3651 51.2193L33.5272 56.9117C33.0754 57.8178 32.9735 58.9547 32.6825 59.8863C31.3619 61.1993 29.6361 63.3937 29.9169 65.1548C30.0046 65.7043 30.662 66.0074 31.1678 65.898L32.4647 65.6168C32.2226 67.1595 32.0352 68.5813 32.6503 69.9146C32.9521 70.569 33.7744 70.8829 34.3768 70.4791C34.9677 70.0831 35.4357 69.533 35.9891 68.939C36.2764 70.4207 37.2021 72.3327 38.5087 72.2857C40.1645 72.2254 40.8575 69.9327 40.9852 68.0181L41.3778 67.9244C43.3273 67.4096 45.021 66.2369 46.3026 64.6011C48.4613 61.846 49.8656 58.7165 50.7782 55.3336C51.2796 53.4743 51.4529 51.6659 51.4491 49.7379C51.4459 48.3168 51.5199 46.9927 51.1825 45.5494C50.3672 47.1743 50.8026 49.6641 50.5008 51.9283C49.9823 55.8163 48.5538 59.5296 46.4178 62.7974C45.4309 64.3064 44.1981 65.5503 42.6678 66.4195C40.1944 67.8241 37.0961 67.542 35.2645 65.4185C33.3707 63.223 33.1112 60.2076 34.1903 57.5562C34.8252 55.9956 35.5956 54.6296 36.3671 53.1168C37.9666 49.9783 39.2774 46.7843 39.7509 43.2574C39.8995 42.1482 39.6605 41.0595 39.3885 40.0464ZM-10.2052 67.3218C-10.3901 68.5137 -10.4248 69.4281 -10.1827 70.6168C-11.6693 71.7411 -14.453 71.9792 -14.1251 70.5357C-13.1782 69.0663 -11.8625 67.8268 -10.2052 67.3218ZM36.7958 67.6714C37.9103 67.9987 38.9497 68.179 40.1259 68.2115C40.0922 69.262 39.7814 70.3335 39.0653 71.1588C38.7395 71.5201 38.3662 71.5735 38.0194 71.3023C37.2066 70.2867 36.6827 69.0277 36.7958 67.6714ZM33.6727 64.7173C34.3678 65.7213 34.9594 66.4332 35.9296 67.1392C35.5527 68.1777 34.3794 69.8178 33.6981 69.7593C32.9729 69.6955 32.9287 67.824 33.1561 66.4693L33.6727 64.7173ZM32.6102 60.938C32.7729 61.9886 32.8633 62.7497 33.2128 63.7486C32.684 64.6355 31.6985 65.1862 30.6659 65.0914C30.6869 64.3414 30.865 63.7824 31.1141 63.1617L32.6102 60.938ZM11.7665 23.773C13.6044 21.95 16.0265 20.6119 18.4491 21.6089C17.9451 24.4049 16.1201 27.6609 13.1122 27.8316C12.0212 27.8933 11.2581 27.4483 10.9022 26.5074C10.3112 24.9423 10.7331 24.7975 11.7665 23.773ZM31.662 14.2554C29.819 13.7104 27.9431 13.9274 26.1815 14.6265C24.9754 15.1053 23.7606 15.8321 23.9257 16.9195C24.3269 19.5548 32.9619 18.8368 33.1942 15.8687C33.257 15.059 32.3502 14.4587 31.662 14.2554ZM2.50964 7.35016C2.6574 6.89895 3.25779 6.81302 3.52624 7.20465L5.25378 9.72613C5.36033 9.88162 5.53698 9.97468 5.72546 9.97516L8.7821 9.98102C9.25703 9.98199 9.52488 10.5275 9.23523 10.9039L7.37097 13.3257C7.25595 13.4752 7.22223 13.6716 7.28015 13.8511L8.21862 16.7603C8.3361 17.1253 8.07405 17.4699 7.73327 17.5054C7.63004 17.5315 7.51651 17.5304 7.40222 17.4898L4.52331 16.4654C4.44061 16.436 4.3532 16.4268 4.26843 16.4361C4.19922 16.4537 4.1326 16.4839 4.07312 16.5269L1.59753 18.3189C1.21274 18.5973 0.675265 18.3132 0.68835 17.8384L0.772334 14.7828C0.777394 14.5944 0.690197 14.4153 0.537959 14.3043L-1.93079 12.5035C-2.31445 12.2235 -2.21058 11.625 -1.75501 11.4908L1.17663 10.6265C1.35724 10.5732 1.49976 10.4344 1.55847 10.2554L2.50964 7.35016ZM12.4471 18.3306C11.4651 17.9569 11.1119 17.4974 10.5507 16.5504C11.5008 16.342 12.1859 16.262 13.3182 16.2164L12.4471 18.3306ZM25.5253 3.5318L25.5458 3.56012C25.6537 3.69852 25.8202 3.78044 25.9969 3.78082L29.7098 3.78863L29.7538 3.79059C30.2007 3.82388 30.4429 4.34595 30.163 4.71051L27.8983 7.65387C27.7835 7.80328 27.7496 7.99992 27.8075 8.17926L28.9471 11.7125L28.9589 11.7545C29.0655 12.19 28.6433 12.5824 28.2098 12.4283L24.7118 11.1841C24.5342 11.121 24.3362 11.1489 24.1835 11.2593L21.1757 13.4351C20.7909 13.7134 20.2545 13.4302 20.2675 12.9556L20.37 9.24469C20.3752 9.05617 20.287 8.87636 20.1346 8.7652L17.1356 6.57672C16.752 6.29678 16.8559 5.69829 17.3114 5.56403L20.8729 4.5152C21.0421 4.4652 21.1783 4.34006 21.243 4.17731L21.2548 4.14313L22.245 1.11774C22.7034 0.992482 23.1648 0.874502 23.6288 0.764221L25.5253 3.5318Z" fill="white"/>
</g>
<defs>
<clipPath id="clip0_7732_6463">
<rect width="32" height="32" fill="white"/>
</clipPath>
</defs>
</svg>
