<svg width="16" height="16" viewBox="0 0 16 16" fill="none" xmlns="http://www.w3.org/2000/svg">
<g clip-path="url(#clip0_7732_6483)">
<path fill-rule="evenodd" clip-rule="evenodd" d="M35.3952 55.5611C35.6073 55.8171 35.7453 56.1223 35.8747 56.4781L35.7829 56.7105C35.7023 56.9153 34.3829 56.2726 33.948 55.6832C34.4514 55.7214 34.8779 55.691 35.3952 55.5611ZM37.07 54.5221C37.3665 54.5552 37.7513 55.2099 37.699 55.61C37.2917 55.9715 36.4357 55.6823 35.905 55.3697L37.07 54.5221ZM28.8767 50.1129C30.7857 50.5984 32.6737 50.821 34.6032 50.5894L36.1609 50.3277C36.4115 50.2857 36.6121 50.3195 36.7878 50.5191C37.0876 50.8595 37.4173 51.2205 37.5251 51.6783C37.9048 53.2916 36.5728 54.9856 34.8611 55.2857L34.6159 55.3189C34.049 55.3752 33.5066 55.2802 32.9802 55.0826C31.4534 54.5099 29.9992 52.772 29.3835 51.3131L28.8767 50.1129ZM38.5642 53.3648C38.6337 53.4354 38.7057 53.6408 38.7341 53.7262C38.8289 54.0113 38.6735 54.3151 38.3308 54.3453C38.0047 54.374 37.6321 54.2634 37.3835 54.11L37.9665 52.7603L38.5642 53.3648ZM16.7829 51.4557C17.4607 51.7484 18.1014 51.9092 18.8122 51.7467C18.8788 52.4363 18.4451 53.4549 17.9695 53.3912C17.8413 53.374 17.6863 53.2709 17.5691 53.1685C17.1589 52.683 16.9 52.1235 16.7829 51.4557ZM20.2624 51.2437C20.4329 51.6366 20.5164 52.0907 20.3913 52.5357C20.2685 52.9719 19.5276 52.4212 19.2575 51.731L20.2624 51.2437ZM50.7595 51.3473C51.0207 51.6941 51.2889 52.1514 51.1247 52.4703C50.9618 52.7846 49.812 52.1869 49.3376 51.5904C49.8097 51.5939 50.2486 51.5211 50.7595 51.3473ZM16.1189 50.9781C16.2127 51.0887 16.404 51.2106 16.3249 51.441C16.1966 51.8146 16.0321 52.1025 15.7947 52.4312C15.3561 51.9526 15.2802 50.7812 15.3503 50.0719L16.1189 50.9781ZM52.5583 49.9947C53.049 50.2647 53.567 50.8709 53.3532 51.2603C53.0846 51.7483 51.913 51.521 51.2546 51.1305C51.787 50.7846 52.1474 50.4528 52.5583 49.9947ZM17.0681 42.9098C17.9956 43.7912 18.9151 44.5494 19.8884 45.3287L21.8191 46.7017L21.8952 46.7603C22.0545 46.8951 22.0832 47.019 22.0173 47.2564L21.5271 49.024C21.3947 49.5005 21.1191 49.8957 20.7956 50.2906C20.1763 51.0467 19.2886 51.4013 18.3454 51.4176C17.4761 51.4326 16.708 51.1335 16.1501 50.4605C14.6415 48.6387 15.7183 46.3857 16.4773 44.4312L17.0681 42.9098ZM11.782 0.146084C14.1194 -0.296507 16.4236 0.306591 18.487 1.39413C19.7297 2.04888 20.8573 2.78328 21.905 3.71835C22.8855 4.59367 23.7978 5.95614 24.4021 7.13241C24.7308 7.7721 24.9521 8.42864 25.1404 9.12753C25.7649 11.4435 26.7938 13.5641 28.2546 15.4596L29.6003 17.2037C31.1177 19.1727 33.0438 20.7799 35.279 21.8941C36.6156 22.5602 37.9952 23.0126 39.447 23.3414C40.6051 23.6037 41.6943 23.866 42.7702 24.3853C43.6433 24.8065 44.4381 25.3369 45.1687 25.983L46.5876 27.399C47.3457 28.2694 47.9847 29.1982 48.5105 30.2262C49.2961 31.7619 50.0541 34.0991 50.0593 35.7906L50.0622 36.7828C50.0642 37.3963 49.927 37.9851 49.7419 38.5699L49.3484 39.8131C49.2731 40.0505 49.2135 40.4031 49.2888 40.6558C49.8568 42.5665 50.4657 44.0186 51.7966 45.5152C52.0781 45.8318 52.3298 46.1514 52.5398 46.5133C53.4272 48.0429 52.7243 49.5566 51.3513 50.5767C49.9325 51.6303 47.9395 51.265 46.487 50.3668C44.1406 48.9155 42.2688 46.3277 41.4597 43.6891L41.2263 42.9293C40.9352 41.9799 40.7877 41.0311 40.7156 40.0289C40.6849 39.3331 40.7099 38.6627 40.4128 37.9683C40.1588 41.0422 40.7137 43.7421 42.2136 46.401C41.5264 47.4094 40.0148 48.4429 38.9216 48.9752C35.2191 50.7779 31.0421 50.5474 27.2351 49.106C26.0246 48.6475 24.9193 48.0823 23.7937 47.443C22.3682 46.6329 21.0652 45.6988 19.7761 44.692L17.6491 42.8746L16.6736 41.9322L14.6941 39.9146L13.4245 38.5035C11.2881 36.1296 8.17117 31.7627 6.48313 28.985C5.93918 28.0896 5.57053 27.1638 5.12766 26.2125C4.01643 23.8255 2.28172 21.8315 1.44797 19.9771C0.491756 17.85 -0.0847826 15.1132 0.0602779 12.7779C0.09446 12.2268 0.147323 11.6906 0.22727 11.1568C1.28956 11.2816 2.96411 10.8673 3.31321 10.0572C3.5842 9.42673 2.65233 9.10049 1.83469 9.0787L0.704809 9.24276L0.832739 8.8619C1.07837 8.94866 1.36511 8.92575 1.61008 8.74862L2.30735 8.24472L3.1179 8.5328C3.50764 8.67136 3.89128 8.51144 4.09739 8.2203C4.31779 9.21906 4.42842 10.2219 4.47825 11.2574C4.49534 11.6149 4.5853 12.012 4.75266 12.3433C5.07568 12.9829 5.81791 13.2049 6.46067 13.0308C8.06826 12.5949 8.82592 10.7798 8.98997 9.1705L9.00559 8.96444C9.06104 7.934 8.76159 6.85875 8.39719 5.84042L7.56711 6.24862C6.56258 6.74192 5.44677 6.9613 4.32786 7.09335C4.24459 7.10316 4.16806 7.10807 4.09641 7.12167L3.94602 6.6539L4.47043 5.97226C4.8995 5.41472 4.50304 4.60751 3.79954 4.60604L3.33665 4.60409C3.49535 4.45416 3.64863 4.29527 3.76829 4.0914C5.94339 1.9038 8.77097 0.716446 11.782 0.146084ZM53.3552 48.1432C53.4835 48.1203 53.6201 48.235 53.7195 48.3502C53.9149 48.577 54.1361 48.7936 54.2204 49.1002C54.3041 49.4039 54.1491 49.6453 53.8825 49.6939C53.5368 49.7566 53.1707 49.7375 52.7917 49.6627C53.0679 49.1513 53.2643 48.7208 53.3552 48.1432ZM6.27805 43.5699C6.68259 43.9288 7.0754 44.1445 7.56125 44.276C7.29559 45.0639 6.45374 46.2762 6.04758 45.606C5.8793 44.9278 5.96666 44.2357 6.27805 43.5699ZM9.59836 44.1275C9.5664 44.7753 9.02794 45.7341 8.69797 45.7027C8.28811 45.6623 7.96066 44.9192 7.98899 44.3463C8.55606 44.4339 9.04374 44.2781 9.59836 44.1275ZM9.46653 34.3717C9.55992 34.4132 9.68287 34.4887 9.73215 34.5553C11.0224 36.3048 12.3544 37.9538 13.8083 39.5885C13.8124 39.738 13.651 39.8719 13.5329 39.9693C13.125 40.3053 12.8032 40.7023 12.4763 41.1129L11.7546 42.0191C10.834 43.1753 9.49242 44.1053 7.9636 43.9713C7.25395 43.9088 6.65042 43.5065 6.24778 42.9107C5.24424 41.425 5.62606 39.3468 6.52707 37.8238C6.92682 37.1482 7.3554 36.5117 7.90403 35.9557L9.46653 34.3717ZM31.24 31.4107C31.0845 31.6539 31.0417 31.9046 30.9656 32.19C30.2726 34.7857 30.1709 37.6876 31.6228 40.0328C31.4758 41.0868 31.9414 43.1333 32.8269 43.0826C33.1868 43.0617 33.4172 42.7486 33.5544 42.4371L34.1306 43.1363C34.5767 43.677 35.3412 44.2327 35.7888 43.8053C35.9899 43.6128 35.9569 43.2889 35.9841 43.0025C36.5713 43.3699 37.2068 43.6854 37.6042 43.2887C37.9861 42.9076 37.6771 42.1886 37.3454 41.6607C37.2046 41.436 37.2558 41.3183 37.4333 41.1207C37.9318 40.5658 38.2081 39.8407 38.2165 39.0963L38.2536 35.818C38.2612 35.1403 38.4202 34.5066 38.6003 33.8629C38.7017 33.501 38.7412 33.1474 38.654 32.7467C38.3473 33.5393 37.9668 34.3427 37.9529 35.2135L37.9109 37.8199L37.8757 38.6392C37.9083 40.0056 37.1531 41.2856 35.8581 41.7808C34.8967 42.1483 33.8751 41.8381 33.115 41.1949C32.6467 40.7985 32.2984 40.3576 31.9714 39.8326C30.7424 37.8592 30.7048 35.3272 31.1443 33.0631C31.2511 32.5126 31.3118 32.0044 31.24 31.4107ZM33.8923 42.1627C34.3826 42.3101 34.7893 42.3721 35.2683 42.36C35.5966 42.524 35.6884 43.2057 35.5261 43.5172C35.3433 43.8683 34.2255 42.8076 33.8923 42.1627ZM5.33469 40.8219C5.30668 41.6294 5.49106 42.3751 5.90403 43.0904C5.64631 43.2792 5.37917 43.3602 5.07688 43.3892C4.83109 43.3688 4.56248 43.2037 4.56321 42.9117C4.56524 42.1682 4.82495 41.4221 5.33469 40.8219ZM37.3386 42.4898C37.407 42.6287 37.3929 42.892 37.3298 43.068C36.8258 43.1676 36.1332 42.6781 35.8015 42.2594C36.2562 42.0626 36.5391 41.9222 36.9226 41.65L37.3386 42.4898ZM31.9529 40.5699C32.3802 41.0643 32.7551 41.5017 33.2829 41.8443C33.3159 42.1621 33.2158 42.446 32.9343 42.6851C32.7802 42.708 32.5756 42.6387 32.5017 42.5064C32.1714 41.914 31.9516 41.2948 31.9529 40.5699ZM23.9753 26.2691L23.907 27.4361C23.7358 28.8792 23.4573 30.2648 23.1853 31.6891C23.0173 32.5684 22.9731 33.3999 23.1599 34.2828C23.1954 34.4504 23.1942 34.683 23.1364 34.8453C22.7564 35.9102 23.1131 37.1359 23.8181 37.0377C23.9643 37.017 24.1441 36.8954 24.3445 36.7516C24.48 37.2182 24.6027 37.7103 24.9294 38.0562C25.1869 38.3285 25.5571 38.3757 25.8327 38.1178C26.0618 37.903 26.2015 37.5834 26.3113 37.2877C26.5404 37.5788 26.7659 37.8581 27.0407 38.0357C27.3912 38.262 27.7568 38.1802 27.9792 37.8219C28.52 36.9503 28.033 35.9272 28.3279 35.6744C30.0057 34.235 30.5707 31.7606 30.7312 29.6324L30.8318 28.2994C30.8772 27.6999 30.6274 27.1081 30.4646 26.566L30.4118 29.0221C30.3151 30.2967 30.1277 31.53 29.7282 32.7457C29.4372 33.6317 28.978 34.4038 28.3591 35.0797C27.4231 36.1016 25.9814 36.4542 24.7468 35.816C24.0367 35.4488 23.6201 34.7764 23.4802 34.0045C23.2567 32.7708 23.5172 31.7392 23.782 30.5006C24.0033 29.4642 24.1487 28.4613 24.2292 27.4098L24.2322 26.4635L24.0505 25.3277L23.9753 26.2691ZM26.0281 36.5494C26.039 37.0315 25.8165 37.7719 25.4597 37.86C25.0743 37.9541 24.689 36.9512 24.7185 36.2506L26.0281 36.5494ZM27.823 36.0475C27.8629 36.5453 27.9157 37.0915 27.6863 37.5894C27.5933 37.7905 27.2724 37.7209 27.1316 37.606C26.8089 37.31 26.5809 36.923 26.4558 36.5074C26.942 36.4166 27.3336 36.2737 27.823 36.0475ZM23.4079 35.0103C23.7187 35.4181 23.9589 35.7272 24.3415 36.025C24.2737 36.2815 24.1003 36.4888 23.8874 36.6539C23.3282 36.7892 23.2066 35.7037 23.4079 35.0103ZM-3.28152 34.235C-2.75732 34.4813 -2.34111 34.6706 -1.80007 34.8082C-2.02165 35.2783 -2.29761 35.7514 -2.77371 36.023C-3.29764 36.3219 -3.47457 35.1454 -3.28152 34.235ZM-4.45535 32.7516C-4.20108 33.1972 -3.96918 33.5513 -3.61941 33.943C-3.74833 34.4096 -4.34269 34.7586 -4.80007 34.5953C-4.93502 33.9722 -4.72184 33.2989 -4.45535 32.7516ZM4.05442 25.1207C4.392 25.5881 4.59281 26.0683 4.82297 26.5807C5.29834 27.638 5.78079 28.6606 6.40012 29.6373V29.6363L7.14036 30.8043C5.21539 32.5353 2.30616 34.3817 -0.253199 34.5025C-2.38676 34.6031 -4.25808 33.6434 -4.26492 31.4361C-4.26723 30.6522 -4.00828 29.8927 -3.42605 29.3609C-3.02716 28.9967 -2.52139 28.7922 -2.00027 28.6471C-1.23004 28.4326 -0.504978 28.2297 0.2302 27.9185C1.45378 27.4008 2.53009 26.7029 3.44895 25.7486L4.05442 25.1207ZM18.0173 18.2535C17.9501 19.565 17.7091 20.801 17.2077 21.9937L16.6394 23.3463L15.3454 25.941C15.1396 26.3539 15.0933 26.8719 14.9607 27.2965C14.3587 27.895 13.5719 28.896 13.6999 29.6988C13.7401 29.949 14.0398 30.0866 14.2702 30.0367L14.862 29.9088C14.7517 30.6119 14.6658 31.2601 14.946 31.8678C15.0836 32.166 15.4586 32.3096 15.7331 32.1256C16.0025 31.9451 16.2162 31.6942 16.4685 31.4234C16.5994 32.0987 17.0206 32.97 17.6159 32.9488C18.3708 32.9214 18.6866 31.8762 18.7448 31.0035C19.7089 30.7963 20.5456 30.2411 21.1687 29.4459C22.1527 28.19 22.7927 26.7633 23.2087 25.2213C23.4372 24.374 23.5171 23.5501 23.5154 22.6715C23.5139 22.0238 23.547 21.4201 23.3933 20.7623C23.0219 21.503 23.2203 22.6376 23.0827 23.6695C22.8464 25.4417 22.195 27.1341 21.2214 28.6236C20.7716 29.3115 20.2099 29.8788 19.5124 30.275C18.385 30.9152 16.9723 30.7868 16.1374 29.8189C15.2742 28.8182 15.1563 27.4435 15.6482 26.235C15.9375 25.5236 16.2887 24.9011 16.6404 24.2115C17.3694 22.781 17.9675 21.3249 18.1833 19.7174C18.2511 19.2118 18.1413 18.7153 18.0173 18.2535ZM-4.58816 30.6861C-4.67244 31.2294 -4.68871 31.6463 -4.57839 32.1881C-5.25599 32.7006 -6.52465 32.8089 -6.37527 32.151C-5.94366 31.4812 -5.3435 30.9163 -4.58816 30.6861ZM16.8357 30.8453C17.3436 30.9944 17.8172 31.0776 18.3532 31.0924C18.3378 31.5711 18.1962 32.0591 17.8698 32.4351C17.7214 32.5998 17.5513 32.6242 17.3933 32.5006C17.0228 32.0376 16.7841 31.4635 16.8357 30.8453ZM15.4118 29.4986C15.7287 29.9563 15.9988 30.2813 16.4411 30.6031C16.2693 31.0765 15.7341 31.824 15.4236 31.7975C15.093 31.7683 15.0728 30.9149 15.1765 30.2975L15.4118 29.4986ZM14.9275 27.776C15.0016 28.2548 15.0436 28.602 15.2029 29.0572C14.9619 29.4614 14.5123 29.7126 14.0417 29.6695C14.0513 29.3276 14.1323 29.0726 14.2458 28.7896L14.9275 27.776ZM5.42649 10.8355C6.26417 10.0047 7.36823 9.39498 8.47239 9.84921C8.24266 11.1237 7.41079 12.6083 6.03977 12.6861C5.54268 12.7141 5.19513 12.5104 5.03293 12.0816C4.76366 11.3684 4.95555 11.3024 5.42649 10.8355ZM11.0622 1.35312C10.6644 0.773319 9.7741 0.901446 9.5554 1.56991L9.2136 2.61581L8.15793 2.92733C7.48312 3.12618 7.32896 4.01164 7.89719 4.42636L8.78586 5.07577L8.75559 6.17538C8.73618 6.87862 9.53226 7.29957 10.1023 6.88729L10.9939 6.24179L12.031 6.61093C12.0511 6.61809 12.0714 6.62389 12.0915 6.62948C12.0601 6.64122 12.0291 6.65418 11.9978 6.66659C11.448 6.88485 10.8942 7.21583 10.9695 7.71151C11.1524 8.91276 15.0884 8.58507 15.1941 7.23202C15.2223 6.86331 14.8094 6.59038 14.4958 6.49765C13.9708 6.34238 13.439 6.32187 12.9187 6.40683C13.1273 6.19578 13.2287 5.87855 13.1228 5.55038L12.7849 4.50253L13.4568 3.63046C13.8856 3.07301 13.4891 2.26593 12.7859 2.26425L11.6843 2.26132L11.0622 1.35312ZM5.73704 8.35507C5.2894 8.18476 5.12854 7.97512 4.87278 7.54354C5.30561 7.44863 5.61768 7.412 6.13352 7.3912L5.73704 8.35507ZM1.52219 4.29843C1.58477 4.1076 1.83922 4.07132 1.95286 4.2369L2.54758 5.10409C2.59268 5.16992 2.66701 5.20937 2.7468 5.20956H2.75168L3.79856 5.21151L3.86887 5.22226C4.02376 5.26864 4.09717 5.46264 3.98997 5.60214L3.34836 6.43612C3.30002 6.49927 3.28591 6.58208 3.31028 6.6578L3.63254 7.65878C3.69427 7.85007 3.5104 8.02885 3.32102 7.96151L2.33079 7.60897C2.27449 7.58895 2.21314 7.59115 2.15891 7.61288C2.14076 7.62015 2.12336 7.6295 2.10715 7.6412L1.25461 8.25741L1.23997 8.26815C1.22754 8.27584 1.21382 8.28058 1.2009 8.28573C1.19693 8.28732 1.19319 8.28926 1.18918 8.29062C1.16848 8.29761 1.14762 8.30121 1.12668 8.30233C1.12406 8.30248 1.12149 8.30228 1.11887 8.30233C1.10198 8.30268 1.08545 8.30155 1.06907 8.29843C1.06038 8.29677 1.05211 8.29416 1.04368 8.29159C1.03807 8.28988 1.03157 8.28979 1.0261 8.28769V8.28573C0.936585 8.25086 0.867747 8.16579 0.870825 8.05429L0.899145 7.00351C0.901348 6.92371 0.864017 6.84743 0.799536 6.80038L-0.0490971 6.18124C-0.211477 6.06276 -0.167692 5.80935 0.0251217 5.75253L1.03391 5.45565C1.1102 5.4331 1.17014 5.37397 1.19504 5.29843L1.52219 4.29843ZM10.1316 1.75839C10.194 1.56752 10.4485 1.53052 10.5622 1.69589L11.2927 2.7623C11.3378 2.82796 11.4123 2.86748 11.4919 2.86776L12.7839 2.86972L12.8025 2.87069C12.9916 2.88473 13.0947 3.10603 12.9763 3.26034L12.1882 4.28476C12.1396 4.348 12.1246 4.43148 12.1491 4.50741L12.5466 5.7369L12.5515 5.75448C12.5964 5.93871 12.4174 6.10469 12.2341 6.03964L11.0163 5.60604C10.9414 5.57959 10.8581 5.59179 10.7937 5.63827L9.7468 6.39608L9.73118 6.40585C9.5699 6.5056 9.35696 6.38736 9.36204 6.19296L9.39719 4.90097C9.39936 4.8214 9.36273 4.74588 9.29856 4.69882L8.25461 3.9371C8.09225 3.81863 8.13607 3.56524 8.32883 3.50839L9.56809 3.14315C9.64465 3.12059 9.70538 3.06179 9.7302 2.98593L10.1316 1.75839Z" fill="white"/>
</g>
<defs>
<clipPath id="clip0_7732_6483">
<rect width="16" height="16" fill="white"/>
</clipPath>
</defs>
</svg>
