<svg width="32" height="32" viewBox="0 0 32 32" fill="none" xmlns="http://www.w3.org/2000/svg">
<g clip-path="url(#clip0_7732_6453)">
<path fill-rule="evenodd" clip-rule="evenodd" d="M77.3622 121.893C77.8274 122.455 78.1299 123.123 78.414 123.904L78.2128 124.416C78.0343 124.864 75.1392 123.454 74.1855 122.162C75.2905 122.246 76.2267 122.178 77.3622 121.893ZM81.0351 119.613C81.6858 119.684 82.5306 121.123 82.415 122.001C81.5213 122.794 79.6446 122.159 78.4804 121.473L81.0351 119.613ZM63.0615 109.941C67.2494 111.006 71.3909 111.494 75.624 110.986L79.0419 110.413C79.5921 110.32 80.0312 110.394 80.4169 110.833C81.0747 111.579 81.7987 112.371 82.0351 113.376C82.8682 116.915 79.9443 120.632 76.1884 121.29V121.289C74.7485 121.541 73.3842 121.338 72.0644 120.842C68.7147 119.586 65.5234 115.775 64.1728 112.574L63.0615 109.941ZM84.3134 117.076L84.3144 117.075C84.4668 117.23 84.6251 117.679 84.6874 117.867C84.8958 118.493 84.554 119.161 83.8017 119.227C83.0862 119.29 82.2678 119.047 81.7226 118.71L83.0038 115.75L84.3134 117.076ZM36.5292 112.886C38.0162 113.529 39.421 113.882 40.9804 113.526C41.1264 115.039 40.1762 117.271 39.1327 117.131C38.8513 117.094 38.5112 116.868 38.2538 116.643C37.3541 115.578 36.786 114.351 36.5292 112.886ZM44.163 112.42C44.5373 113.282 44.7186 114.279 44.4443 115.255C44.1748 116.212 42.5513 115.006 41.9589 113.492L44.163 112.42ZM111.067 112.649C111.64 113.41 112.231 114.412 111.871 115.112C111.515 115.803 108.991 114.49 107.95 113.181H107.949C108.985 113.189 109.946 113.03 111.067 112.649ZM35.0722 111.839C35.2781 112.082 35.6975 112.348 35.5243 112.853C35.2428 113.673 34.8833 114.305 34.3622 115.026C33.4001 113.976 33.2319 111.406 33.3857 109.85V109.849L35.0722 111.839ZM115.015 109.681C116.091 110.273 117.228 111.603 116.759 112.458C116.17 113.529 113.598 113.031 112.153 112.174C113.322 111.415 114.113 110.687 115.015 109.681ZM37.1542 94.1392C39.1891 96.073 41.2064 97.7342 43.3417 99.4439L47.5781 102.457L47.746 102.585C48.095 102.881 48.1581 103.153 48.0136 103.673L46.9365 107.551C46.646 108.597 46.0418 109.464 45.332 110.331C43.9733 111.989 42.0271 112.767 39.9579 112.802C38.0503 112.835 36.3645 112.18 35.1406 110.703C31.8309 106.706 34.1942 101.763 35.8593 97.4751L37.1542 94.1392ZM25.5595 0.320814C30.6874 -0.650061 35.7408 0.67423 40.2675 3.06007C42.9938 4.49656 45.4679 6.10716 47.7665 8.1587C49.9177 10.0791 51.9193 13.0682 53.245 15.6489C53.9664 17.0523 54.4501 18.4917 54.8632 20.0249C56.2334 25.1062 58.4923 29.7579 61.6972 33.9165L64.6474 37.7437C67.9763 42.0634 72.2026 45.5892 77.1064 48.0337C80.0386 49.495 83.0648 50.4871 86.2499 51.2085C88.7913 51.7841 91.181 52.3598 93.5419 53.4995C95.4572 54.4234 97.2 55.5852 98.8027 57.0025L101.916 60.1109C103.579 62.0205 104.98 64.0577 106.134 66.313C107.857 69.6821 109.521 74.808 109.532 78.5191L109.54 80.6978C109.544 82.0437 109.243 83.3348 108.837 84.6177L107.973 87.3443C107.807 87.8651 107.677 88.6383 107.842 89.1929C109.088 93.385 110.423 96.5714 113.343 99.855C113.96 100.55 114.511 101.249 114.972 102.042L114.974 102.043C116.921 105.4 115.379 108.72 112.366 110.959C109.253 113.27 104.882 112.467 101.695 110.497C96.5476 107.313 92.441 101.637 90.6659 95.8482L90.1542 94.1802C89.5155 92.0974 89.1914 90.0176 89.0331 87.8189C88.9658 86.292 89.0211 84.8211 88.3691 83.2974C87.8117 90.0412 89.0305 95.9641 92.3212 101.797C90.8137 104.01 87.496 106.277 85.0976 107.445C76.975 111.4 67.812 110.894 59.4599 107.732C56.8041 106.726 54.3797 105.485 51.9101 104.083C48.7828 102.305 45.9246 100.257 43.0966 98.0484L38.4306 94.0611L36.289 91.9946L31.9472 87.5669L29.162 84.4712C24.475 79.2632 17.6358 69.6841 13.9325 63.5903C12.7391 61.626 11.9306 59.5946 10.9589 57.5073C8.52104 52.2707 4.7167 47.8959 2.88763 43.8277C0.789784 39.1609 -0.474669 33.157 -0.15632 28.0337C-0.0813389 26.8247 0.0335608 25.6498 0.208915 24.479C2.53942 24.7528 6.2146 23.8431 6.9804 22.0659C7.575 20.6827 5.53007 19.9663 3.73626 19.9185L1.25774 20.2778L1.41497 19.8091C1.9123 20.0622 2.54007 20.0611 3.06536 19.6812L4.1181 18.9194L5.3427 19.355C6.58261 19.796 7.7897 18.624 7.38567 17.3716L6.98724 16.1343L7.77923 15.104C8.58178 14.061 7.84036 12.5511 6.52435 12.5484L5.22454 12.5454L5.06829 12.3169C5.32552 11.9654 5.59775 11.6146 5.93841 11.1939C6.57395 10.4091 7.43178 9.90596 7.97649 8.97804C12.7487 4.17819 18.9532 1.57205 25.5595 0.320814ZM116.763 105.62C117.044 105.569 117.344 105.822 117.561 106.075L117.889 106.447C118.215 106.822 118.522 107.215 118.661 107.72C118.844 108.387 118.504 108.915 117.919 109.021C117.16 109.158 116.357 109.118 115.525 108.954C116.131 107.831 116.563 106.887 116.763 105.62ZM13.4843 95.5864C14.3721 96.3741 15.2334 96.8468 16.2997 97.1353C15.717 98.864 13.8695 101.524 12.9784 100.053C12.6092 98.5652 12.8011 97.0471 13.4843 95.5864ZM20.7675 96.8091C20.6976 98.2309 19.5148 100.337 18.7909 100.266C17.8919 100.177 17.175 98.5463 17.2372 97.2896C18.4813 97.4817 19.5508 97.1395 20.7675 96.8091ZM20.6396 75.4878C20.8075 75.5796 20.9803 75.7002 21.0615 75.8101C23.8921 79.6484 26.8132 83.2649 30.0029 86.8511C30.0124 87.1796 29.6586 87.4731 29.3993 87.687C28.5043 88.4242 27.7982 89.2951 27.081 90.1958L25.498 92.1831C23.4783 94.7199 20.5358 96.7614 17.1816 96.4673C15.6246 96.3304 14.3013 95.4484 13.4179 94.1411C11.2154 90.8817 12.0523 86.3216 14.0292 82.98C14.9062 81.4977 15.8471 80.1023 17.0507 78.8823L20.4775 75.4077L20.6396 75.4878ZM68.245 68.9116C67.9038 69.4452 67.8096 69.9951 67.6425 70.6216C66.1224 76.3159 65.9009 82.6808 69.0859 87.8257C68.763 90.1377 69.7837 94.6274 71.7265 94.5161C72.5168 94.4706 73.021 93.7838 73.3222 93.1001L74.5878 94.6353C75.5665 95.8214 77.2427 97.0407 78.2245 96.103C78.6661 95.6809 78.5936 94.9707 78.6533 94.3423C79.9413 95.1483 81.336 95.8403 82.2079 94.9702C83.0459 94.1342 82.3691 92.5571 81.6415 91.3989C81.3315 90.9049 81.4438 90.6466 81.8339 90.2124C82.9274 88.995 83.5323 87.4051 83.5507 85.772L83.6318 78.5796C83.6483 77.0929 83.9972 75.7028 84.3925 74.2905L84.4687 73.9937C84.6317 73.3013 84.6771 72.6118 84.5097 71.8423C83.8367 73.5812 83.0021 75.3433 82.9716 77.2534L82.8798 82.9722L82.8036 84.7691C82.8754 87.7668 81.2182 90.5753 78.3769 91.6616C76.2676 92.4677 74.0269 91.7875 72.3593 90.3765C71.3318 89.5067 70.568 88.54 69.8505 87.3882C67.154 83.0589 67.071 77.504 68.0351 72.5366C68.2696 71.3288 68.4026 70.2143 68.245 68.9116ZM74.0644 92.4995C75.1402 92.8229 76.0329 92.9579 77.0839 92.9312C77.8042 93.2913 78.0038 94.788 77.6474 95.4712C77.2457 96.2404 74.7951 93.9142 74.0644 92.4995ZM11.413 89.5571C11.3514 91.3291 11.7568 92.9652 12.663 94.5347C12.0977 94.9488 11.5126 95.1253 10.8495 95.189C10.31 95.1444 9.72069 94.7833 9.72259 94.1421C9.72706 92.5109 10.2947 90.8739 11.413 89.5571ZM81.6249 93.2163C81.7754 93.5208 81.7449 94.0985 81.6064 94.4849C80.5006 94.7038 78.9816 93.6302 78.2538 92.7114C79.2514 92.2798 79.8705 91.9707 80.7118 91.3736L81.6249 93.2163ZM69.8105 89.0044C70.7481 90.089 71.5693 91.0495 72.7275 91.8013C72.7999 92.4985 72.5805 93.1204 71.9628 93.645C71.6248 93.6952 71.1766 93.5436 71.0146 93.2534C70.2897 91.9535 69.8075 90.5951 69.8105 89.0044ZM52.3075 57.6304L52.1581 60.1929C51.7825 63.3587 51.1719 66.3976 50.5751 69.522C50.2066 71.4512 50.1086 73.2746 50.5185 75.2114C50.5966 75.5793 50.5956 76.0903 50.4687 76.4468C49.6349 78.783 50.417 81.4721 51.9638 81.2564C52.2846 81.2111 52.6785 80.9431 53.1181 80.6275C53.4155 81.6512 53.6837 82.7308 54.4003 83.4898C54.9652 84.0876 55.7777 84.1913 56.3827 83.6255C56.8853 83.1544 57.1917 82.453 57.4325 81.8042C57.9352 82.4428 58.4302 83.0551 59.0331 83.4448C59.8021 83.9414 60.6046 83.7624 61.0927 82.9761C62.2785 81.0644 61.2084 78.8203 61.8544 78.2652L61.8564 78.2661C65.538 75.1084 66.7768 69.6786 67.1288 65.0093L67.3495 62.0855C67.4492 60.7702 66.901 59.472 66.5439 58.2827L66.4286 63.6704C66.2164 66.467 65.805 69.173 64.9286 71.8403C64.2899 73.7842 63.2828 75.4785 61.9247 76.9614C59.8713 79.2032 56.7094 79.9768 54.0009 78.5767C52.4428 77.7712 51.5306 76.2956 51.2236 74.6021C50.733 71.8952 51.3028 69.6322 51.8837 66.9146C52.3692 64.6409 52.6895 62.4411 52.8661 60.1343L52.872 58.0571L52.4736 55.5669L52.3075 57.6304ZM56.8124 80.1861C56.8364 81.2437 56.3482 82.8661 55.5654 83.0591C54.7196 83.2672 53.8736 81.0664 53.9384 79.5288L56.8124 80.1861ZM60.7499 79.0835C60.8376 80.1762 60.9521 81.3746 60.4482 82.4673C60.244 82.9081 59.5422 82.7545 59.2333 82.5025C58.5254 81.853 58.0255 81.0041 57.7509 80.0923C58.8177 79.893 59.6761 79.5801 60.7499 79.0835ZM51.0644 76.8091C51.7462 77.7036 52.2709 78.3815 53.1103 79.0347C52.9615 79.5973 52.5821 80.0504 52.1152 80.4126C50.8883 80.7095 50.6228 78.3302 51.0644 76.8091ZM-7.48835 75.106C-6.33815 75.6465 -5.42639 76.062 -4.23933 76.3638C-4.72545 77.3952 -5.32951 78.4347 -6.37409 79.0308C-7.52363 79.6863 -7.9122 77.1034 -7.48835 75.106ZM-10.0645 71.854C-9.50663 72.8319 -8.99614 73.6069 -8.22858 74.4663C-8.51142 75.4902 -9.8169 76.2564 -10.8204 75.898H-10.8194C-11.1155 74.5311 -10.6491 73.0548 -10.0645 71.854ZM8.60638 55.1109C9.34736 56.1366 9.78672 57.1915 10.2919 58.3159C11.3348 60.6356 12.3912 62.8774 13.7499 65.02V65.0181L15.3749 67.5806C11.1519 71.3781 4.77093 75.4288 -0.84382 75.6939C-5.52506 75.9148 -9.6309 73.8094 -9.64558 68.9663C-9.6506 67.2466 -9.08293 65.581 -7.80573 64.4146C-6.93069 63.6155 -5.82099 63.1675 -4.6778 62.8491C-2.98799 62.3786 -1.39717 61.9321 0.215751 61.2495C2.90001 60.1136 5.26248 58.5842 7.27825 56.4907L8.60638 55.1109ZM39.2382 40.0464C39.0908 42.9238 38.5609 45.6354 37.4609 48.2525L36.2138 51.2193L33.3769 56.9116C32.925 57.8177 32.8232 58.9547 32.5322 59.8862C31.2116 61.1992 29.4857 63.3936 29.7665 65.1548C29.8543 65.7043 30.5117 66.0074 31.0175 65.898L32.3144 65.6167C32.0723 67.1595 31.8848 68.5812 32.4999 69.9146C32.8018 70.569 33.6241 70.8832 34.2265 70.479C34.8175 70.083 35.2853 69.533 35.8388 68.939C36.126 70.4206 37.0509 72.3325 38.3574 72.2857C40.0134 72.2256 40.7062 69.9327 40.8339 68.0181C42.9489 67.5634 44.7843 66.3457 46.1513 64.6011C48.3101 61.8459 49.7143 58.7165 50.6269 55.3335C51.1283 53.4742 51.3016 51.6659 51.2978 49.7378C51.2946 48.3167 51.3696 46.9927 51.0322 45.5493C50.2168 47.1742 50.6523 49.6641 50.3505 51.9282C49.8319 55.8162 48.4034 59.5296 46.2675 62.7974C45.2806 64.3063 44.0476 65.5503 42.5175 66.4194C40.044 67.8241 36.9448 67.5421 35.1132 65.4185C33.2195 63.2229 32.9609 60.2075 34.04 57.5562C34.6748 55.9956 35.4453 54.6295 36.2167 53.1167C37.8163 49.9783 39.127 46.7842 39.6005 43.2573C39.7492 42.1481 39.5102 41.0595 39.2382 40.0464ZM-10.3565 67.3218C-10.5414 68.5136 -10.5751 69.4281 -10.3331 70.6167C-11.8194 71.741 -14.6034 71.9794 -14.2764 70.5366C-13.3296 69.0672 -12.0137 67.8268 -10.3565 67.3218ZM36.6445 67.6714C37.759 67.9986 38.7984 68.1789 39.9745 68.2114C39.9409 69.2621 39.6302 70.3335 38.914 71.1587C38.5881 71.5202 38.2149 71.5738 37.8681 71.3023C37.0553 70.2867 36.5314 69.0276 36.6445 67.6714ZM33.5214 64.7173C34.2167 65.7214 34.8089 66.433 35.7792 67.1392C35.4024 68.1777 34.2291 69.8177 33.5478 69.7593C32.8222 69.6961 32.7774 67.8242 33.0048 66.4693L33.5214 64.7173ZM32.4599 60.938C32.6226 61.9885 32.713 62.7497 33.0624 63.7486C32.5337 64.6355 31.5473 65.1862 30.5146 65.0913C30.5356 64.3413 30.7147 63.7824 30.9638 63.1616L32.4599 60.938ZM16.3124 13.7095C14.1086 14.7919 11.6609 15.2742 9.20599 15.564C8.7955 15.6124 8.46223 15.5987 8.14642 15.896C9.01001 18.8026 9.39018 21.6871 9.53509 24.6987C9.57259 25.4831 9.76841 26.3544 10.1357 27.0816C10.8443 28.4849 12.4745 28.9714 13.8847 28.5894C17.4115 27.6328 19.0728 23.6502 19.4325 20.1196H19.4335C19.6775 17.723 18.9856 15.1982 18.1327 12.815L16.3124 13.7095ZM11.6152 23.773C13.453 21.9501 15.8753 20.6121 18.2978 21.6089C17.7938 24.4048 15.9696 27.6607 12.9618 27.8316C11.8707 27.8933 11.1068 27.4484 10.7509 26.5073C10.16 24.9424 10.582 24.7973 11.6152 23.773ZM2.79388 12.2163C2.91231 11.8543 3.39394 11.785 3.60931 12.0991L4.55853 13.4839C4.63645 13.5976 4.76145 13.6671 4.89739 13.6792L6.52239 13.6821L6.55657 13.6831C6.56698 13.6839 6.5777 13.6856 6.58782 13.687L6.61614 13.688C6.99706 13.6888 7.21169 14.1254 6.97942 14.4273L5.95501 15.7583C5.86288 15.8782 5.83632 16.0363 5.88274 16.1802L6.39837 17.7778C6.51533 18.1404 6.16547 18.4797 5.80657 18.3521L4.22454 17.7896C4.08202 17.7389 3.92327 17.7614 3.80071 17.8501L2.44036 18.8345C2.13173 19.0576 1.70134 18.8295 1.71185 18.4487L1.75774 16.771C1.76192 16.6198 1.69147 16.4754 1.56927 16.3862L0.212821 15.397C-0.0948257 15.1725 -0.0117083 14.6923 0.353446 14.5845L1.96478 14.1099C2.10978 14.0671 2.22438 13.9557 2.27142 13.812L2.79388 12.2163ZM31.5107 14.2554C29.6679 13.7105 27.7927 13.9275 26.0312 14.6265C24.825 15.1053 23.6102 15.8319 23.7753 16.9194C24.1765 19.5549 32.8125 18.8362 33.0439 15.8677C33.1063 15.058 32.1988 14.4585 31.5107 14.2554ZM12.2968 18.3306C11.3146 17.9569 10.9606 17.4975 10.3993 16.5503C11.3496 16.3419 12.0345 16.262 13.1669 16.2163L12.2968 18.3306ZM24.2851 5.73878C23.5432 4.65638 21.8969 4.87389 21.4501 6.08937L21.4296 6.14796L21.0195 7.39992L19.7568 7.77199C18.478 8.14886 18.1867 9.82791 19.2636 10.6138L20.3271 11.3902L20.2909 12.7066C20.2542 14.0393 21.7615 14.8356 22.8417 14.0542L23.9081 13.2827L25.1493 13.7241C26.4053 14.1705 27.628 12.983 27.2187 11.7144L26.8144 10.4614L27.6181 9.41749C28.4308 8.36104 27.6795 6.83073 26.3466 6.82765L25.0292 6.82472L24.2851 5.73878ZM22.5214 6.50538C22.6399 6.14359 23.1214 6.07446 23.3368 6.3882L24.2861 7.77394L24.3027 7.7964C24.3892 7.90747 24.5231 7.97287 24.665 7.97316L26.3437 7.97706L26.3788 7.97804C26.7374 8.00469 26.9318 8.42389 26.707 8.71632L25.6825 10.0474C25.5904 10.1672 25.5639 10.3253 25.6103 10.4693L26.1249 12.0669C26.2418 12.4294 25.893 12.7688 25.5341 12.6411L23.9521 12.0786C23.8096 12.0279 23.6508 12.0505 23.5283 12.1392L22.1679 13.1235L22.1386 13.1431C21.8329 13.3321 21.4296 13.1073 21.4394 12.7388L21.4853 11.0601C21.4895 10.9089 21.419 10.7654 21.2968 10.6763L19.9404 9.68605C19.6328 9.4615 19.7167 8.98125 20.082 8.87355L21.6923 8.39894C21.8373 8.35614 21.9519 8.24476 21.999 8.10109L22.5214 6.50538Z" fill="white"/>
</g>
<defs>
<clipPath id="clip0_7732_6453">
<rect width="32" height="32" fill="white"/>
</clipPath>
</defs>
</svg>
