<svg width="64" height="64" viewBox="0 0 64 64" fill="none" xmlns="http://www.w3.org/2000/svg">
<g clip-path="url(#clip0_7731_6325)">
<path fill-rule="evenodd" clip-rule="evenodd" d="M154.445 242.807C155.371 243.926 155.972 245.257 156.538 246.812L156.139 247.83C155.786 248.726 150.017 245.917 148.116 243.341C150.318 243.509 152.183 243.375 154.445 242.807ZM161.761 238.265C163.057 238.408 164.739 241.273 164.509 243.022C162.729 244.602 158.99 243.336 156.671 241.97L161.761 238.265ZM125.958 218.998C134.301 221.12 142.55 222.092 150.983 221.08L157.79 219.938C158.886 219.754 159.76 219.901 160.529 220.775C161.839 222.263 163.281 223.839 163.752 225.84C165.411 232.891 159.588 240.293 152.107 241.604V241.602C149.238 242.104 146.52 241.701 143.891 240.714C137.218 238.212 130.861 230.618 128.171 224.242L125.958 218.998ZM168.29 233.21L168.292 233.209C168.596 233.518 168.912 234.413 169.036 234.786C169.452 236.032 168.77 237.363 167.272 237.496C165.846 237.621 164.216 237.137 163.13 236.466L165.681 230.568L168.29 233.21ZM73.1057 224.866C76.0678 226.145 78.8664 226.849 81.9729 226.139C82.264 229.153 80.3708 233.601 78.2922 233.323C77.7315 233.248 77.0539 232.797 76.5412 232.349C74.7489 230.227 73.6171 227.784 73.1057 224.866ZM88.3127 223.937C89.0583 225.654 89.42 227.64 88.8733 229.585C88.3365 231.492 85.102 229.087 83.9221 226.071L88.3127 223.937ZM221.583 224.392C222.725 225.908 223.901 227.905 223.184 229.299C222.474 230.676 217.448 228.06 215.374 225.453H215.372C217.436 225.468 219.35 225.152 221.583 224.392ZM70.2043 222.781C70.6145 223.264 71.4489 223.793 71.1037 224.799C70.543 226.433 69.8272 227.69 68.7893 229.127C66.8727 227.036 66.5376 221.918 66.844 218.818V218.817L70.2043 222.781ZM229.446 218.482C231.59 219.662 233.855 222.309 232.921 224.011C231.748 226.145 226.625 225.154 223.747 223.447C226.075 221.935 227.649 220.485 229.446 218.482ZM74.3518 187.521C78.4053 191.373 82.4225 194.683 86.676 198.088L95.1145 204.09L95.1155 204.089C96.1001 204.791 96.3117 205.327 95.9827 206.513L93.8371 214.239C93.2586 216.321 92.0538 218.048 90.6399 219.774C87.9333 223.078 84.0566 224.628 79.9348 224.699C76.1347 224.764 72.7772 223.458 70.3391 220.515C63.7464 212.553 68.4549 202.709 71.7717 194.167L74.3518 187.521ZM51.2541 0.63908C61.469 -1.29508 71.5347 1.34351 80.552 6.09611C85.9828 8.95758 90.9116 12.1657 95.4905 16.2524C99.7755 20.0778 103.764 26.0316 106.405 31.1723C107.841 33.9677 108.804 36.8349 109.627 39.8891C112.357 50.0107 116.856 59.2762 123.24 67.56L129.116 75.185C135.747 83.7897 144.166 90.8127 153.934 95.6821C159.775 98.5929 165.803 100.568 172.148 102.005C177.21 103.152 181.97 104.299 186.673 106.569C190.489 108.409 193.961 110.724 197.154 113.547L203.354 119.739C206.667 123.543 209.458 127.601 211.756 132.093C215.189 138.804 218.504 149.015 218.527 156.407L218.54 160.747C218.549 163.428 217.949 165.999 217.14 168.555L215.42 173.988C215.091 175.025 214.829 176.564 215.158 177.668C217.641 186.019 220.3 192.367 226.116 198.908C227.347 200.291 228.444 201.683 229.362 203.265L229.364 203.266C233.244 209.952 230.172 216.567 224.17 221.026C217.97 225.63 209.262 224.032 202.914 220.106C192.66 213.764 184.479 202.456 180.944 190.925L179.925 187.604C178.653 183.455 178.008 179.312 177.693 174.932C177.558 171.891 177.669 168.96 176.37 165.925C175.26 179.359 177.687 191.156 184.241 202.776C181.239 207.183 174.63 211.7 169.853 214.027C153.673 221.905 135.42 220.897 118.782 214.598C113.492 212.594 108.664 210.123 103.744 207.329C97.5148 203.788 91.8211 199.708 86.1877 195.308L76.8938 187.367L72.6272 183.249L63.9797 174.43L58.4309 168.263C49.0945 157.889 35.4717 138.808 28.095 126.669C25.7176 122.756 24.1067 118.71 22.1711 114.552C17.3149 104.121 9.73546 95.4069 6.09202 87.3031C1.91319 78.0071 -0.604691 66.0467 0.0295238 55.8412C0.178902 53.4328 0.407705 51.0925 0.757063 48.7602C5.39931 49.3055 12.7198 47.4955 14.2453 43.9555C15.4313 41.1994 11.3571 39.7724 7.78343 39.6772L2.84593 40.392L3.15941 39.4594C4.15007 39.9635 5.40016 39.9614 6.44651 39.2045L8.54417 37.6869L10.9836 38.5551C13.4535 39.4334 15.8588 37.0977 15.0539 34.6029L14.258 32.1391L15.8381 30.0873C17.4367 28.0099 15.9594 25.0002 13.3381 24.9945L10.7483 24.9897L10.4358 24.5346C10.9481 23.8345 11.4907 23.1352 12.1692 22.2973C13.4353 20.7338 15.1456 19.732 16.2307 17.8832C25.7367 8.32215 38.0947 3.13149 51.2541 0.63908ZM232.929 210.389C233.49 210.289 234.085 210.793 234.519 211.296H234.521C235.375 212.288 236.341 213.233 236.709 214.574C237.075 215.901 236.397 216.953 235.232 217.165C233.72 217.439 232.121 217.359 230.464 217.032C231.672 214.796 232.531 212.914 232.929 210.389ZM27.2004 190.406C28.9688 191.974 30.6848 192.915 32.8088 193.49C31.6479 196.933 27.9675 202.232 26.1926 199.302C25.4572 196.338 25.8397 193.315 27.2004 190.406ZM41.7102 192.84C41.5709 195.672 39.2146 199.867 37.7727 199.726C35.9816 199.549 34.5511 196.301 34.675 193.797H34.676C37.1547 194.18 39.286 193.499 41.7102 192.84ZM41.1311 150.208C41.5398 150.39 42.0798 150.72 42.2952 151.011C47.9336 158.657 53.752 165.861 60.1057 173.004C60.1245 173.659 59.4209 174.242 58.9045 174.668C57.1209 176.137 55.7136 177.873 54.2844 179.667L51.1321 183.625C47.1089 188.679 41.2473 192.745 34.5657 192.159C31.4643 191.886 28.8282 190.13 27.0686 187.526C22.6813 181.033 24.3482 171.949 28.2864 165.292C30.0333 162.34 31.9074 159.56 34.3049 157.13L41.1311 150.209V150.208ZM136.282 137.27C135.603 138.333 135.416 139.427 135.083 140.675C132.055 152.019 131.613 164.698 137.958 174.947C137.315 179.552 139.347 188.494 143.217 188.273C144.792 188.183 145.797 186.815 146.397 185.453L148.917 188.509C150.867 190.872 154.205 193.301 156.161 191.433C157.041 190.592 156.897 189.178 157.016 187.926C159.582 189.532 162.36 190.91 164.097 189.176C165.766 187.511 164.416 184.37 162.967 182.063C162.35 181.079 162.574 180.565 163.351 179.701C165.529 177.275 166.735 174.107 166.772 170.854L166.932 156.528C166.965 153.566 167.661 150.797 168.448 147.984H168.447C168.891 146.402 169.063 144.858 168.682 143.107C167.341 146.571 165.679 150.081 165.618 153.886L165.434 165.279L165.283 168.856C165.426 174.827 162.125 180.423 156.465 182.587C152.264 184.193 147.8 182.838 144.478 180.028C142.431 178.295 140.91 176.368 139.481 174.074C134.109 165.45 133.944 154.385 135.864 144.491C136.332 142.085 136.596 139.865 136.282 137.27ZM147.874 184.256C150.017 184.901 151.795 185.168 153.889 185.115C155.324 185.831 155.723 188.813 155.013 190.174C154.214 191.709 149.33 187.075 147.874 184.256ZM23.0764 178.394C22.9536 181.924 23.7615 185.182 25.5666 188.309C24.4402 189.135 23.2737 189.486 21.9524 189.613C20.8777 189.524 19.7036 188.805 19.7073 187.528C19.7162 184.278 20.8484 181.017 23.0764 178.394ZM162.934 185.683C163.234 186.289 163.174 187.44 162.898 188.21C160.695 188.647 157.669 186.507 156.22 184.677C158.207 183.817 159.441 183.203 161.116 182.013L162.934 185.683ZM139.402 177.292C141.27 179.453 142.905 181.367 145.212 182.865C145.356 184.253 144.919 185.493 143.689 186.538C143.015 186.638 142.122 186.336 141.799 185.758C140.355 183.169 139.395 180.462 139.402 177.292ZM104.535 114.798L104.238 119.901C103.489 126.207 102.275 132.261 101.086 138.485C100.352 142.328 100.156 145.959 100.973 149.818C101.129 150.551 101.125 151.569 100.872 152.28C99.2114 156.933 100.77 162.289 103.851 161.859C104.49 161.769 105.275 161.236 106.151 160.607C106.743 162.646 107.278 164.796 108.705 166.308C109.831 167.499 111.448 167.706 112.654 166.579C113.655 165.64 114.266 164.243 114.745 162.951C115.747 164.223 116.732 165.444 117.934 166.22C119.465 167.209 121.063 166.853 122.035 165.287C124.399 161.478 122.265 157.006 123.554 155.901L123.557 155.903C130.89 149.613 133.357 138.798 134.059 129.497L134.498 123.672C134.697 121.052 133.605 118.465 132.894 116.096L132.665 126.829C132.242 132.399 131.423 137.79 129.677 143.103C128.405 146.975 126.399 150.349 123.694 153.303C119.603 157.769 113.305 159.31 107.909 156.521C104.806 154.916 102.988 151.978 102.376 148.604C101.399 143.212 102.536 138.705 103.693 133.291C104.66 128.762 105.297 124.38 105.649 119.785L105.661 115.647L104.866 110.686L104.535 114.798ZM113.509 159.727C113.557 161.834 112.585 165.066 111.026 165.451C109.341 165.866 107.656 161.482 107.784 158.419L113.509 159.727ZM121.354 157.532C121.528 159.708 121.756 162.094 120.752 164.271C120.346 165.15 118.948 164.843 118.332 164.341C116.922 163.047 115.924 161.358 115.377 159.541H115.378C117.504 159.144 119.214 158.521 121.354 157.532ZM102.059 153C103.417 154.782 104.464 156.132 106.136 157.433C105.84 158.554 105.083 159.457 104.153 160.179C101.709 160.77 101.179 156.03 102.059 153ZM-14.5759 149.609C-12.2848 150.686 -10.4688 151.512 -8.10427 152.114C-9.07269 154.168 -10.2761 156.239 -12.3572 157.426C-14.6467 158.731 -15.4201 153.587 -14.5759 149.609ZM-19.7068 143.129C-18.5954 145.077 -17.5797 146.623 -16.0506 148.335C-16.6141 150.375 -19.2138 151.899 -21.2127 151.185H-21.2107C-21.8005 148.462 -20.8714 145.521 -19.7068 143.129ZM17.4846 109.779C18.9606 111.822 19.8367 113.923 20.843 116.163C22.9204 120.783 25.0241 125.249 27.7307 129.517V129.514L30.968 134.619C22.5557 142.183 9.84396 150.251 -1.34059 150.779C-10.6654 151.219 -18.8436 147.026 -18.8728 137.378C-18.8828 133.953 -17.752 130.635 -15.2078 128.311C-13.4646 126.719 -11.2537 125.827 -8.97634 125.193C-5.61039 124.256 -2.44303 123.366 0.769758 122.006C6.11692 119.744 10.8226 116.697 14.8381 112.527L17.4846 109.779ZM78.5012 79.7709C78.2075 85.5028 77.1525 90.9045 74.9612 96.1176L72.4778 102.027L66.8264 113.367C65.9265 115.171 65.7235 117.436 65.1438 119.291C62.5133 121.907 59.075 126.277 59.634 129.786C59.8088 130.88 61.1186 131.484 62.1262 131.266L64.7092 130.706C64.2269 133.78 63.8541 136.611 65.0793 139.267C65.6806 140.571 67.3187 141.196 68.5188 140.391C69.696 139.602 70.6281 138.507 71.7307 137.324C72.3029 140.275 74.1456 144.083 76.7483 143.99C80.0469 143.87 81.4274 139.304 81.6819 135.49H81.6809C85.8938 134.584 89.5507 132.159 92.2737 128.684C96.574 123.196 99.3708 116.961 101.189 110.222C102.187 106.519 102.532 102.917 102.525 99.0766C102.518 96.2457 102.667 93.6082 101.994 90.7328C100.37 93.9698 101.238 98.9296 100.637 103.44C99.6039 111.185 96.7589 118.581 92.5041 125.09C90.5382 128.096 88.0817 130.574 85.0334 132.305C80.1065 135.103 73.9348 134.541 70.2864 130.311C66.5141 125.938 65.9972 119.931 68.1467 114.65C69.4113 111.541 70.9459 108.821 72.4827 105.807C75.669 99.5552 78.2807 93.192 79.2239 86.1664C79.52 83.957 79.043 81.7888 78.5012 79.7709ZM-20.2879 134.102C-20.6562 136.476 -20.7252 138.298 -20.2429 140.666C-23.2041 142.906 -28.7493 143.38 -28.0965 140.505C-26.2102 137.578 -23.5893 135.108 -20.2879 134.102ZM73.3362 134.798C75.5563 135.45 77.6261 135.811 79.969 135.875C79.9019 137.968 79.2833 140.102 77.8567 141.746C77.2073 142.466 76.4638 142.571 75.7727 142.03V142.031C74.1537 140.008 73.1108 137.5 73.3362 134.798ZM67.1145 128.914C68.4993 130.915 69.6788 132.332 71.6116 133.739C70.8609 135.807 68.5244 139.074 67.1672 138.957C65.7217 138.832 65.633 135.103 66.0862 132.404L67.1145 128.914ZM65.0002 121.386C65.3243 123.479 65.5032 124.996 66.1994 126.986C65.1461 128.752 63.1829 129.847 61.1262 129.659C61.168 128.165 61.5236 127.052 62.0198 125.816L65.0002 121.386ZM32.8342 27.308C28.444 29.4642 23.5682 30.4252 18.678 31.0024C17.8604 31.0987 17.1976 31.0714 16.5686 31.6635C18.2889 37.4535 19.0465 43.1993 19.3352 49.1987C19.4099 50.7611 19.8 52.4964 20.5315 53.9447C21.943 56.7403 25.1892 57.7096 27.9983 56.9487C35.0241 55.0434 38.3335 47.1098 39.05 40.0766L39.051 40.0776C39.537 35.3035 38.159 30.2742 36.4602 25.5268L32.8342 27.308ZM23.4787 47.3549C27.1398 43.7236 31.9646 41.0583 36.7903 43.0444C35.7864 48.6138 32.1519 55.0996 26.1604 55.4399C23.9869 55.5628 22.466 54.6757 21.7571 52.8012C20.5799 49.6838 21.4205 49.3955 23.4787 47.3549ZM5.90648 24.3334C6.1424 23.6123 7.10249 23.4743 7.53148 24.1L9.4221 26.8598C9.56808 27.0728 9.79622 27.2115 10.0481 27.2475L13.3332 27.2543L13.4026 27.2563C13.4218 27.2577 13.4405 27.2615 13.4592 27.2641L13.5207 27.2651C14.2795 27.2666 14.7072 28.1373 14.2444 28.7387L12.2043 31.3891C12.0205 31.6279 11.9663 31.9422 12.0588 32.2289L13.0862 35.4125C13.319 36.1346 12.6223 36.8104 11.9075 36.5561L8.75608 35.435C8.47218 35.334 8.15648 35.3795 7.91233 35.5561L5.20237 37.517C4.58758 37.9616 3.72929 37.5079 3.75023 36.7494L3.843 33.4057C3.85129 33.1045 3.71042 32.8186 3.46702 32.641L0.764875 30.6694C0.15193 30.2221 0.318264 29.2657 1.04613 29.0512L4.25413 28.1059C4.54317 28.0207 4.77176 27.7985 4.86546 27.5121L5.90648 24.3334ZM63.1096 28.3959C59.4386 27.3103 55.7026 27.7426 52.1936 29.1352C49.7909 30.089 47.3715 31.5363 47.7004 33.7026C48.4992 38.9525 65.7025 37.5211 66.1633 31.6078C66.2879 29.995 64.4803 28.8006 63.1096 28.3959ZM24.8352 36.5131C22.8788 35.7687 22.1749 34.8548 21.0569 32.9682C22.9496 32.553 24.3139 32.3931 26.5696 32.3022L24.8352 36.5131ZM48.716 11.432C47.2384 9.27573 43.9587 9.70806 43.0686 12.1293L43.0276 12.2465L42.2112 14.7397L39.6955 15.4809C37.1484 16.2317 36.568 19.5776 38.7131 21.143L40.8323 22.6879L40.759 25.311C40.6859 27.9656 43.6894 29.5521 45.841 27.9955L47.9651 26.4584L50.4368 27.3373C52.9388 28.2272 55.3759 25.8616 54.5608 23.3344L53.7551 20.8373L55.3547 18.7592C56.9741 16.6545 55.4772 13.6064 52.8215 13.601L50.1985 13.5951L48.716 11.432ZM45.2024 12.9584C45.4383 12.2374 46.3994 12.0993 46.8284 12.725L48.719 15.4848L48.7522 15.5297C48.9245 15.7508 49.1896 15.8815 49.4719 15.8822L52.8176 15.8901L52.8869 15.892C53.6013 15.9451 53.9893 16.7812 53.5412 17.3637L51.5002 20.0141C51.3166 20.2528 51.2623 20.5673 51.3547 20.8539L52.3821 24.0375C52.6147 24.7594 51.919 25.4349 51.2043 25.1811L48.053 24.06C47.7691 23.959 47.4533 24.0045 47.2092 24.1811L44.4983 26.141L44.4407 26.1801C43.8315 26.5571 43.0271 26.109 43.0471 25.3744L43.1399 22.0307C43.1482 21.7295 43.0072 21.4436 42.7639 21.266L40.0618 19.2944C39.4489 18.8471 39.6153 17.8907 40.343 17.6762L43.551 16.7309C43.84 16.6457 44.0686 16.4234 44.1623 16.1371L45.2024 12.9584Z" fill="white"/>
</g>
<defs>
<clipPath id="clip0_7731_6325">
<rect width="64" height="64" fill="white"/>
</clipPath>
</defs>
</svg>
