<svg width="64" height="64" viewBox="0 0 64 64" fill="none" xmlns="http://www.w3.org/2000/svg">
<g clip-path="url(#clip0_7731_6364)">
<path fill-rule="evenodd" clip-rule="evenodd" d="M154.319 242.807C155.246 243.926 155.847 245.256 156.413 246.811L156.013 247.83C155.66 248.724 149.891 245.917 147.99 243.341C150.192 243.509 152.057 243.375 154.319 242.807ZM161.635 238.264C162.931 238.407 164.614 241.272 164.384 243.021C162.604 244.601 158.865 243.335 156.546 241.969L161.635 238.264ZM125.832 218.998C134.175 221.119 142.424 222.091 150.857 221.079L157.665 219.937C158.761 219.753 159.635 219.901 160.403 220.775C161.714 222.262 163.155 223.838 163.626 225.839C165.285 232.89 159.463 240.292 151.982 241.603V241.602C149.113 242.104 146.394 241.701 143.765 240.714C137.092 238.212 130.735 230.617 128.045 224.241L125.832 218.998ZM168.165 233.209L168.166 233.208C168.47 233.517 168.786 234.411 168.91 234.785C169.325 236.031 168.644 237.362 167.146 237.495C165.721 237.62 164.091 237.137 163.005 236.466L165.556 230.568L168.165 233.209ZM72.9806 224.866C75.9425 226.145 78.7407 226.848 81.8468 226.138C82.1378 229.151 80.2454 233.599 78.1671 233.322C77.6066 233.247 76.9287 232.797 76.4162 232.349C74.6238 230.227 73.4921 227.784 72.9806 224.866ZM88.1867 223.937C88.9321 225.654 89.2948 227.639 88.7482 229.584C88.2113 231.491 84.976 229.086 83.796 226.07L88.1867 223.937ZM221.458 224.392C222.6 225.908 223.775 227.905 223.058 229.298C222.348 230.675 217.322 228.059 215.248 225.452H215.247C217.31 225.467 219.225 225.152 221.458 224.392ZM70.0783 222.78C70.4885 223.263 71.324 223.793 70.9787 224.799C70.4179 226.433 69.7011 227.69 68.6632 229.126C66.7469 227.035 66.4126 221.917 66.7189 218.817V218.816L70.0783 222.78ZM229.319 218.481C231.464 219.661 233.73 222.308 232.796 224.01C231.623 226.144 226.499 225.153 223.621 223.446C225.949 221.934 227.523 220.484 229.319 218.481ZM74.2257 187.521C78.2791 191.373 82.2965 194.683 86.5499 198.088L94.9884 204.09L94.9904 204.088C95.9748 204.79 96.1865 205.327 95.8576 206.512L93.7121 214.239C93.1335 216.321 91.9287 218.048 90.5148 219.774C87.8084 223.078 83.9321 224.626 79.8107 224.698C76.0107 224.764 72.6522 223.457 70.214 220.515C63.6211 212.553 68.3288 202.708 71.6456 194.166L74.2257 187.521ZM51.129 0.639134C61.3437 -1.29487 71.4098 1.34266 80.4269 6.09519C85.8575 8.9566 90.7866 12.1649 95.3654 16.2514C99.6503 20.0769 103.638 26.0309 106.278 31.1714C107.715 33.9668 108.679 36.834 109.502 39.8882C112.231 50.0098 116.73 59.2762 123.114 67.56L128.991 75.1841C135.622 83.7886 144.04 90.8118 153.808 95.6811C159.649 98.592 165.678 100.567 172.023 102.004C177.085 103.151 181.845 104.299 186.548 106.569C190.363 108.409 193.835 110.724 197.027 113.547L203.229 119.738C206.541 123.542 209.333 127.6 211.631 132.092C215.064 138.803 218.379 149.015 218.402 156.407L218.414 160.746C218.423 163.427 217.824 165.999 217.015 168.554L215.294 173.987C214.965 175.024 214.704 176.563 215.033 177.667C217.516 186.018 220.175 192.366 225.991 198.907C227.222 200.29 228.319 201.683 229.236 203.264L229.238 203.265C233.118 209.951 230.046 216.567 224.044 221.026C217.844 225.63 209.136 224.03 202.789 220.105C192.535 213.763 184.354 202.456 180.818 190.925L179.799 187.603C178.527 183.454 177.883 179.311 177.568 174.931C177.433 171.89 177.543 168.959 176.244 165.924C175.134 179.358 177.561 191.156 184.116 202.776C181.113 207.183 174.504 211.701 169.727 214.027C153.547 221.904 135.294 220.896 118.657 214.597C113.367 212.593 108.538 210.123 103.619 207.329C97.3897 203.789 91.696 199.707 86.0626 195.307L76.7677 187.366L72.5021 183.249L63.8537 174.429L58.3048 168.262C48.9686 157.888 35.3456 138.808 27.9689 126.669C25.5916 122.757 23.9806 118.71 22.0451 114.552C17.1889 104.121 9.61042 95.4059 5.96693 87.3022C1.78818 78.0063 -0.730639 66.0466 -0.0965443 55.8413C0.0528316 53.4327 0.282598 51.0917 0.631971 48.7593C5.27419 49.3045 12.5937 47.4944 14.1193 43.9546C15.3051 41.1986 11.2319 39.7716 7.65834 39.6762L2.72084 40.3921L3.27943 38.7309C4.35304 39.1101 5.60524 39.0083 6.67591 38.2339L9.72084 36.0298L13.2638 37.2905C14.9671 37.8962 16.6433 37.1985 17.5441 35.9262C18.5073 40.2912 18.9924 44.6731 19.2101 49.1987C19.2849 50.7611 19.6748 52.4965 20.4064 53.9448C21.8181 56.7399 25.0642 57.7096 27.8732 56.9487C34.8988 55.0433 38.2084 47.1087 38.9249 40.0757L38.9259 40.0766C39.4119 35.3026 38.0329 30.2732 36.3341 25.5259L32.7091 27.3081C28.319 29.4642 23.443 30.4243 18.5529 31.0014C18.1886 31.0444 17.8545 31.0631 17.5411 31.1225L16.8829 29.0796L19.1749 26.1001C21.0496 23.6637 19.3174 20.1349 16.2433 20.1284L14.2179 20.1235C14.9121 19.4678 15.5822 18.774 16.1056 17.8823C25.6116 8.32139 37.9697 3.13153 51.129 0.639134ZM232.804 210.389C233.364 210.289 233.96 210.792 234.394 211.295H234.395C235.249 212.287 236.216 213.233 236.584 214.574C236.949 215.901 236.272 216.952 235.107 217.165C233.595 217.438 231.996 217.359 230.339 217.032C231.547 214.796 232.406 212.914 232.804 210.389ZM27.0753 190.405C28.8436 191.973 30.5597 192.915 32.6837 193.49C31.5228 196.933 27.8424 202.23 26.0675 199.301C25.3322 196.337 25.7146 193.314 27.0753 190.405ZM41.5841 192.84C41.4446 195.672 39.0895 199.866 37.6476 199.725C35.8564 199.549 34.426 196.3 34.5499 193.796H34.5509C37.0292 194.179 39.1603 193.499 41.5841 192.84ZM41.006 150.207C41.4148 150.389 41.9539 150.72 42.1691 151.011C47.8074 158.657 53.6261 165.86 59.9796 173.003C59.9984 173.658 59.2949 174.241 58.7785 174.667C56.9949 176.136 55.5884 177.872 54.1593 179.666L51.007 183.625C46.9839 188.679 41.1219 192.743 34.4406 192.158C31.3393 191.885 28.7031 190.129 26.9435 187.525C22.5563 181.032 24.223 171.948 28.1613 165.291C29.9082 162.339 31.7823 159.559 34.1798 157.129L41.006 150.209V150.207ZM136.156 137.269C135.477 138.332 135.29 139.426 134.957 140.674C131.929 152.018 131.488 164.697 137.833 174.946C137.19 179.551 139.222 188.495 143.092 188.273C144.666 188.182 145.672 186.814 146.272 185.452L148.792 188.508C150.742 190.871 154.079 193.3 156.035 191.432C156.915 190.591 156.772 189.177 156.891 187.925C159.457 189.531 162.234 190.909 163.971 189.175C165.64 187.51 164.291 184.37 162.842 182.063C162.224 181.079 162.449 180.565 163.226 179.7C165.404 177.275 166.609 174.107 166.646 170.854L166.807 156.527C166.84 153.565 167.536 150.796 168.323 147.983H168.322C168.765 146.401 168.938 144.857 168.557 143.106C167.216 146.57 165.553 150.08 165.492 153.885L165.31 165.278L165.158 168.856C165.301 174.827 162 180.422 156.34 182.586C152.139 184.192 147.674 182.837 144.353 180.027C142.306 178.294 140.785 176.367 139.356 174.073C133.984 165.449 133.819 154.384 135.739 144.49C136.206 142.084 136.47 139.864 136.156 137.269ZM147.749 184.255C149.892 184.9 151.67 185.168 153.764 185.115C155.199 185.832 155.598 188.813 154.888 190.174C154.089 191.708 149.205 187.074 147.749 184.255ZM22.9513 178.393C22.8286 181.923 23.6364 185.182 25.4415 188.308C24.315 189.134 23.1478 189.486 21.8263 189.613C20.7517 189.524 19.5785 188.804 19.5822 187.527C19.5911 184.277 20.7233 181.016 22.9513 178.393ZM162.809 185.682C163.109 186.288 163.048 187.44 162.772 188.209C160.569 188.645 157.543 186.507 156.094 184.677C158.081 183.817 159.315 183.202 160.99 182.012L162.809 185.682ZM139.277 177.292C141.144 179.453 142.78 181.367 145.087 182.865C145.231 184.253 144.794 185.493 143.564 186.538C142.89 186.638 141.997 186.335 141.674 185.757C140.23 183.168 139.271 180.461 139.277 177.292ZM139.277 177.292L139.275 177.29H139.277V177.292ZM104.41 114.797L104.112 119.901C103.364 126.207 102.149 132.26 100.96 138.484C100.226 142.327 100.031 145.959 100.848 149.817C101.003 150.55 100.999 151.57 100.746 152.28C99.0857 156.933 100.645 162.288 103.726 161.858C104.365 161.767 105.15 161.235 106.026 160.606C106.618 162.645 107.152 164.796 108.58 166.308C109.705 167.498 111.324 167.705 112.528 166.579C113.53 165.64 114.141 164.243 114.62 162.951C115.621 164.223 116.607 165.443 117.808 166.219C119.339 167.208 120.937 166.852 121.909 165.286C124.273 161.477 122.14 157.006 123.429 155.901L123.431 155.902C130.764 149.612 133.232 138.797 133.934 129.496L134.373 123.671C134.572 121.051 133.48 118.464 132.769 116.095L132.54 126.829C132.117 132.399 131.298 137.789 129.552 143.102C128.28 146.974 126.274 150.349 123.568 153.303C119.478 157.769 113.18 159.31 107.784 156.521C104.681 154.917 102.862 151.978 102.25 148.604C101.273 143.212 102.41 138.705 103.567 133.291C104.534 128.762 105.171 124.379 105.523 119.784L105.535 115.646L104.74 110.686L104.41 114.797ZM113.383 159.726C113.431 161.833 112.46 165.066 110.901 165.451C109.216 165.866 107.53 161.481 107.659 158.418L113.383 159.726ZM121.229 157.532C121.403 159.708 121.631 162.095 120.627 164.271C120.221 165.149 118.822 164.842 118.206 164.34C116.796 163.047 115.799 161.357 115.252 159.54H115.253C117.378 159.143 119.089 158.521 121.229 157.532ZM101.934 152.999C103.292 154.781 104.339 156.131 106.011 157.432C105.715 158.553 104.959 159.458 104.028 160.179C101.584 160.771 101.054 156.03 101.934 152.999ZM-14.701 149.608C-12.4101 150.685 -10.5938 151.512 -8.22936 152.113C-9.19775 154.167 -10.4013 156.238 -12.4823 157.425C-14.7721 158.731 -15.5453 153.587 -14.701 149.608ZM-19.8329 143.129C-18.7215 145.077 -17.7056 146.622 -16.1766 148.334C-16.7401 150.374 -19.339 151.898 -21.3378 151.185H-21.3358C-21.9256 148.462 -20.9974 145.521 -19.8329 143.129ZM17.3585 109.779C18.8344 111.822 19.7116 113.923 20.7179 116.163C22.7952 120.783 24.8992 125.248 27.6056 129.516V129.513L30.8429 134.618C22.4308 142.182 9.71885 150.251 -1.46568 150.779C-10.7903 151.219 -18.9684 147.025 -18.9979 137.378C-19.008 133.953 -17.8773 130.634 -15.3329 128.31C-13.5898 126.718 -11.3796 125.826 -9.1024 125.192C-5.73644 124.255 -2.56814 123.365 0.644667 122.005C5.99173 119.743 10.6976 116.696 14.713 112.526L17.3585 109.779ZM78.3761 79.771C78.0824 85.5026 77.0273 90.9037 74.8361 96.1167L72.3517 102.026L66.7013 113.366C65.8013 115.171 65.5985 117.435 65.0187 119.291C62.3881 121.906 58.9495 126.277 59.5089 129.786C59.684 130.88 60.9936 131.483 62.0011 131.265L64.5841 130.706C64.1018 133.779 63.7289 136.611 64.9542 139.267C65.5559 140.57 67.1938 141.195 68.3937 140.39C69.5708 139.601 70.5032 138.507 71.6056 137.324C72.1779 140.275 74.0198 144.082 76.6222 143.989C79.9208 143.869 81.3033 139.303 81.5578 135.489H81.5558C85.7686 134.583 89.4247 132.158 92.1476 128.683C96.448 123.195 99.2447 116.96 101.063 110.221C102.061 106.518 102.407 102.916 102.4 99.0757C102.393 96.2451 102.541 93.6079 101.869 90.7329C100.246 93.9698 101.112 98.9289 100.511 103.439C99.4779 111.184 96.6337 118.58 92.379 125.089C90.4131 128.095 87.9565 130.573 84.9083 132.304C79.9816 135.102 73.8098 134.54 70.1613 130.311C66.3889 125.938 65.8723 119.931 68.0216 114.65C69.2863 111.541 70.8207 108.82 72.3576 105.806C75.5438 99.5544 78.1556 93.1918 79.0988 86.1665C79.3949 83.9572 78.9179 81.7888 78.3761 79.771ZM-20.4139 134.102C-20.7822 136.476 -20.8503 138.298 -20.368 140.665C-23.3291 142.905 -28.8744 143.379 -28.2215 140.504C-26.3354 137.577 -23.7151 135.108 -20.4139 134.102ZM73.2111 134.797C75.4312 135.449 77.5019 135.81 79.8449 135.874C79.7777 137.967 79.1582 140.102 77.7316 141.746C77.0823 142.466 76.3386 142.57 75.6476 142.029V142.031C74.0286 140.008 72.9858 137.499 73.2111 134.797ZM66.9894 128.914C68.3742 130.914 69.5536 132.332 71.4865 133.739C70.7357 135.807 68.3983 139.072 67.0412 138.957C65.5962 138.83 65.5071 135.102 65.9601 132.404L66.9894 128.914ZM64.8742 121.386C65.1982 123.479 65.3782 124.995 66.0744 126.985C65.0211 128.751 63.057 129.847 61.0001 129.659C61.0419 128.165 61.3975 127.051 61.8937 125.815L64.8742 121.386ZM23.3536 47.354C27.0147 43.7227 31.8395 41.0573 36.6652 43.0434C35.6612 48.6128 32.0257 55.0987 26.0343 55.4389C23.8612 55.5618 22.3409 54.6744 21.632 52.8003C20.4549 49.6829 21.2953 49.3947 23.3536 47.354ZM47.9826 5.91745C46.2447 3.38146 42.3526 3.93884 41.3966 6.86081L39.9005 11.4321L35.2872 12.7925C32.3384 13.6616 31.6662 17.5339 34.1495 19.3462L38.0343 22.1821L37.9025 26.9907C37.8178 30.0637 41.2934 31.9005 43.7843 30.0991L47.6818 27.2788L52.214 28.8911C52.3031 28.9228 52.3928 28.9504 52.4816 28.9751C52.3434 29.0267 52.205 29.0797 52.0675 29.1343C49.665 30.088 47.2467 31.5356 47.5753 33.7016C48.3747 38.9511 65.5757 37.5208 66.0372 31.6079C66.1623 29.9949 64.3554 28.7998 62.9845 28.395C60.6901 27.7165 58.3697 27.6302 56.0958 28.0014C57.0075 27.0792 57.4501 25.6913 56.9874 24.2573L55.5109 19.6792L58.4435 15.8667C60.3185 13.4302 58.5862 9.90235 55.5119 9.89597L50.7013 9.8862L47.9826 5.91745ZM24.7101 36.5132C22.7536 35.7688 22.0488 34.8538 20.9308 32.9673C22.8235 32.5521 24.1879 32.3921 26.4435 32.3012L24.7101 36.5132ZM6.29213 18.7866C6.56543 17.952 7.67747 17.7927 8.17396 18.5171L10.7706 22.3081C10.9678 22.5957 11.294 22.7682 11.6427 22.769H11.6642L16.2374 22.7778C17.1158 22.7796 17.6109 23.7877 17.0753 24.4839L14.2736 28.1255C14.0608 28.4019 13.9975 28.7652 14.1046 29.0971L15.5158 33.4702C15.6257 33.8113 15.5546 34.1423 15.3781 34.396C15.2302 34.6086 15.0087 34.7679 14.7521 34.8296C14.705 34.8409 14.6566 34.8484 14.6076 34.853C14.5588 34.8576 14.5093 34.8585 14.4591 34.8559C14.4086 34.8534 14.3573 34.8477 14.3058 34.8374C14.2546 34.8272 14.2031 34.8128 14.1515 34.7944L9.8224 33.2544C9.69911 33.2105 9.57077 33.19 9.44349 33.1928C9.35873 33.1948 9.27441 33.207 9.19252 33.229C9.11069 33.2509 9.03144 33.2832 8.95619 33.3247C8.9184 33.3455 8.88126 33.3684 8.84584 33.394L5.12318 36.0874L5.0558 36.1323C5.04271 36.1404 5.02801 36.1463 5.01478 36.1538C4.99824 36.1631 4.98173 36.1719 4.96498 36.1801C4.93754 36.1937 4.90984 36.2054 4.88197 36.2163C4.86524 36.2228 4.84902 36.2302 4.83216 36.2358C4.79026 36.2498 4.74855 36.2626 4.70619 36.271C4.69005 36.2742 4.67352 36.2744 4.65736 36.2768C4.63123 36.2807 4.60534 36.2848 4.57924 36.2866C4.5554 36.2883 4.53168 36.2875 4.50795 36.2876C4.48669 36.2876 4.46559 36.2879 4.44447 36.2866C4.41956 36.2851 4.39488 36.283 4.37025 36.2798C4.35482 36.2777 4.33964 36.2747 4.32435 36.2719C4.29873 36.2674 4.27333 36.2627 4.24818 36.2563C4.22667 36.2509 4.20581 36.2435 4.1847 36.2368C4.16544 36.2306 4.14596 36.2255 4.12709 36.2182H4.12513V36.2173C3.73205 36.066 3.42921 35.6884 3.44252 35.1997L3.56947 30.6059C3.579 30.2574 3.41648 29.9267 3.1349 29.7212L-0.577013 27.0122C-1.28633 26.4944 -1.09423 25.3884 -0.251818 25.1401L4.15541 23.8413C4.49001 23.7427 4.75495 23.4853 4.86341 23.1538L6.29213 18.7866ZM43.9162 7.68406C44.1896 6.84981 45.3005 6.69045 45.797 7.41453L48.9884 12.0727C49.1855 12.3603 49.5119 12.5328 49.8605 12.5337L55.507 12.5444L55.588 12.5473C56.4151 12.6088 56.8638 13.5771 56.3449 14.2514L52.9005 18.726C52.6882 19.0024 52.6255 19.366 52.7326 19.6977L54.466 25.0708L54.4884 25.1489C54.6855 25.9545 53.9034 26.6792 53.1017 26.394L47.7824 24.5024C47.4538 24.3857 47.0883 24.4377 46.8058 24.6421L42.2316 27.9516L42.1642 27.9975C41.459 28.4336 40.5276 27.9143 40.5509 27.0639L40.7072 21.4194C40.7166 21.0709 40.5533 20.7402 40.2716 20.5346L35.7111 17.2065C35.0019 16.6887 35.1939 15.5818 36.0363 15.3335L41.4523 13.7378C41.7867 13.6391 42.0518 13.3825 42.1603 13.0512L43.9162 7.68406Z" fill="white"/>
</g>
<defs>
<clipPath id="clip0_7731_6364">
<rect width="64" height="64" fill="white"/>
</clipPath>
</defs>
</svg>
