<svg width="16" height="16" viewBox="0 0 16 16" fill="none" xmlns="http://www.w3.org/2000/svg">
<g clip-path="url(#clip0_7732_6492)">
<path fill-rule="evenodd" clip-rule="evenodd" d="M35.3451 55.5618C35.5571 55.8178 35.6951 56.1221 35.8246 56.4779L35.7328 56.7113C35.6521 56.9161 34.3316 56.2734 33.8968 55.6839C34.4006 55.7222 34.8274 55.6919 35.3451 55.5618ZM37.0189 54.5228C37.3155 54.5554 37.7004 55.2104 37.6478 55.6107C37.2405 55.9721 36.3855 55.683 35.8548 55.3704L37.0189 54.5228ZM28.8265 50.1136C30.7355 50.5992 32.6235 50.8218 34.5531 50.5902L36.1107 50.3284C36.3615 50.2864 36.5618 50.32 36.7376 50.5199C37.0374 50.8603 37.3671 51.2211 37.475 51.679C37.8547 53.2925 36.522 54.9866 34.8099 55.2865C34.1537 55.4013 33.5316 55.3091 32.93 55.0833C31.4033 54.5107 29.949 52.7728 29.3334 51.3138L28.8265 50.1136ZM38.513 53.3656H38.514C38.5834 53.4361 38.6555 53.6403 38.6839 53.7259C38.7789 54.0111 38.6233 54.3156 38.2806 54.346C37.9545 54.3747 37.5809 54.2642 37.3324 54.1107L37.9164 52.7611L38.513 53.3656ZM16.7318 51.4564C17.4096 51.7492 18.0502 51.9099 18.7611 51.7474C18.8277 52.437 18.3949 53.4546 17.9193 53.3909C17.791 53.3738 17.6362 53.2707 17.5189 53.1683C17.1087 52.6827 16.8488 52.1242 16.7318 51.4564ZM20.2123 51.2435C20.3829 51.6365 20.4653 52.0912 20.3402 52.5365C20.2172 52.9723 19.4773 52.4219 19.2074 51.7318L20.2123 51.2435ZM50.7084 51.348C50.9696 51.6948 51.2387 52.1521 51.0746 52.471C50.9116 52.7853 49.7619 52.1876 49.2875 51.5911L49.6371 51.5784C49.9833 51.5514 50.3253 51.4783 50.7084 51.348ZM16.0687 50.9788C16.1626 51.0894 16.3526 51.2105 16.2738 51.4408C16.1455 51.8144 15.9819 52.1023 15.7445 52.431C15.3061 51.9522 15.2291 50.7808 15.2992 50.0716L16.0687 50.9788ZM52.5072 49.9954C52.9979 50.2654 53.5168 50.8716 53.3031 51.2611C53.0345 51.7491 51.8618 51.5218 51.2035 51.1312C51.7361 50.7853 52.0962 50.4536 52.5072 49.9954ZM17.0169 42.9105C17.9444 43.7919 18.864 44.5492 19.8373 45.3284L21.7689 46.7025C21.9939 46.8628 22.0422 46.9853 21.9671 47.2562L21.4759 49.0247C21.3435 49.5012 21.068 49.8964 20.7445 50.2913C20.1252 51.0472 19.2383 51.402 18.2953 51.4183C17.4256 51.4334 16.6569 51.1336 16.099 50.4603C14.5909 48.6385 15.6682 46.3863 16.4271 44.432L17.0169 42.9105ZM11.7318 0.146806C14.0692 -0.295785 16.3725 0.307402 18.4359 1.39485C19.6786 2.04965 20.807 2.7839 21.8548 3.71907C22.8353 4.59443 23.7477 5.95687 24.3519 7.13313C24.6807 7.77281 24.9009 8.42937 25.0892 9.12825C25.7138 11.4443 26.7436 13.5648 28.2044 15.4603L29.5492 17.2044C31.0665 19.1734 32.9928 20.7806 35.2279 21.8949C36.5644 22.5609 37.9441 23.0133 39.3959 23.3421C40.5543 23.6045 41.6439 23.8666 42.7201 24.3861C43.5932 24.8072 44.3879 25.3376 45.1185 25.9837L46.5375 27.3997C47.2955 28.2701 47.9336 29.199 48.4593 30.2269C49.245 31.7626 50.0039 34.0998 50.0091 35.7913L50.0121 36.7835C50.0141 37.3971 49.8769 37.9858 49.6917 38.5706L49.2982 39.8138C49.2229 40.0511 49.1635 40.4028 49.2386 40.6556C49.8067 42.5666 50.4153 44.0191 51.7464 45.5159C52.0279 45.8325 52.2786 46.1512 52.4886 46.513V46.514C53.3764 48.0438 52.6735 49.5573 51.3001 50.5775C49.8813 51.631 47.8893 51.2648 46.4369 50.3665C44.0904 48.9153 42.2177 46.3284 41.4085 43.6898L41.1761 42.93C40.885 41.9806 40.7375 41.0318 40.6654 40.0296C40.6347 39.3338 40.6597 38.6634 40.3626 37.9691C40.1086 41.043 40.6635 43.7428 42.1634 46.4017C41.4763 47.4101 39.9646 48.4436 38.8714 48.9759C35.169 50.7786 30.9919 50.548 27.1849 49.1068C25.9744 48.6482 24.8691 48.083 23.7435 47.4437C22.318 46.6336 21.015 45.6995 19.7259 44.6927L17.599 42.8753L16.6224 41.9329L14.6439 39.9154L13.3744 38.5042C11.2379 36.1303 8.12 31.7634 6.43198 28.9857C5.88807 28.0904 5.51939 27.1645 5.07652 26.2132C3.96531 23.8264 2.23157 21.8322 1.3978 19.9779C0.441594 17.8507 -0.134947 15.1139 0.0101085 12.7786C0.044292 12.2275 0.0971498 11.6913 0.177101 11.1575C1.23941 11.2822 2.914 10.8679 3.26304 10.0579C3.53391 9.42751 2.60212 9.10121 1.78452 9.07942L0.65464 9.24349L0.721046 9.04524C0.846825 9.02136 0.972236 8.969 1.08823 8.88509L2.04917 8.18977L3.16831 8.58724C3.51264 8.70965 3.85269 8.61627 4.08628 8.40559C4.28065 9.34349 4.38132 10.2863 4.42808 11.2581C4.44516 11.6156 4.5342 12.0127 4.70152 12.3441C5.02452 12.9837 5.7677 13.2057 6.4105 13.0316C8.01794 12.5955 8.77576 10.7805 8.9398 9.17122C9.05103 8.07873 8.73481 6.92754 8.34605 5.84114L7.51694 6.24934C6.51239 6.74271 5.39665 6.96201 4.27769 7.09407C4.26255 7.09586 4.24745 7.09745 4.23277 7.09895L3.97984 6.31575L4.70444 5.37532C5.16646 4.77497 4.7392 3.90455 3.98179 3.90267H3.9105C5.47389 2.39827 7.35635 1.38703 9.39194 0.734696L9.14487 1.48958L7.71909 1.91048C6.99233 2.12468 6.82675 3.07911 7.43882 3.52571L8.63902 4.40169L8.598 5.88704C8.5771 6.64443 9.4343 7.09769 10.0482 6.65364L11.2523 5.78157L12.6527 6.28059C13.3665 6.5343 14.0621 5.85902 13.8294 5.13802L13.3724 3.72395L14.2787 2.54524C14.7406 1.94479 14.3136 1.07514 13.556 1.07356L12.0697 1.07063L11.471 0.197587C11.5576 0.18009 11.6449 0.163265 11.7318 0.146806ZM53.305 48.1439C53.4333 48.1212 53.57 48.2358 53.6693 48.3509C53.8648 48.5778 54.0859 48.7942 54.1703 49.1009C54.254 49.4048 54.0982 49.6462 53.8314 49.6947C53.4856 49.7573 53.1196 49.7383 52.7406 49.6634C53.0169 49.1518 53.2141 48.7216 53.305 48.1439ZM6.22788 43.5706C6.63256 43.9296 7.02502 44.1452 7.51109 44.2767C7.24545 45.0646 6.40361 46.2767 5.99741 45.6068C5.82912 44.9285 5.91648 44.2365 6.22788 43.5706ZM9.54819 44.1283C9.51621 44.7763 8.97675 45.7359 8.64683 45.7034C8.23704 45.6629 7.91049 44.9198 7.93882 44.347C8.5058 44.4345 8.99363 44.2788 9.54819 44.1283ZM9.5648 34.4544C9.61372 34.4869 9.65727 34.5225 9.68198 34.556C10.9722 36.3056 12.3032 37.9545 13.7572 39.5892C13.7612 39.7386 13.6008 39.8717 13.4828 39.9691C13.0746 40.3052 12.7522 40.7029 12.4251 41.1136L11.7044 42.0189C10.7839 43.1751 9.44228 44.106 7.91343 43.972C7.20372 43.9096 6.60027 43.5073 6.19761 42.9115C5.19385 41.4257 5.57478 39.3467 6.47593 37.8236C6.87566 37.1479 7.30525 36.5124 7.85386 35.9564L9.41538 34.3724L9.5648 34.4544ZM31.1888 31.4115C31.0333 31.6547 30.9906 31.9052 30.9144 32.1908C30.2215 34.7864 30.1207 37.6883 31.5726 40.0335C31.4256 41.0874 31.8904 43.1338 32.7757 43.0833C33.1361 43.0627 33.366 42.7486 33.5033 42.4368L34.0804 43.137C34.5265 43.6776 35.2901 44.233 35.7376 43.806C35.9389 43.6135 35.9067 43.2897 35.9339 43.0033C36.521 43.3706 37.1567 43.686 37.5541 43.2894C37.9357 42.9082 37.6269 42.1893 37.2953 41.6615C37.1542 41.4365 37.2055 41.3191 37.3832 41.1214C37.8816 40.5665 38.1569 39.8414 38.1654 39.097L38.2025 35.8187C38.21 35.1411 38.369 34.5072 38.5492 33.8636C38.6505 33.5017 38.6901 33.1482 38.6029 32.7474C38.2961 33.54 37.9156 34.3435 37.9017 35.2142L37.8597 37.8206L37.8255 38.64C37.8582 40.0062 37.1028 41.2863 35.808 41.7816C34.8465 42.149 33.8249 41.8388 33.0648 41.1956C32.5964 40.7992 32.2483 40.3584 31.9212 39.8333C30.6921 37.8599 30.6537 35.328 31.0931 33.0638C31.2 32.5132 31.2607 32.0053 31.1888 31.4115ZM33.8412 42.1634C34.3316 42.3108 34.739 42.3719 35.2181 42.3597C35.5466 42.5237 35.6374 43.2065 35.475 43.5179C35.292 43.8688 34.1743 42.8083 33.8412 42.1634ZM5.28355 40.8216C5.25545 41.6294 5.44078 42.3757 5.85386 43.0911C5.59609 43.28 5.32908 43.36 5.02671 43.389C4.78089 43.3686 4.51236 43.2045 4.51304 42.9124C4.51508 42.1688 4.77372 41.4218 5.28355 40.8216ZM37.2875 42.4906C37.3559 42.6294 37.3427 42.8926 37.2796 43.0687C36.7756 43.1684 36.083 42.6789 35.7513 42.2601C36.2061 42.0633 36.488 41.9219 36.8714 41.6497L37.2875 42.4906ZM31.9027 40.5706C32.33 41.065 32.7049 41.5024 33.2328 41.845C33.2658 42.1628 33.1656 42.4467 32.8841 42.6859C32.73 42.7088 32.5254 42.6395 32.4515 42.5072C32.1211 41.9147 31.9014 41.2956 31.9027 40.5706ZM23.9242 26.2699L23.8568 27.4368C23.6856 28.8799 23.4071 30.2655 23.1351 31.6898C22.9671 32.5691 22.9219 33.4007 23.1087 34.2835C23.1443 34.4511 23.144 34.6836 23.0863 34.846C22.7062 35.9109 23.0629 37.1367 23.7679 37.0384C23.9141 37.0177 24.094 36.8961 24.2943 36.7523C24.4298 37.2188 24.5516 37.7111 24.8783 38.057C25.1358 38.3295 25.5068 38.3765 25.7826 38.1185C26.0116 37.9037 26.1513 37.5841 26.2611 37.2884C26.4901 37.5794 26.7158 37.8589 26.9906 38.0365C27.341 38.2625 27.7067 38.1809 27.9291 37.8226C28.4697 36.951 27.9819 35.928 28.2767 35.6751L28.431 35.5374C29.9899 34.0817 30.5245 31.695 30.68 29.6331L30.7806 28.3001C30.8261 27.7006 30.5762 27.1088 30.4134 26.5667L30.3617 29.0228C30.2649 30.2974 30.0775 31.5307 29.6781 32.7464C29.3869 33.6325 28.927 34.4044 28.308 35.0804C27.372 36.1023 25.9312 36.4549 24.6966 35.8167C23.9864 35.4496 23.5699 34.7772 23.43 34.0052C23.2064 32.7714 23.467 31.7401 23.7318 30.5013C23.9531 29.4649 24.0985 28.462 24.1791 27.4105L24.182 26.4632L24.0003 25.3284L23.9242 26.2699ZM25.9779 36.5501C25.9889 37.0322 25.7664 37.7727 25.4095 37.8607C25.024 37.9555 24.6388 36.9521 24.6683 36.2513L25.9779 36.5501ZM27.7728 36.0482C27.8128 36.5462 27.8647 37.0921 27.6351 37.5902C27.5422 37.7912 27.2223 37.7216 27.0814 37.6068C26.7587 37.3108 26.5308 36.9237 26.4056 36.5081C26.8919 36.4173 27.2833 36.2745 27.7728 36.0482ZM23.3578 35.0111C23.6686 35.4188 23.9078 35.7279 24.2904 36.0257C24.2226 36.2821 24.0499 36.4886 23.8373 36.6536C23.2779 36.7891 23.1564 35.7045 23.3578 35.0111ZM-3.33169 34.2347C-2.80749 34.4811 -2.3922 34.6704 -1.85122 34.8079C-2.07278 35.278 -2.34784 35.7521 -2.82388 36.0238C-3.34791 36.3227 -3.52491 35.1452 -3.33169 34.2347ZM-4.50649 32.7523C-4.25217 33.1981 -4.01948 33.5519 -3.66958 33.9437C-3.79849 34.4103 -4.39289 34.7591 -4.85024 34.596C-4.98522 33.9729 -4.773 33.2997 -4.50649 32.7523ZM4.00425 25.1214C4.34182 25.5888 4.54263 26.0691 4.7728 26.5814C5.24811 27.6386 5.72977 28.6605 6.34898 29.637L7.09019 30.805C5.16521 32.536 2.25602 34.3825 -0.303368 34.5033C-2.43705 34.6039 -4.30822 33.6442 -4.31509 31.4368C-4.3174 30.6529 -4.05848 29.8934 -3.47622 29.3617C-3.07735 28.9975 -2.57152 28.7929 -2.05044 28.6478C-1.2803 28.4333 -0.555078 28.2304 0.18003 27.9193C1.40356 27.4015 2.47996 26.7036 3.39878 25.7493L4.00425 25.1214ZM17.9671 18.2542C17.8999 19.5658 17.658 20.8016 17.1566 21.9945L16.5882 23.347L15.2953 25.9417C15.0894 26.3546 15.0431 26.8726 14.9105 27.2972C14.3085 27.8957 13.5218 28.8967 13.6498 29.6995C13.69 29.9497 13.9896 30.0873 14.2201 30.0374L14.8109 29.9095C14.7005 30.6127 14.6155 31.2607 14.8959 31.8685C15.0334 32.1668 15.4083 32.3105 15.683 32.1263C15.9523 31.9458 16.1651 31.6948 16.4173 31.4242C16.5483 32.0995 16.9702 32.971 17.5658 32.9495C18.3206 32.9221 18.6365 31.877 18.6947 31.0042L18.8734 30.9613C19.7621 30.7267 20.5343 30.1923 21.1185 29.4466C22.1025 28.1907 22.7426 26.764 23.1585 25.222C23.387 24.3747 23.4659 23.5508 23.4642 22.6722C23.4628 22.0245 23.4968 21.4208 23.3431 20.763C22.9717 21.5037 23.1701 22.6383 23.0326 23.6702C22.7962 25.4424 22.1448 27.1348 21.1712 28.6243C20.7214 29.3122 20.1588 29.8795 19.4613 30.2757C18.334 30.9156 16.9221 30.7872 16.0873 29.8197C15.224 28.8189 15.1061 27.4443 15.598 26.2357C15.8873 25.5245 16.2376 24.9016 16.5892 24.2122C17.3183 22.7817 17.9163 21.3256 18.1322 19.7181C18.2 19.2125 18.0911 18.716 17.9671 18.2542ZM-4.63931 30.6868C-4.72359 31.2301 -4.73892 31.647 -4.62856 32.1888C-5.30615 32.7014 -6.57491 32.8097 -6.42544 32.1517C-5.99387 31.4821 -5.39452 30.917 -4.63931 30.6868ZM16.7845 30.846C17.2926 30.9952 17.7669 31.0773 18.3031 31.0921C18.2877 31.571 18.1461 32.0597 17.8197 32.4359C17.6712 32.6005 17.5011 32.6248 17.3431 32.5013C16.9726 32.0384 16.733 31.4642 16.7845 30.846ZM15.3617 29.4993C15.6785 29.957 15.9478 30.282 16.39 30.6038C16.2182 31.0771 15.6839 31.8245 15.3734 31.7982C15.0427 31.7693 15.0226 30.9158 15.1263 30.2982L15.3617 29.4993ZM14.8773 27.7767C14.9514 28.2555 14.9925 28.6027 15.1517 29.0579C14.9107 29.4622 14.4613 29.7134 13.9906 29.6702C14.0001 29.3283 14.0821 29.0733 14.1957 28.7904L14.8773 27.7767ZM5.37632 10.8363C6.21408 10.0054 7.318 9.39546 8.42222 9.84993C8.19249 11.1244 7.36067 12.6081 5.9896 12.6859C5.49225 12.714 5.14401 12.5113 4.98179 12.0824C4.71257 11.3692 4.90537 11.3032 5.37632 10.8363ZM14.4447 6.49739C13.6047 6.24907 12.7495 6.34868 11.9466 6.66731C11.397 6.88556 10.8432 7.21668 10.9183 7.71224C11.1012 8.91352 15.0384 8.58586 15.1439 7.23274C15.1722 6.86377 14.7583 6.58996 14.4447 6.49739ZM1.15659 3.35091C1.22391 3.14515 1.49809 3.10592 1.62046 3.2845L2.40757 4.43294C2.45613 4.50381 2.53651 4.54697 2.62241 4.5472L4.01597 4.55013C4.23228 4.55074 4.35391 4.79855 4.22202 4.97005L3.37241 6.07454C3.32008 6.14265 3.30502 6.23205 3.3314 6.3138L3.75913 7.63997C3.81201 7.80454 3.6952 7.95788 3.54234 7.97688C3.49397 7.99016 3.44099 7.99117 3.38706 7.972L2.07456 7.5052C2.03907 7.49259 2.00167 7.4885 1.96519 7.49153C1.93126 7.4992 1.89848 7.51256 1.86948 7.53352L0.740577 8.34993C0.565177 8.47682 0.320541 8.34758 0.326515 8.13118L0.364601 6.7386C0.366938 6.65287 0.32733 6.5715 0.258155 6.52083L-0.867821 5.69954C-1.04264 5.57197 -0.995254 5.29891 -0.787743 5.23763L0.549171 4.84407C0.631334 4.81976 0.6962 4.7565 0.722999 4.67513L1.15659 3.35091ZM5.68687 8.35579C5.23913 8.18545 5.07749 7.97602 4.82163 7.54427C5.25476 7.44927 5.56718 7.41272 6.08335 7.39192L5.68687 8.35579ZM11.6478 1.6097L11.6576 1.62337C11.7067 1.68616 11.7823 1.72277 11.8626 1.72298L13.555 1.72688L13.5755 1.72786C13.7791 1.74329 13.8898 1.98169 13.7621 2.14778L12.7298 3.4886C12.6775 3.55665 12.6616 3.64612 12.6878 3.72786L13.2074 5.33821L13.2132 5.35774C13.2618 5.55624 13.069 5.7355 12.8714 5.66536L11.2767 5.09798C11.1958 5.06927 11.1061 5.08191 11.0365 5.13216L9.66538 6.12434C9.49005 6.25116 9.24552 6.12185 9.25132 5.90559L9.29722 4.21419C9.29959 4.12832 9.26013 4.04612 9.19077 3.99544L7.82359 2.99739C7.64889 2.86975 7.69608 2.59764 7.90366 2.53645L9.52671 2.05794C9.60397 2.03516 9.66615 1.97796 9.69566 1.90364L9.70152 1.88899L10.1527 0.50911C10.3616 0.452029 10.5721 0.398236 10.7835 0.347978L11.6478 1.6097Z" fill="white"/>
</g>
<defs>
<clipPath id="clip0_7732_6492">
<rect width="16" height="16" fill="white"/>
</clipPath>
</defs>
</svg>
