<svg width="16" height="16" viewBox="0 0 16 16" fill="none" xmlns="http://www.w3.org/2000/svg">
<g clip-path="url(#clip0_7732_6468)">
<path fill-rule="evenodd" clip-rule="evenodd" d="M35.4335 55.5619C35.6455 55.8178 35.7835 56.1222 35.913 56.4779L35.8212 56.7113C35.7406 56.9161 34.4201 56.2734 33.9852 55.6839C34.4889 55.7222 34.9159 55.6918 35.4335 55.5619ZM37.1073 54.5228C37.4039 54.5553 37.7887 55.2104 37.7362 55.6107C37.3289 55.9721 36.4739 55.683 35.9433 55.3705L37.1073 54.5228ZM28.9149 50.1136C30.8239 50.5992 32.7119 50.8218 34.6415 50.5902L36.1991 50.3285C36.4499 50.2864 36.6503 50.32 36.8261 50.5199C37.1258 50.8603 37.4556 51.2211 37.5634 51.679C37.9431 53.2925 36.6104 54.9866 34.8983 55.2865L34.6542 55.3197C34.0871 55.3759 33.5449 55.2809 33.0184 55.0833C31.4917 54.5107 30.0374 52.7728 29.4218 51.3138L28.9149 50.1136ZM38.6015 53.3656H38.6024C38.6718 53.4361 38.7439 53.6403 38.7724 53.7259C38.8673 54.0111 38.7118 54.3157 38.369 54.346C38.0429 54.3748 37.6693 54.2642 37.4208 54.1107L38.0048 52.7611L38.6015 53.3656ZM16.8212 51.4564C17.4988 51.7491 18.1389 51.9098 18.8495 51.7474C18.9161 52.437 18.4834 53.4548 18.0077 53.391C17.8795 53.3738 17.7246 53.2716 17.6073 53.1693C17.1972 52.6838 16.9382 52.1241 16.8212 51.4564ZM20.3007 51.2435C20.4713 51.6365 20.5537 52.0912 20.4286 52.5365C20.3056 52.9723 19.5657 52.4219 19.2958 51.7318L20.3007 51.2435ZM50.7968 51.348C51.0581 51.6948 51.3272 52.1521 51.163 52.471C51.0001 52.7855 49.8502 52.1867 49.3759 51.5902L49.7255 51.5785C50.0717 51.5514 50.4137 51.4783 50.7968 51.348ZM16.1571 50.9789C16.2509 51.0893 16.4418 51.2107 16.3632 51.4408C16.2348 51.8146 16.0704 52.1031 15.8329 52.432C15.3943 51.9533 15.3175 50.781 15.3876 50.0716L16.1571 50.9789ZM52.5956 49.9955C53.0863 50.2654 53.6052 50.8716 53.3915 51.2611C53.1229 51.7492 51.9502 51.5218 51.2919 51.1312C51.8245 50.7853 52.1846 50.4536 52.5956 49.9955ZM17.1063 42.9105C18.0337 43.7918 18.9525 44.5493 19.9257 45.3285L21.8573 46.7025V46.7015C22.0826 46.8619 22.1307 46.9851 22.0556 47.2562L21.5643 49.0247C21.4319 49.5012 21.1564 49.8964 20.8329 50.2914C20.2136 51.0472 19.3268 51.402 18.3837 51.4183C17.5141 51.4334 16.7453 51.1337 16.1874 50.4603C14.6794 48.6386 15.7566 46.3863 16.5155 44.432L17.1063 42.9105ZM11.8202 0.146821C14.1577 -0.295779 16.4619 0.307322 18.5253 1.39487C19.7679 2.04962 20.8956 2.784 21.9433 3.71909C22.9238 4.59445 23.8361 5.95685 24.4403 7.13315C24.7691 7.77285 24.9893 8.42936 25.1776 9.12827C25.8022 11.4443 26.832 13.5648 28.2929 15.4603L29.6376 17.2044C31.1549 19.1734 33.0812 20.7806 35.3163 21.8949C36.6528 22.5609 38.0325 23.0133 39.4843 23.3421C40.6427 23.6045 41.7324 23.8666 42.8085 24.3861C43.6816 24.8072 44.4764 25.3367 45.2069 25.9828L46.6259 27.3997C47.3839 28.2701 48.022 29.199 48.5477 30.2269C49.3333 31.7625 50.0922 34.0988 50.0975 35.7904L50.1005 36.7835C50.1025 37.3971 49.9653 37.9858 49.7802 38.5706L49.3866 39.8138C49.3113 40.0511 49.2519 40.4028 49.327 40.6556C49.8951 42.5664 50.5031 44.0193 51.8339 45.516C52.1154 45.8326 52.367 46.1512 52.577 46.513V46.514C53.4648 48.0439 52.7619 49.5573 51.3886 50.5775C49.9697 51.631 47.9777 51.2648 46.5253 50.3665C44.1788 48.9153 42.3061 46.3284 41.497 43.6898L41.2645 42.93C40.9734 41.9806 40.8259 41.0319 40.7538 40.0296C40.7231 39.3338 40.7481 38.6634 40.4511 37.9691C40.197 41.043 40.7519 43.7428 42.2518 46.4017C41.5647 47.4101 40.053 48.4436 38.9599 48.9759C35.2574 50.7786 31.0803 50.5481 27.2733 49.1068C26.0628 48.6482 24.9575 48.083 23.8319 47.4437C22.4064 46.6336 21.1034 45.6996 19.8143 44.6927L17.6874 42.8753L16.7118 41.933L14.7323 39.9154L13.4628 38.5042C11.3263 36.1303 8.2094 31.7634 6.52138 28.9857C5.97741 28.0904 5.60878 27.1646 5.16591 26.2132C4.0547 23.8263 2.31997 21.8322 1.48622 19.9779C0.530015 17.8507 -0.0465269 15.1139 0.0985246 12.7787C0.132707 12.2275 0.185568 11.6913 0.265517 11.1576C1.32781 11.2823 3.00239 10.868 3.35145 10.058C3.62249 9.42744 2.69059 9.10122 1.87294 9.07944L0.743056 9.2435L0.815321 9.02963C1.04199 9.14492 1.32789 9.1442 1.56727 8.97104L2.04677 8.62436L2.60536 8.8226C3.17053 9.0236 3.72114 8.48918 3.537 7.9183L3.35438 7.35483L3.71669 6.8851C4.08239 6.40976 3.74411 5.72149 3.14442 5.72006L2.55165 5.71811L2.48036 5.61459C2.59761 5.45438 2.72156 5.29366 2.87685 5.1019C3.16655 4.74428 3.5583 4.51509 3.80653 4.09213C5.98165 1.90454 8.80921 0.717171 11.8202 0.146821ZM53.3934 48.1439C53.5217 48.1212 53.6584 48.2358 53.7577 48.3509C53.9532 48.5778 54.1743 48.7943 54.2587 49.1009C54.3424 49.4048 54.1866 49.6452 53.9198 49.6937C53.574 49.7563 53.2081 49.7383 52.829 49.6634C53.1053 49.1518 53.3025 48.7216 53.3934 48.1439ZM6.3163 43.5706C6.72092 43.9296 7.11353 44.1452 7.5995 44.2767C7.33381 45.0647 6.49198 46.2768 6.08583 45.6068C5.91754 44.9285 6.00489 44.2365 6.3163 43.5706ZM9.63661 44.1283C9.60461 44.7763 9.06516 45.7358 8.73524 45.7035C8.32558 45.6626 7.99893 44.9197 8.02724 44.347C8.59431 44.4346 9.08197 44.2789 9.63661 44.1283ZM9.65419 34.4544C9.70285 34.4868 9.74577 34.5227 9.7704 34.556C11.0607 36.3056 12.3917 37.9545 13.8456 39.5892C13.8496 39.7388 13.6893 39.8726 13.5712 39.9701C13.1631 40.3061 12.8406 40.703 12.5136 41.1136L11.7929 42.0189C10.8722 43.1752 9.53079 44.1061 8.00185 43.972C7.29213 43.9096 6.68868 43.5073 6.28603 42.9115C5.28237 41.4258 5.66428 39.3476 6.56532 37.8246C6.96508 37.1489 7.39362 36.5125 7.94228 35.9564L9.5038 34.3724L9.65419 34.4544ZM31.2772 31.4115C31.1217 31.6547 31.079 31.9052 31.0028 32.1908C30.3099 34.7865 30.2091 37.6883 31.661 40.0335C31.514 41.0874 31.9789 43.1327 32.8642 43.0824C33.2245 43.0617 33.4544 42.7486 33.5917 42.4369L34.1688 43.1371C34.6149 43.6776 35.3785 44.233 35.8261 43.806C36.0274 43.6136 35.9951 43.2897 36.0224 43.0033C36.6095 43.3707 37.2451 43.6861 37.6425 43.2894C38.0243 42.9083 37.7153 42.1893 37.3837 41.6615C37.2426 41.4366 37.294 41.3191 37.4716 41.1214C37.9701 40.5665 38.2463 39.8414 38.2548 39.097L38.2909 35.8187C38.2985 35.1411 38.4575 34.5072 38.6376 33.8636C38.739 33.5017 38.7785 33.1482 38.6913 32.7474C38.3845 33.54 38.004 34.3435 37.9901 35.2142L37.9481 37.8206L37.914 38.64C37.9465 40.0062 37.1912 41.2863 35.8964 41.7816C34.9349 42.149 33.9133 41.8388 33.1532 41.1956C32.6848 40.7992 32.3367 40.3584 32.0097 39.8333C30.7806 37.8599 30.7421 35.328 31.1815 33.0638C31.2884 32.5133 31.3491 32.0053 31.2772 31.4115ZM33.9306 42.1634C34.4208 42.3108 34.8275 42.3719 35.3065 42.3597C35.635 42.5237 35.7258 43.2065 35.5634 43.5179C35.3803 43.8687 34.2637 42.8083 33.9306 42.1634ZM5.37294 40.8216C5.34484 41.6294 5.52919 42.3757 5.94228 43.0912C5.68453 43.28 5.41747 43.36 5.11513 43.389C4.86934 43.3686 4.60075 43.2044 4.60145 42.9124C4.60349 42.1688 4.86312 41.4218 5.37294 40.8216ZM37.3759 42.4906C37.4444 42.6293 37.4312 42.8926 37.3681 43.0687C36.864 43.1685 36.1714 42.6789 35.8397 42.2601C36.2944 42.0634 36.5764 41.9219 36.9599 41.6497L37.3759 42.4906ZM31.9911 40.5697C32.4186 41.0641 32.7932 41.5023 33.3212 41.8451C33.3542 42.1629 33.2541 42.4467 32.9725 42.6859C32.8185 42.7088 32.6138 42.6395 32.5399 42.5072C32.2095 41.9146 31.9897 41.2948 31.9911 40.5697ZM24.0126 26.2699L23.9452 27.4369C23.774 28.88 23.4955 30.2656 23.2235 31.6898C23.0556 32.5691 23.0114 33.3998 23.1981 34.2826C23.2337 34.4502 23.2325 34.6835 23.1747 34.846C22.7946 35.9109 23.1513 37.1368 23.8563 37.0384C24.0026 37.0178 24.1824 36.8962 24.3827 36.7523C24.5182 37.2189 24.6401 37.7111 24.9667 38.057C25.2242 38.3295 25.5952 38.3765 25.871 38.1185C26.1 37.9037 26.2397 37.5841 26.3495 37.2884C26.5786 37.5795 26.8042 37.8589 27.079 38.0365C27.4294 38.2626 27.7951 38.1809 28.0175 37.8226C28.5582 36.951 28.0703 35.928 28.3651 35.6751L28.5194 35.5374C30.0784 34.0818 30.6129 31.695 30.7684 29.6331L30.869 28.3001C30.9145 27.7006 30.6646 27.1089 30.5018 26.5667L30.4501 29.0228C30.3533 30.2974 30.1659 31.5307 29.7665 32.7464C29.4754 33.6326 29.0154 34.4044 28.3964 35.0804C27.4604 36.1023 26.0196 36.4549 24.785 35.8167C24.0748 35.4496 23.6584 34.7772 23.5184 34.0052C23.2949 32.7714 23.5554 31.74 23.8202 30.5013C24.0415 29.4649 24.1869 28.462 24.2675 27.4105L24.2704 26.4632L24.0888 25.3285L24.0126 26.2699ZM26.0663 36.5501C26.0773 37.0322 25.8548 37.7727 25.4979 37.8607C25.1125 37.9552 24.7272 36.9521 24.7567 36.2513L26.0663 36.5501ZM27.8612 36.0482C27.9012 36.5462 27.9532 37.0921 27.7235 37.5902C27.6305 37.7912 27.3107 37.7217 27.1698 37.6068C26.8472 37.3108 26.6192 36.9237 26.494 36.5081L26.8436 36.43C27.182 36.341 27.4939 36.218 27.8612 36.0482ZM23.4462 35.0111C23.757 35.4188 23.9962 35.728 24.3788 36.0257C24.311 36.2821 24.1384 36.4886 23.9257 36.6537C23.3664 36.7891 23.2449 35.7044 23.4462 35.0111ZM-3.24327 34.2347C-2.71913 34.481 -2.30366 34.6704 -1.7628 34.808C-1.98439 35.2781 -2.25933 35.7521 -2.73546 36.0238C-3.25944 36.3226 -3.43647 35.1452 -3.24327 34.2347ZM-4.4171 32.7523C-4.16281 33.198 -3.93099 33.552 -3.58116 33.9437C-3.71011 34.4103 -4.30446 34.7593 -4.76183 34.596L-4.78331 34.4789C-4.8703 33.8894 -4.66698 33.2656 -4.4171 32.7523ZM4.09267 25.1205C4.43034 25.5879 4.63101 26.069 4.86122 26.5814C5.33651 27.6386 5.8182 28.6605 6.43739 29.6371L7.1786 30.805C5.25363 32.5361 2.34442 34.3825 -0.214952 34.5033C-2.34853 34.6038 -4.21981 33.6441 -4.22667 31.4369C-4.22898 30.6529 -3.97003 29.8934 -3.3878 29.3617C-2.98891 28.9974 -2.48315 28.7929 -1.96202 28.6478C-1.19179 28.4333 -0.466737 28.2304 0.268446 27.9193C1.49203 27.4015 2.56834 26.7036 3.4872 25.7494L4.09267 25.1205ZM18.0556 18.2542C17.9883 19.5657 17.7473 20.8017 17.246 21.9945L16.6766 23.347L15.3837 25.9417C15.1778 26.3546 15.1315 26.8727 14.9989 27.2972C14.397 27.8957 13.6102 28.8967 13.7382 29.6996C13.7784 29.9497 14.078 30.0873 14.3085 30.0374L14.8993 29.9095C14.7889 30.6127 14.7039 31.2608 14.9843 31.8685C15.1218 32.1668 15.4968 32.3105 15.7714 32.1263C16.0408 31.9458 16.2544 31.695 16.5067 31.4242C16.6377 32.0995 17.0588 32.9708 17.6542 32.9496C18.4091 32.9222 18.7249 31.877 18.7831 31.0042C19.7471 30.797 20.5838 30.2419 21.2069 29.4466C22.1909 28.1908 22.831 26.764 23.247 25.222C23.4754 24.3747 23.5543 23.5508 23.5526 22.6722C23.5512 22.0244 23.5854 21.42 23.4315 20.7621C23.0599 21.5028 23.2586 22.6382 23.121 23.6703C22.8846 25.4425 22.2332 27.1348 21.2597 28.6244C20.8098 29.3122 20.2481 29.8795 19.5507 30.2757C18.4233 30.9159 17.0106 30.7874 16.1757 29.8197C15.3125 28.8189 15.1946 27.4442 15.6864 26.2357C15.9758 25.5244 16.327 24.9018 16.6786 24.2122C17.4077 22.7818 18.0047 21.3256 18.2206 19.7181C18.2884 19.2125 18.1795 18.716 18.0556 18.2542ZM-4.55089 30.6869C-4.63516 31.2301 -4.65048 31.647 -4.54015 32.1888C-5.21774 32.7013 -6.48641 32.8096 -6.33702 32.1517C-5.9055 31.4821 -5.30603 30.9171 -4.55089 30.6869ZM16.8739 30.846C17.3819 30.9952 17.8554 31.0773 18.3915 31.0921C18.3761 31.571 18.2346 32.0597 17.9081 32.4359C17.7596 32.6006 17.5896 32.6249 17.4315 32.5013C17.061 32.0384 16.8224 31.4643 16.8739 30.846ZM15.4501 29.4994C15.767 29.9571 16.0371 30.282 16.4794 30.6039C16.3076 31.0772 15.7724 31.8248 15.4618 31.7982C15.1311 31.7692 15.1111 30.9158 15.2147 30.2982L15.4501 29.4994ZM14.9657 27.7767C15.0398 28.2554 15.0809 28.6028 15.2401 29.058C14.9992 29.4621 14.5505 29.7133 14.08 29.6703C14.0895 29.3284 14.1705 29.0733 14.2841 28.7904L14.9657 27.7767ZM7.60536 6.24936C6.60082 6.74267 5.48503 6.96204 4.3661 7.09409C4.1791 7.11612 4.02758 7.11008 3.88368 7.24545C4.27735 8.57038 4.45044 9.88534 4.51649 11.2581C4.53358 11.6156 4.62264 12.0127 4.78993 12.3441C5.11293 12.9838 5.8561 13.2057 6.49892 13.0316C8.10651 12.5956 8.86416 10.7806 9.02821 9.17124C9.13944 8.07876 8.82419 6.92754 8.43544 5.84116L7.60536 6.24936ZM5.46474 10.8363C6.30246 10.0054 7.40642 9.39557 8.51063 9.84995C8.28091 11.1244 7.44906 12.608 6.07802 12.6859C5.58082 12.7139 5.23338 12.5112 5.07118 12.0824C4.80184 11.3691 4.99376 11.3032 5.46474 10.8363ZM1.44325 5.5687C1.49723 5.40369 1.71715 5.37184 1.81532 5.51498L2.24794 6.14682C2.28214 6.19664 2.3362 6.22744 2.3954 6.23471L3.14345 6.23666L3.15907 6.23764C3.16204 6.23786 3.16495 6.23828 3.16786 6.23862L3.18544 6.23959C3.35907 6.23995 3.45734 6.4389 3.35145 6.57651L2.88466 7.18295C2.8426 7.2376 2.83028 7.30971 2.85145 7.37534L3.08583 8.10385C3.13913 8.2691 2.97989 8.42376 2.8163 8.36557L2.0956 8.10874C2.03065 8.08563 1.9581 8.09569 1.90224 8.13608L1.28212 8.5853C1.14145 8.68686 0.945298 8.58302 0.950087 8.40952L0.971571 7.64487C0.973474 7.57596 0.941304 7.50973 0.885634 7.46909L0.266493 7.01791C0.126807 6.91545 0.164694 6.69691 0.330946 6.6478L1.06532 6.43198C1.13133 6.41253 1.18345 6.36158 1.20497 6.29623L1.44325 5.5687ZM14.5331 6.49741C13.6932 6.24914 12.8379 6.34871 12.035 6.66733C11.4854 6.88559 10.9325 7.21668 11.0077 7.71225C11.1906 8.91355 15.1269 8.58589 15.2323 7.23276C15.2607 6.86375 14.8467 6.58997 14.5331 6.49741ZM5.77528 8.35581C5.32757 8.18547 5.1659 7.97602 4.91005 7.54428C5.34316 7.44929 5.65567 7.41274 6.17177 7.39194L5.77528 8.35581ZM11.2401 2.61557C10.902 2.12223 10.1508 2.2217 9.94716 2.77573L9.93837 2.80209L9.75087 3.37338L9.17567 3.54233C8.59275 3.7141 8.46019 4.48 8.95106 4.83823L9.43544 5.19174L9.41884 5.79233C9.40237 6.39957 10.0896 6.76267 10.5819 6.40659L11.0683 6.05405L11.6337 6.25522C12.2062 6.45886 12.7636 5.91755 12.577 5.3392L12.3925 4.76791L12.7587 4.29233C13.129 3.8108 12.787 3.11413 12.1796 3.11264L11.579 3.11069L11.2401 2.61557ZM10.4354 2.96518C10.4894 2.80018 10.7094 2.76924 10.8075 2.91245L11.2401 3.54331L11.2479 3.55405C11.2874 3.60458 11.3484 3.63399 11.413 3.63413L12.1786 3.63608L12.1942 3.63706C12.3577 3.6492 12.4461 3.8397 12.3436 3.97299L11.8768 4.58041C11.8351 4.63495 11.8226 4.70641 11.8436 4.77182L12.079 5.50034C12.1323 5.66547 11.9729 5.81996 11.8095 5.76205L11.0878 5.50522C11.023 5.4823 10.9511 5.49331 10.8954 5.53354L10.2743 5.98178L10.2616 5.99057C10.1222 6.07686 9.93763 5.97415 9.94227 5.806L9.96376 5.04135C9.96566 4.97249 9.93342 4.9072 9.87782 4.86655L9.25966 4.41538C9.11942 4.31303 9.15759 4.09435 9.32411 4.04526L10.0575 3.82846C10.1236 3.80897 10.1767 3.75823 10.1981 3.69272L10.4354 2.96518Z" fill="white"/>
</g>
<defs>
<clipPath id="clip0_7732_6468">
<rect width="16" height="16" fill="white"/>
</clipPath>
</defs>
</svg>
