<svg width="128" height="128" viewBox="0 0 128 128" fill="none" xmlns="http://www.w3.org/2000/svg">
<g clip-path="url(#clip0_7731_6274)">
<path d="M87.436 5.74905C87.9911 4.05227 90.2509 3.72859 91.26 5.20133L99.1487 16.7144C99.5495 17.2992 100.212 17.6494 100.921 17.6508L114.878 17.6792C116.663 17.6829 117.669 19.7321 116.58 21.1469L108.068 32.2072C107.636 32.7691 107.508 33.5077 107.726 34.1824L112.011 47.4645C112.56 49.1635 110.922 50.7536 109.239 50.1553L96.0902 45.4779C95.4223 45.2403 94.6802 45.3466 94.1058 45.7622L82.7981 53.9425C81.3517 54.989 79.3332 53.9225 79.3824 52.1379L79.7675 38.1868C79.7871 37.4781 79.4567 36.8052 78.884 36.3873L67.6097 28.161C66.1675 27.1087 66.558 24.8595 68.2705 24.3548L81.6578 20.41C82.3379 20.2096 82.8757 19.6874 83.0962 19.0136L87.436 5.74905Z" fill="white"/>
<path d="M12.6297 30.6305C13.1848 28.9337 15.4446 28.61 16.4537 30.0827L22.9477 39.5603C23.3484 40.1451 24.0113 40.4953 24.7202 40.4968L36.2092 40.5201C37.9944 40.5238 39.0006 42.573 37.9118 43.9878L30.9048 53.0927C30.4725 53.6545 30.3442 54.3931 30.5619 55.0678L34.09 66.0017C34.6382 67.7007 33.0002 69.2909 31.3182 68.6925L20.4937 64.8421C19.8257 64.6045 19.0836 64.7108 18.5092 65.1263L9.20075 71.8604C7.75429 72.9069 5.73579 71.8404 5.78506 70.0558L6.10208 58.5712C6.12164 57.8626 5.79124 57.1896 5.21854 56.7718L-4.06246 49.9998C-5.50465 48.9475 -5.11417 46.6983 -3.40167 46.1937L7.61878 42.9462C8.29881 42.7458 8.8367 42.2237 9.05714 41.5499L12.6297 30.6305Z" fill="white"/>
<path fill-rule="evenodd" clip-rule="evenodd" d="M294.573 461.203C296.321 463.314 297.456 465.825 298.524 468.759L297.769 470.681C297.104 472.371 286.216 467.072 282.63 462.21C286.784 462.526 290.304 462.275 294.573 461.203ZM308.378 452.63C310.824 452.899 313.999 458.306 313.565 461.607C310.206 464.589 303.151 462.2 298.775 459.622L308.378 452.63ZM240.816 416.272C256.559 420.276 272.126 422.11 288.038 420.2L300.887 418.045C302.955 417.698 304.604 417.977 306.054 419.625C308.527 422.433 311.247 425.406 312.136 429.183C315.268 442.489 304.279 456.458 290.16 458.931V458.928C284.747 459.876 279.617 459.115 274.656 457.253C262.063 452.531 250.068 438.2 244.992 426.167L240.816 416.272ZM320.701 443.092L320.703 443.09C321.277 443.672 321.874 445.361 322.108 446.065C322.891 448.418 321.606 450.929 318.778 451.178C316.088 451.415 313.013 450.503 310.963 449.237L315.778 438.107L320.701 443.092ZM141.078 427.345C146.668 429.76 151.949 431.088 157.811 429.747C158.36 435.434 154.788 443.829 150.866 443.303C149.807 443.162 148.529 442.312 147.562 441.467C144.179 437.463 142.044 432.852 141.078 427.345ZM169.775 425.593C171.182 428.834 171.865 432.58 170.833 436.251C169.82 439.849 163.716 435.311 161.49 429.619L169.775 425.593ZM421.27 426.452C423.425 429.312 425.644 433.08 424.289 435.71C422.951 438.31 413.465 433.374 409.552 428.453H409.55C413.444 428.481 417.056 427.885 421.27 426.452ZM135.603 423.41C136.377 424.321 137.953 425.32 137.301 427.22C136.243 430.303 134.891 432.675 132.932 435.387C129.315 431.44 128.684 421.782 129.262 415.932V415.93L135.603 423.41ZM436.106 415.298C440.152 417.524 444.428 422.52 442.665 425.732C440.453 429.76 430.783 427.888 425.353 424.666C429.746 421.813 432.716 419.077 436.106 415.298ZM143.429 356.872C151.078 364.142 158.659 370.387 166.686 376.814L182.611 388.14L182.613 388.138C184.471 389.462 184.87 390.474 184.249 392.711L180.201 407.291C179.109 411.221 176.837 414.479 174.168 417.737C169.061 423.972 161.745 426.894 153.967 427.029C146.796 427.153 140.459 424.688 135.858 419.135C123.416 404.111 132.301 385.533 138.56 369.414L143.429 356.872ZM99.8421 4.20837C119.119 0.558349 138.114 5.53662 155.13 14.5052C165.379 19.9051 174.68 25.9592 183.321 33.6713C191.407 40.8902 198.932 52.1256 203.915 61.8265C206.627 67.1019 208.446 72.5121 209.998 78.2757C215.149 97.3766 223.639 114.862 235.687 130.494L246.777 144.883C259.29 161.121 275.175 174.374 293.608 183.563C304.63 189.056 316.007 192.784 327.981 195.495C337.534 197.659 346.517 199.823 355.392 204.108C362.592 207.581 369.143 211.95 375.167 217.278L386.868 228.96C393.12 236.139 398.389 243.796 402.725 252.274C409.204 264.938 415.458 284.208 415.501 298.158L415.527 306.346C415.543 311.406 414.412 316.258 412.885 321.08L409.638 331.332C409.017 333.29 408.525 336.194 409.146 338.279C413.831 354.038 418.848 366.016 429.826 378.36C432.147 380.971 434.217 383.597 435.949 386.581L435.952 386.584C443.275 399.201 437.477 411.685 426.151 420.099C414.45 428.788 398.018 425.77 386.039 418.362C366.689 406.394 351.252 385.056 344.579 363.296L342.656 357.028C340.255 349.198 339.039 341.38 338.444 333.116C338.19 327.376 338.399 321.846 335.948 316.119C333.852 341.469 338.432 363.733 350.802 385.661C345.135 393.978 332.665 402.502 323.649 406.892C293.115 421.758 258.67 419.855 227.275 407.968C217.292 404.186 208.18 399.524 198.897 394.251C187.141 387.571 176.397 379.87 165.766 371.567L148.226 356.58L140.175 348.811L123.856 332.168L113.385 320.531C95.7664 300.953 70.0586 264.946 56.138 242.039C51.6516 234.655 48.612 227.019 44.9593 219.173C35.7952 199.488 21.493 183.044 14.6175 167.751C6.73159 150.209 1.97927 127.639 3.17613 108.38C3.45803 103.835 3.89083 99.4186 4.55016 95.017C13.3106 96.0461 27.1236 92.63 30.0023 85.9496C32.2401 80.7487 24.5527 78.0559 17.8089 77.8763L8.49156 79.2259L9.04039 77.5931C10.0779 77.3963 11.1061 76.9689 12.0629 76.2767L19.9955 70.5384L29.2191 73.8197C32.0593 74.8299 34.8628 74.0567 36.7894 72.3187C38.3926 80.0541 39.2231 87.8296 39.6087 95.8451C39.7497 98.7939 40.4858 102.069 41.8666 104.802C44.5304 110.077 50.6555 111.906 55.9564 110.47C69.2149 106.875 75.4597 91.9026 76.8119 78.6302L76.8148 78.6322C77.732 69.6229 75.1301 60.1322 71.9242 51.1732L65.0824 54.5365C56.7976 58.6055 47.5969 60.4171 38.3685 61.5062C38.2434 61.521 38.1198 61.5319 37.9984 61.5443L35.9134 55.0843L41.8851 47.3265C45.696 42.3746 42.1737 35.2016 35.9252 35.1888L35.3382 35.1869C48.2316 22.7793 63.7542 14.4416 80.5423 9.06188L78.5062 15.2875L66.7484 18.7523C60.755 20.5187 59.3884 28.3915 64.4359 32.0746L74.3373 39.3002L74.0004 51.5531C73.828 57.7992 80.8919 61.531 85.9545 57.8685L95.8851 50.684L107.435 54.7924C113.322 56.8864 119.055 51.3209 117.136 45.3744L113.371 33.7093L120.848 23.9945C124.659 19.0426 121.136 11.8705 114.888 11.8578L102.63 11.8324L97.6947 4.62927C98.4092 4.48488 99.125 4.34419 99.8421 4.20837ZM442.68 400.027C443.738 399.838 444.862 400.788 445.681 401.738H445.683C447.295 403.609 449.119 405.393 449.814 407.923C450.504 410.429 449.226 412.413 447.026 412.813C444.173 413.33 441.156 413.179 438.029 412.562C440.308 408.342 441.93 404.792 442.68 400.027ZM54.4515 362.316C57.7887 365.276 61.0261 367.053 65.0345 368.137C62.8437 374.636 55.8985 384.633 52.5492 379.104C51.1614 373.51 51.8836 367.806 54.4515 362.316ZM81.8314 366.911C81.5686 372.255 77.1228 380.171 74.4017 379.904C71.0215 379.571 68.3219 373.44 68.556 368.715H68.558C73.2354 369.438 77.2567 368.153 81.8314 366.911ZM80.7396 286.459C81.5111 286.802 82.5287 287.425 82.9349 287.975C93.5752 302.403 104.555 315.996 116.545 329.477C116.581 330.712 115.253 331.813 114.279 332.618C110.913 335.389 108.258 338.664 105.561 342.051L99.6127 349.522C92.0205 359.058 80.9587 366.729 68.35 365.623C62.4973 365.109 57.5231 361.795 54.2025 356.881C45.9229 344.628 49.0694 327.486 56.5013 314.924C59.7979 309.352 63.3335 304.108 67.8578 299.522L80.7396 286.462V286.459ZM260.298 262.042C259.015 264.048 258.664 266.114 258.035 268.469C252.321 289.875 251.488 313.802 263.461 333.142C262.248 341.833 266.082 358.71 273.385 358.291C276.357 358.121 278.254 355.539 279.386 352.968L284.143 358.737C287.822 363.196 294.121 367.779 297.812 364.254C299.472 362.667 299.201 359.998 299.425 357.636C304.267 360.666 309.509 363.267 312.786 359.995C315.937 356.853 313.391 350.926 310.656 346.573C309.49 344.715 309.913 343.746 311.379 342.114C315.49 337.537 317.765 331.56 317.834 325.42L318.138 298.384C318.2 292.795 319.513 287.57 320.999 282.261H320.997C321.833 279.277 322.159 276.363 321.44 273.058C318.91 279.595 315.772 286.218 315.658 293.399L315.312 314.898L315.028 321.651C315.297 332.919 309.067 343.477 298.386 347.561C290.457 350.591 282.033 348.035 275.764 342.731C271.901 339.461 269.032 335.825 266.335 331.495C256.199 315.221 255.886 294.342 259.51 275.669C260.392 271.129 260.891 266.94 260.298 262.042ZM282.174 350.711C286.218 351.927 289.573 352.432 293.524 352.331C296.233 353.684 296.985 359.311 295.645 361.879C294.137 364.775 284.922 356.03 282.174 350.711ZM46.6683 339.648C46.4366 346.309 47.961 352.459 51.3675 358.359C49.2415 359.917 47.0401 360.58 44.5462 360.82C42.5182 360.652 40.3037 359.294 40.3109 356.884C40.3277 350.752 42.4639 344.598 46.6683 339.648ZM310.593 353.404C311.159 354.548 311.044 356.719 310.524 358.172C306.367 358.995 300.658 354.96 297.922 351.506C301.673 349.884 304 348.722 307.162 346.477L310.593 353.404ZM266.185 337.571C269.71 341.648 272.796 345.259 277.15 348.085C277.422 350.706 276.598 353.045 274.276 355.017C273.005 355.206 271.319 354.637 270.709 353.545C267.984 348.658 266.174 343.551 266.185 337.571ZM266.185 337.571C266.184 337.57 266.183 337.569 266.182 337.568H266.185V337.571ZM200.39 219.637L199.828 229.267C198.417 241.168 196.122 252.59 193.879 264.335C192.494 271.588 192.127 278.441 193.667 285.722C193.961 287.105 193.954 289.028 193.476 290.369C190.342 299.15 193.282 309.256 199.097 308.445C200.303 308.275 201.785 307.269 203.438 306.082C204.556 309.931 205.565 313.989 208.259 316.842C210.383 319.089 213.436 319.479 215.71 317.352C217.6 315.581 218.751 312.945 219.657 310.506C221.546 312.907 223.405 315.209 225.672 316.674C228.563 318.541 231.578 317.868 233.412 314.912C237.872 307.725 233.848 299.288 236.28 297.203L236.284 297.204C250.123 285.335 254.779 264.927 256.103 247.374L256.932 236.383C257.307 231.438 255.248 226.557 253.906 222.086L253.473 242.341C252.675 252.854 251.129 263.024 247.834 273.05C245.433 280.358 241.647 286.726 236.542 292.3C228.824 300.728 216.938 303.636 206.756 298.372C200.899 295.345 197.468 289.799 196.314 283.432C194.47 273.257 196.615 264.752 198.798 254.536C200.623 245.989 201.825 237.718 202.49 229.046L202.513 221.239L201.013 211.877L200.39 219.637ZM217.323 304.421C217.413 308.397 215.581 314.498 212.638 315.224C209.458 316.009 206.277 307.734 206.521 301.953L217.323 304.421ZM232.127 300.281C232.457 304.388 232.887 308.89 230.993 312.997C230.226 314.656 227.585 314.077 226.424 313.129C223.763 310.688 221.881 307.499 220.849 304.072H220.851C224.862 303.322 228.09 302.148 232.127 300.281ZM195.717 291.728C198.28 295.091 200.254 297.637 203.41 300.093C202.851 302.209 201.424 303.914 199.668 305.276C195.055 306.393 194.057 297.446 195.717 291.728ZM-24.3854 285.328C-20.0615 287.36 -16.6349 288.921 -12.1725 290.055C-14 293.932 -16.2698 297.839 -20.1969 300.079C-24.5184 302.544 -25.9788 292.836 -24.3854 285.328ZM-34.068 273.101C-31.9706 276.777 -30.0543 279.693 -27.1686 282.924C-28.2317 286.773 -33.1358 289.65 -36.9079 288.303H-36.9059C-38.019 283.164 -36.2658 277.615 -34.068 273.101ZM36.1156 210.165C38.901 214.021 40.5544 217.985 42.4535 222.212C46.3738 230.932 50.3449 239.358 55.4525 247.412V247.408L61.5609 257.039C45.6862 271.315 21.6977 286.541 0.591171 287.536C-17.0057 288.367 -32.4387 280.454 -32.4938 262.248C-32.5128 255.784 -30.3793 249.521 -25.5778 245.136C-22.2883 242.132 -18.1165 240.449 -13.819 239.252C-7.467 237.484 -1.48936 235.805 4.57359 233.24C14.6644 228.969 23.5447 223.22 31.1224 215.35L36.1156 210.165ZM151.26 153.538C150.706 164.355 148.716 174.547 144.58 184.384L139.893 195.536L129.229 216.935C127.53 220.341 127.148 224.614 126.054 228.116C121.09 233.051 114.601 241.3 115.657 247.92C115.986 249.986 118.457 251.125 120.359 250.713L125.235 249.658C124.325 255.457 123.62 260.801 125.932 265.813C127.067 268.273 130.159 269.453 132.423 267.933C134.645 266.444 136.403 264.379 138.484 262.146C139.564 267.716 143.04 274.901 147.952 274.724C154.177 274.498 156.784 265.881 157.264 258.684H157.261C165.211 256.975 172.111 252.398 177.249 245.84C185.365 235.483 190.642 223.718 194.073 211.001C195.957 204.012 196.61 197.217 196.596 189.969C196.584 184.627 196.863 179.65 195.595 174.224C192.53 180.332 194.166 189.691 193.032 198.203C191.082 212.818 185.714 226.775 177.685 239.059C173.975 244.732 169.34 249.407 163.587 252.674C154.29 257.954 142.643 256.894 135.758 248.911C128.639 240.659 127.664 229.325 131.72 219.358C134.107 213.491 137.003 208.356 139.903 202.669C145.916 190.871 150.845 178.865 152.624 165.607C153.183 161.437 152.283 157.346 151.26 153.538ZM-35.1647 256.066C-35.8598 260.546 -35.9888 263.984 -35.0788 268.453C-40.6666 272.679 -51.1315 273.575 -49.8991 268.149C-46.3396 262.625 -41.3947 257.964 -35.1647 256.066ZM141.513 257.379C145.703 258.609 149.61 259.289 154.032 259.411C153.905 263.361 152.736 267.388 150.044 270.49C148.819 271.849 147.416 272.048 146.112 271.026V271.028C143.056 267.21 141.088 262.477 141.513 257.379ZM129.774 246.276C132.387 250.05 134.611 252.727 138.259 255.381C136.842 259.285 132.432 265.448 129.871 265.228C127.144 264.99 126.976 257.954 127.831 252.861L129.774 246.276ZM125.782 232.07C126.393 236.019 126.732 238.88 128.046 242.635C126.059 245.969 122.353 248.038 118.471 247.681C118.55 244.862 119.221 242.762 120.158 240.428L125.782 232.07ZM47.4281 92.3646C54.3369 85.5121 63.4417 80.4828 72.5482 84.2308C70.6538 94.741 63.7944 106.98 52.4877 107.621C48.3861 107.854 45.5169 106.18 44.1791 102.643C41.9575 96.7598 43.5438 96.2158 47.4281 92.3646ZM122.215 56.5873C115.287 54.5385 108.237 55.3548 101.615 57.9828C97.0806 59.7827 92.5156 62.5141 93.1361 66.6019C94.6435 76.5089 127.107 73.8094 127.977 62.6508C128.213 59.6065 124.802 57.351 122.215 56.5873ZM49.9877 71.9066C46.2954 70.5019 44.9668 68.7767 42.8568 65.2162C46.4287 64.4328 49.0026 64.1309 53.2591 63.9593L49.9877 71.9066ZM35.9144 40.5746L36.0804 40.5804C37.7611 40.7056 38.672 42.6709 37.6175 44.0414L30.6107 53.1468C30.1786 53.7085 30.0504 54.447 30.2679 55.1215L33.7953 66.055C34.3435 67.7541 32.7058 69.3448 31.0238 68.7465L20.1996 64.8959C19.5317 64.6583 18.7896 64.7647 18.2152 65.18L11.6107 69.9574L11.8343 69.2953L15.138 60.8002C20.5392 52.4973 22.0007 50.1249 26.0863 45.0795C27.4514 43.3937 29.0885 42.0524 30.6244 40.5629L35.9144 40.5746ZM99.1488 16.2787L99.2269 16.3851C99.6325 16.9054 100.257 17.2128 100.921 17.2142L114.877 17.2425L115.042 17.2494C116.724 17.374 117.635 19.3396 116.58 20.7103L108.069 31.7709C107.636 32.3327 107.508 33.0718 107.726 33.7465L112.011 47.0277L112.056 47.1869C112.457 48.8243 110.868 50.2987 109.239 49.7191L96.0902 45.0414C95.4224 44.8038 94.6802 44.9102 94.1058 45.3256L82.7972 53.5062C81.3509 54.5519 79.3332 53.4857 79.3822 51.7015L79.7679 37.7513C79.7875 37.0428 79.4566 36.3694 78.8841 35.9515L67.6097 27.724C66.1679 26.6716 66.5585 24.4229 68.2709 23.9183L81.6586 19.974C82.2956 19.7861 82.8079 19.3153 83.0511 18.7025L83.097 18.5775L86.8168 7.20251C88.5404 6.7316 90.2753 6.28997 92.0199 5.87536L99.1488 16.2787Z" fill="white"/>
</g>
<defs>
<clipPath id="clip0_7731_6274">
<rect width="128" height="128" fill="white"/>
</clipPath>
</defs>
</svg>
