<svg width="143" height="30" viewBox="0 0 143 30" fill="none" xmlns="http://www.w3.org/2000/svg">
<g clip-path="url(#clip0_7895_16825)">
<path d="M79.4734 8.50296C79.4734 8.16568 79.4734 7.84615 79.4911 7.50887V7.2781C78.7278 7.34911 77.4142 7.33136 76.5977 7.33136H71.503C71.503 7.95266 71.503 8.66272 71.503 9.28402C71.219 8.57396 70.7752 7.81065 70.0119 7.57988C68.2545 7.04733 65.3787 7.34911 63.5148 7.29585C63.5148 9.6923 63.3906 13.4556 63.5326 15.7633C62.9823 14.574 60.1953 7.68639 59.787 7.34911C59.3965 7.26035 58.0119 7.29585 57.5148 7.31361C57.1775 8.07692 56.3077 10.3846 55.9704 11.0059C56.0059 9.97633 55.9704 9.05325 55.2071 8.25443C54.4616 7.43787 53.2012 7.31361 52.1539 7.31361C50.6627 7.31361 49.1716 7.31361 47.6805 7.31361C47.6805 9.23077 47.6805 11.1479 47.6805 13.0651C47.6805 13.8994 47.716 14.9112 47.6805 15.7278C46.5266 13.1006 45.4793 10.4201 44.29 7.7929C44.219 7.63313 44.1302 7.45562 44.0414 7.31361C43.3136 7.31361 42.3906 7.2781 41.6805 7.31361C40.3669 10.3846 39.0888 13.4556 37.8107 16.5444C38.6982 16.5444 39.6746 16.5799 40.5444 16.5444C40.7219 16.0473 41.1479 14.929 41.2367 14.503H44.432C44.6805 15.1953 44.9468 15.8698 45.1953 16.5444C46.5799 16.6154 48.7811 16.5799 50.2012 16.5444C50.2012 15.568 50.2012 14.574 50.2012 13.5976C52.0296 13.5621 53.9823 13.8817 55.2781 12.5325C55.2781 12.5325 55.3136 12.497 55.3136 12.4793C54.7456 13.8462 54.142 15.142 53.5917 16.5621C54.4793 16.5266 55.5266 16.5976 56.361 16.5621C56.574 15.8343 56.8048 15.2308 57.0533 14.5207C58.1006 14.5207 59.1657 14.5207 60.213 14.5207C60.4438 15.1243 60.7811 15.9586 60.9408 16.5444C62.6272 16.5976 64.3314 16.5444 66 16.5621C65.9823 15.4438 66 14.3432 65.9645 13.2604C66.4261 13.2604 66.9231 13.2248 67.4024 13.2426C67.7752 13.5799 69.071 15.9763 69.3373 16.5621C70.3136 16.5799 71.2722 16.5799 72.2485 16.5621C71.5562 15.3195 70.7574 14.0592 70.0296 12.8343C71.3787 12.1243 71.716 10.9882 71.4852 9.53254C72.3018 9.53254 73.3314 9.49704 74.1302 9.53254V13.9527C74.1302 14.716 74.1657 15.7988 74.0947 16.5266H76.7397C76.7752 14.5385 76.8462 11.4142 76.7397 9.49704C77.0414 9.49704 79.2071 9.55029 79.4201 9.49704C79.4201 9.15976 79.4201 8.84023 79.4201 8.50296H79.4734ZM42.9231 12.2663H42.1775C42.4261 11.6272 42.6213 11.0947 42.8343 10.4556C42.9586 10.6509 43.5799 12.0533 43.5444 12.2485H42.9231V12.2663ZM53.0592 11.0769C52.3846 11.4497 51.0888 11.3432 50.2545 11.3254C50.2545 10.7396 50.2545 10.1361 50.2545 9.56804C51.3018 9.56804 54.071 9.19526 53.0592 11.0769ZM59.3255 12.2485H58.7574H57.9586C58.2426 11.6095 58.4379 11.0947 58.6332 10.4379C58.7752 10.6686 59.4142 12.0355 59.3255 12.2308V12.2485ZM68.9645 10.7929C68.2367 11.0592 66.9231 10.9527 66.071 10.9527V9.55029C66.1598 9.55029 66.3373 9.55029 66.4261 9.55029C67.4379 9.6568 69.5326 9.0355 68.9645 10.7929Z" fill="white"/>
<path d="M87.6036 12.0355C87.4971 13.4379 87.4616 15.142 87.4616 16.5444C88.2959 16.5444 89.1302 16.5444 89.9645 16.5444C89.9468 13.4734 89.9823 10.3491 89.9645 7.29585C88.8994 7.33136 87.7633 7.26035 86.716 7.33136C86.5207 7.75739 86.1302 9.0355 85.9704 9.55029C85.6331 10.6154 85.1361 11.9645 84.8876 13.0296C84.6568 12.5148 84.3728 11.574 84.1775 11.0237L82.9349 7.31361C82.1361 7.31361 80.3432 7.26035 79.6331 7.33136C79.6331 7.88165 79.6864 9 79.6331 9.51479C79.7219 11.8225 79.5976 14.2189 79.6686 16.5266C80.5385 16.5266 81.4083 16.5266 82.2781 16.5266C82.2781 15.3018 82.1539 14.0414 82.1716 12.8343C82.1716 12.639 82.1539 12.3905 82.2426 12.2308C82.3846 12.426 82.4556 12.8698 82.5266 13.1183C82.8994 14.1124 83.3432 15.5148 83.645 16.5266C84.355 16.5799 85.3846 16.5266 86.1302 16.5266C86.6627 15.2485 87.0888 13.4379 87.6568 12.0177L87.6036 12.0355Z" fill="white"/>
<path d="M106.278 9.42604C106.225 8.73373 106.243 7.97041 106.26 7.27811C105.426 7.29586 104.592 7.29586 103.74 7.29586L103.775 12.3728C102.959 10.8462 101.805 8.76923 100.899 7.29586H98.0947L98.0592 13.7751C98.0592 14.6095 98.1124 15.7456 98.0592 16.5266H100.686C100.669 14.8047 100.686 12.7811 100.598 11.0769C101.379 12.5858 102.746 15.0888 103.651 16.5089C104.521 16.5444 105.408 16.5266 106.278 16.5266C106.278 14.1834 106.296 11.7515 106.278 9.40828V9.42604Z" fill="white"/>
<path d="M120.639 10.5266C120.284 10.9882 117.426 10.7929 116.68 10.8107V12.9941C117.586 12.9941 120.533 12.7633 120.852 13.6154C120.71 14.503 119.805 14.361 119.059 14.361C118.03 14.361 116.982 14.361 115.97 14.361C115.97 14.9468 115.97 15.6391 115.97 16.2249V16.4734C116.166 16.6331 118.74 16.5266 119.183 16.5621C119.609 16.5976 120.621 16.5621 121.065 16.5266C123.604 16.3491 124.491 13.7219 122.769 11.8935C123.337 11.1834 123.71 10.6154 123.604 9.65681C123.533 9.08876 123.302 8.25444 122.805 7.95267C121.118 6.92308 117.905 7.36687 115.97 7.31361C115.97 8.05918 115.97 8.76924 115.953 9.5148C116.627 9.5148 121.775 9.07101 120.657 10.5621L120.639 10.5266Z" fill="white"/>
<path d="M93.5503 16.4911C94.9882 16.5799 96.4083 16.5444 97.8462 16.5266V14.2899C96.9586 14.2899 96.0533 14.2899 95.1657 14.2899C94.5621 14.2899 94.0474 14.3077 93.4616 14.1302C93.0355 13.6509 93 13.5799 92.9113 12.9408H97.8462C97.8462 12.2308 97.8284 11.432 97.8462 10.7219C96.1953 10.7397 94.5622 10.7397 92.9113 10.7219C93.3728 9.4793 94.1539 9.44379 95.3432 9.44379C96.1598 9.44379 97.0118 9.4793 97.8284 9.46154V7.26036C97.8107 7.26036 94.9349 7.29586 94.9349 7.29586C91.3846 7.36687 90.1953 8.50296 90.1065 12.2663C90.071 14.2544 91.4024 16.3669 93.5148 16.4734L93.5503 16.4911Z" fill="white"/>
<path d="M106.385 9.44379C106.544 9.5503 108.657 9.51479 109.083 9.5503C109.012 11.8047 109.083 14.2722 109.083 16.5266C109.953 16.5266 110.84 16.5089 111.71 16.5089V9.51479C112.633 9.51479 113.538 9.49704 114.462 9.53254C114.426 8.89349 114.462 7.95266 114.462 7.27811C112.136 7.45562 108.941 7.2426 106.527 7.31361C106.367 7.45562 106.42 7.50888 106.385 7.77515C106.385 7.97041 106.402 8.3432 106.402 8.71598C106.402 9 106.402 9.26627 106.385 9.42604V9.44379Z" fill="white"/>
<path d="M127.136 22.8639C126.959 22.0296 126.639 20.3609 126.391 19.5976H125.201C125.024 20.2899 124.722 21.4083 124.686 22.0828C124.651 22.2959 124.651 22.4556 124.544 22.6331C124.42 22.5266 124.385 22.1716 124.367 22.0118C124.243 21.355 124.03 20.2012 123.834 19.5976H122.645C122.965 20.9822 123.355 22.7751 123.763 24.1065H125.237C125.432 23.0947 125.609 22.1183 125.894 21.142C125.965 21.9941 126.178 23.2722 126.444 24.1065H127.899C128.201 22.8816 128.645 20.7515 129.018 19.6154H127.757C127.491 20.787 127.296 21.6923 127.136 22.8816V22.8639Z" fill="white"/>
<path d="M113.396 19.7752C113.006 19.5444 112.296 19.5089 111.834 19.5444C110.254 19.8817 109.828 21.0178 110.13 22.5266C110.414 24 111.692 24.1775 112.97 24.0888C114.888 23.5207 115.03 20.7692 113.414 19.7574L113.396 19.7752ZM112.598 23.0592C111.124 23.4142 111.089 21.2663 111.905 20.5917C113.485 20.4497 113.521 22.4024 112.598 23.0592Z" fill="white"/>
<path d="M53.7337 19.6331C53.787 21.0888 53.7515 22.6331 53.7515 24.1065C54.7811 24.1065 56.1302 24.2663 56.9467 23.574C57.7456 22.6509 57.9231 21.0533 56.9823 20.1479C56.2722 19.4734 54.6391 19.5799 53.7337 19.6331ZM56.0237 22.8284C55.7574 23.0414 55.4556 23.1834 55.1539 22.9704C54.9586 22.5266 55.0651 21.2308 55.0651 20.5917C55.2781 20.5917 55.6154 20.5917 55.7929 20.6982C56.574 21.142 56.3965 22.1894 56.0237 22.8284Z" fill="white"/>
<path d="M64.2248 19.6154C64.2248 20.6095 64.2248 21.6568 64.2426 22.6509C63.8343 21.8698 63.0888 20.3077 62.6272 19.6154C62.1124 19.6154 61.4911 19.5976 60.9941 19.6154C61.0296 21.1065 61.0296 22.5976 61.0118 24.0887H62.1479C62.1479 23.0059 62.1479 21.9231 62.1124 20.8402C62.4142 21.6035 63.2485 23.3787 63.6923 24.0887H65.2367C65.3609 23.8935 65.3254 20.0769 65.2899 19.5976H64.1893L64.2248 19.6154Z" fill="white"/>
<path d="M95.3787 21.6036C95.6982 21.3195 95.9112 21.1953 95.9112 20.7337C95.9467 19.3314 93.3373 19.6154 92.4675 19.6154C92.4142 20.8935 92.4142 22.7929 92.4675 24.1065C93.5858 24.1065 95.1657 24.3728 95.8757 23.361C96.3373 21.9763 95.2899 22.0828 95.3965 21.6036H95.3787ZM93.7633 20.5562C93.9941 20.5562 94.3314 20.5562 94.5089 20.6982C94.6331 20.8757 94.5976 21.0178 94.5621 21.2485C94.3314 21.284 94.0473 21.355 93.8521 21.2485C93.7101 21 93.7633 20.8757 93.7633 20.5562ZM94.5799 23.0592C94.3669 23.1124 93.9941 23.1124 93.7456 23.1302V22.1894C93.8166 22.1894 93.9053 22.1894 93.9763 22.1894C94.3136 22.1894 94.3846 22.2249 94.5976 22.4556C94.6864 22.7041 94.6331 22.8107 94.5799 23.0592Z" fill="white"/>
<path d="M40.8639 21.7278C42.9941 19.4556 39.284 19.5799 38.0059 19.6154C38.0769 21.1243 38.0059 22.6154 38.0414 24.0888C39.142 24.0888 40.7752 24.355 41.4142 23.3077C41.645 22.4379 41.5207 22.2426 40.8639 21.7101V21.7278ZM39.3018 20.5562C39.5503 20.5562 39.8876 20.5562 40.0651 20.6982C40.1894 20.9467 40.1538 20.8757 40.1183 21.1598C39.9053 21.2663 39.6391 21.3195 39.4083 21.2485C39.2485 20.9822 39.3018 20.8757 39.3018 20.5562ZM40.1361 23.0414C39.9053 23.0769 39.5858 23.1834 39.3905 23.0592C39.2485 22.8639 39.3018 22.4201 39.3018 22.1538C39.355 22.1538 39.426 22.1538 39.4793 22.1538C39.7811 22.1538 39.9586 22.1716 40.1538 22.3846C40.2604 22.6154 40.1894 22.7574 40.1183 23.0059L40.1361 23.0414Z" fill="white"/>
<path d="M137.787 20.4852C137.396 19.3669 135.479 19.5976 134.521 19.6154C134.521 20.9822 134.467 22.7751 134.521 24.1065H135.799L135.834 22.1716C136.047 22.5089 136.846 24.142 137.201 24.1065H138.373C138 23.4497 137.521 22.7929 137.13 22.1361C137.68 21.7101 138.071 21.2485 137.805 20.4852H137.787ZM136.438 21.4083C136.314 21.4438 135.959 21.5148 135.799 21.5503L135.763 20.5385C135.852 20.5385 135.941 20.5385 136.03 20.5562C136.314 20.5917 136.385 20.645 136.544 20.8402C136.58 21.0888 136.544 21.1598 136.438 21.3905V21.4083Z" fill="white"/>
<path d="M76.5621 21.1065C76.7397 19.3136 74.4142 19.5976 73.2426 19.5976C73.2426 20.9112 73.2781 22.8284 73.1894 24.0888H74.5562C74.5562 23.5207 74.5207 22.7751 74.5562 22.2071C74.8758 22.6686 75.4971 24 75.8698 24.0888H77.0947C76.6864 23.432 76.2249 22.7929 75.8521 22.1183C76.2071 21.8343 76.5266 21.5858 76.5621 21.0888V21.1065ZM75.1775 21.4083C74.9823 21.4615 74.8047 21.5503 74.6272 21.4615C74.4852 21.284 74.5385 20.8047 74.5562 20.5385C74.645 20.5385 74.7337 20.5385 74.8225 20.5385C75.071 20.5562 75.1243 20.6095 75.2663 20.7692C75.3195 21.0178 75.2663 21.1243 75.1775 21.3728V21.4083Z" fill="white"/>
<path d="M130.722 19.5976C130.225 20.8757 129.692 23.0414 129.213 24.1065H130.633C130.704 23.858 130.811 23.5207 130.864 23.2722C131.201 23.2722 131.947 23.2544 132.231 23.3254L132.284 23.3787C132.355 23.6095 132.444 23.9112 132.533 24.1243H133.935C133.331 22.7751 132.923 21.0177 132.391 19.6154H130.74L130.722 19.5976ZM131.893 22.1893H131.787C131.521 22.1893 131.379 22.2426 131.219 22.1006C131.148 21.7456 131.432 21.1065 131.485 20.503L131.556 20.574C131.663 20.9112 131.964 21.9053 131.911 22.1893H131.893Z" fill="white"/>
<path d="M88.7041 19.5799C88.1361 20.929 87.7456 22.6864 87.213 24.1065H88.6509L88.8106 23.2544C89.0947 23.2544 89.9645 23.2189 90.1775 23.3254L90.213 23.3787C90.3018 23.6095 90.3905 23.8935 90.497 24.1065H91.8107C91.6154 23.4852 90.5325 19.8639 90.2308 19.6509C89.787 19.5444 89.1657 19.5976 88.7041 19.5799ZM89.858 22.1538H89.6805C88.7396 22.2959 89.2722 21.7101 89.3609 21.142C89.3964 20.929 89.4497 20.6982 89.4852 20.4852C89.5917 20.6982 89.8935 21.9053 89.858 22.1716V22.1538Z" fill="white"/>
<path d="M69.7278 21.4083H68.3077C68.3077 21.7456 68.2722 22.0651 68.2367 22.3846C68.4852 22.3846 68.787 22.3314 68.9823 22.4556C69.1243 22.6509 69.1065 22.5621 69.1065 22.7929C68.8935 23.1479 68.3787 23.2544 68.1302 23.0237C67.3136 22.3136 67.2959 20.8402 68.5562 20.6095C69.071 20.5207 69.355 20.6627 69.7988 20.7692C69.9408 20.4142 70.0473 20.1657 70.1539 19.7752C69.4438 19.5976 69.0533 19.5089 68.3255 19.5444C67.7929 19.6331 67.5266 19.6686 67.0828 19.9882C65.9823 20.8047 65.9645 22.9704 67.1361 23.7515C67.8462 24.213 68.929 24.1953 69.7278 24.0355C69.9053 24 70.0828 23.9645 70.2604 23.9112C70.2604 23.3254 70.2959 21.9941 70.2249 21.4793C70.1184 21.3728 69.8698 21.4083 69.7101 21.4083H69.7278Z" fill="white"/>
<path d="M46.3314 19.5976H45.0533C45.0533 20.3254 45.4793 23.9112 43.9527 22.9527C43.5799 22.7219 43.7574 20.1124 43.7574 19.5976H42.4438C42.4438 20.5385 42.355 22.3491 42.568 23.0769C42.9408 24.3373 45.0888 24.4793 45.9053 23.6095C46.5089 22.9527 46.3314 21.4438 46.3136 20.7337V19.5976H46.3314Z" fill="white"/>
<path d="M107.432 20.7337C107.68 20.3965 108.675 20.716 109.012 20.8047C109.118 20.4852 109.243 20.1657 109.367 19.8639C108.799 19.6509 108.249 19.5089 107.627 19.5621C107.148 19.6509 106.633 19.7041 106.331 20.1302C106.154 20.3965 106.101 20.716 106.154 21.0178C106.367 22.0828 108.036 22.4379 108.107 22.9527C107.751 23.3432 106.615 22.9527 106.189 22.7929C106.154 23.1834 106.154 23.503 106.136 23.8935C106.793 24.0888 106.97 24.1243 107.663 24.142C108.089 24.1243 108.692 24.071 108.976 23.6982C110.414 21.7811 107.698 21.426 107.432 20.7337Z" fill="white"/>
<path d="M102.834 23.0947C102.178 23.1124 102.107 23.1834 102.053 22.5444L102.124 22.2959C102.426 22.1716 103.101 22.2426 103.456 22.2603V21.213C102.994 21.2663 102.373 21.3905 102.018 21C102.018 20.4142 103.207 20.5917 103.58 20.6272V19.5976C102.692 19.5976 101.68 19.5976 100.828 19.5976C100.828 21.0355 100.811 22.6509 100.846 24.071C101.751 24.071 102.675 24.071 103.58 24.071V23.0414C103.331 23.0414 103.065 23.0414 102.852 23.0414L102.834 23.0947Z" fill="white"/>
<path d="M80.432 20.6272C80.432 20.3077 80.432 19.8994 80.4142 19.5976C79.6332 19.5976 78.4793 19.5799 77.7337 19.6154C77.7515 21.0355 77.6982 22.7219 77.7515 24.0888C78.6391 24.0888 79.5444 24.0888 80.4142 24.0888V23.0592C80.0237 23.0592 79.4201 23.1479 79.1184 23.0237C78.9586 22.8462 78.9941 22.7041 78.9941 22.4201L79.0296 22.2781C79.3314 22.2071 79.9882 22.2426 80.3255 22.2604V21.2308C79.7752 21.2663 79.4201 21.3905 78.9941 21.071L78.9409 20.929C79.1539 20.4497 80.0414 20.6095 80.4497 20.645L80.432 20.6272Z" fill="white"/>
<path d="M141.71 20.6095V19.6154H139.03C138.941 20.929 138.994 22.7574 139.012 24.1065C139.899 24.1065 140.822 24.1065 141.71 24.1065V23.0769C141.426 23.0769 140.485 23.1124 140.29 23.0414V22.9527C140.29 22.6331 140.237 22.5621 140.379 22.3136C140.627 22.1716 141.249 22.2604 141.604 22.2604V21.2485C141.213 21.2663 140.432 21.3728 140.183 21C140.272 20.4497 141.302 20.5917 141.728 20.6272L141.71 20.6095Z" fill="white"/>
<path d="M115.456 24.1065H116.698V22.3846C117.035 22.3846 117.55 22.3846 117.87 22.4201H117.994C118.101 22.2071 118.047 21.6568 118.047 21.4083H116.698C116.698 21.426 116.698 20.5917 116.698 20.5917C117.16 20.5917 117.692 20.5917 118.154 20.5917V19.5976C117.266 19.5976 116.361 19.5976 115.456 19.5976C115.456 21.0177 115.402 22.6864 115.456 24.1065Z" fill="white"/>
<path d="M118.686 20.6095C119.059 20.6095 119.485 20.5917 119.84 20.6095C119.894 21.7633 119.876 22.9349 119.876 24.071H121.118V23.0769V20.574C121.527 20.574 121.757 20.574 122.166 20.5917V19.5621H118.757C118.686 19.9527 118.686 20.1657 118.686 20.574V20.6095Z" fill="white"/>
<path d="M82.6687 19.5976H81.4261C81.4083 20.8757 81.2663 22.8994 81.4083 24.0888H84.4083V23.0592H82.6687V19.5799V19.5976Z" fill="white"/>
<path d="M98.2012 23.0769C98.2012 21.9586 98.2544 20.6982 98.2189 19.5976H96.9763C96.9231 20.9822 96.9408 22.7219 96.9763 24.1065C97.9349 24.1065 98.9823 24.0888 99.9231 24.1065C99.9231 23.7337 99.9231 23.4497 99.8876 23.0769H98.2189H98.2012Z" fill="white"/>
<path d="M51.1243 19.5976H49.8817V24.0888C50.858 24.0888 51.8876 24.0888 52.8462 24.0888V23.0592H51.1065C51.1065 21.9408 51.142 20.6805 51.1065 19.5799L51.1243 19.5976Z" fill="white"/>
<path d="M47.4675 19.6154V24.0887H48.7633C48.7633 22.5976 48.7633 21.0888 48.7633 19.5976H47.4497L47.4675 19.6154Z" fill="white"/>
<path d="M58.5976 19.6154V24.0888H59.8757C59.8757 22.5799 59.8757 21.0888 59.8757 19.5799H58.5976V19.6154Z" fill="white"/>
<path d="M85.3136 19.6154C85.3136 21.0355 85.3314 22.7041 85.2603 24.0887H86.5385C86.5917 22.7219 86.5562 21 86.5562 19.5976H85.3136V19.6154Z" fill="white"/>
<path d="M106.278 9.42604H106.385C106.385 9.43787 106.385 9.44379 106.385 9.44379C106.385 9.28403 106.402 9.01776 106.402 8.73373C106.402 8.3787 106.402 7.98817 106.385 7.79291L106.278 7.26036C106.278 7.95267 106.243 8.71598 106.296 9.40829L106.278 9.42604Z" fill="white"/>
<path d="M106.385 9.44379C106.385 9.28403 106.402 9.01776 106.402 8.73373C106.402 9.01776 106.402 9.28403 106.385 9.44379Z" fill="white"/>
<path d="M79.6331 7.31361L79.5089 7.27811V7.50888C79.5621 7.8284 79.5621 8.30769 79.5621 8.75148C79.5621 9.01775 79.5621 9.26627 79.5621 9.47929L79.6331 9.51479C79.6864 9 79.6509 7.86391 79.6331 7.33136V7.31361Z" fill="white"/>
<path d="M82.1538 12.8343L82.4911 13.1006C82.4379 12.8521 82.3669 12.4083 82.2071 12.213C82.1183 12.3728 82.1361 12.6213 82.1361 12.8166L82.1538 12.8343Z" fill="white"/>
<path d="M79.5621 8.75148C79.5621 8.3077 79.5621 7.82841 79.5089 7.50888C79.5089 7.84616 79.5089 8.16569 79.4911 8.50296C79.4734 8.84024 79.4911 9.15977 79.4911 9.49705H79.5621C79.5621 9.28403 79.5621 9.03551 79.5621 8.76924V8.75148Z" fill="white"/>
<path d="M124.349 22.0118C124.385 22.1894 124.42 22.5444 124.527 22.6331C124.633 22.4556 124.651 22.2781 124.669 22.0828C124.598 22.0296 124.438 22.0296 124.331 22.0118H124.349Z" fill="white"/>
<path d="M124.686 22.1006C124.651 22.3136 124.651 22.4734 124.544 22.6509C124.651 22.4734 124.669 22.2959 124.686 22.1006Z" fill="white"/>
<path d="M14.503 29.0414C13.8639 29.3787 13.2781 29.5207 12.7278 29.503C13.2781 29.5207 13.8817 29.3787 14.503 29.0414Z" fill="#FEFEFE"/>
<path d="M7.22485 27.284C7.26036 27.2663 7.29586 27.2485 7.33136 27.213C7.29586 27.2308 7.26036 27.2485 7.22485 27.284Z" fill="#FEFEFE"/>
<path d="M22.5976 21.8521C22.2959 21.6213 22.2071 20.858 21.9231 20.5917C21.5148 20.2189 20.7515 20.1834 20.2367 20.1834C20.2367 16.2248 20.1302 11.5917 20.29 7.66864C19.3136 7.22485 18.355 6.79881 17.361 6.37278V4.81065C16.0828 4.2426 14.5207 3.58579 13.3314 2.89349C13.2426 2.4142 13.4201 1.52662 13.1894 1.2426H12.9586C12.9586 1.50887 12.9586 1.81065 12.9586 2.09467C12.9586 2.37869 12.9586 2.66272 12.9586 2.94674C12.8876 3 12.8166 3.05325 12.7456 3.1065C11.8047 3.76331 10.6864 4.33136 9.71007 4.91716V6.15976C9.08877 6.63905 7.59764 7.45562 6.86983 7.8639V19.5266C6.14202 19.5266 5.53847 19.6686 5.21894 20.1479C5.07693 20.3609 4.98817 20.6627 4.95267 21.0355C4.47338 21.1775 4.1006 21.284 3.67456 21.5325C3.40829 21.7456 2.82249 22.2071 2.62723 22.4379C1.6864 24.5858 1.7574 26.3787 4.17161 27.4438C4.22486 27.4615 4.27811 27.497 4.34912 27.5148C5.41421 27.4083 6.63906 26.7515 6.74557 25.5621C6.74557 25.4024 6.72782 25.2248 6.81658 25.0828C6.95859 25.3136 7.02959 25.5976 7.11835 25.8462C7.50888 25.8994 7.89942 26.3077 8.3077 26.4852C8.68048 26.6627 9.00001 26.7337 9.28403 26.7337C10.1539 26.7692 10.7752 26.2189 11.6982 25.9704L11.7692 25.8639C11.7692 26.1124 11.7692 26.1834 11.6982 26.4319C11.9645 27.0177 11.9823 27.5148 12.4083 28.0473C13.0118 28.7751 13.7042 28.8462 14.574 28.9527C13.8284 28.2248 13.6154 27.8698 13.5266 26.8225C14.0059 27.3905 14.2544 27.7101 14.8757 28.1183C15.9586 28.8106 16.7929 27.9763 17.8757 28.3669C18.1065 28.0651 18.2485 27.7456 18.3728 27.3905C18.2308 27.3018 16.9704 27.284 16.6331 27.142C15.9941 26.8757 15.6391 26.2189 15.3728 25.6509L15.7988 26.0592C15.9408 26.0592 16.0828 26.0592 16.2071 26.0592C16.4734 26.0592 16.7042 26.0592 16.9527 26.0592C17.5385 26.0592 18.1065 25.9704 18.8166 25.4734C19.2249 25.1893 19.6686 24.6746 19.7574 24.1775V23.9112C20.3432 24.2308 20.0059 25.7396 19.7219 26.2189C19.7042 26.2544 19.6864 26.2899 19.6686 26.3077C20.0059 26.6272 20.3432 26.9467 20.7515 27.1598C20.8935 27.2308 21.0355 27.3018 21.1775 27.3373C21.2663 27.3728 21.355 27.4438 21.4083 27.5148C21.6568 27.568 22.5089 27.3905 22.7574 27.284C23.4497 27 24 26.4675 24.3018 25.7929C24.6391 25.0296 24.6036 24.284 24.3018 23.5207C24.3373 23.2367 23.645 22.5621 23.4497 22.3314C23.1834 22.1361 22.8284 22.0296 22.6509 21.8876L22.5976 21.8521ZM21.2485 23.6627L21.1598 23.6272C21.071 23.3787 21.2308 23.3964 21.1598 22.9882C20.7337 22.7041 20.0592 22.2426 19.4379 22.2071C19.2426 22.2071 19.0473 22.2248 18.8698 22.3314C18.6923 22.4379 18.7278 22.5621 18.6746 22.7574L18.5681 23.1124H18.5148L18.4438 22.6686C18.4083 22.5976 18.3728 22.5444 18.3195 22.4911C18.284 22.4379 18.2308 22.3669 18.1953 22.3136C17.6982 21.6035 17.1124 21.071 16.4556 20.7692C15.4615 20.3077 14.3255 20.3432 13.1184 21.071C12.6036 21.3728 12.0355 22.1183 11.5207 22.1538C11.3787 23.0947 11.361 23.3432 11.5207 24.284C11.0947 23.2367 11.0237 22.6686 11.2899 21.5325C11.0592 21.4793 11.0592 21.5325 10.8994 21.3728C10.8107 20.2899 10.8639 17.2899 10.8994 16.1538C10.5976 15.9586 10.2249 15.639 9.90533 15.639C9.88758 15.6568 9.86983 15.6923 9.85208 15.7101C9.85208 15.7278 9.83433 15.7633 9.81658 15.7811C9.81658 15.8343 9.78107 15.8698 9.78107 15.9231C9.78107 16.0118 9.78107 16.1183 9.78107 16.2604V21.4083C9.62131 21.4615 9.42604 21.5325 9.26628 21.6035C8.80474 21.2485 8.50297 21.1065 7.95267 20.929C7.98817 16.8284 7.97042 12.6568 7.95267 8.55621C9.58581 7.56213 11.3255 6.58579 12.9763 5.59171C14.8402 6.30177 17.1834 7.56213 19.1716 8.37869V16.5444C19.1539 18.0177 19.1184 19.6509 19.1716 21.1065C19.7929 21.071 20.2899 21.1065 20.8047 21.5503C21.1598 21.8521 21.3728 22.2959 21.3905 22.7574C21.3905 23.0059 21.426 23.5207 21.2485 23.6982V23.6627Z" fill="#FEFEFE"/>
<path d="M17.858 28.3491C17.5562 28.6331 17.0414 28.9349 16.4911 29.1302C17.0414 28.9527 17.5562 28.6331 17.858 28.3491Z" fill="#FEFEFE"/>
<path d="M5.21894 20.1479C5.07693 20.361 4.98817 20.6627 4.95267 21.0355C4.47338 21.1775 4.1006 21.284 3.67456 21.5325C4.11835 21.284 4.47338 21.1775 4.95267 21.0355C4.97042 20.6627 5.05918 20.361 5.21894 20.1479Z" fill="white"/>
<path d="M6.49703 3.65681C8.5917 2.11243 10.4201 1.56214 12.9763 1.26036C10.4201 1.56214 8.60945 2.11243 6.49703 3.65681Z" fill="white"/>
<path d="M1.36685 12.6746C1.36685 12.6036 1.36685 12.5503 1.3846 12.4793C1.3846 12.5503 1.3846 12.6036 1.36685 12.6746Z" fill="white"/>
<path d="M2.4852 8.52071C2.92899 7.57988 3.47928 6.67455 4.15384 5.85799C3.47928 6.67455 2.92899 7.56213 2.4852 8.52071Z" fill="white"/>
<path d="M9.71005 4.91716C10.6864 4.31361 11.8047 3.74557 12.7456 3.08876C11.8047 3.74557 10.6864 4.31361 9.71005 4.89941V4.91716Z" fill="#1360A1"/>
<path d="M6.86981 7.8639C7.59762 7.43787 9.08875 6.63905 9.71005 6.15976C9.08875 6.63905 7.59762 7.45562 6.86981 7.8639Z" fill="#1360A1"/>
<path d="M25.2426 6.19527C23.4142 3.39053 20.6272 1.36686 17.3965 0.497041C16.4379 0.248521 15.6213 0.195266 14.6805 0H12.9763C11.9467 0.230769 10.9882 0.284024 9.94083 0.585799C6.90533 1.47337 4.11834 3.47929 2.39645 6.14201C1.36686 7.72189 0.656805 9.47929 0.301775 11.3432C0.230769 11.716 0.0710059 13.0296 0 13.2604V15.1598C0.142012 15.8166 0.195266 16.4556 0.337278 17.1124C0.710059 19.0296 1.49112 20.858 2.62722 22.4379C2.82249 22.2071 3.42604 21.7456 3.67456 21.5325C3.28402 20.9823 2.94675 20.4142 2.64497 19.8107C2.59172 19.6864 2.52071 19.5799 2.46746 19.4556C2.30769 19.1006 2.14793 18.7278 2.02367 18.355C1.72189 17.4852 1.50888 16.5621 1.38462 15.6391C1.31361 15.0533 1.27811 14.4675 1.29586 13.8994C1.29586 13.7396 1.29586 13.5799 1.29586 13.4201C1.29586 13.1716 1.33136 12.9408 1.34911 12.6923C1.34911 12.6213 1.34911 12.568 1.36686 12.497C1.45562 11.645 1.63314 10.8284 1.89941 10.0296C1.98817 9.72781 2.09467 9.42604 2.21894 9.14201C2.30769 8.94675 2.3787 8.73373 2.48521 8.53846C2.92899 7.59763 3.47929 6.69231 4.15385 5.87574C4.22485 5.78698 4.29586 5.71598 4.34911 5.62722C4.97041 4.89941 5.68047 4.2426 6.47929 3.65681C8.57397 2.11243 10.4024 1.56213 12.9586 1.26036H13.1894C13.4201 1.54438 13.2426 2.43195 13.3314 2.91124C13.4024 2.4497 13.3669 1.70414 13.3669 1.22485C20.8935 1.2426 26.2899 6.63905 26.4142 14.1479C26.4497 16.5976 25.2249 20.503 23.4675 22.2604C23.4675 22.2604 23.432 22.2959 23.4142 22.3136C23.6095 22.5444 24.3018 23.2189 24.2663 23.503C28.5266 18.6568 28.7396 11.5385 25.2604 6.19527H25.2426Z" fill="white"/>
<path d="M9.37277 28.2071C8.53845 28.0651 7.88165 27.8876 7.3136 27.213C7.86389 27.8876 8.53845 28.0473 9.37277 28.2071Z" fill="white"/>
<path d="M14.6805 28.9527C14.6272 28.9527 14.574 28.9882 14.503 29.0237C13.8639 29.361 13.2781 29.503 12.7278 29.4852C11.8047 29.4497 11.0237 28.9172 10.3846 27.9053C11.0414 27.4615 11.3787 27.1953 11.6805 26.432C11.7515 26.1834 11.7692 26.1124 11.7515 25.8639L11.6805 25.9704C10.7574 26.2189 10.1539 26.7692 9.26628 26.7337C10.1361 26.7692 10.7574 26.2189 11.6805 25.9704C11.2722 26.6805 10.8284 27.1598 9.99409 27.3728C9.37279 27.5325 8.69823 27.4438 8.13018 27.1243C7.70415 26.8757 7.36687 26.4852 7.1361 26.0414C6.90533 26.2012 6.97634 26.1124 6.90533 26.3965C6.90533 26.503 6.90533 26.6095 6.85208 26.6982C6.85208 26.7515 6.81658 26.787 6.78107 26.8402C6.44379 27.3905 5.41421 27.6036 4.84616 27.7101C5.78699 27.9941 6.42604 27.7811 7.18936 27.284C7.22486 27.2663 7.26036 27.2485 7.29586 27.213C7.84616 27.8876 8.52072 28.0473 9.35504 28.2071C10.2249 29.3077 10.7219 29.5562 12 30H12.9763C13.3669 29.8757 13.6154 29.8047 13.8284 29.6982C14.1124 29.574 14.3432 29.3965 14.7692 29.0769C14.7337 28.9882 14.6982 28.9527 14.6627 28.9527H14.6805Z" fill="white"/>
<path d="M18.9408 26.9645C19.1716 26.7515 19.4201 26.503 19.6509 26.2722C19.9882 26.5917 20.3255 26.9112 20.7337 27.1243C20.3255 26.9112 19.9704 26.5917 19.6509 26.2722C19.6687 26.2367 19.6864 26.2189 19.7042 26.1834C19.9882 25.7041 20.3255 24.1775 19.7574 23.8757V24.142C19.7574 24.9053 19.5976 25.4911 19.0296 26.0592C18.6036 26.4852 18.0178 26.7337 17.4142 26.7337C16.8107 26.7337 16.1894 26.4497 15.7811 26.0237L15.355 25.6154C15.6391 26.1834 15.9763 26.8402 16.6154 27.1065C16.9527 27.2485 18.213 27.2663 18.355 27.355L18.426 27.3018C19.3846 27.8876 20.0059 28.0296 21.071 27.568C20.1479 27.6035 19.6864 27.5148 18.9231 26.9645H18.9408Z" fill="white"/>
<path d="M18.7988 25.4379C19.2071 25.1538 19.6509 24.6391 19.7396 24.142C19.6509 24.6391 19.1893 25.1538 18.7988 25.4379C18.0888 25.9349 17.5385 26.0237 16.9349 26.0237C17.5207 26.0237 18.0888 25.9349 18.7988 25.4379Z" fill="white"/>
<path d="M7.15383 26.0414L7.10058 25.8462C7.01182 25.5976 6.94082 25.2959 6.7988 25.0828C6.71005 25.2071 6.7278 25.3846 6.7278 25.5621C6.7633 25.8284 6.7988 26.1657 6.90531 26.4142C6.97632 26.1302 6.90531 26.2012 7.13608 26.0592L7.15383 26.0414Z" fill="white"/>
<path d="M7.15383 26.0414C6.92307 26.2012 6.99407 26.1124 6.92307 26.3965C6.99407 26.1124 6.92307 26.1834 7.15383 26.0414Z" fill="white"/>
<path d="M11.5562 22.1361C11.4142 23.0769 11.3965 23.3254 11.5562 24.2663C11.4142 23.3432 11.432 23.0769 11.5562 22.1361Z" fill="white"/>
<path d="M9.83433 15.7456C9.83433 15.7988 9.79883 15.8343 9.79883 15.8876C9.79883 15.8343 9.79883 15.7988 9.83433 15.7456Z" fill="#D04237"/>
<path d="M9.86981 15.6923C9.86981 15.6746 9.90532 15.6391 9.92307 15.6213C9.90532 15.6391 9.88756 15.6746 9.86981 15.6923Z" fill="#BEAFC4"/>
<path d="M9.81656 9.39053C9.72781 10.3846 9.78106 12.213 9.79881 13.2781C10.1716 13.0473 10.5444 12.8166 10.9172 12.5858V10.9172C10.8994 10.6509 10.9172 10.2249 10.8994 9.94083C10.5444 9.76332 10.2426 9.56805 9.83432 9.39053H9.81656Z" fill="#FEFEFE"/>
<path d="M10.9349 8.69823C10.9349 9.31953 10.9527 10.2959 10.8994 10.9172C10.9704 10.3136 10.9349 9.31953 10.9349 8.69823Z" fill="#BEAFC4"/>
<path d="M17.9822 21.9586C17.787 21.7101 17.574 21.497 17.3609 21.3195C17.0947 21.0888 16.7929 20.8935 16.4911 20.7515C17.1479 21.071 17.7337 21.6036 18.2308 22.2959C18.1953 22.2426 18.142 22.1716 18.1065 22.1183C18.071 22.0651 18.0177 22.0118 17.9822 21.9586Z" fill="white"/>
<path d="M11.3077 21.5148C11.0414 22.6509 11.1124 23.2012 11.5384 24.2663C11.1124 23.2189 11.0414 22.6509 11.3077 21.5325V21.5148Z" fill="white"/>
<path d="M18.6568 22.4911C18.6213 22.1716 18.568 21.7633 18.6568 21.6035L18.5858 21.3195C18.497 21.2485 18.284 20.8935 18.213 20.7692C17.0592 18.7633 14.929 18.3018 12.9763 19.3136C12.1065 20.0059 11.6627 20.4319 11.3077 21.497C11.0414 22.6331 11.1124 23.1834 11.5384 24.2308C11.3964 23.3077 11.4142 23.0414 11.5384 22.1006C11.9467 21.0532 12.426 20.3609 13.4911 19.8994C14.3787 19.5089 15.4083 19.4734 16.3136 19.8284C17.1479 20.1479 17.8047 20.787 18.1598 21.6035C18.3018 21.9231 18.4083 22.2959 18.4438 22.6509L18.5148 23.1124H18.568L18.6745 22.7396C18.6745 22.7041 18.6745 22.6686 18.6745 22.6154C18.6745 22.5621 18.6745 22.5266 18.6568 22.4734V22.4911Z" fill="white"/>
<path d="M17.9823 21.9586C17.787 21.7101 17.574 21.497 17.361 21.3195C17.574 21.5148 17.787 21.7278 17.9823 21.9586Z" fill="white"/>
<path d="M18.2308 22.3136C18.2663 22.3669 18.3195 22.4379 18.355 22.4911C18.284 22.3669 18.1953 22.2604 18.1065 22.1361C18.142 22.1893 18.1953 22.2426 18.2308 22.3136Z" fill="white"/>
<path d="M20.8047 21.5148C20.2899 21.071 19.7929 21.0355 19.1716 21.071L18.5858 21.3195L18.6568 21.6036C19.9349 21.4615 20.716 21.6213 21.1597 22.9704C21.2485 23.3965 21.071 23.3609 21.1597 23.6095L21.2485 23.645C21.426 23.4675 21.4083 22.9527 21.3905 22.7041C21.355 22.2426 21.1597 21.7988 20.8047 21.497V21.5148Z" fill="white"/>
<path d="M18.6746 22.7574C18.7101 22.5621 18.6746 22.4379 18.8698 22.3314C18.6923 22.4379 18.7278 22.5621 18.6746 22.7574Z" fill="white"/>
<path d="M18.6568 21.6213L18.5858 21.3195L18.6568 21.6213Z" fill="white"/>
<path d="M140.769 12.7633C140.84 10.9882 140.787 9.071 140.787 7.29585C139.935 7.29585 138.817 7.2781 137.982 7.31361C136.864 8.43195 135.799 9.53254 134.734 10.7219C134.077 11.4675 133.438 11.9822 132.87 12.8343C132.959 9.46154 131.965 7.2426 128.343 7.2426C127.047 7.2426 125.894 7.29585 124.864 8.27219C123.941 9.15976 123.657 10.4201 123.604 11.6627C123.497 14.6095 124.953 16.6509 128.024 16.6686C130.651 16.6686 131.947 15.9231 132.852 13.4201C132.817 13.9172 132.781 14.4852 132.763 14.9822H138.178V16.5444C138.976 16.5444 139.988 16.5799 140.787 16.5444C140.787 16.1006 140.787 15.426 140.787 15H141.941V12.7811H140.787L140.769 12.7633ZM130.03 13.2426C129.834 13.8639 129.497 14.1302 128.965 14.4497C125.237 15.1065 125.858 10.0651 127.473 9.37278C127.899 9.37278 128.379 9.31952 128.805 9.42603C130.402 9.81656 130.438 11.9822 130.03 13.2426ZM138.195 12.7633H136.136C136.172 12.568 137.876 10.8106 138.142 10.5089C138.213 10.6864 138.178 12.4438 138.178 12.7633H138.195Z" fill="white"/>
</g>
<defs>
<clipPath id="clip0_7895_16825">
<rect width="142.012" height="30" fill="white"/>
</clipPath>
</defs>
</svg>
