<svg width="170" height="25" viewBox="0 0 170 25" fill="none" xmlns="http://www.w3.org/2000/svg">
<g clip-path="url(#clip0_7895_17058)">
<path d="M157.601 13.273C157.712 16.441 159.988 17.9705 162.209 17.9705C164.429 17.9705 165.651 16.9872 166.289 15.5398H168.898C168.204 18.0796 165.845 20.1553 162.209 20.1553C157.49 20.1553 154.881 16.8234 154.881 12.481C154.881 7.83816 158.045 4.8613 162.125 4.8613C166.678 4.8613 169.426 8.63017 169.092 13.273H157.601ZM157.629 11.1427H166.428C166.372 9.06715 164.79 6.99153 162.125 6.99153C159.877 6.99153 157.851 8.1932 157.629 11.1427Z" fill="white"/>
<path d="M150.717 0H153.243V19.8003H150.717V17.5881C149.801 19.1448 148.219 20.1553 145.832 20.1553C142.418 20.1553 139.448 17.3696 139.448 12.5083C139.448 7.67429 142.418 4.86128 145.832 4.86128C148.219 4.86128 149.801 5.87179 150.717 7.42849V0ZM146.47 6.99151C143.889 6.99151 142.196 9.01252 142.196 12.5083C142.196 16.0041 143.889 18.0251 146.47 18.0251C148.719 18.0251 150.828 16.3864 150.828 12.5083C150.828 8.63016 148.719 6.99151 146.47 6.99151Z" fill="white"/>
<path d="M138.555 12.5083C138.555 17.8338 134.863 20.1553 131.393 20.1553C127.924 20.1553 124.232 17.8338 124.232 12.5083C124.232 7.1827 127.924 4.8613 131.393 4.8613C134.863 4.8613 138.555 7.1827 138.555 12.5083ZM131.393 17.9705C133.67 17.9705 135.862 16.2771 135.862 12.5083C135.862 8.60286 133.67 7.04614 131.393 7.04614C129.117 7.04614 126.925 8.49362 126.925 12.5083C126.925 16.4137 129.117 17.9705 131.393 17.9705Z" fill="white"/>
<path d="M123.371 10.023H120.817C120.457 8.27513 118.902 7.04614 116.959 7.04614C114.711 7.04614 112.657 8.76671 112.657 12.4537C112.657 16.1952 114.739 17.9705 116.959 17.9705C119.069 17.9705 120.568 16.5776 120.928 15.0209H123.538C123.038 17.7792 120.345 20.1553 116.876 20.1553C112.601 20.1553 109.909 16.9599 109.909 12.481C109.909 8.11125 112.712 4.8613 117.126 4.8613C120.734 4.8613 123.038 7.53774 123.371 10.023Z" fill="white"/>
<path d="M98.6817 1.42004H101.207V5.10697H104.039V7.10066H101.207V15.8127C101.207 17.3423 101.318 17.7246 102.762 17.7246H104.039V19.8001H102.207C99.3477 19.8001 98.6817 19.1721 98.6817 16.1132V7.10066H96.3223V5.10697H98.6817V1.42004Z" fill="white"/>
<path d="M85.7576 7.31926C86.6181 5.92641 88.0615 4.8613 90.5874 4.8613C94.1956 4.8613 95.5002 7.15538 95.5002 10.5146V19.8003H92.9743V11.252C92.9743 8.9852 92.5858 7.01884 89.6991 7.01884C87.2564 7.01884 85.7576 8.68478 85.7576 11.8255V19.8003H83.2319V5.10708H85.7576V7.31926Z" fill="white"/>
<path d="M70.1147 13.273C70.2257 16.441 72.5016 17.9705 74.7223 17.9705C76.9429 17.9705 78.164 16.9872 78.8025 15.5398H81.4117C80.7177 18.0796 78.3585 20.1553 74.7223 20.1553C70.0037 20.1553 67.3945 16.8234 67.3945 12.481C67.3945 7.83816 70.5587 4.8613 74.639 4.8613C79.1911 4.8613 81.939 8.63017 81.606 13.273H70.1147ZM70.1424 11.1427H78.9413C78.8858 9.06715 77.3037 6.99153 74.639 6.99153C72.3906 6.99153 70.3645 8.1932 70.1424 11.1427Z" fill="white"/>
<path d="M47.3016 19.8003H44.7759V5.10708H47.3016V7.31926C48.1621 5.92641 49.55 4.8613 51.7984 4.8613C54.0743 4.8613 55.4344 5.84449 56.1007 7.45582C57.294 5.65329 59.0429 4.8613 61.1245 4.8613C64.5943 4.8613 65.9544 7.15538 65.9544 10.5146V19.8003H63.4284V11.252C63.4284 8.9852 62.9842 7.01884 60.2365 7.01884C58.0713 7.01884 56.628 8.68478 56.628 11.8255V19.8003H54.1021V11.252C54.1021 8.9852 53.658 7.01884 50.9101 7.01884C48.7449 7.01884 47.3016 8.68478 47.3016 11.8255V19.8003Z" fill="white"/>
<path d="M39.5798 5.10708H42.1057V17.8338C42.1057 20.8381 41.5505 22.067 40.6901 22.9954C39.6076 24.2245 37.7479 24.9346 35.5273 24.9346C32.1411 24.9346 29.8649 23.4053 29.3931 20.4283H32.0856C32.4186 21.7393 33.2236 22.7498 35.5551 22.7498C36.9151 22.7498 37.9422 22.3675 38.6083 21.6574C39.1635 21.0838 39.5798 20.401 39.5798 18.4074V17.0146C38.6638 18.5712 37.2204 19.5544 34.8335 19.5544C31.5303 19.5544 28.5048 16.9326 28.5048 12.2079C28.5048 7.51043 31.5303 4.8613 34.8335 4.8613C37.2204 4.8613 38.6638 5.87178 39.5798 7.4285V5.10708ZM35.4718 6.99153C33.0014 6.99153 31.2528 8.87595 31.2528 12.2079C31.2528 15.5671 33.0014 17.4514 35.4718 17.4514C37.7202 17.4514 39.6908 15.9494 39.6908 12.2079C39.6908 8.49361 37.7202 6.99153 35.4718 6.99153Z" fill="white"/>
<path d="M24.3176 17.6978C23.4573 19.0905 22.0972 20.1556 19.6269 20.1556C16.1573 20.1556 14.8527 17.8616 14.8527 14.5024V5.10748H17.3786V13.765C17.3786 16.0317 17.7672 17.998 20.5151 17.998C22.9022 17.998 24.3176 16.3322 24.3176 13.1915V5.10748H26.8436V19.8006H24.3176V17.6978Z" fill="white"/>
<path d="M0 15.9219C0 12.4535 3.96922 11.4429 10.1035 10.7602V10.4052C10.1035 7.72871 8.57684 6.82744 6.71713 6.82744C4.63539 6.82744 3.41408 7.94719 3.30305 9.74969H0.69392C0.943729 6.58166 3.77493 4.80646 6.68938 4.80646C10.7974 4.80646 12.6571 6.74552 12.6293 10.8694L12.6016 14.256C12.5738 16.7139 12.7126 18.4072 12.9902 19.8001H10.4365C10.3533 19.2538 10.27 18.6531 10.2422 17.779C9.32629 19.2811 7.7719 20.1552 5.135 20.1552C2.33156 20.1552 0 18.6256 0 15.9219ZM10.2978 12.7265C5.71789 13.1908 2.80344 13.8463 2.80344 15.8673C2.80344 17.2602 3.88594 18.1886 5.69014 18.1886C8.04947 18.1886 10.2978 17.1235 10.2978 13.6551V12.7265Z" fill="white"/>
</g>
<defs>
<clipPath id="clip0_7895_17058">
<rect width="169.266" height="25" fill="white"/>
</clipPath>
</defs>
</svg>
