<svg width="81" height="25" viewBox="0 0 81 25" fill="none" xmlns="http://www.w3.org/2000/svg">
<g clip-path="url(#clip0_7895_16661)">
<mask id="mask0_7895_16661" style="mask-type:luminance" maskUnits="userSpaceOnUse" x="0" y="0" width="81" height="25">
<path d="M80.3381 0H0V25H80.3381V0Z" fill="white"/>
</mask>
<g mask="url(#mask0_7895_16661)">
<path d="M80.3381 10.1275C80.3381 8.49224 79.0188 7.16187 77.3836 7.16187C75.7483 7.16187 74.429 8.4867 74.429 10.1275V21.9845C74.429 23.6197 75.7483 24.9501 77.3836 24.9501C79.0188 24.9501 80.3381 23.6253 80.3381 21.9845V10.1275Z" fill="white"/>
<path d="M22.5111 7.16187C24.1408 7.16187 25.4656 8.49224 25.4656 10.1275V21.9845C25.4656 23.6197 24.1408 24.9501 22.5111 24.9501C20.8814 24.9501 19.5565 23.6197 19.5565 21.9845V10.1275C19.5565 8.49224 20.8814 7.16187 22.5111 7.16187Z" fill="white"/>
<path d="M77.3836 0C79.0133 0 80.3381 1.33038 80.3381 2.96563C80.3381 4.60089 79.0133 5.93126 77.3836 5.93126C75.7539 5.93126 74.429 4.60089 74.429 2.96563C74.429 1.33038 75.7539 0 77.3836 0Z" fill="white"/>
<path d="M19.5621 2.96563C19.5621 1.33038 20.8869 0 22.5166 0C24.1463 0 25.4712 1.33038 25.4712 2.96563C25.4712 4.60089 24.1463 5.93126 22.5166 5.93126C20.8869 5.93126 19.5621 4.60089 19.5621 2.96563Z" fill="white"/>
<path d="M27.2505 4.77827C27.2505 4.551 27.4058 4.35144 27.6275 4.29601L32.1785 3.17627C32.4889 3.09867 32.7882 3.33703 32.7882 3.65854V7.22838C32.7882 7.36696 32.8991 7.47783 33.0321 7.47783H35.8038C36.0754 7.47783 36.2971 7.69956 36.2971 7.97117V11.8625C36.2971 12.1341 36.0754 12.3559 35.8038 12.3559H33.0321C32.8936 12.3559 32.7882 12.4667 32.7882 12.6053V18.4423C32.7882 19.3681 33.4313 20.0166 34.357 20.0499C35.1219 20.0776 35.8093 19.9113 36.4412 19.6896C36.6463 19.6175 36.8681 19.7339 36.9401 19.939C37.4058 21.286 38.2483 22.439 38.725 23.01C38.8692 23.1818 38.8525 23.4423 38.6696 23.5698C37.5388 24.3514 35.9202 24.9612 33.9634 24.9612C29.0743 24.9612 27.2561 22.367 27.2561 18.7583V4.77827H27.2505Z" fill="white"/>
<path d="M59.9612 22.0288L54.867 8.13747C54.7505 7.81596 54.9889 7.47228 55.327 7.47228H60.1885C60.5044 7.47228 60.7927 7.67738 60.8869 7.98226L63.9523 17.367C64.0077 17.5388 64.2461 17.5388 64.3015 17.367L67.367 7.98226C67.4667 7.67738 67.7494 7.47228 68.0654 7.47228H72.9268C73.2705 7.47228 73.5089 7.81596 73.3869 8.13747L68.2927 22.0288C67.6497 23.7805 65.9867 24.9446 64.1242 24.9446C62.2616 24.9446 60.5987 23.7805 59.9556 22.0288H59.9612Z" fill="white"/>
<path fill-rule="evenodd" clip-rule="evenodd" d="M46.7794 25C51.6851 25 55.6652 21.0089 55.6652 16.0809C55.6652 11.153 51.6851 7.16187 46.7794 7.16187C41.8736 7.16187 37.8936 11.153 37.8936 16.0809C37.8936 21.0089 41.8736 25 46.7794 25ZM50.1386 16.9346C50.1386 14.9279 48.8803 11.6851 46.6962 11.6851C44.5122 11.6851 43.2539 14.9279 43.2539 16.9346C43.2539 18.9412 44.4512 20.5765 46.6962 20.5765C48.9412 20.5765 50.1386 18.786 50.1386 16.9346Z" fill="white"/>
<path fill-rule="evenodd" clip-rule="evenodd" d="M5.53769 1.4745C5.53769 1.20288 5.31596 0.981155 5.04435 0.981155H0.493348C0.221729 0.981155 0 1.20288 0 1.4745V24.3348C0 24.6064 0.221729 24.8282 0.493348 24.8282H5.04989C5.32151 24.8282 5.54324 24.6064 5.54324 24.3348V23.6918C5.54324 23.4812 5.79268 23.3647 5.95898 23.4922C7.20067 24.418 8.69734 24.9557 10.3437 24.9557C15.0222 24.9557 18.1596 20.9701 18.1596 16.0588C18.1596 11.1475 14.6951 7.16187 10.3437 7.16187C5.99224 7.16187 7.21175 7.71619 5.96452 8.66408C5.79823 8.79158 5.54878 8.67517 5.54878 8.46453V1.4745H5.53769ZM5.53769 16.0532C5.53769 13.8692 6.82927 12.0953 9.07428 12.0953C11.3193 12.0953 12.6109 13.8692 12.6109 16.0532C12.6109 18.2373 11.3193 20.0111 9.07428 20.0111C6.82927 20.0111 5.53769 18.2428 5.53769 16.0532Z" fill="white"/>
</g>
</g>
<defs>
<clipPath id="clip0_7895_16661">
<rect width="80.3381" height="25" fill="white"/>
</clipPath>
</defs>
</svg>
