<svg width="162" height="25" viewBox="0 0 162 25" fill="none" xmlns="http://www.w3.org/2000/svg">
<path d="M9.3968 0C10.7922 9.25926e-06 11.9241 1.14522 11.9241 2.55715V5.11339C11.9241 6.52531 10.7922 7.67053 9.3968 7.67054H8.1336V8.66519H9.3968C10.7921 8.66519 11.9241 9.80954 11.9241 11.2214V13.7786C11.9241 15.1905 10.7921 16.3348 9.3968 16.3348H8.1336V17.3294H9.3968C10.7922 17.3294 11.9241 18.4747 11.9241 19.8866V22.4429C11.9241 23.8548 10.7922 25 9.3968 25H6.8695C5.47425 24.9998 4.34309 23.8546 4.34309 22.4429V20.6679H3.07989C1.68447 20.6679 0.552582 19.5227 0.552582 18.1107V15.5536C0.552802 14.1419 1.68461 12.9973 3.07989 12.9973H4.34309V12.0027H3.07989C1.68461 12.0027 0.5528 10.8581 0.552582 9.44639V6.88929C0.552582 5.47735 1.68447 4.33214 3.07989 4.33214H4.34309V2.55715C4.34309 1.14534 5.47425 0.000205556 6.8695 0H9.3968ZM18.1008 0C19.4962 0.000143519 20.6273 1.14531 20.6273 2.55715V4.33214H21.8914C23.2867 4.33236 24.4178 5.47749 24.4178 6.88929V9.44639C24.4176 10.8581 23.2865 12.0025 21.8914 12.0027H20.6273V12.9973H21.8914C23.2865 12.9975 24.4176 14.1419 24.4178 15.5536V18.1107C24.4178 19.5225 23.2867 20.6677 21.8914 20.6679H20.6273V22.4429C20.6273 23.8547 19.4962 24.9998 18.1008 25H15.5736C14.1782 24.9999 13.0471 23.8547 13.0471 22.4429V19.8866C13.0471 18.4747 14.1782 17.3295 15.5736 17.3294H16.8367V16.3348H15.5736C14.1782 16.3347 13.0472 15.1904 13.0471 13.7786V11.2214C13.0472 9.80963 14.1782 8.66526 15.5736 8.66519H16.8367V7.67054H15.5736C14.1782 7.67046 13.0471 6.52528 13.0471 5.11339V2.55715C13.0471 1.14526 14.1782 7.12963e-05 15.5736 0H18.1008ZM69.5567 7.32331C72.7108 7.32331 75.3247 9.14752 75.3247 12.4909V20.0892H77.1268V22.8254H74.4232C73.3419 22.8253 72.5606 22.0652 72.5605 21.0015V20.4843C72.0799 21.9128 70.6685 23.1291 68.3857 23.1292C65.5921 23.1292 63.2191 21.4269 63.219 18.4787C63.219 15.652 64.9607 13.9495 68.7455 13.5544L72.2603 13.1899V12.0958C72.2603 10.9408 71.4192 9.93741 69.5567 9.93741C67.9648 9.9375 67.0937 10.8189 66.9434 11.8219H63.7597C64.0902 9.02569 66.703 7.3234 69.5567 7.32331ZM125.512 16.928C125.512 19.1469 126.833 20.1805 128.666 20.1805C130.468 20.1805 131.79 19.1468 131.79 16.928V7.62713H134.944V16.9894C134.943 21.3052 131.91 23.1291 128.666 23.1292C125.391 23.1292 122.357 21.3052 122.357 16.9587V7.62713H125.512V16.928ZM143.642 7.32331C146.796 7.32344 149.079 9.29935 149.59 11.9131H146.496C146.196 10.7886 145.144 9.9375 143.642 9.93741C142.051 9.93741 141.209 10.7582 141.209 11.7612C141.209 14.7094 149.829 12.4605 149.83 18.4172C149.83 21.3958 147.157 23.1291 144.063 23.1292C140.939 23.1292 138.054 21.3355 137.574 18.2047H140.729C141.059 19.5421 142.38 20.4544 144.063 20.4544C145.535 20.4544 146.766 19.7856 146.766 18.5701C146.766 15.1355 138.115 17.7488 138.115 11.8219C138.115 9.20795 140.549 7.32331 143.642 7.32331ZM44.11 2.15657C48.1952 2.15666 50.4784 4.6792 50.4784 7.80979C50.4784 9.51185 49.9373 11.1529 48.2251 12.0344C49.9674 12.8246 51.4396 14.588 51.4396 16.8069C51.4396 20.4845 48.8861 22.8253 44.9211 22.8254H35.7893V2.15657H44.11ZM61.9268 10.5758H57.5115V22.8254H54.3567V10.3633C54.3567 8.78282 55.258 7.62718 56.9102 7.62713H61.9268V10.5758ZM82.8171 22.8254H79.6632V7.62713H82.8171V22.8254ZM93.522 7.32331C96.5859 7.32331 98.8702 9.6337 98.8702 12.7948V22.8254H95.8054V13.3419C95.8054 11.4574 94.6646 10.0595 92.7718 10.0595C90.7892 10.0595 89.5274 11.4573 89.5274 13.3419V22.8254H86.4331V7.62713H89.4975V9.32981C90.2485 8.32682 91.3597 7.32344 93.522 7.32331ZM106.429 7.62713H109.523V10.3633H106.429V19.9372H109.283V22.8254H106.279C104.356 22.8254 103.335 21.5484 103.335 19.968V10.3633H100.992V7.62713H103.485V3.37185H106.429V7.62713ZM119.954 10.5758H115.538V22.8254H112.383V10.3633C112.383 8.78279 113.285 7.62713 114.937 7.62713H119.954V10.5758ZM156.784 7.62713H159.879V10.3633H156.784V19.9372H159.638V22.8254H156.634C154.712 22.8252 153.691 21.5483 153.691 19.968V10.3633H151.347V7.62713H153.841V3.37185H156.784V7.62713ZM68.8658 16.0473C67.2138 16.2296 66.3123 16.8983 66.3123 18.3269C66.3125 19.664 67.4246 20.4843 68.9265 20.4843C70.8788 20.4841 72.2603 18.9343 72.2603 16.8069V15.7127L68.8658 16.0473ZM39.0635 19.9074H44.771C46.8133 19.9073 48.1345 18.904 48.1347 16.8376C48.1347 14.6189 46.7233 13.6457 44.771 13.6456H39.0635V19.9074ZM39.0328 10.7883H44.11C45.9423 10.7882 47.1735 10.0894 47.1735 7.90111C47.1735 5.71277 45.8522 5.07456 44.11 5.07451H39.0328V10.7883ZM82.9672 5.287H79.543V2.15657H82.9672V5.287Z" fill="white"/>
</svg>
