<svg width="203" height="25" viewBox="0 0 203 25" fill="none" xmlns="http://www.w3.org/2000/svg">
<path d="M53.9619 6.9082C57.0828 6.90826 56.6354 7.57235 57.248 8.30371H57.3408V7.28906H59.9375V18.4941C59.9373 23.1043 57.2172 24.9999 54.0029 25C50.7884 25 49.1549 22.9651 48.4697 21.3115L50.8604 20.3174C51.2879 21.3322 52.3285 22.5429 54.0078 22.543C55.6872 22.543 57.3408 21.2652 57.3408 18.875V17.9785H57.248C56.6351 18.7357 55.4505 19.3954 53.9619 19.3955C50.8402 19.3955 47.9758 16.6754 47.9756 13.1777C47.9756 9.6799 50.8401 6.9082 53.9619 6.9082ZM185.885 6.9082C187.43 6.9082 188.744 7.51597 189.811 8.72656C190.913 9.95775 191.464 11.4315 191.464 13.1572C191.464 14.8827 190.913 16.3713 189.811 17.5869C188.739 18.7975 187.43 19.4053 185.885 19.4053L185.88 19.4004C185.02 19.4004 184.231 19.2154 183.525 18.8496C182.815 18.4839 182.269 17.9942 181.888 17.3916H181.79L181.888 19.0195V24.1914H179.688V7.28906H181.795V8.91699H181.893C182.274 8.30915 182.826 7.82472 183.531 7.45898C184.242 7.09342 185.025 6.90825 185.885 6.9082ZM97.5684 6.90332C99.3095 6.90332 100.742 7.49525 101.875 8.6748C103.024 9.85443 103.601 11.3485 103.601 13.1514C103.601 14.9543 103.029 16.4637 101.875 17.6279C100.742 18.8076 99.3044 19.4004 97.5684 19.4004C95.8324 19.4004 94.3851 18.8076 93.2363 17.6279C92.1031 16.4483 91.5361 14.9543 91.5361 13.1514C91.5362 11.3485 92.1031 9.85443 93.2363 8.6748C94.385 7.4953 95.8273 6.90336 97.5684 6.90332ZM122.857 1.49414C124.341 1.4942 125.299 1.82855 126.257 2.49805C127.215 3.15222 127.853 3.97687 128.173 4.96582L126.112 5.82617C125.922 5.18755 125.541 4.65672 124.975 4.23438C124.408 3.81196 123.717 3.60059 122.903 3.60059C122.089 3.6006 121.317 3.83831 120.725 4.31738C120.132 4.7603 119.838 5.34181 119.838 6.05762C119.838 6.77367 120.071 7.15544 120.534 7.58301C121.044 8.0105 122.152 8.52032 123.861 9.10742C125.602 9.69977 126.844 10.4211 127.586 11.2812C128.328 12.1364 128.699 13.1879 128.699 14.4346H128.704C128.704 15.9385 128.153 17.1439 127.051 18.0557C125.933 18.952 124.577 19.4004 122.98 19.4004C121.384 19.4004 120.307 18.9878 119.22 18.1533C118.133 17.324 117.386 16.1909 116.969 14.7539L119.076 13.8936C119.22 14.4035 119.421 14.8672 119.674 15.2793C119.931 15.6912 120.229 16.0522 120.569 16.3457C120.914 16.6393 121.291 16.871 121.708 17.041C122.12 17.211 122.563 17.2929 123.021 17.293C124.026 17.293 124.85 17.0358 125.489 16.5156C126.128 15.9953 126.447 15.3046 126.447 14.4443C126.447 13.5843 126.185 13.1105 125.659 12.6006C125.165 12.1061 124.238 11.6267 122.883 11.1631C121.507 10.6685 120.657 10.3334 120.322 10.1582C118.504 9.23098 117.592 7.8714 117.592 6.06348C117.592 4.25532 118.092 3.72421 119.102 2.83301C120.122 1.94187 121.374 1.49414 122.857 1.49414ZM9.83887 0C15.1861 0 14.9029 1.1593 16.4844 2.67383L14.6143 4.54297C13.481 3.47681 11.9404 2.65234 9.83887 2.65234C5.93941 2.65257 2.88477 5.80068 2.88477 9.7002C2.88487 13.5996 5.93433 16.7468 9.83887 16.7471C13.7437 16.7471 13.8113 15.7319 14.7334 14.8047C15.4905 14.0474 15.9852 12.9602 16.1758 11.4717H9.83887V8.82422H18.7568C18.8495 9.29806 18.9004 9.86466 18.9004 10.4775C18.9004 12.4659 18.3546 14.9233 16.6084 16.6748C14.9033 18.4468 12.7294 19.3954 9.84473 19.3955L9.83887 19.3896C4.49199 19.3894 0.000263412 15.0422 0 9.69531C0 4.34824 4.49184 0.000223367 9.83887 0ZM142.757 6.90332C144.385 6.90332 145.668 7.33553 146.61 8.20605C147.553 9.07658 148.021 10.2666 148.021 11.7861V19.0137H145.915V17.3857H145.817C144.906 18.7251 143.694 19.3955 142.18 19.3955C140.665 19.3954 139.805 19.0136 138.935 18.2461C138.064 17.4786 137.632 16.5256 137.632 15.377C137.632 14.2283 138.09 13.1984 139.007 12.4824C139.924 11.7664 141.15 11.4053 142.68 11.4053C144.21 11.4053 145.065 11.6472 145.91 12.1211V11.6162C145.91 10.8488 145.606 10.1997 144.998 9.66406C144.39 9.12831 143.684 8.86035 142.87 8.86035C141.639 8.86043 140.67 9.38066 139.949 10.416L138.013 9.19531C139.084 7.66537 140.66 6.89746 142.752 6.89746L142.757 6.90332ZM177.612 19.0088L177.627 19.0137H175.521V17.3857H175.423C175.088 17.9627 174.572 18.442 173.877 18.8232C173.182 19.2044 172.46 19.3955 171.708 19.3955C170.271 19.3955 169.168 18.9831 168.391 18.1641C167.618 17.3399 167.232 16.1757 167.231 14.6562V7.28418H169.432V14.5117C169.478 16.4279 170.446 17.3808 172.326 17.3809C174.206 17.3809 173.939 17.0254 174.526 16.3145C175.119 15.6036 175.412 14.7536 175.412 13.7646V7.2793H177.612V19.0088ZM197.435 6.9082C198.789 6.9082 199.408 7.15503 200.247 7.64941C201.087 8.14395 201.674 8.80414 202.004 9.63867L200.041 10.4521C199.819 9.95771 199.454 9.57111 198.954 9.29297C198.454 9.01489 197.888 8.87598 197.27 8.87598C196.652 8.87602 196.183 9.02024 195.725 9.30859C195.271 9.59703 195.044 9.94734 195.044 10.3594C195.044 11.029 195.673 11.5084 196.935 11.7969L198.707 12.25C201.035 12.8218 202.2 13.9965 202.2 15.7686L202.194 15.9473C202.142 16.8855 201.696 17.6878 200.86 18.3447C199.964 19.0452 198.841 19.3955 197.486 19.3955C196.132 19.3955 195.266 19.0857 194.375 18.4727C193.484 17.8596 192.844 17.0514 192.458 16.0469L194.421 15.207C194.709 15.9076 195.127 16.4542 195.678 16.8457C196.229 17.2372 196.832 17.4326 197.486 17.4326C198.141 17.4326 198.774 17.2834 199.243 16.9795C199.712 16.6756 199.948 16.3196 199.948 15.9023C199.948 15.1503 199.376 14.6044 198.223 14.249L196.214 13.749C193.932 13.1721 192.793 12.0751 192.793 10.4473C192.793 8.81945 193.226 8.52085 194.097 7.87695C194.967 7.23303 196.08 6.90822 197.435 6.9082ZM26.5352 6.90332C29.93 6.90333 32.6914 9.53018 32.6914 13.1465C32.6914 16.7422 29.93 19.3896 26.5352 19.3896C23.1403 19.3896 20.3789 16.7422 20.3789 13.1465C20.3789 9.55078 23.1404 6.90332 26.5352 6.90332ZM40.3311 6.90332C43.7206 6.90348 46.4863 9.53028 46.4863 13.1465C46.4863 16.7421 43.7257 19.3895 40.3311 19.3896C36.9362 19.3896 34.1797 16.7422 34.1797 13.1465C34.1797 9.55078 36.9414 6.90332 40.3311 6.90332ZM72.1465 6.90332C75.3608 6.90351 76.9729 9.47901 77.4932 10.875L77.7764 11.5859L69.4258 15.0371C70.0645 16.2889 71.0591 16.9277 72.4551 16.9277C73.851 16.9277 74.8194 16.2426 75.5303 15.2021V15.207L77.6582 16.624C76.973 17.6389 75.3191 19.3896 72.4551 19.3896C69.5909 19.3896 66.3457 16.6443 66.3457 13.1465C66.3457 9.64866 68.932 6.90332 72.1465 6.90332ZM133.639 7.28906H136.509V9.29883H133.639V15.1396C133.639 15.9227 133.789 16.4533 134.093 16.7314C134.397 17.0096 134.737 17.1494 135.123 17.1494C135.509 17.1494 135.468 17.1281 135.638 17.0869C135.808 17.0457 135.962 16.9944 136.106 16.9326L136.802 18.8955C136.225 19.1015 135.555 19.2051 134.793 19.2051H134.788C133.83 19.2051 133.037 18.9107 132.408 18.3184C131.775 17.7259 131.455 16.9066 131.439 15.8506V9.29297H129.379V7.28418H131.439V3.69922H133.639V7.28906ZM162.673 7.28906H165.542V9.29883H162.673V15.1396C162.673 15.9225 162.822 16.4532 163.126 16.7314C163.43 17.0096 163.77 17.1494 164.156 17.1494C164.543 17.1494 164.502 17.1281 164.672 17.0869C164.837 17.0457 164.997 16.9944 165.141 16.9326L165.836 18.8955C165.264 19.1016 164.589 19.2051 163.826 19.2051H163.821C162.863 19.2051 162.07 18.9108 161.441 18.3184C160.813 17.726 160.488 16.9066 160.473 15.8506V9.29297H158.418V7.28418H160.473V3.69922H162.673V7.28906ZM64.7432 19.0137H61.998V0.65918H64.7432V19.0137ZM110.854 6.94922C111.524 6.94925 112.034 7.04674 112.482 7.2373L111.812 9.37012C111.54 9.2568 111.112 9.20021 110.52 9.2002C109.927 9.2002 108.968 9.53539 108.355 10.2051C107.743 10.8747 107.434 11.6577 107.434 12.5488V19.0088L107.429 19.0137H105.229V7.28418H107.336V9.2002H107.434C107.655 8.57703 108.113 8.04619 108.809 7.6084C109.504 7.17052 110.185 6.94922 110.854 6.94922ZM156.784 7.00098V9.29883L155.806 9.2002C154.786 9.20021 153.941 9.51509 153.281 10.1436C152.617 10.772 152.287 11.5754 152.287 12.5488V19.0088H150.088V7.28906H152.189V9.20605H152.287C152.941 7.70701 154.291 6.95413 156.331 6.9541L156.784 7.00098ZM89.6201 1.68457C90.4185 1.6846 91.0731 1.8188 91.583 2.0918L90.9854 4.02832C90.6043 3.83777 90.1713 3.74029 89.6924 3.74023C89.2133 3.74023 88.7084 3.92572 88.3633 4.30176C88.0182 4.67772 87.8477 5.17696 87.8477 5.79492V7.2793H90.9131V9.28809H87.8477V19.0039H85.6484V9.28809H83.4482V7.2793H85.6484V5.5791C85.6484 4.41487 86.0189 3.47191 86.7607 2.75586C87.5025 2.03985 88.4559 1.67969 89.6201 1.67969V1.68457ZM143.046 13.1777C141.82 13.1777 141.407 13.3937 140.81 13.8213C140.212 14.254 139.913 14.7851 139.913 15.4238H139.908C139.908 15.9954 140.151 16.4741 140.64 16.8604C141.124 17.2416 141.696 17.4375 142.351 17.4375C143.005 17.4373 144.102 17.0922 144.828 16.4072C145.554 15.7221 145.915 14.9133 145.915 13.9912C145.23 13.4504 144.272 13.1778 143.046 13.1777ZM97.5684 8.91699C96.4969 8.91704 95.59 9.31902 94.8379 10.1123C94.1014 10.8952 93.7364 11.9049 93.7363 13.1514C93.7363 14.4134 94.1013 15.4338 94.8379 16.2168C95.5694 16.9998 96.4815 17.3916 97.5684 17.3916C98.6553 17.3916 99.5622 16.9998 100.299 16.2168C101.03 15.4338 101.401 14.4135 101.401 13.1514C101.401 11.8894 101.035 10.8953 100.299 10.1123C99.5467 9.31383 98.6399 8.91699 97.5684 8.91699ZM185.524 8.91699C184.468 8.91701 183.562 9.31899 182.846 10.1123C182.145 10.9107 181.795 11.9255 181.795 13.1514C181.795 14.3774 182.145 15.4183 182.846 16.2168C183.562 16.9998 184.458 17.3916 185.524 17.3916V17.3857C186.575 17.3857 187.461 16.9897 188.183 16.1914C188.899 15.4084 189.259 14.3929 189.259 13.1514C189.259 11.91 188.899 10.9107 188.183 10.1123C187.467 9.31383 186.58 8.91699 185.524 8.91699ZM26.5352 9.36035C24.6755 9.36035 23.0733 10.8953 23.0732 13.1465C23.0732 15.3977 24.6755 16.9326 26.5352 16.9326C28.3948 16.9326 29.9971 15.3719 29.9971 13.1465C29.9971 10.9005 28.3948 9.36036 26.5352 9.36035ZM40.3311 9.36035C38.4714 9.36035 36.8691 10.8953 36.8691 13.1465C36.8691 15.3977 38.4714 16.9326 40.3311 16.9326C42.1906 16.9324 43.793 15.3718 43.793 13.1465C43.793 10.9006 42.1906 9.36053 40.3311 9.36035ZM54.1885 9.36523C52.3238 9.36523 50.7111 10.9724 50.7109 13.1719C50.7109 15.3715 52.2979 16.9326 54.1885 16.9326C56.0789 16.9324 57.5215 15.3457 57.5215 13.1719C57.5213 10.9725 56.053 9.36542 54.1885 9.36523ZM72.2441 9.31934C71.1572 9.31934 68.9107 10.5501 68.9775 12.9609L74.5625 10.6426C74.2534 9.86482 73.331 9.31938 72.2441 9.31934ZM59.9424 7.28906H59.9375V7.28418L59.9424 7.28906ZM150.088 7.28906H150.082L150.088 7.2793V7.28906Z" fill="white"/>
</svg>
