<svg width="140" height="25" viewBox="0 0 140 25" fill="none" xmlns="http://www.w3.org/2000/svg">
<path fill-rule="evenodd" clip-rule="evenodd" d="M39.2969 19.2812C39.7969 19.2812 40.2344 19.2344 40.6172 19.1484C40.9844 19.0547 41.3438 18.9297 41.6875 18.7734V16.5859H40.1719C40.0488 16.5925 39.9282 16.5504 39.8359 16.4687C39.7956 16.4307 39.7636 16.3846 39.7421 16.3335C39.7206 16.2824 39.71 16.2273 39.7109 16.1719V14.9219H43.7188V19.7734C43.1053 20.2078 42.4242 20.5378 41.7031 20.75C41.3281 20.8594 40.9219 20.9375 40.5 20.9844C40.0781 21.0391 39.6094 21.0625 39.1172 21.0625C38.2344 21.0625 37.4297 20.9141 36.6953 20.6094C35.9762 20.3168 35.3233 19.8825 34.7756 19.3321C34.228 18.7818 33.7968 18.1268 33.5078 17.4063C33.1982 16.6205 33.0443 15.782 33.0547 14.9375C33.0547 14.0391 33.2109 13.2031 33.5 12.4531C33.7806 11.7213 34.2133 11.0574 34.7695 10.5053C35.3257 9.9531 35.9927 9.52525 36.7266 9.25C37.4922 8.95312 38.3672 8.80469 39.3203 8.80469C40.3047 8.80469 41.1563 8.95312 41.8828 9.24219C42.6016 9.53125 43.2109 9.90625 43.7109 10.375L43.0625 11.3906C42.9297 11.5937 42.7656 11.6953 42.5469 11.6953C42.4013 11.6923 42.2599 11.6461 42.1406 11.5625L41.5938 11.25C40.8694 10.8783 40.0639 10.6931 39.25 10.7109C38.6563 10.7109 38.1172 10.8047 37.6328 11.0078C37.1653 11.1961 36.746 11.4871 36.4063 11.8594C36.0587 12.2447 35.7929 12.6965 35.625 13.1875C35.4375 13.7109 35.3516 14.2969 35.3516 14.9375C35.3407 15.5667 35.4385 16.1931 35.6406 16.7891C35.8016 17.2873 36.0706 17.7439 36.4285 18.1261C36.7864 18.5083 37.2243 18.8067 37.7109 19C38.1875 19.1953 38.7266 19.2891 39.2891 19.2891L39.2969 19.2812ZM45.5859 20.5234V12.1562H46.7656C46.9688 12.1562 47.1172 12.1875 47.1953 12.2656C47.2734 12.3437 47.3359 12.4766 47.3594 12.6563L47.4844 13.6719C47.7813 13.1562 48.1328 12.7422 48.5313 12.4453C48.9375 12.1484 49.3906 12 49.8906 12C50.3047 12 50.6406 12.0937 50.9141 12.2812L50.6563 13.7969C50.6328 13.8906 50.6016 13.9531 50.5469 14C50.4824 14.0435 50.4058 14.0654 50.3281 14.0625C50.25 14.0625 50.1328 14.0469 49.9922 14.0078C49.8083 13.9624 49.6191 13.9413 49.4297 13.9453C49.0156 13.9453 48.6563 14.0625 48.3594 14.2969C48.0547 14.5312 47.8125 14.8672 47.5938 15.3125V20.5234H45.5859ZM51.9844 20.7969H54.0703V12.3125H51.9844V20.7969ZM54.3828 9.83594C54.3828 10.0156 54.3516 10.1797 54.2734 10.3359C54.1953 10.4922 54.1094 10.625 53.9844 10.7422C53.7316 10.9829 53.3959 11.1172 53.0469 11.1172C52.6978 11.1172 52.3621 10.9829 52.1094 10.7422C51.9895 10.6252 51.8916 10.4876 51.8203 10.3359C51.748 10.1778 51.7105 10.0059 51.7105 9.83203C51.7105 9.65812 51.748 9.48626 51.8203 9.32812C51.8868 9.16618 51.985 9.01917 52.1092 8.89575C52.2333 8.77234 52.3809 8.675 52.5433 8.60948C52.7056 8.54397 52.8794 8.51159 53.0544 8.51425C53.2295 8.51692 53.4022 8.55457 53.5625 8.625C53.8015 8.72386 54.0065 8.89039 54.1522 9.10412C54.298 9.31785 54.3781 9.56948 54.3828 9.82812V9.83594ZM59.25 19.1953C59.6719 19.1953 60.0313 19.1094 60.3203 18.9297C60.6172 18.7578 60.8984 18.5156 61.1563 18.1875V14.4375C60.9647 14.1911 60.7177 13.9933 60.4353 13.8603C60.153 13.7273 59.8432 13.6627 59.5312 13.6719C59.2266 13.6719 58.9531 13.7266 58.7031 13.8437C58.4609 13.9531 58.25 14.125 58.0781 14.3594C57.8984 14.5937 57.7656 14.8828 57.6797 15.2422C57.5859 15.6016 57.5391 16.0234 57.5391 16.5078C57.5391 17 57.5781 17.4141 57.6563 17.75C57.7344 18.0937 57.8516 18.375 57.9922 18.5859C58.1484 18.7969 58.3203 18.9531 58.5391 19.0547C58.75 19.1406 58.9922 19.1953 59.25 19.1953ZM61.9453 20.6719C61.6797 20.6719 61.5156 20.5547 61.4297 20.3047L61.2656 19.4922C60.7846 20.0842 60.1281 20.5082 59.3906 20.7031C59.1193 20.7671 58.8413 20.7986 58.5625 20.7969C58.1016 20.7969 57.6797 20.7031 57.2969 20.5078C56.9219 20.3203 56.5938 20.0391 56.3125 19.6797C56.016 19.2763 55.7986 18.8203 55.6719 18.3359C55.3608 17.1674 55.3716 15.9364 55.7031 14.7734C55.875 14.2422 56.1172 13.7734 56.4297 13.3828C56.7422 12.9922 57.1328 12.6797 57.5703 12.4609C58.0156 12.25 58.5078 12.1328 59.0625 12.1328C59.4488 12.1264 59.8326 12.1962 60.1919 12.3383C60.5512 12.4804 60.8789 12.692 61.1563 12.9609V8.53125H63.1797V20.6719H61.9453ZM77.9609 14.7969C77.9609 14.1328 77.8672 13.5469 77.6953 13.0234C77.5376 12.5329 77.2796 12.0806 76.9375 11.6953C76.6087 11.3284 76.1996 11.0424 75.7422 10.8594C75.2402 10.6603 74.704 10.562 74.1641 10.5703H71.8203V19.0156H74.1641C74.75 19.0156 75.2734 18.9219 75.7422 18.7266C76.2109 18.5312 76.6094 18.2578 76.9375 17.8906C77.2805 17.506 77.5387 17.0535 77.6953 16.5625C77.8672 16.0391 77.9609 15.4531 77.9609 14.7969ZM80.2422 14.7969C80.2422 15.6719 80.0938 16.4844 79.8047 17.2188C79.5257 17.9319 79.1008 18.5789 78.5573 19.1184C78.0138 19.6578 77.3636 20.0779 76.6484 20.3516C75.8984 20.6484 75.0703 20.7969 74.1641 20.7969H69.5781V8.79687H74.1641C75.0129 8.78704 75.8559 8.93814 76.6484 9.24219C77.3906 9.53906 78.0313 9.94531 78.5703 10.4766C79.0938 11.0078 79.5078 11.6406 79.8047 12.3672C80.0938 13.1094 80.2422 13.9141 80.2422 14.7891M84.7578 23.0234C84.7086 23.1486 84.6278 23.2589 84.5234 23.3437C84.4297 23.4219 84.2813 23.4609 84.0859 23.4609H82.5859L84.1484 20.0781L80.7734 12.2656H82.5313C82.6953 12.2656 82.8203 12.2969 82.9063 12.375C82.9922 12.4531 83.0625 12.5391 83.1016 12.6406L84.8828 17.0156C84.9996 17.3087 85.0885 17.6121 85.1484 17.9219L85.2969 17.4531L85.4609 17.0078L87.1406 12.6406C87.1841 12.5308 87.2594 12.4365 87.3568 12.3697C87.4543 12.3029 87.5694 12.2666 87.6875 12.2656H89.3047L84.7578 23.0234ZM90.1016 20.7969V12.3906H91.3672C91.6328 12.3906 91.8125 12.5156 91.8906 12.7578L92.0313 13.4219C92.3676 13.0788 92.7582 12.7937 93.1875 12.5781C93.652 12.3539 94.1643 12.2466 94.6797 12.2656C95.108 12.2572 95.5335 12.337 95.9297 12.5C96.2891 12.6562 96.5859 12.8672 96.8281 13.1484C97.0703 13.4375 97.2578 13.7734 97.375 14.1641C97.5078 14.5547 97.5703 14.9766 97.5703 15.4453V20.7969H95.5078V15.4453C95.5078 14.9375 95.3828 14.5391 95.1406 14.2578C94.9063 13.9766 94.5391 13.8359 94.0469 13.8359C93.6953 13.8359 93.3594 13.9141 93.0547 14.0703C92.7422 14.2266 92.4453 14.4453 92.1641 14.7187V20.7969H90.1016ZM101.937 19.3828C102.303 19.3969 102.667 19.3161 102.992 19.1484C103.148 19.0781 103.305 18.9844 103.445 18.875C103.586 18.7578 103.734 18.6328 103.875 18.4844V17.0547C103.289 17.0547 102.805 17.0937 102.414 17.1641C102.023 17.2422 101.711 17.3359 101.477 17.4531C101.234 17.5703 101.063 17.7109 100.969 17.8672C100.867 18.0234 100.812 18.1875 100.812 18.375C100.812 18.7344 100.922 19 101.125 19.1562C101.336 19.3125 101.609 19.3906 101.937 19.3906V19.3828ZM105.836 20.6641H104.93C104.776 20.6699 104.623 20.6377 104.484 20.5703C104.375 20.5156 104.297 20.3984 104.242 20.2187L104.062 19.6172C103.852 19.8125 103.648 19.9844 103.437 20.125C102.828 20.5871 102.077 20.8244 101.312 20.7969C100.969 20.7969 100.641 20.7422 100.344 20.6406C100.047 20.5469 99.7969 20.4063 99.5781 20.2109C99.3597 20.0088 99.1889 19.7606 99.0781 19.4844C98.9609 19.1953 98.8984 18.8594 98.8984 18.4766C98.8984 18.1641 98.9844 17.8437 99.1484 17.5234C99.3125 17.2109 99.5859 16.9297 99.9766 16.6797C100.359 16.4297 100.867 16.2109 101.508 16.0547C102.283 15.8728 103.079 15.7888 103.875 15.8047V15.3047C103.875 14.7266 103.758 14.3047 103.523 14.0234C103.289 13.75 102.945 13.6094 102.5 13.6094C102.014 13.596 101.534 13.7294 101.125 13.9922L100.688 14.25C100.547 14.3281 100.398 14.3672 100.242 14.3672C100.116 14.3706 99.9925 14.3321 99.8906 14.2578C99.7969 14.1875 99.7188 14.1016 99.6563 13.9922L99.2891 13.3437C100.22 12.4569 101.464 11.9739 102.75 12C103.234 12 103.672 12.0781 104.055 12.2344C104.438 12.4062 104.758 12.625 105.016 12.9219C105.281 13.2109 105.484 13.5547 105.625 13.9609C105.766 14.3672 105.836 14.8047 105.836 15.2891V20.6641ZM107.695 20.7969V12.3906H108.953C109.219 12.3906 109.391 12.5156 109.477 12.7578L109.609 13.3828C109.899 13.0642 110.236 12.7927 110.609 12.5781C111.011 12.372 111.455 12.2649 111.906 12.2656C112.453 12.2656 112.891 12.4062 113.234 12.6875C113.586 12.9766 113.844 13.3594 114.016 13.8359C114.262 13.3211 114.667 12.8992 115.172 12.6328C115.609 12.4208 116.085 12.2978 116.57 12.271C117.056 12.2442 117.542 12.3141 118 12.4766C118.367 12.6172 118.68 12.8281 118.93 13.1016C119.18 13.3672 119.367 13.7031 119.5 14.0938C119.633 14.4844 119.695 14.9375 119.695 15.4453V20.7969H117.641V15.4453C117.641 14.9141 117.523 14.5078 117.281 14.2344C117.047 13.9687 116.695 13.8359 116.234 13.8359C116.023 13.8359 115.828 13.8672 115.648 13.9375C115.465 14.0068 115.298 14.1155 115.16 14.2558C115.023 14.3961 114.917 14.5648 114.852 14.75C114.773 14.9531 114.734 15.1875 114.734 15.4531V20.7969H112.664V15.4453C112.664 14.8828 112.555 14.4766 112.32 14.2188C112.086 13.9609 111.75 13.8281 111.305 13.8281C111.008 13.8281 110.734 13.9062 110.469 14.0547C110.219 14.1953 109.977 14.3906 109.75 14.6406V20.7969H107.695ZM121.297 20.7969H123.383V12.3125H121.297V20.7969ZM123.695 9.83594C123.695 10.0156 123.656 10.1797 123.586 10.3281C123.444 10.6417 123.187 10.8882 122.867 11.0156C122.546 11.1499 122.184 11.1532 121.86 11.0248C121.536 10.8963 121.275 10.6463 121.133 10.3281C121.063 10.1693 121.027 9.99773 121.027 9.82422C121.027 9.65071 121.063 9.4791 121.133 9.32031C121.267 9.00724 121.52 8.76007 121.836 8.63281C122.037 8.5471 122.256 8.51207 122.474 8.5308C122.692 8.54952 122.902 8.62143 123.085 8.74021C123.269 8.859 123.421 9.02102 123.527 9.21206C123.633 9.4031 123.691 9.61733 123.695 9.83594ZM131.328 14.2031C131.273 14.2812 131.211 14.3437 131.156 14.3828C131.094 14.4297 131.008 14.4531 130.898 14.4531C130.786 14.4511 130.678 14.4158 130.586 14.3516C130.471 14.278 130.354 14.2076 130.234 14.1406C129.87 13.9263 129.454 13.8181 129.031 13.8281C128.664 13.8281 128.352 13.8906 128.078 14.0234C127.813 14.1563 127.578 14.3359 127.398 14.5859C127.219 14.8281 127.086 15.125 127 15.4687C126.906 15.8203 126.867 16.2109 126.867 16.6484C126.867 17.1016 126.914 17.5078 127.008 17.8672C127.109 18.2188 127.242 18.5156 127.43 18.7578C127.608 18.9967 127.843 19.1884 128.112 19.3164C128.382 19.4443 128.678 19.5047 128.977 19.4922C129.442 19.5063 129.9 19.3693 130.281 19.1016L130.648 18.8438C130.75 18.7656 130.859 18.7266 130.992 18.7266C131.156 18.7266 131.281 18.7891 131.367 18.9141L131.961 19.6641C131.542 20.1594 131.001 20.5365 130.391 20.7578C130.102 20.875 129.805 20.9531 129.5 20.9922C129.195 21.0391 128.891 21.0625 128.594 21.0625C128.087 21.0629 127.586 20.9606 127.12 20.7619C126.654 20.5631 126.233 20.2721 125.883 19.9062C125.521 19.5005 125.243 19.0282 125.063 18.5156C124.859 17.9688 124.758 17.3437 124.758 16.6484C124.758 16.0234 124.852 15.4375 125.031 14.9062C125.189 14.3907 125.458 13.9163 125.82 13.5166C126.182 13.1169 126.628 12.8019 127.125 12.5938C127.69 12.3635 128.296 12.2518 128.906 12.2656C129.539 12.2656 130.102 12.3594 130.578 12.5703C131.063 12.7734 131.492 13.0703 131.875 13.4531L131.328 14.2031ZM138.328 14.0625C138.285 14.1346 138.226 14.1961 138.156 14.2422C138.085 14.2816 138.004 14.3005 137.922 14.2969C137.808 14.2955 137.696 14.2689 137.594 14.2188L137.203 14.0312C136.833 13.8444 136.423 13.7506 136.008 13.7578C135.602 13.7578 135.281 13.8437 135.047 14.0156C134.813 14.1875 134.695 14.4062 134.695 14.6953C134.695 14.875 134.75 15.0234 134.875 15.1484C134.992 15.2734 135.156 15.3828 135.352 15.4844C135.547 15.5703 135.773 15.6641 136.023 15.7344L136.789 15.9766C137.055 16.0703 137.313 16.1641 137.563 16.2891C137.813 16.3906 138.031 16.5391 138.234 16.7109C138.447 16.8994 138.616 17.132 138.729 17.3924C138.842 17.6528 138.897 17.9348 138.891 18.2187C138.891 18.6328 138.812 19.0156 138.656 19.3594C138.516 19.7031 138.289 20.0078 138 20.2578C137.711 20.5078 137.352 20.7109 136.93 20.8516C136.177 21.0883 135.376 21.1313 134.602 20.9766C134.066 20.8733 133.55 20.6889 133.07 20.4297C132.864 20.3086 132.67 20.1673 132.492 20.0078L132.961 19.2266C133.017 19.1403 133.091 19.0681 133.18 19.0156C133.286 18.9599 133.404 18.9334 133.524 18.9388C133.643 18.9443 133.759 18.9816 133.859 19.0469C134.149 19.2449 134.465 19.4026 134.797 19.5156C134.992 19.5859 135.25 19.625 135.563 19.625C135.805 19.625 136.016 19.5937 136.188 19.5312C136.367 19.4766 136.516 19.3984 136.625 19.2969C136.742 19.2109 136.828 19.1016 136.875 18.9766C136.93 18.8516 136.953 18.7188 136.953 18.5859C136.961 18.4083 136.899 18.2347 136.781 18.1016C136.656 17.9687 136.5 17.8672 136.305 17.7656C136.085 17.6652 135.858 17.5816 135.625 17.5156C135.367 17.4375 135.109 17.3594 134.844 17.2656C134.58 17.1767 134.322 17.0723 134.07 16.9531C133.825 16.8371 133.598 16.6843 133.398 16.5C133.196 16.3105 133.034 16.082 132.922 15.8281C132.793 15.5247 132.731 15.1968 132.742 14.8672C132.742 14.5218 132.815 14.1803 132.956 13.8652C133.098 13.5501 133.304 13.2686 133.563 13.0391C133.828 12.8047 134.172 12.6172 134.578 12.4766C135.029 12.3269 135.502 12.2555 135.977 12.2656C136.563 12.2656 137.102 12.3594 137.586 12.5547C138.07 12.75 138.469 13 138.797 13.3203L138.328 14.0547V14.0625Z" fill="white"/>
<path fill-rule="evenodd" clip-rule="evenodd" d="M22.8359 15.9922C22.9844 17.5781 22.9531 19.1875 22.7266 20.7578C20.1563 23.6875 11.2891 25.1328 5.65625 24.7188C4.84237 23.5401 4.36192 22.1635 4.26562 20.7344C11.4219 22.0859 19.0781 19.8984 22.8359 15.9922Z" fill="white"/>
<path fill-rule="evenodd" clip-rule="evenodd" d="M24.8359 12.7656C23.5078 6.46875 16.4766 0.546875 11.6406 0C11.25 0.25 10.9297 0.5625 10.6641 0.921875C13.4766 1.17969 15.9297 3.0625 18.75 6.07813C20.9375 8.42188 22.4062 12.1719 22.7656 16.1094C22.9062 17.6719 22.875 19.2656 22.6563 20.8125C23.6609 19.7588 24.3864 18.4709 24.7671 17.0656C25.1477 15.6604 25.1714 14.1823 24.8359 12.7656Z" fill="white"/>
<path fill-rule="evenodd" clip-rule="evenodd" d="M16.8984 17.3281L16.6641 17.2734C15.4141 16.7422 14.1328 15.5234 13.0234 13.9609C16.7734 9.46875 14.6953 6.0625 12.0703 5.36719C11.2943 5.1363 10.4617 5.18608 9.71875 5.50781C10.4609 5.15625 11.2734 4.88281 12.1016 4.83594C14.0625 4.73437 16.1172 5.27344 17.4297 7.1875C19.1094 9.82812 18.7734 14.5859 16.8984 17.3281Z" fill="white"/>
<path fill-rule="evenodd" clip-rule="evenodd" d="M12.5 4.82812C11.8359 5.41406 10.8437 6.28906 10.1562 7.03125C9.99218 6.40625 9.92968 5.67969 9.86718 5.07813C9.86718 5.0625 9.87499 5.0625 9.8828 5.0625C10.9375 4.82813 11.7187 4.82812 12.5 4.82812ZM4.36718 20.7656C4.1328 17.7422 5.39061 14.4375 7.1953 11.4844C7.03905 10.0938 6.99218 8.70313 6.99999 7.46094C4.03124 10.2031 0.468738 15.5078 0.0468628 19.5C-0.187512 21.5859 0.453113 23.3125 2.46874 24.1406C3.31249 24.4375 4.45311 24.6328 5.77343 24.7266C4.95164 23.5595 4.46529 22.1896 4.36718 20.7656Z" fill="white"/>
<path fill-rule="evenodd" clip-rule="evenodd" d="M16.8281 17.0703C15.5859 16.5469 14.3281 15.3437 13.2344 13.7891C11.8665 11.8351 10.8658 9.64839 10.2812 7.33594C10.125 6.6875 9.99998 6.03906 9.93748 5.42187C9.75779 3.65625 9.99217 2.0625 10.8047 0.960937C11.0703 0.601562 11.3984 0.289062 11.7969 0.0390616C10.3281 -0.117188 9.06248 0.195312 8.21873 1.15625C7.5781 1.88281 7.17967 2.96094 7.12498 4.46875C6.87204 6.83179 6.87204 9.21508 7.12498 11.5781C7.71092 16.7812 9.7656 21.9531 15.4062 18.7266C16.0725 18.3251 16.6389 17.7775 17.0625 17.125L16.8281 17.0703Z" fill="white"/>
</svg>
