<svg width="85" height="30" viewBox="0 0 85 30" fill="none" xmlns="http://www.w3.org/2000/svg">
<mask id="mask0_7895_17169" style="mask-type:luminance" maskUnits="userSpaceOnUse" x="0" y="0" width="85" height="30">
<path d="M84.6592 0H0V30H84.6592V0Z" fill="white"/>
</mask>
<g mask="url(#mask0_7895_17169)">
<path d="M7.92768 15.5581C5.46593 13.1537 4.14117 5.72149 7.51043 2.37309C8.74131 1.14221 10.3216 0.312935 12.0376 0C11.4638 0.667594 11.1509 1.51252 11.1457 2.38873C11.1457 3.92733 11.4951 5.38769 15.7041 10.0348C19.1151 13.8161 20.0174 15.9232 20.007 19.9548C20.007 20.6224 19.9235 21.29 19.767 21.9367C19.7045 19.9026 18.8804 17.9677 17.4513 16.5125C13.4927 12.5278 9.8105 10.7493 9.28373 6.82197C8.66307 10.7284 12.3609 12.8616 16.4395 16.669C18.8856 18.9638 19.3863 22.4948 18.0511 25.3894C17.6547 26.25 17.1123 27.0376 16.4395 27.7104C13.378 30.7563 8.41794 30.7563 5.3564 27.7104C5.24166 27.6008 5.05389 27.3922 4.96523 27.2931C3.70828 25.8901 2.88943 24.0699 2.5452 21.9263C1.88804 17.6704 0.412031 16.4604 0 16.0535C2.63908 16.0535 3.5831 19.814 3.77086 21.4099C4.02643 23.1937 4.65751 24.9826 5.95097 26.4221L5.96662 26.443L5.98748 26.4638C7.85988 28.3206 10.8901 28.3049 12.7521 26.443C13.644 25.5459 14.1446 24.3359 14.1394 23.0737C14.1707 21.8115 13.6596 20.6015 12.7364 19.741C10.233 17.5504 9.508 17.1123 7.92768 15.5633V15.5581Z" fill="white"/>
<path d="M12.0741 20.4086C12.7886 21.1074 13.1954 22.0619 13.1954 23.0633C13.211 25.1704 11.516 26.8915 9.39846 26.9072C8.36578 26.9176 7.38003 26.5108 6.64985 25.7858C2.8164 21.4986 5.47113 13.4927 5.47113 13.4927C7.10882 17.4409 8.38664 16.742 12.0688 20.4138L12.0741 20.4086Z" fill="white"/>
<path d="M27.2722 7.90158H29.3637V26.6724H27.2722V7.90158ZM32.5191 11.5264C32.5191 12.314 33.1606 12.945 33.943 12.945C34.7253 12.945 35.3616 12.3087 35.3616 11.5264C35.3616 10.7441 34.7201 10.113 33.9378 10.113C33.1554 10.1234 32.5295 10.7493 32.5191 11.5264ZM32.8894 26.6724H34.9809V15.2034H32.8894V26.6724ZM42.533 14.9009C41.0153 14.9009 39.5289 15.3077 38.2197 16.0692L39.0907 17.806C39.0907 17.806 40.7858 16.8411 42.533 16.8411C44.2802 16.8411 45.4381 17.1644 45.4381 19.548V20.1686C44.395 19.5323 43.1954 19.2037 41.975 19.2246C39.3828 19.2246 37.4113 20.8153 37.4113 23.0476C37.4113 25.2799 39.6332 26.9697 41.6985 26.9697C43.7639 26.9697 44.6923 26.2448 45.6102 25.0087V26.6724H47.5295V19.1255C47.5295 16.9871 45.9127 14.9009 42.5278 14.9009H42.533ZM42.1627 25.1338C40.864 25.1338 39.5184 24.5393 39.5184 23.0476C39.5184 21.556 40.6293 20.9614 42.4235 20.9614C43.4875 20.9405 44.5358 21.2222 45.4381 21.7802V23.4075C45.4381 23.4075 44.1916 25.1338 42.1575 25.1338H42.1627ZM49.1881 17.0966H51.436V23.371C51.436 25.9005 53.2563 26.9697 54.8992 26.9697C56.5421 26.9697 56.2969 26.8185 57.2931 26.2761L56.5212 24.5653C56.13 24.8313 55.6763 24.9982 55.2017 25.0348C54.0803 25.0348 53.5327 24.388 53.5327 23.2719V17.0914H57.121V15.2034H53.5327V11.7037H51.436V15.2034H49.1933V17.0966H49.1881ZM64.548 14.9009C62.3574 14.9009 61.33 16.961 61.33 16.961V15.1982H59.3898V26.6672H61.4812V18.7761C61.4812 18.7761 62.3001 16.8463 64.1203 16.8463C64.5741 16.8254 65.0278 16.9037 65.4451 17.0862L66.217 15.1982C65.6798 15 65.1113 14.8957 64.5428 14.9009H64.548ZM68.2302 11.0622C68.1259 11.3647 68.1259 11.6881 68.2302 11.9906C68.4857 12.726 69.2994 13.1172 70.04 12.8616C70.7806 12.606 71.1718 11.7976 70.9162 11.0622C70.6606 10.3268 69.8522 9.93566 69.1064 10.1912C68.6944 10.332 68.3762 10.6554 68.2302 11.0622ZM68.5275 26.6724H70.6189V15.2034H68.5275V26.6724ZM78.5935 14.9061C75.1721 14.9739 72.6426 17.759 72.7938 21.2378C72.9242 24.4663 75.6102 27.0062 78.8543 26.9697C82.2757 26.9019 84.8053 24.1168 84.654 20.6432C84.5236 17.4148 81.8428 14.8748 78.5935 14.9061ZM78.7239 25.04C76.403 25.04 74.8853 23.2041 74.8853 20.9405C74.8853 18.677 76.4082 16.8411 78.7239 16.8411C81.0396 16.8411 82.5626 18.6822 82.5626 20.9405C82.5626 23.1989 81.0449 25.04 78.7239 25.04Z" fill="white"/>
</g>
</svg>
