<svg width="130" height="25" viewBox="0 0 130 25" fill="none" xmlns="http://www.w3.org/2000/svg">
<g clip-path="url(#clip0_7895_16995)">
<path d="M3.125 15.625C4.84375 15.625 6.25 14.2187 6.25 12.5C6.25 10.7813 4.84375 9.375 3.125 9.375C1.40625 9.375 0 10.7813 0 12.5C0 14.2187 1.40625 15.625 3.125 15.625Z" fill="white"/>
<path d="M12.5 15.625C14.2187 15.625 15.625 14.2187 15.625 12.5C15.625 10.7813 14.2187 9.375 12.5 9.375C10.7813 9.375 9.375 10.7813 9.375 12.5C9.375 14.2187 10.7813 15.625 12.5 15.625Z" fill="white"/>
<path d="M12.5 25C14.2187 25 15.625 23.5937 15.625 21.875C15.625 20.1563 14.2187 18.75 12.5 18.75C10.7813 18.75 9.375 20.1563 9.375 21.875C9.375 23.5937 10.7813 25 12.5 25Z" fill="white"/>
<path d="M21.875 15.625C23.5937 15.625 25 14.2187 25 12.5C25 10.7813 23.5937 9.375 21.875 9.375C20.1563 9.375 18.75 10.7813 18.75 12.5C18.75 14.2187 20.1563 15.625 21.875 15.625Z" fill="white"/>
<path d="M3.125 25C4.84375 25 6.25 23.5937 6.25 21.875C6.25 20.1563 4.84375 18.75 3.125 18.75C1.40625 18.75 0 20.1563 0 21.875C0 23.5937 1.40625 25 3.125 25Z" fill="white" fill-opacity="0.4"/>
<path d="M21.875 25C23.5937 25 25 23.5937 25 21.875C25 20.1563 23.5937 18.75 21.875 18.75C20.1563 18.75 18.75 20.1563 18.75 21.875C18.75 23.5937 20.1563 25 21.875 25Z" fill="white" fill-opacity="0.4"/>
<path d="M3.125 6.25C4.84375 6.25 6.25 4.84375 6.25 3.125C6.25 1.40625 4.84375 0 3.125 0C1.40625 0 0 1.40625 0 3.125C0 4.84375 1.40625 6.25 3.125 6.25Z" fill="white" fill-opacity="0.4"/>
<path d="M12.5 6.25C14.2187 6.25 15.625 4.84375 15.625 3.125C15.625 1.40625 14.2187 0 12.5 0C10.7813 0 9.375 1.40625 9.375 3.125C9.375 4.84375 10.7813 6.25 12.5 6.25Z" fill="white" fill-opacity="0.4"/>
<path d="M21.875 6.25C23.5937 6.25 25 4.84375 25 3.125C25 1.40625 23.5937 0 21.875 0C20.1563 0 18.75 1.40625 18.75 3.125C18.75 4.84375 20.1563 6.25 21.875 6.25Z" fill="white" fill-opacity="0.4"/>
<path d="M41.2326 21.875C42.0486 21.875 42.7083 21.8056 43.5069 21.6493V18.6979C43.0208 18.8715 42.4826 18.9236 41.9792 18.9236C40.7292 18.9236 40.2778 18.316 40.2778 17.1354V11.1285H43.5069V8.17709H40.2778V3.80209H36.7188V8.17709H34.3924V11.1285H36.7188V17.4653C36.7188 20.2604 38.1944 21.875 41.25 21.875H41.2326Z" fill="white"/>
<path d="M49.3229 21.875C51.2326 21.875 52.5 21.2326 53.1424 20.243C53.1944 20.6771 53.3507 21.2673 53.5417 21.6146H56.7535C56.5798 21.0069 56.441 20.0347 56.441 19.3923V12.4132C56.441 9.53124 54.375 7.89929 50.8854 7.89929C47.3958 7.89929 46.1805 8.88888 45.0347 10.3472L47.066 12.3611C47.9861 11.3368 49.1493 10.7986 50.5729 10.7986C51.9965 10.7986 53.0729 11.3889 53.0729 12.2569C53.0729 13.125 52.5694 13.5069 49.809 13.5069C47.0486 13.5069 44.4792 14.6007 44.4792 17.6562C44.4792 20.7118 46.5104 21.8576 49.2882 21.8576L49.3229 21.875ZM50.0347 19.1667C48.6632 19.1667 48.0208 18.5764 48.0208 17.5347C48.0208 16.493 48.7847 16.0069 50.0521 16.0069C52.0833 16.0069 52.6562 15.8854 53.0903 15.4514V16.5451C53.0903 18.0035 51.875 19.1667 50.0347 19.1667Z" fill="white"/>
<path d="M58.7674 6.45833H62.4826V3.125H58.7674V6.45833ZM58.8542 21.6146H62.4132V8.17708H58.8542V21.6319V21.6146Z" fill="white"/>
<path d="M65.0174 21.6146H68.5764V3.52429H65.0174V21.6146Z" fill="white"/>
<path d="M75.9896 21.875C79.9132 21.875 81.9271 19.809 81.9271 17.6389C81.9271 15.4687 80.9375 14.2187 77.6736 13.6458C75.382 13.2465 73.9583 12.7257 73.9583 11.9444C73.9583 11.1632 74.7743 10.7812 76.1458 10.7812C77.5174 10.7812 78.3854 11.1805 79.1493 12.0833L81.4236 10.1736C80.2778 8.74999 78.3854 7.93402 76.1458 7.93402C72.7083 7.93402 70.5729 9.7743 70.5729 12.0139C70.5729 14.2535 72.8125 15.5555 75.2431 15.9896C77.257 16.3542 78.3681 16.7361 78.3681 17.5868C78.3681 18.4375 77.5868 18.941 76.0764 18.941C74.566 18.941 73.4549 18.2465 72.9167 17.2396L69.9132 18.6632C70.6597 20.5035 73.1771 21.8924 76.007 21.8924L75.9896 21.875Z" fill="white"/>
<path d="M89.8958 21.875C92.4479 21.875 94.2708 20.8507 95.6597 18.559L92.8125 17.1007C92.2743 18.1771 91.4062 18.9062 89.9132 18.9062C87.6389 18.9062 86.4236 17.066 86.4236 14.8611C86.4236 12.6562 87.7257 10.868 89.9132 10.868C92.1007 10.868 92.2048 11.6146 92.743 12.7257L95.625 11.1979C94.6528 9.07985 92.743 7.91666 89.9132 7.91666C85.243 7.91666 82.8646 11.3368 82.8646 14.8785C82.8646 18.4201 85.7639 21.8924 89.9132 21.8924L89.8958 21.875Z" fill="white"/>
<path d="M101.337 21.875C103.247 21.875 104.514 21.2326 105.156 20.243C105.208 20.6771 105.365 21.2673 105.556 21.6146H108.767C108.594 21.0069 108.455 20.0347 108.455 19.3923V12.4132C108.455 9.53124 106.389 7.89929 102.899 7.89929C99.4097 7.89929 98.1944 8.88888 97.0486 10.3472L99.0799 12.3611C100 11.3368 101.163 10.7986 102.587 10.7986C104.01 10.7986 105.087 11.3889 105.087 12.2569C105.087 13.125 104.583 13.5069 101.823 13.5069C99.0625 13.5069 96.493 14.6007 96.493 17.6562C96.493 20.7118 98.5243 21.8576 101.302 21.8576L101.337 21.875ZM102.049 19.1667C100.677 19.1667 100.035 18.5764 100.035 17.5347C100.035 16.493 100.799 16.0069 102.066 16.0069C104.097 16.0069 104.67 15.8854 105.104 15.4514V16.5451C105.104 18.0035 103.889 19.1667 102.049 19.1667Z" fill="white"/>
<path d="M110.556 21.6146H114.115V3.52429H110.556V21.6146Z" fill="white"/>
<path d="M122.691 21.875C125.313 21.875 127.431 20.8333 128.594 18.9757L125.885 17.2396C125.174 18.368 124.236 18.9757 122.674 18.9757C121.111 18.9757 119.635 18.0035 119.306 16.1285H129.444V14.8785C129.444 11.3368 127.274 7.91666 122.639 7.91666C118.003 7.91666 115.833 11.3542 115.833 14.8958C115.833 19.9479 119.635 21.875 122.656 21.875H122.691ZM119.462 13.316C120.017 11.6146 121.198 10.816 122.743 10.816C124.288 10.816 125.573 11.8576 125.92 13.316H119.444H119.462Z" fill="white"/>
</g>
<defs>
<clipPath id="clip0_7895_16995">
<rect width="129.514" height="25" fill="white"/>
</clipPath>
</defs>
</svg>
