<svg width="179" height="30" viewBox="0 0 179 30" fill="none" xmlns="http://www.w3.org/2000/svg">
<g clip-path="url(#clip0_7895_17197)">
<path d="M74.9545 15.8757C74.3921 14.6331 73.0798 14.0546 71.7622 14.0386C70.4982 14.0225 69.3733 14.542 68.7145 15.6508C68.6503 15.6883 68.6128 15.6293 68.6128 15.5383V10.2946C68.6074 10.2946 68.5967 10.1821 68.5967 10.1821L65.3187 10.1714L65.2705 25.9025H68.661C68.661 25.9079 68.6824 18.7627 68.6824 18.7627C68.6824 17.7022 69.3091 16.8827 70.4071 16.7327C71.0766 16.6363 71.6497 17.0702 71.7836 17.7183C71.8479 18.0289 71.8372 18.3342 71.8372 18.6824C71.8693 18.6717 71.8854 18.7091 71.8854 18.7627V25.9239L75.308 25.9132V25.8543L75.3026 18.1414C75.3026 17.3969 75.2705 16.5827 74.9491 15.8757H74.9545Z" fill="white"/>
<path d="M84.4992 17.9432C84.4992 18.6824 84.4992 19.4215 84.4992 20.1553C84.5046 19.4162 84.5099 18.677 84.4992 17.9432Z" fill="white"/>
<path d="M87.5629 15.6133C86.7542 13.9422 83.7226 13.5404 82.2389 14.7617C81.7943 15.1259 81.5372 15.6079 81.173 16.1061L81.1141 14.2742C80.0214 14.3224 78.9555 14.1885 77.9272 14.3385L77.9164 25.8597C77.9164 25.8757 77.9218 25.9025 77.9164 25.9186H81.398L81.4033 19.0359C81.4033 17.9218 81.8425 16.7327 83.1441 16.7274C83.8993 16.7274 84.4885 17.2416 84.4938 17.9486L84.5581 25.865C84.5635 25.9936 84.767 25.9882 84.8848 25.9882L88.0771 25.9775L88.0611 17.8575C88.0611 17.0595 87.895 16.3096 87.5576 15.6133H87.5629Z" fill="white"/>
<path d="M144.531 16.1542C143.899 13.91 140.675 13.5565 139.138 14.6331C138.613 15.0027 138.324 15.5329 137.927 16.09L137.884 14.2635L134.687 14.3385L134.676 25.865C134.676 25.8811 134.681 25.9078 134.676 25.9239H138.093L138.104 19.1055C138.104 18.5913 138.216 18.12 138.399 17.6754C138.64 17.0809 139.148 16.7648 139.775 16.7327C140.632 16.6898 141.253 17.2897 141.259 18.1735L141.28 25.9775L144.788 25.9882L144.799 17.6754C144.799 17.1773 144.665 16.6524 144.526 16.1542H144.531Z" fill="white"/>
<path d="M59.6626 17.038C60.1339 17.4612 60.2357 18.0718 60.3214 18.6931C60.7981 18.7199 61.2694 18.6824 61.7354 18.6502L63.5351 18.5324C63.4119 16.3417 61.7675 14.5313 59.6036 14.1564C57.1826 13.7333 54.7831 14.5367 53.4762 16.6899C52.6299 18.0932 52.4638 19.6519 52.6299 21.2587C52.7959 22.8495 53.519 24.2314 54.7938 25.2116C55.9882 26.1382 57.5844 26.3096 59.0573 26.1596C61.489 25.9132 63.3315 24.0118 63.4762 21.564L60.3856 21.3605C60.2196 21.9657 60.1018 22.5228 59.6411 22.9352C58.8216 23.6743 57.4076 23.4601 56.8613 22.4531C56.5667 21.9122 56.5828 21.339 56.5238 20.782C56.4167 19.7536 56.4649 17.8307 57.2898 17.0755C57.9325 16.4863 59.0145 16.4489 59.6626 17.038Z" fill="white"/>
<path d="M174.317 19.5983C174.151 20.1339 174.001 20.616 173.878 21.1837C173.669 21.0016 173.706 20.7552 173.626 20.5035L171.612 14.2689H168.077C168.034 14.3439 168.061 14.4189 168.061 14.4671L168.5 15.7151L168.827 16.5988L172.201 25.8543C172.228 25.9293 172.041 27.2148 170.868 27.3112C170.123 27.3755 169.411 27.3219 168.656 27.1719V29.8286C170.67 30.1768 172.887 30.1607 173.905 28.0664C174.226 27.4076 174.467 26.7756 174.708 26.0579L178.554 14.285L175.978 14.2582L174.322 19.5929L174.317 19.5983Z" fill="white"/>
<path d="M165.319 22.4156L165.303 17.0166L167.842 16.9737V14.2956L165.362 14.2796L165.34 10.6481L162.362 10.8677L162.046 14.2796L160.032 14.2956V16.872C160.027 17.1344 161.623 16.8559 161.821 17.0112C161.966 18.602 161.88 20.2303 161.885 21.8532C161.885 22.1157 161.891 22.3781 161.896 22.6406C161.928 23.8296 162.137 25.2062 163.305 25.7793C164.638 26.4381 166.519 26.2614 167.991 25.9828V23.4386C167.097 23.3637 165.329 23.8243 165.324 22.4103L165.319 22.4156Z" fill="white"/>
<path d="M103.192 14.5367L103.182 25.8597C103.182 25.8757 103.187 25.9025 103.182 25.9186H106.877C106.877 25.9025 106.877 25.8811 106.877 25.8597L106.861 14.4778L103.192 14.5367Z" fill="white"/>
<path d="M155.463 25.9186H158.806L158.881 14.2796H155.394L155.463 25.9186Z" fill="white"/>
<path d="M158.865 13.2834L158.854 9.85004L155.404 9.87146L155.426 13.3208L158.865 13.2834Z" fill="white"/>
<path d="M106.893 13.4226C106.824 12.2925 106.984 11.2266 106.813 10.1821H103.198C103.198 10.1875 103.187 13.4226 103.187 13.4226H106.893Z" fill="white"/>
<path d="M40.8624 10.1821C40.8463 10.1875 40.8249 10.1821 40.8034 10.1821H29.3412L29.293 13.2512L33.1655 13.3369C33.3262 17.5094 33.1816 21.7247 33.2352 25.924H36.9845C36.9845 25.9025 36.9845 25.8811 36.9845 25.865C37.022 21.6819 36.8934 17.488 37.0488 13.3369L40.8677 13.2566V10.1928L40.8624 10.1821Z" fill="white"/>
<path d="M151.227 22.4264L151.205 17.022L153.76 16.9791V14.301L151.302 14.2689C151.28 14.2689 151.237 14.2475 151.237 14.1939L151.221 10.6588L148.27 10.8623L147.943 14.2742L145.935 14.2957V16.9952L147.745 17.0113L147.777 22.6085C147.783 23.8993 148.077 25.3187 149.363 25.865C150.653 26.4114 152.523 26.2828 153.894 25.9829V23.444C153.021 23.3744 151.227 23.8243 151.221 22.4264H151.227Z" fill="white"/>
<path d="M119.545 10.1874H116.197C116.197 10.2035 116.197 10.2249 116.197 10.241V15.1473C116.197 15.2115 116.224 15.3026 116.111 15.3615C115.42 14.4349 114.371 14.0385 113.246 14.0439C109.213 14.0653 108.688 18.9287 109.106 21.9496C109.223 22.7905 109.464 23.5458 109.866 24.2689C110.9 26.1275 113.241 26.7863 115.04 25.6454C115.587 25.2972 115.94 24.7884 116.352 24.2421L116.39 25.9614C117.467 25.8811 118.538 26.0739 119.539 25.865V10.2464C119.545 10.2249 119.545 10.2089 119.539 10.1874H119.545ZM116.197 21.5693C116.197 22.1478 116.036 22.6888 115.656 23.1494C115.019 23.9153 113.851 23.9582 113.241 23.1923C112.351 22.0675 112.501 19.3519 112.86 17.986C113.01 17.4022 113.342 16.8505 113.856 16.5934C114.724 16.1596 115.662 16.5613 115.961 17.4397C116.117 17.8896 116.202 18.3396 116.202 18.827V21.5693H116.197Z" fill="white"/>
<path d="M127.043 14.0975C125.651 14.135 124.371 14.5902 123.374 15.5544C122.587 16.3149 122.03 17.2148 121.762 18.286C121.452 19.5233 121.403 20.7713 121.698 22.0246C122.094 23.7011 123.198 25.1419 124.799 25.8115C126.01 26.3203 127.327 26.3685 128.602 26.1382C130.659 25.7632 132.025 24.1296 132.582 22.1907L129.47 21.9764C129.33 22.5817 129.106 23.1173 128.597 23.4601C128.007 23.8511 127.268 23.9154 126.545 23.6315C125.378 23.1762 124.992 21.8639 125.179 20.7713L132.619 20.6963C132.678 19.1484 132.378 17.1077 131.269 15.8864C130.177 14.6759 128.688 14.0546 127.054 14.0975H127.043ZM125.158 18.6984C125.228 17.3005 125.892 16.3096 127.375 16.3256C128.099 16.3364 128.715 16.6952 128.977 17.3755C129.154 17.7665 129.245 18.1628 129.277 18.6931H125.158V18.6984Z" fill="white"/>
<path d="M50.9748 17.8254C50.691 16.7648 50.1179 15.9239 49.2662 15.2437C47.4076 13.76 44.5474 13.7279 42.6674 15.0669C40.7285 16.4488 40.0964 18.5699 40.2196 20.8784C40.3428 23.278 41.8586 25.4847 44.2153 26.0685C45.2384 26.3203 46.2828 26.3471 47.3166 26.1435C49.4055 25.7257 50.6642 24.1885 51.2587 22.2121L48.1575 21.9764C48.0022 22.5227 47.8468 23.0584 47.3701 23.4012C46.2775 24.1832 44.676 23.8136 44.0921 22.5924C43.8136 22.0139 43.7493 21.3604 43.8832 20.7766L51.3123 20.6963C51.3284 19.7375 51.2266 18.7788 50.9748 17.8361V17.8254ZM43.8083 18.6984C43.9475 17.3433 44.5153 16.3417 45.9614 16.3256C46.6899 16.3149 47.3112 16.6524 47.6004 17.338C47.7772 17.7397 47.895 18.1521 47.9165 18.6931H43.8136L43.8083 18.6984Z" fill="white"/>
<path d="M96.7809 14.1671C95.8972 14.0064 95.0027 14.0064 94.1136 14.1671C91.864 14.5634 90.3589 16.5613 90.0321 18.7413C89.85 19.9464 89.9036 21.1355 90.2357 22.3085C90.6695 23.8296 91.8318 25.308 93.3476 25.8436C96.5506 26.9684 99.9036 25.4686 100.83 22.0996C101.714 18.8912 100.37 14.8152 96.7756 14.1724L96.7809 14.1671ZM96.9309 23.1923C96.5346 23.7975 95.8972 24.0118 95.2062 23.9153C93.6529 23.6957 93.6047 21.3551 93.5994 20.166C93.5994 19.3251 93.6208 18.5163 93.8136 17.7182C94.0064 16.9309 94.6063 16.3738 95.4044 16.331C97.097 16.2346 97.3541 17.8896 97.4505 19.143C97.5362 20.241 97.5576 22.2335 96.9309 23.1976V23.1923Z" fill="white"/>
<path d="M7.2255 29.6786H14.1832C14.1993 29.609 14.1296 29.5876 14.1243 29.5447C10.4178 26.5774 8.33423 21.8907 8.59668 17.1076C8.7895 13.5993 10.1928 10.316 12.5763 7.75574C12.6085 7.57898 12.5228 7.42365 12.421 7.34867C12.3032 7.26297 12.1211 7.30046 11.9818 7.30046L0.0482064 7.35938C0.0321378 7.35938 0.0107131 7.36474 -0.0107117 7.35938V14.7295C0.0267816 14.7241 0.0642749 14.7349 0.101768 14.7349H7.21478V29.6786H7.2255Z" fill="white"/>
<path d="M0.0589294 7.35941L11.9925 7.30049C8.00751 7.28978 4.03322 7.31121 0.0589294 7.35941Z" fill="white"/>
<path d="M21.8693 8.08246C20.0964 10.2892 17.2094 10.8891 14.7777 9.61433C11.6658 11.8104 9.75897 15.3294 9.63042 19.1537C9.49652 23.1815 11.3658 27.1291 14.6492 29.3947L14.6652 14.8098C14.6652 14.7348 14.7081 14.7241 14.7295 14.7241L21.9068 14.6973L21.8693 8.08246Z" fill="white"/>
<path d="M21.9657 3.66362C21.6283 1.69254 19.9679 0.155317 17.9646 0.0106997C17.6968 -0.010725 17.4719 0.0910425 17.1773 0.0214121C16.8666 -0.0482183 16.2078 0.048193 15.9668 0.278509C15.2116 0.996238 15.3776 -0.0482184 14.0278 1.54257C13.9154 1.67112 14.0814 1.94964 13.8618 2.01391C13.6958 2.06212 13.4065 2.14782 13.444 2.38885C13.4815 2.61381 13.4922 2.80663 13.2619 2.94589C13.0209 3.09586 12.978 3.41723 13.053 3.67433C13.0905 3.81359 12.9245 3.88322 12.903 4.02784C12.5603 6.83448 14.8098 9.21799 17.6165 9.11086C20.0696 9.01445 21.9764 7.0273 21.9979 4.58488C21.9979 4.35992 22.0514 4.22066 21.864 4.03855C21.7675 3.9475 21.9818 3.78146 21.9657 3.65826V3.66362ZM19.5179 2.02998C19.5554 1.88537 19.7268 1.84787 19.834 1.89072C19.925 1.92821 20.1018 2.04069 20.0643 2.18531C20.0268 2.32457 19.8554 2.346 19.759 2.30315C19.6679 2.26565 19.4858 2.16924 19.5179 2.02998ZM19.052 3.34225C19.1537 3.6047 18.9984 3.89929 18.7681 3.9957C18.4788 4.11354 18.195 3.9957 18.0664 3.72789C17.9539 3.48687 18.0343 3.16549 18.3556 3.03159C18.6663 2.9084 18.9555 3.09586 19.0466 3.34225H19.052ZM18.0236 0.332071C18.1842 0.0214121 18.7841 0.278509 18.8698 0.535606C18.9073 0.658798 18.8377 0.733785 18.677 0.771278C18.4574 0.82484 17.895 0.573099 18.0236 0.326715V0.332071ZM18.1039 2.02463C18.0878 2.27637 17.804 2.37278 17.6379 2.38349C17.429 2.39956 17.1505 2.30315 17.1023 2.05141C17.0541 1.7836 17.3594 1.6122 17.5736 1.60149C17.7932 1.59077 18.12 1.72468 18.0985 2.02463H18.1039ZM16.0471 1.97106C15.94 1.69254 16.3417 1.39795 16.5827 1.3926C16.7274 1.3926 16.7916 1.45151 16.8291 1.53186C16.872 1.62827 16.8452 1.71932 16.7488 1.85858C16.6042 2.07819 16.165 2.28708 16.0418 1.97106H16.0471ZM16.2614 2.70486C16.2667 2.95125 15.9507 3.46544 15.6079 3.30475C15.474 3.24048 15.383 3.05301 15.4472 2.86555C15.5383 2.60309 15.7418 2.3085 16.0418 2.37278C16.2025 2.41027 16.256 2.60309 16.2614 2.70486ZM16.947 2.58703C17.2523 2.44776 17.5736 2.5656 17.6754 2.84948C17.7611 3.10122 17.6754 3.39045 17.3808 3.53507C17.1773 3.63148 16.8613 3.55114 16.7327 3.32618C16.5935 3.07979 16.647 2.72629 16.947 2.59238V2.58703ZM17.579 0.385633C17.3648 0.524894 17.1398 0.508825 16.9255 0.396345C17.113 0.230303 17.3594 0.171385 17.579 0.385633ZM17.2148 0.669511C17.3487 0.771278 17.2791 0.990882 17.1559 1.08194C17.0434 1.16228 16.947 1.20513 16.8345 1.20513C16.7327 1.20513 16.6042 1.16228 16.5774 1.01766C16.5506 0.878402 16.6684 0.75521 16.7541 0.701648C16.8773 0.621305 17.0809 0.567743 17.2148 0.669511ZM16.7006 0.23566C16.572 0.476688 16.3257 0.589168 16.0846 0.524894C16.2025 0.316002 16.4113 0.144604 16.7006 0.23566ZM15.8007 0.798059C15.9293 0.717716 16.1007 0.696292 16.2078 0.819484C16.2882 0.915895 16.256 1.08194 16.1221 1.1837C16.0311 1.25334 15.9454 1.32832 15.8382 1.32297C15.7258 1.31761 15.6186 1.2212 15.6186 1.09801C15.6186 0.985526 15.6883 0.873046 15.8007 0.798059ZM15.6186 1.60149C15.7365 1.74075 15.6508 1.91215 15.5758 2.0032C15.5062 2.08354 15.3723 2.18531 15.2223 2.11568C15.0616 2.04069 15.0884 1.80502 15.1741 1.68183C15.2437 1.58006 15.4847 1.4408 15.6186 1.60149ZM15.083 0.840909C15.1741 0.819484 15.2062 0.840909 15.233 0.86769C15.2866 0.915895 15.2758 0.974813 15.2223 1.06587C15.1473 1.19442 14.917 1.31761 14.8313 1.16764C14.7456 1.02302 14.9545 0.86769 15.083 0.835553V0.840909ZM14.5313 1.53721C14.601 1.51043 14.6438 1.55328 14.6599 1.58006C14.7134 1.65505 14.6438 1.84787 14.5153 1.94964C14.4617 1.99249 14.3278 2.02998 14.2903 1.90679C14.2475 1.77289 14.3974 1.59077 14.526 1.53186L14.5313 1.53721ZM13.2298 5.10979C12.978 5.09908 13.0691 4.59024 13.2619 4.58488C13.4601 4.58488 13.4494 5.1205 13.2298 5.10979ZM13.6851 3.87251C13.6529 3.93679 13.5672 4.11354 13.4226 4.0332C13.2619 3.94214 13.4762 3.54578 13.6261 3.58328C13.7654 3.62077 13.7225 3.80288 13.6851 3.87251ZM13.835 2.73164C13.8564 2.63523 14.0278 2.4317 14.1243 2.61381C14.1992 2.75307 14.0546 3.03159 13.9368 3.03695C13.744 3.0423 13.8136 2.83341 13.835 2.73164ZM14.4296 4.27958C14.3599 4.34386 14.2207 4.45098 14.0921 4.37599C13.9529 4.30101 13.9261 4.1189 13.9529 3.9957C13.9796 3.86715 14.0493 3.71718 14.21 3.67433C14.2849 3.65291 14.3599 3.66362 14.4188 3.68504C14.5367 3.72789 14.6063 4.11354 14.4349 4.27422L14.4296 4.27958ZM14.6759 3.25119C14.4992 3.2137 14.4563 2.98338 14.4831 2.86019C14.5153 2.69415 14.6438 2.46919 14.8848 2.5656C15.0562 2.63523 15.0509 2.87626 15.008 2.98338C14.9598 3.10122 14.8473 3.28869 14.6759 3.25655V3.25119ZM15.3562 4.78842C15.2276 4.80984 15.0991 4.73486 15.0187 4.60095C14.9009 4.40813 14.9063 4.14568 15.0027 3.93143C15.0884 3.75467 15.324 3.66898 15.4901 3.78681C15.7258 3.95821 15.7633 4.26887 15.6401 4.54203C15.5704 4.70272 15.4687 4.76699 15.3615 4.78306L15.3562 4.78842ZM16.2882 6.32564C16.0311 6.40599 15.7847 6.27208 15.699 6.0257C15.6186 5.79003 15.7579 5.51686 16.0311 5.43652C16.2828 5.36153 16.5131 5.53293 16.5827 5.74182C16.6684 5.9882 16.5238 6.25066 16.2882 6.32564ZM16.7434 5.09908C16.4863 5.18478 16.1543 5.08836 16.0096 4.77771C15.8864 4.49918 15.9721 4.12961 16.3471 3.96892C16.6792 3.82966 17.022 4.00642 17.1237 4.32243C17.2201 4.61702 17.0969 4.9866 16.7381 5.09908H16.7434ZM17.745 6.86126C17.413 6.97374 17.1291 6.79163 17.0487 6.56132C16.9309 6.22388 17.0487 5.89179 17.4183 5.79003C17.745 5.69897 18.0182 5.92929 18.0985 6.18638C18.1842 6.47562 17.9646 6.78628 17.745 6.86126ZM18.2271 5.52222C17.9379 5.56507 17.5897 5.36153 17.504 5.02409C17.429 4.71879 17.6218 4.33314 18.0128 4.24744C18.4092 4.15639 18.7306 4.45098 18.7627 4.78306C18.8002 5.13121 18.6288 5.46865 18.2271 5.52757V5.52222ZM19.7 6.00963C19.3733 6.10604 19.0412 5.92393 18.9234 5.62398C18.8002 5.30261 18.977 4.9009 19.3573 4.78842C19.7322 4.67594 20.0375 4.93839 20.1285 5.22227C20.2464 5.58113 20.0268 5.91322 19.7 6.00963ZM19.7911 1.19442C19.8822 1.01231 20.2999 1.16228 20.2999 1.41938C20.1285 1.53186 19.7911 1.37653 19.7911 1.19442ZM20.9802 3.73325C20.8623 3.78146 20.7017 3.74932 20.6588 3.63148C20.6106 3.50829 20.6374 3.35296 20.7927 3.29404C20.9159 3.24584 21.0445 3.32082 21.0766 3.39581C21.1355 3.52971 21.1034 3.6904 20.9802 3.73861V3.73325ZM21.4033 2.54953C21.3819 2.69951 21.1837 2.59774 21.1141 2.56024C21.0445 2.52275 20.9159 2.3942 21.0016 2.28172C21.1141 2.13711 21.4355 2.35135 21.4033 2.54953Z" fill="white"/>
</g>
<defs>
<clipPath id="clip0_7895_17197">
<rect width="178.548" height="30" fill="white"/>
</clipPath>
</defs>
</svg>
