<svg width="32" height="32" viewBox="0 0 32 32" fill="none" xmlns="http://www.w3.org/2000/svg">
<g clip-path="url(#clip0_7732_6514)">
<path d="M30.7956 12.25C30.4087 12.006 29.9568 11.9401 29.5404 12.0308C29.1252 12.1213 28.7457 12.3677 28.5032 12.7476L25.0911 18.0923L24.0672 17.385L24.0948 17.3431L29.7189 8.53399C30.0001 8.09348 30.0732 7.57639 29.964 7.09937C29.8551 6.62307 29.5648 6.18673 29.1198 5.90578C28.6731 5.62385 28.1511 5.54779 27.6704 5.65259C27.1904 5.75705 26.7524 6.04179 26.4721 6.48083L21.2996 14.5824L19.8326 13.9387C19.8525 13.858 19.8674 13.7752 19.8765 13.6905L21.0053 3.3001C21.0617 2.78209 20.8983 2.28603 20.5896 1.90416C20.2801 1.52163 19.8256 1.25401 19.3008 1.19425C18.778 1.13477 18.2785 1.2935 17.8952 1.5967C17.5116 1.90054 17.2447 2.34928 17.1882 2.86901L16.9689 4.88664C16.9664 4.95584 16.9615 5.02534 16.9542 5.0952C16.6539 7.92819 16.3581 10.7624 16.055 13.595L14.8534 13.5264C14.8502 13.3929 14.8556 13.2575 14.8705 13.121L15.7735 4.81012C15.7829 4.36966 15.6288 3.95287 15.3634 3.62433C15.0671 3.25777 14.6335 3.00123 14.1336 2.9425L14.1208 2.94136C13.6253 2.88616 13.1533 3.03589 12.7921 3.32186C12.4303 3.60817 12.1787 4.03054 12.1235 4.52036L11.1252 13.9449L11.0447 14.6189L10.7462 15.4151L9.34575 19.3966L7.26996 15.6767C6.85594 14.8472 5.52125 14.0824 4.69467 13.7986C3.87089 13.5154 2.93997 13.5402 2.1023 13.9414L2.10156 13.9435L2.09482 13.9467L2.0943 13.9453C1.92145 14.0304 1.79832 14.179 1.73962 14.3499C1.68124 14.5199 1.68858 14.7142 1.77564 14.8907L1.77797 14.8915L1.781 14.8977L1.77949 14.8986L7.37238 26.1022L7.39063 26.1433C7.75912 27.0464 8.31771 27.8724 9.03476 28.5554C9.72038 29.2086 10.5557 29.7324 11.5128 30.0691L16.0063 32.0205C17.7973 32.6505 19.6809 32.4983 21.2725 31.7463C22.8641 30.9941 24.1638 29.6419 24.7867 27.871L26.2246 23.783L26.9922 21.6067L27.2405 20.9181L31.314 14.5257C31.5576 14.1442 31.6209 13.6967 31.5262 13.2834C31.4319 12.8712 31.1806 12.4932 30.7957 12.2503L30.7956 12.25ZM15.3959 27.4289C15.9374 25.8894 15.7923 24.265 15.1227 22.8889C14.453 21.5126 13.2586 20.3842 11.7013 19.8364L12.0992 18.705C13.9722 19.3638 15.4083 20.7199 16.2129 22.3735C17.0176 24.0271 17.1916 25.9797 16.5402 27.8315L15.3959 27.4289Z" fill="white"/>
</g>
<defs>
<clipPath id="clip0_7732_6514">
<rect width="32" height="32" fill="white"/>
</clipPath>
</defs>
</svg>
