<svg width="64" height="64" viewBox="0 0 64 64" fill="none" xmlns="http://www.w3.org/2000/svg">
<g clip-path="url(#clip0_7732_6508)">
<path d="M58.4208 25.3036C57.7299 24.8678 56.9228 24.7502 56.1794 24.9122C55.4379 25.0738 54.7601 25.5137 54.3272 26.1922L48.2341 35.7363L46.4057 34.4733L46.4549 34.3985L56.4981 18.6679C57.0003 17.8812 57.1308 16.9579 56.9357 16.106C56.7413 15.2555 56.2228 14.4763 55.4282 13.9746C54.6306 13.4712 53.6984 13.3354 52.84 13.5225C51.9829 13.709 51.2008 14.2175 50.7003 15.0015L41.4636 29.4685L38.8439 28.3192C38.8795 28.1751 38.9061 28.0271 38.9224 27.8758L40.9381 9.32163C41.0387 8.39661 40.747 7.51079 40.1957 6.82888C39.6431 6.14578 38.8315 5.66789 37.8944 5.56118C36.9607 5.45497 36.0688 5.73841 35.3844 6.27984C34.6992 6.82241 34.2227 7.62373 34.1218 8.55182L33.7302 12.1547C33.7258 12.2783 33.7169 12.4024 33.7039 12.5272C33.1676 17.5861 32.6395 22.6472 32.0982 27.7053L29.9525 27.5829C29.9467 27.3445 29.9565 27.1027 29.9831 26.859L31.5956 12.0181C31.6124 11.2316 31.3372 10.4873 30.8632 9.90061C30.3342 9.24603 29.5598 8.78793 28.6672 8.68306L28.6442 8.68102C27.7594 8.58245 26.9166 8.84982 26.2717 9.36049C25.6255 9.87176 25.1763 10.626 25.0776 11.5007L23.2951 28.3301L23.1513 29.5338L22.6182 30.9556L20.1174 38.0655L16.4107 31.4227C15.6713 29.9414 13.288 28.5757 11.8119 28.069C10.3409 27.5632 8.67853 27.6076 7.1827 28.324L7.18137 28.3277L7.16933 28.3334L7.1684 28.331C6.85975 28.4829 6.63987 28.7483 6.53506 29.0534C6.4308 29.3569 6.4439 29.7039 6.59938 30.019L6.60353 30.0205L6.60894 30.0316L6.60625 30.0332L16.5936 50.0396L16.6261 50.1131C17.2842 51.7257 18.2816 53.2007 19.5621 54.4204C20.7864 55.5868 22.278 56.5222 23.9872 57.1234L32.0112 60.6081C35.2094 61.733 38.573 61.4613 41.4152 60.1184C44.2574 58.7752 46.5782 56.3605 47.6905 53.1982L50.2582 45.8982L51.629 42.0121L52.0723 40.7823L59.3465 29.3674C59.7815 28.6862 59.8944 27.887 59.7253 27.1489C59.557 26.4128 59.1083 25.7379 58.421 25.3041L58.4208 25.3036ZM30.9213 52.4089C31.8882 49.6597 31.6292 46.7589 30.4335 44.3016C29.2375 41.8439 27.1047 39.8289 24.3238 38.8507L25.0344 36.8304C28.379 38.0069 30.9434 40.4285 32.3803 43.3813C33.8172 46.3342 34.1278 49.8209 32.9647 53.1276L30.9213 52.4089Z" fill="white"/>
</g>
<defs>
<clipPath id="clip0_7732_6508">
<rect width="64" height="64" fill="white"/>
</clipPath>
</defs>
</svg>
