<svg width="128" height="128" viewBox="0 0 128 128" fill="none" xmlns="http://www.w3.org/2000/svg">
<path d="M104.124 48.0006C103.075 47.3388 101.849 47.1601 100.72 47.4061C99.5939 47.6516 98.5647 48.3197 97.9072 49.35L88.6539 63.8441L85.8772 61.9261L85.952 61.8125L101.204 37.9232C101.967 36.7286 102.165 35.3263 101.869 34.0327C101.573 32.741 100.786 31.5577 99.5792 30.7958C98.368 30.0313 96.9522 29.825 95.6486 30.1092C94.347 30.3925 93.1592 31.1647 92.3991 32.3553L78.3719 54.3256L74.3935 52.5802C74.4476 52.3613 74.488 52.1366 74.5127 51.9069L77.5738 23.7296C77.7266 22.3248 77.2836 20.9795 76.4464 19.944C75.6072 18.9066 74.3747 18.1808 72.9515 18.0188C71.5335 17.8575 70.1791 18.2879 69.1397 19.1102C68.0992 19.9341 67.3756 21.1511 67.2222 22.5605L66.6276 28.0321C66.6209 28.2197 66.6074 28.4082 66.5876 28.5976C65.7732 36.2804 64.9712 43.9664 64.1491 51.648L60.8905 51.462C60.8818 51.0999 60.8966 50.7327 60.937 50.3626L63.3859 27.8245C63.4113 26.6301 62.9934 25.4998 62.2736 24.6088C61.4703 23.6148 60.2942 22.9191 58.9386 22.7598L58.9038 22.7567C57.5601 22.607 56.2801 23.0131 55.3007 23.7886C54.3194 24.565 53.6372 25.7104 53.4874 27.0387L50.7803 52.5968L50.562 54.4247L49.7524 56.5839L45.9546 67.3813L40.3253 57.2933C39.2025 55.0437 35.583 52.9698 33.3414 52.2002C31.1075 51.4321 28.5829 51.4995 26.3113 52.5874L26.3093 52.5931L26.291 52.6018L26.2896 52.5981C25.8208 52.8288 25.4869 53.2318 25.3277 53.6951C25.1694 54.1561 25.1893 54.683 25.4254 55.1617L25.4317 55.1639L25.4399 55.1808L25.4358 55.1831L40.603 85.5659L40.6525 85.6775C41.6518 88.1264 43.1667 90.3663 45.1112 92.2188C46.9705 93.9901 49.2357 95.4106 51.8314 96.3236L64.017 101.616C68.874 103.324 73.9822 102.911 78.2983 100.872C82.6147 98.8322 86.1392 95.1651 87.8284 90.3627L91.7278 79.2765L93.8096 73.3748L94.4828 71.5073L105.53 54.1721C106.19 53.1375 106.362 51.9239 106.105 50.8029C105.849 49.685 105.168 48.6601 104.124 48.0013L104.124 48.0006ZM62.3618 89.1639C63.8303 84.9889 63.4369 80.5837 61.621 76.8519C59.8048 73.1195 56.5659 70.0594 52.3425 68.5739L53.4217 65.5057C58.501 67.2923 62.3954 70.9699 64.5775 75.4543C66.7596 79.9386 67.2315 85.2337 65.4651 90.2554L62.3618 89.1639Z" fill="white"/>
</svg>
