<svg width="128" height="128" viewBox="0 0 128 128" fill="none" xmlns="http://www.w3.org/2000/svg">
<path d="M98.4764 37.0933C97.2671 36.8171 96.0515 37.0552 95.0681 37.6619C94.0873 38.2671 93.338 39.2389 93.0597 40.4289L89.1399 57.1723L85.8841 56.2843L85.917 56.1523L92.3782 28.5556C92.7013 27.1756 92.4229 25.787 91.7142 24.665C91.0071 23.5445 89.8717 22.6895 88.4805 22.3712C87.0842 22.0518 85.6802 22.327 84.5448 23.0276C83.4109 23.7268 82.5466 24.8493 82.2247 26.2247L76.2821 51.6047L71.9499 51.2782C71.9283 51.0538 71.8919 50.8284 71.839 50.6035L65.3772 23.0068C65.0552 21.6309 64.1909 20.5089 63.0576 19.8098C61.9216 19.1096 60.5181 18.8339 59.1218 19.1533C57.7307 19.4716 56.5958 20.3271 55.8881 21.4476C55.18 22.5702 54.9011 23.9583 55.2241 25.3387L56.4787 30.6976C56.5347 30.8769 56.5845 31.0591 56.6286 31.2444C58.4096 38.7621 60.2033 46.2788 61.9766 53.798L58.8409 54.7038C58.7125 54.3651 58.6047 54.0138 58.52 53.6513L53.3518 31.5775C52.9795 30.4423 52.2102 29.5147 51.2355 28.913C50.1478 28.2418 48.8075 27.9758 47.4759 28.2753L47.442 28.284C46.1248 28.5886 45.0521 29.3964 44.3855 30.4529C43.7174 31.511 43.4539 32.8178 43.7533 34.1206L49.68 59.129L50.0806 60.9258L50.0333 63.2313V74.6771L41.3757 67.0285C39.5701 65.2789 35.4675 64.5234 33.0975 64.5412C30.7353 64.5579 28.3761 65.4591 26.5941 67.2392V67.2452L26.5798 67.2595L26.5772 67.2564C26.2115 67.6296 26.0303 68.1205 26.0339 68.6105C26.0375 69.0979 26.2311 69.5883 26.6126 69.9615H26.6193L26.6326 69.9747L26.6296 69.9783L51.0188 93.6072L51.1025 93.696C52.8578 95.6746 55.03 97.285 57.479 98.3873C59.8208 99.4413 62.429 100.03 65.1805 100.03L78.4317 100.979C83.5804 100.979 88.2623 98.8945 91.6572 95.5385C95.0522 92.182 97.1603 87.5532 97.1603 82.4624V70.7104L97.1659 64.4523L97.1813 62.4672L101.85 42.4486C102.13 41.2535 101.889 40.0517 101.275 39.0794C100.663 38.1097 99.6802 37.369 98.477 37.0938L98.4764 37.0933ZM72.7387 89.7815C72.7387 85.3558 70.9059 81.3307 67.9546 78.4129C65.0028 75.4945 60.932 73.6825 56.4551 73.6825V70.4301C61.8395 70.4301 66.7334 72.6072 70.2799 76.1134C73.8263 79.6197 76.0284 84.4582 76.0284 89.7815H72.7387Z" fill="white"/>
</svg>
