<svg width="32" height="32" viewBox="0 0 32 32" fill="none" xmlns="http://www.w3.org/2000/svg">
<path d="M28.7132 7.55321C28.2672 7.45136 27.819 7.53916 27.4563 7.76289C27.0947 7.98605 26.8184 8.34439 26.7157 8.78323L25.2703 14.9573L24.0697 14.6299L24.0819 14.5812L26.4644 4.40494C26.5836 3.89609 26.4809 3.38404 26.2196 2.97029C25.9588 2.5571 25.5402 2.24183 25.0272 2.12444C24.5123 2.00668 23.9946 2.10815 23.5759 2.36651C23.1578 2.62431 22.8391 3.03825 22.7203 3.54543L20.529 12.9043L18.9315 12.7839C18.9236 12.7011 18.9101 12.618 18.8906 12.5351L16.5078 2.35884C16.3891 1.85148 16.0704 1.43772 15.6525 1.17993C15.2336 0.921751 14.7161 0.820092 14.2012 0.937852C13.6882 1.05524 13.2697 1.3707 13.0087 1.78389C12.7476 2.19783 12.6448 2.70968 12.7639 3.21873L13.2265 5.19482C13.2472 5.26091 13.2655 5.32812 13.2818 5.39645C13.9385 8.16859 14.6 10.9404 15.2539 13.7131L14.0976 14.0471C14.0503 13.9222 14.0105 13.7926 13.9792 13.6589L12.0735 5.51927C11.9362 5.10065 11.6525 4.7586 11.2931 4.53675C10.892 4.28924 10.3978 4.19114 9.90676 4.3016L9.89426 4.30478C9.40854 4.41711 9.01296 4.71498 8.76716 5.10458C8.5208 5.49474 8.42365 5.97664 8.53405 6.45704L10.7195 15.6788L10.8672 16.3414L10.8498 17.1916V21.4122L7.65729 18.5918C6.99149 17.9466 5.47865 17.668 4.60473 17.6746C3.73365 17.6808 2.86371 18.0131 2.20662 18.6695V18.6717L2.20131 18.677L2.20037 18.6758C2.06554 18.8134 1.99869 18.9945 2.00002 19.1751C2.00134 19.3549 2.07274 19.5357 2.21343 19.6733H2.2159L2.22082 19.6782L2.21968 19.6795L11.2132 28.3926L11.2441 28.4254C11.8913 29.155 12.6923 29.7488 13.5954 30.1553C14.4589 30.544 15.4207 30.761 16.4353 30.761L21.3217 31.1109C23.2202 31.1109 24.9467 30.3423 26.1986 29.1048C27.4505 27.8671 28.2278 26.1603 28.2278 24.283V19.9495L28.2299 17.6418L28.2356 16.9098L29.9573 9.52798C30.0605 9.08727 29.9717 8.64413 29.7452 8.2856C29.5195 7.92802 29.157 7.65486 28.7133 7.55339L28.7132 7.55321ZM19.2224 26.982C19.2224 25.35 18.5465 23.8657 17.4583 22.7898C16.3698 21.7136 14.8687 21.0455 13.2178 21.0455V19.8461C15.2033 19.8461 17.0079 20.6489 18.3157 21.9419C19.6234 23.2348 20.4354 25.019 20.4354 26.982H19.2224Z" fill="white"/>
</svg>
