<svg width="16" height="16" viewBox="0 0 16 16" fill="none" xmlns="http://www.w3.org/2000/svg">
<path d="M13.4485 4.37995C13.2574 4.3363 13.0653 4.37393 12.9099 4.46981C12.7548 4.56545 12.6364 4.71902 12.5925 4.9071L11.973 7.55313L11.4585 7.4128L11.4637 7.39194L12.4848 3.03069C12.5358 2.81261 12.4918 2.59316 12.3798 2.41584C12.2681 2.23876 12.0886 2.10364 11.8688 2.05333C11.6481 2.00286 11.4262 2.04635 11.2468 2.15708C11.0676 2.26756 10.931 2.44497 10.8801 2.66233L9.941 6.67326L9.25636 6.62167C9.25295 6.5862 9.24719 6.55058 9.23883 6.51503L8.21764 2.15379C8.16676 1.93635 8.03017 1.75902 7.85106 1.64854C7.67154 1.53789 7.44974 1.49433 7.22907 1.54479C7.00922 1.5951 6.82987 1.7303 6.71803 1.90738C6.60612 2.08478 6.56205 2.30415 6.6131 2.52231L6.81136 3.36921C6.82021 3.39753 6.82808 3.42634 6.83506 3.45562C7.11651 4.64368 7.39999 5.83158 7.68022 7.01988L7.18468 7.16302C7.16439 7.10951 7.14735 7.05398 7.13396 6.99669L6.3172 3.50826C6.25836 3.32885 6.13679 3.18226 5.98276 3.08718C5.81087 2.9811 5.59905 2.93906 5.38861 2.9864L5.38325 2.98776C5.17509 3.03591 5.00555 3.16356 4.90021 3.33053C4.79463 3.49775 4.75299 3.70428 4.80031 3.91016L5.73693 7.86236L5.80024 8.14632L5.79277 8.51067V10.3195L4.42455 9.11076C4.13921 8.83427 3.49085 8.71487 3.11631 8.71768C2.74299 8.72033 2.37016 8.86275 2.08855 9.14406V9.14502L2.08628 9.14727L2.08587 9.14679C2.02809 9.20576 1.99944 9.28335 2.00001 9.36078C2.00058 9.4378 2.03117 9.51531 2.09147 9.57429H2.09253L2.09464 9.57637L2.09415 9.57693L5.94851 13.3111L5.96174 13.3252C6.23913 13.6379 6.58242 13.8924 6.96946 14.0666C7.33953 14.2331 7.75172 14.3261 8.18656 14.3261L10.2807 14.4761C11.0944 14.4761 11.8343 14.1467 12.3708 13.6164C12.9073 13.0859 13.2405 12.3544 13.2405 11.5499V9.69263L13.2414 8.70364L13.2438 8.38992L13.9817 5.22628C14.0259 5.0374 13.9879 4.84748 13.8908 4.69383C13.7941 4.54058 13.6387 4.42351 13.4486 4.38003L13.4485 4.37995ZM9.38102 12.7066C9.38102 12.0071 9.09137 11.371 8.62496 10.9099C8.15848 10.4487 7.51515 10.1623 6.80763 10.1623V9.64834C7.65855 9.64834 8.43197 9.9924 8.99244 10.5465C9.55291 11.1006 9.9009 11.8653 9.9009 12.7066H9.38102Z" fill="white"/>
</svg>
