<svg width="64" height="64" viewBox="0 0 64 64" fill="none" xmlns="http://www.w3.org/2000/svg">
<g clip-path="url(#clip0_7732_6504)">
<path d="M48.365 10.2037C47.5536 10.2981 46.8515 10.713 46.3744 11.3058C45.8986 11.897 45.6471 12.6649 45.736 13.4648L46.9831 24.7191L44.767 24.8836L44.7584 24.7944L42.7032 6.24463C42.6004 5.31707 42.1224 4.51633 41.4359 3.97564C40.7507 3.43555 39.858 3.15441 38.9245 3.2626C37.9876 3.37128 37.1766 3.85069 36.6258 4.53516C36.0757 5.21834 35.7859 6.10509 35.8884 7.02958L37.7783 24.0894L35.0175 24.839C34.9548 24.7045 34.8827 24.5726 34.8004 24.4446L24.7237 8.73532C24.2214 7.95206 23.4383 7.44556 22.5811 7.26073C21.7221 7.07583 20.7904 7.21319 19.9939 7.71833C19.2003 8.2217 18.6839 9.00217 18.491 9.85323C18.2982 10.7057 18.4302 11.6286 18.9341 12.4144L20.8907 15.465C20.9649 15.564 21.0358 15.6661 21.104 15.7715C23.8618 20.0463 26.6274 24.3177 29.3808 28.5952L27.6336 29.8467C27.4795 29.6647 27.3353 29.4703 27.203 29.2639L19.1432 16.6985C18.6626 16.0756 17.9812 15.669 17.244 15.5097C16.4213 15.3322 15.5309 15.4617 14.7702 15.9403L14.751 15.9531C14.0004 16.4317 13.5121 17.1689 13.3305 17.9712C13.1484 18.7748 13.2721 19.6439 13.7443 20.3868L22.92 34.607L23.5635 35.6343L24.041 37.0757L26.5568 44.1803L19.5017 41.3357C17.9964 40.6466 15.2838 41.0794 13.8166 41.6113C12.354 42.141 11.0878 43.2189 10.3729 44.7155L10.3743 44.7192L10.3685 44.7312L10.3662 44.7299C10.2213 45.0419 10.2167 45.3865 10.3266 45.6898C10.4359 45.9916 10.6639 46.2534 10.9828 46.4012L10.9869 46.3997L10.9981 46.405L10.997 46.4079L31.3293 55.7138L31.4008 55.7506C32.9252 56.5929 34.6276 57.115 36.39 57.2609C38.0752 57.4004 39.8235 57.1924 41.5314 56.5876L49.9651 54.264C53.161 53.1323 55.609 50.8095 56.9786 47.9802C58.3482 45.1506 58.6392 41.8141 57.5203 38.6541L54.9372 31.3595L53.5651 27.4738L53.1383 26.2382L51.6364 12.7862C51.5474 11.9828 51.1337 11.2898 50.5388 10.8213C49.9457 10.354 49.1728 10.1102 48.3654 10.2039L48.365 10.2037ZM43.9703 48.5651C42.9975 45.818 40.9751 43.7224 38.5019 42.56C36.0282 41.3974 33.1031 41.1674 30.3242 42.1514L29.6093 40.1326C32.9515 38.9491 36.4678 39.2248 39.4398 40.6216C42.4118 42.0185 44.8421 44.5378 46.0122 47.8421L43.9703 48.5651Z" fill="white"/>
</g>
<defs>
<clipPath id="clip0_7732_6504">
<rect width="64" height="64" fill="white"/>
</clipPath>
</defs>
</svg>
