<svg width="16" height="16" viewBox="0 0 16 16" fill="none" xmlns="http://www.w3.org/2000/svg">
<g clip-path="url(#clip0_7732_6522)">
<path d="M14.341 6.39308C14.1752 6.28849 13.9815 6.26025 13.803 6.29913C13.6251 6.33792 13.4624 6.4435 13.3585 6.60633L11.8962 8.89691L11.4574 8.5938L11.4692 8.57584L13.8796 4.80049C14.0001 4.6117 14.0314 4.39009 13.9846 4.18565C13.9379 3.98152 13.8135 3.79452 13.6228 3.67412C13.4314 3.55329 13.2076 3.52069 13.0016 3.5656C12.7959 3.61037 12.6082 3.7324 12.4881 3.92056L10.2713 7.39265L9.64253 7.11681C9.65108 7.08223 9.65747 7.04671 9.66138 7.0104L10.1451 2.5574C10.1693 2.33539 10.0993 2.12279 9.96697 1.95914C9.83434 1.79519 9.63956 1.6805 9.41465 1.65489C9.19056 1.6294 8.97651 1.69742 8.81225 1.82737C8.64781 1.95758 8.53346 2.1499 8.50922 2.37264L8.41525 3.23734C8.41419 3.267 8.41206 3.29678 8.40893 3.32672C8.28022 4.54086 8.15349 5.75553 8.02355 6.96949L7.50859 6.9401C7.50721 6.88288 7.50956 6.82484 7.51593 6.76636L7.90294 3.20455C7.90697 3.01578 7.84092 2.83715 7.72716 2.69635C7.60021 2.53925 7.41434 2.42931 7.20012 2.40414L7.19461 2.40365C6.98227 2.37999 6.77998 2.44416 6.6252 2.56672C6.47012 2.68943 6.36231 2.87044 6.33863 3.08036L5.91082 7.11944L5.87631 7.40831L5.74837 7.74955L5.14818 9.45592L4.25856 7.86165C4.08112 7.50614 3.50911 7.17838 3.15486 7.05676C2.80181 6.93538 2.40285 6.94602 2.04385 7.11795L2.04353 7.11886L2.04064 7.12023L2.04042 7.11964C1.96634 7.1561 1.91357 7.21978 1.88841 7.29301C1.86339 7.36587 1.86654 7.44914 1.90385 7.52478L1.90485 7.52513L1.90614 7.52779L1.9055 7.52816L4.30245 12.3297L4.31027 12.3474C4.4682 12.7344 4.70759 13.0884 5.0149 13.3811C5.30874 13.661 5.66672 13.8855 6.07692 14.0298L8.00268 14.8661C8.77026 15.1361 9.57753 15.0709 10.2596 14.7486C10.9418 14.4263 11.4988 13.8467 11.7657 13.0878L12.382 11.3358L12.711 10.4031L12.8174 10.108L14.5632 7.36839C14.6676 7.20489 14.6947 7.0131 14.6541 6.83594C14.6137 6.65927 14.506 6.4973 14.341 6.39318L14.341 6.39308ZM7.7411 12.8983C7.97318 12.2385 7.91101 11.5423 7.62403 10.9526C7.337 10.3627 6.82514 9.87914 6.1577 9.64438L6.32825 9.1595C7.13097 9.44185 7.74641 10.023 8.09126 10.7317C8.43612 11.4404 8.51068 12.2772 8.23154 13.0708L7.7411 12.8983Z" fill="white"/>
</g>
<defs>
<clipPath id="clip0_7732_6522">
<rect width="16" height="16" fill="white"/>
</clipPath>
</defs>
</svg>
