<svg width="32" height="32" viewBox="0 0 32 32" fill="none" xmlns="http://www.w3.org/2000/svg">
<g clip-path="url(#clip0_7732_6510)">
<path d="M25.1644 3.79411C24.71 3.84697 24.3168 4.07936 24.0497 4.4113C23.7832 4.74239 23.6424 5.1724 23.6921 5.62033L24.3905 11.9228L23.1495 12.0149L23.1447 11.9649L21.9938 1.57705C21.9362 1.05762 21.6685 0.609205 21.2841 0.306415C20.9004 0.00396483 20.4004 -0.15347 19.8777 -0.0928852C19.353 -0.0320221 18.8989 0.236447 18.5904 0.619748C18.2824 1.00233 18.1201 1.49891 18.1775 2.01663L19.2359 11.5701L17.6898 11.9899C17.6547 11.9146 17.6143 11.8407 17.5682 11.769L11.9252 2.97184C11.644 2.53321 11.2054 2.24957 10.7254 2.14607C10.2444 2.04252 9.72261 2.11945 9.27657 2.40232C8.83218 2.68421 8.54299 3.12127 8.43494 3.59787C8.32696 4.07523 8.40089 4.59205 8.68309 5.03214L9.77879 6.74046C9.82031 6.79587 9.86006 6.8531 9.89822 6.91208C11.4426 9.306 12.9913 11.698 14.5333 14.0934L13.5548 14.7942C13.4685 14.6923 13.3878 14.5834 13.3137 14.4679L8.80019 7.43119C8.53103 7.08241 8.14946 6.85467 7.73661 6.76552C7.27592 6.66609 6.77728 6.73859 6.35129 7.00662L6.34057 7.01379C5.9202 7.28182 5.64674 7.69464 5.54509 8.14394C5.44309 8.59396 5.51238 9.08065 5.77681 9.49665L10.9152 17.46L11.2756 18.0353L11.5429 18.8425L12.9518 22.821L9.00093 21.228C8.15796 20.8421 6.63891 21.0845 5.8173 21.3824C4.99825 21.679 4.28913 22.2826 3.88882 23.1207L3.88957 23.1228L3.88633 23.1295L3.88506 23.1288C3.8039 23.3035 3.80132 23.4965 3.86287 23.6664C3.92412 23.8353 4.05178 23.982 4.23034 24.0647L4.23266 24.0639L4.23893 24.0668L4.2383 24.0685L15.6244 29.2798L15.6645 29.3004C16.5181 29.7721 17.4714 30.0645 18.4584 30.1462C19.4021 30.2243 20.3811 30.1078 21.3376 29.7691L26.0605 28.4679C27.8501 27.8341 29.221 26.5334 29.988 24.949C30.755 23.3644 30.918 21.4959 30.2913 19.7264L28.8448 15.6414L28.0765 13.4654L27.8375 12.7735L26.9963 5.24033C26.9465 4.79045 26.7149 4.40236 26.3817 4.14C26.0496 3.87827 25.6167 3.74178 25.1646 3.79423L25.1644 3.79411ZM22.7033 25.2765C22.1586 23.7382 21.0261 22.5646 19.641 21.9137C18.2558 21.2626 16.6177 21.1338 15.0616 21.6849L14.6612 20.5543C16.5328 19.8916 18.5019 20.0459 20.1663 20.8282C21.8306 21.6104 23.1916 23.0212 23.8468 24.8716L22.7033 25.2765Z" fill="white"/>
</g>
<defs>
<clipPath id="clip0_7732_6510">
<rect width="32" height="32" fill="white"/>
</clipPath>
</defs>
</svg>
