<svg width="16" height="16" viewBox="0 0 16 16" fill="none" xmlns="http://www.w3.org/2000/svg">
<g clip-path="url(#clip0_7732_6518)">
<path d="M11.9276 2.76887C11.7329 2.79152 11.5644 2.89112 11.4499 3.03338C11.3357 3.17528 11.2753 3.35957 11.2966 3.55153L11.5959 6.25258L11.0641 6.29205L11.062 6.27065L10.5688 1.8187C10.5441 1.59609 10.4294 1.40391 10.2646 1.27414C10.1002 1.14452 9.88591 1.07705 9.66187 1.10301C9.43702 1.1291 9.24238 1.24416 9.11019 1.40843C8.97816 1.57239 8.90862 1.78521 8.93321 2.00709L9.3868 6.10146L8.72421 6.28136C8.70916 6.24907 8.69183 6.21741 8.67209 6.18669L6.25368 2.41647C6.13313 2.22848 5.94519 2.10692 5.73947 2.06256C5.53331 2.01819 5.30969 2.05116 5.11853 2.17239C4.92808 2.2932 4.80414 2.48051 4.75783 2.68477C4.71155 2.88935 4.74324 3.11085 4.86418 3.29945L5.33377 4.03159C5.35156 4.05534 5.3686 4.07986 5.38495 4.10514C6.04684 5.13111 6.71058 6.15625 7.3714 7.18285L6.95206 7.48319C6.91507 7.43952 6.88047 7.39287 6.84872 7.34333L4.91437 4.32762C4.79902 4.17814 4.63548 4.08054 4.45855 4.04233C4.26111 3.99972 4.04741 4.03079 3.86484 4.14566L3.86025 4.14873C3.68009 4.2636 3.56289 4.44053 3.51933 4.63308C3.47561 4.82595 3.50531 5.03453 3.61863 5.21281L5.82079 8.62568L5.97525 8.87222L6.08983 9.21817L6.69363 10.9233L5.0004 10.2406C4.63913 10.0752 3.98811 10.179 3.63599 10.3067C3.28496 10.4338 2.98106 10.6925 2.8095 11.0517L2.80982 11.0526L2.80843 11.0555L2.80788 11.0552C2.7731 11.13 2.77199 11.2127 2.79838 11.2855C2.82462 11.358 2.87934 11.4208 2.95586 11.4563L2.95686 11.4559L2.95954 11.4572L2.95927 11.4579L7.83904 13.6913L7.8562 13.7001C8.22205 13.9023 8.63061 14.0276 9.05359 14.0626C9.45804 14.0961 9.87763 14.0462 10.2875 13.901L12.3116 13.3433C13.0786 13.0717 13.6662 12.5143 13.9949 11.8352C14.3236 11.1561 14.3934 10.3554 14.1249 9.59698L13.5049 7.84627L13.1756 6.91371L13.0732 6.61716L12.7127 3.38868C12.6914 3.19587 12.5921 3.02955 12.4493 2.91711C12.307 2.80494 12.1215 2.74644 11.9277 2.76892L11.9276 2.76887ZM10.8729 11.9756C10.6394 11.3163 10.154 10.8134 9.56045 10.5344C8.96677 10.2554 8.26475 10.2002 7.59781 10.4363L7.42624 9.95182C8.22836 9.66778 9.07226 9.73393 9.78555 10.0692C10.4988 10.4044 11.0821 11.0091 11.3629 11.8021L10.8729 11.9756Z" fill="white"/>
</g>
<defs>
<clipPath id="clip0_7732_6518">
<rect width="16" height="16" fill="white"/>
</clipPath>
</defs>
</svg>
