<svg width="64" height="64" viewBox="0 0 64 64" fill="none" xmlns="http://www.w3.org/2000/svg">
<path d="M54.7021 16.9164C53.9057 16.7346 53.1053 16.8914 52.4577 17.2909C51.8119 17.6894 51.3185 18.3293 51.1352 19.1129L48.5541 30.1381L46.4102 29.5533L46.4319 29.4664L50.6865 11.2945C50.8992 10.3859 50.7159 9.47151 50.2493 8.73267C49.7836 7.99483 49.036 7.43183 48.1199 7.22222C47.2005 7.01193 46.276 7.19313 45.5283 7.65449C44.7817 8.11485 44.2126 8.85402 44.0006 9.75969L40.0875 26.4719L37.2348 26.257C37.2206 26.1092 37.1966 25.9607 37.1618 25.8126L32.9068 7.64078C32.6948 6.73478 32.1257 5.99594 31.3794 5.53558C30.6314 5.07456 29.7072 4.89302 28.7878 5.10331C27.8718 5.31293 27.1244 5.87625 26.6585 6.61409C26.1922 7.35327 26.0085 8.26729 26.2212 9.1763L27.0473 12.705C27.0842 12.823 27.117 12.9431 27.1461 13.0651C28.3188 18.0153 29.5 22.9649 30.6676 27.9162L28.6028 28.5126C28.5183 28.2896 28.4473 28.0583 28.3915 27.8196L24.9883 13.2844C24.7432 12.5369 24.2366 11.9261 23.5948 11.5299C22.8786 11.0879 21.996 10.9128 21.1192 11.11L21.0969 11.1157C20.2295 11.3163 19.5231 11.8482 19.0842 12.5439C18.6443 13.2406 18.4708 14.1011 18.668 14.959L22.5706 31.4265L22.8343 32.6097L22.8032 34.1278V41.6647L17.1023 36.6282C15.9134 35.4761 13.2119 34.9786 11.6513 34.9903C10.0958 35.0014 8.54234 35.5948 7.36896 36.7669V36.7709L7.35949 36.7803L7.3578 36.7783C7.11703 37.024 6.99767 37.3473 7.00003 37.6699C7.0024 37.9908 7.12988 38.3138 7.38113 38.5595H7.38553L7.39432 38.5682L7.39229 38.5706L23.4521 54.1297L23.5072 54.1882C24.663 55.4911 26.0934 56.5515 27.7061 57.2773C29.248 57.9714 30.9655 58.3588 32.7773 58.3588L41.503 58.9837C44.8933 58.9837 47.9762 57.6113 50.2117 55.4015C52.4473 53.1913 53.8354 50.1433 53.8354 46.7911V39.0526L53.8391 34.9318L53.8492 33.6247L56.9237 20.4428C57.108 19.6558 56.9494 18.8645 56.545 18.2243C56.1419 17.5857 55.4943 17.0976 54.7021 16.9164ZM37.7542 51.6106C37.7542 48.6964 36.5474 46.0459 34.604 44.1246C32.6603 42.2029 29.9798 41.0097 27.0318 41.0097V38.8681C30.5773 38.8681 33.7999 40.3017 36.1352 42.6105C38.4704 44.9193 39.9204 48.1053 39.9204 51.6106H37.7542Z" fill="white"/>
</svg>
