<svg width="128" height="128" viewBox="0 0 128 128" fill="none" xmlns="http://www.w3.org/2000/svg">
<path d="M88.8526 30.8989C87.6204 31.0422 86.5541 31.6724 85.8296 32.5726C85.107 33.4705 84.7251 34.6366 84.86 35.8514L86.754 52.9428L83.3885 53.1925L83.3754 53.0571L80.2543 24.8865C80.0982 23.4779 79.3723 22.2618 78.3297 21.4407C77.2891 20.6205 75.9334 20.1936 74.5158 20.3579C73.093 20.5229 71.8613 21.251 71.0249 22.2904C70.1894 23.3279 69.7494 24.6746 69.905 26.0786L72.7752 51.9865L68.5825 53.1249C68.4873 52.9205 68.3777 52.7202 68.2527 52.5258L52.9497 28.669C52.187 27.4795 50.9977 26.7103 49.696 26.4296C48.3915 26.1488 46.9765 26.3574 45.7669 27.1245C44.5618 27.889 43.7775 29.0743 43.4845 30.3667C43.1916 31.6613 43.3921 33.0628 44.1574 34.2563L47.1288 38.889C47.2414 39.0393 47.3492 39.1945 47.4527 39.3544C51.6409 45.8464 55.8409 52.3332 60.0223 58.8292L57.3689 60.7297C57.1348 60.4534 56.9159 60.1582 56.715 59.8447L44.475 40.7622C43.7451 39.8163 42.7103 39.1987 41.5907 38.957C40.3414 38.6873 38.9891 38.884 37.8339 39.6108L37.8048 39.6303C36.6649 40.3571 35.9232 41.4766 35.6476 42.6951C35.371 43.9155 35.5589 45.2353 36.276 46.3634L50.2106 67.9591L51.1879 69.5191L51.913 71.7081L55.7336 82.4975L45.0194 78.1775C42.7334 77.1309 38.6139 77.7883 36.3858 78.5961C34.1646 79.4004 32.2416 81.0374 31.156 83.3102L31.158 83.3159L31.1492 83.3341L31.1458 83.3321C30.9257 83.8059 30.9187 84.3292 31.0856 84.7899C31.2517 85.2481 31.5979 85.6458 32.0822 85.8702L32.0885 85.868L32.1054 85.876L32.1037 85.8803L62.9814 100.013L63.09 100.069C65.405 101.348 67.9903 102.141 70.6668 102.362C73.226 102.574 75.881 102.258 78.4747 101.34L91.2827 97.811C96.136 96.0923 99.8537 92.5649 101.934 88.2682C104.014 83.9709 104.456 78.904 102.756 74.1051L98.8334 63.0272L96.7498 57.1262L96.1016 55.2498L93.8206 34.8209C93.6855 33.6008 93.0573 32.5484 92.1538 31.8369C91.2531 31.1271 90.0793 30.757 88.8533 30.8992L88.8526 30.8989ZM82.1786 89.1565C80.7012 84.9846 77.63 81.8021 73.874 80.0368C70.1174 78.2712 65.6752 77.9219 61.455 79.4163L60.3694 76.3505C65.4449 74.5532 70.7849 74.9717 75.2983 77.0931C79.8118 79.2144 83.5026 83.0403 85.2796 88.0584L82.1786 89.1565Z" fill="white"/>
</svg>
