<svg width="42" height="8" viewBox="0 0 42 8" fill="none" xmlns="http://www.w3.org/2000/svg">
<path d="M32.6914 0.00683594C33.8416 0.00683594 34.7773 0.929291 34.7773 2.07031V8H33.1592V4.81836H29.9268V8H28.373V2.07031C28.373 0.932627 29.3057 0.00703365 30.459 0.00683594H32.6914ZM13.5254 1.58496H9.90527C9.05741 1.585 8.6875 1.78431 8.6875 2.40137C8.68767 3.05028 9.10682 3.18555 9.91895 3.18555H11.9199V4.78613H9.91895C9.10665 4.78613 8.6875 4.93375 8.6875 5.58301C8.68752 6.23217 9.08016 6.38278 9.90527 6.38281H13.5352V7.98438H9.75977C7.846 7.98438 7.06934 7.04828 7.06934 5.80762C7.06944 4.8983 7.48795 4.28093 8.22852 3.97559C7.47502 3.66697 7.09473 3.05278 7.09473 2.17871C7.09493 0.902975 7.89447 0.0029662 9.79492 0.00292969H13.5254V1.58496ZM3.86035 0C5.67622 0.00013196 6.45296 1.11193 6.45312 2.3877C6.45312 3.58014 5.9751 4.42908 4.83789 4.78906L6.45312 7.98047H4.83789L3.21973 4.78223H1.80664C1.67667 4.78223 1.60156 4.84071 1.60156 4.98535V7.98047H0.0126953V4.82422C0.0127552 3.92435 0.396565 3.18555 1.28027 3.18555H3.91211C4.71126 3.18553 4.96773 2.9506 4.96777 2.38184C4.96777 1.81296 4.68859 1.58498 3.91211 1.58496H0V0H3.86035ZM18.2871 0C20.1032 0 20.6171 1.11185 20.6172 2.3877C20.6172 3.593 20.1749 4.78223 18.2871 4.78223H15.9707C15.8407 4.78223 15.7656 4.84071 15.7656 4.98535V7.98047H14.1611V4.82422C14.1612 3.9244 14.5441 3.18563 15.4277 3.18555H18.333C19.1318 3.18541 19.33 2.73535 19.3301 2.33691C19.3301 2.00265 19.1092 1.58791 18.3457 1.58789H14.1514V0H18.2871ZM22.8477 5.21289C22.8477 6.18995 23.1954 6.37987 24.5664 6.37988H27.6992V7.98047H24.209C22.0713 7.9804 21.2335 6.82054 21.2334 5.22656V0H22.8477V5.21289ZM37.0088 2.78711C37.009 3.01826 37.197 3.204 37.4307 3.2041H39.8193C40.053 3.20392 40.241 3.01821 40.2412 2.78711V0H41.8594V3.0957C41.8591 4.02758 41.0954 4.78223 40.1533 4.78223H39.4229V7.98047H37.8271V4.78223H37.0957C36.1538 4.78197 35.3909 4.02742 35.3906 3.0957V0H37.0088V2.78711ZM30.6807 1.60352C30.2648 1.60352 29.9297 1.93848 29.9297 2.34668V3.2207H33.1631V2.34668C33.1631 1.93527 32.8248 1.60352 32.4121 1.60352H30.6807Z" fill="white"/>
</svg>
