<svg width="8" height="8" viewBox="0 0 8 8" fill="none" xmlns="http://www.w3.org/2000/svg">
<path d="M5.40207 2.59793C5.21306 1.18197 4.73471 0 4 0C3.26528 0 2.78694 1.18197 2.59793 2.59793C1.18197 2.78694 0 3.26528 0 4C0 4.73471 1.18218 5.21306 2.59793 5.40207C2.78694 6.81782 3.26528 8 4 8C4.73471 8 5.21306 6.81782 5.40207 5.40207C6.81803 5.21306 8 4.73471 8 4C8 3.26528 6.81782 2.78694 5.40207 2.59793ZM2.55171 4.98964C1.19565 4.79378 0.404767 4.34549 0.404767 4C0.404767 3.65451 1.19565 3.20622 2.55171 3.01036C2.52187 3.33679 2.50632 3.67005 2.50632 4C2.50632 4.32995 2.52187 4.66342 2.55171 4.98964ZM4 0.404767C4.34549 0.404767 4.79378 1.19565 4.98964 2.55171C4.66342 2.52187 4.32995 2.50632 4 2.50632C3.67005 2.50632 3.33658 2.52187 3.01036 2.55171C3.20622 1.19565 3.65451 0.404767 4 0.404767ZM5.44829 4.98964C5.38155 4.99938 5.10777 5.0315 5.03855 5.03834C5.03171 5.10777 4.99938 5.38135 4.98984 5.44808C4.79399 6.80414 4.3457 7.59503 4.00021 7.59503C3.65472 7.59503 3.20642 6.80414 3.01057 5.44808C3.00104 5.38135 2.96871 5.10756 2.96187 5.03834C2.93036 4.71689 2.9113 4.37161 2.9113 4C2.9113 3.62839 2.93036 3.28311 2.96187 2.96145C3.28332 2.92995 3.6286 2.91088 4.00021 2.91088C4.37181 2.91088 4.7171 2.92995 5.03855 2.96145C5.10798 2.96829 5.38155 3.00062 5.44829 3.01016C6.80435 3.20601 7.59544 3.65451 7.59544 3.99979C7.59544 4.34508 6.80435 4.79378 5.44829 4.98964Z" fill="white"/>
</svg>
